# Made by RuneLite Model-Dumper Plugin
mtllib bronze-scimitar.mtl
o Item Bronze scimitar 2026-09-24_13-22-44
v -1 8 -21
v 3 8 -24
v 3 0 -24
v -1 0 -21
v 14 8 -16
v 13 8 -21
v 13 0 -21
v 14 0 -16
v 11 2 -17
v -8 2 6
v 3 2 -20
v 3 6 -20
v -8 6 6
v 11 6 -17
v 5 6 14
v 5 2 14
v -10 2 29
v -20 2 22
v -20 6 22
v -10 6 29
v -3 4 33
v -19 4 53
v -22 2 34
v -28 4 29
v -22 6 34
v 11 2 -29
v 11 0 -43
v 11 8 -43
v 11 6 -29
v 10 2 -22
v 6 2 -29
v 5 0 -37
v 5 8 -37
v 6 6 -29
v 5 6 -23
v 10 6 -22
v 5 2 -23
usemtl c0
f 1 2 3
usemtl c1
f 1 3 4
usemtl c2
f 1 4 5
usemtl c3
f 1 5 2
usemtl c4
f 2 5 6
usemtl c5
f 2 6 7
usemtl c6
f 2 7 3
usemtl c7
f 3 7 4
usemtl c8
f 4 7 8
usemtl c9
f 4 8 5
usemtl c10
f 5 8 6
usemtl c11
f 6 8 7
usemtl c12
f 9 10 11
usemtl c13
f 11 10 12
usemtl c14
f 12 10 13
usemtl c15
f 12 13 14
usemtl c16
f 14 13 15
usemtl c17
f 14 15 9
usemtl c18
f 9 15 16
usemtl c19
f 9 16 10
usemtl c20
f 10 16 17
usemtl c21
f 10 17 18
usemtl c22
f 10 18 13
usemtl c23
f 13 18 19
usemtl c24
f 13 19 20
usemtl c25
f 13 20 15
usemtl c26
f 15 20 21
usemtl c27
f 15 21 16
usemtl c28
f 16 21 17
usemtl c21
f 17 21 22
usemtl c29
f 17 22 23
usemtl c30
f 17 23 18
usemtl c31
f 18 23 24
usemtl c14
f 18 24 19
usemtl c32
f 19 24 25
usemtl c33
f 19 25 20
usemtl c34
f 20 25 22
usemtl c35
f 20 22 21
usemtl c36
f 24 23 25
usemtl c37
f 25 23 22
usemtl c38
f 26 27 28
usemtl c39
f 26 28 29
usemtl c40
f 26 29 30
usemtl c41
f 26 30 31
usemtl c42
f 26 31 32
usemtl c43
f 26 32 27
usemtl c44
f 27 32 33
usemtl c45
f 27 33 28
usemtl c46
f 28 33 34
usemtl c47
f 28 34 29
usemtl c48
f 29 34 35
usemtl c49
f 29 35 36
usemtl c50
f 29 36 30
usemtl c51
f 32 31 34
usemtl c52
f 32 34 33
usemtl c53
f 31 37 35
usemtl c54
f 31 35 34
usemtl c55
f 30 37 31
