# Made by RuneLite Model-Dumper Plugin
mtllib wizard-robe.mtl
o Item Blue wizard robe 2026-09-24_17-59-59
v -18 1 -3
v -20 0 11
v -33 0 11
v -30 2 -4
v -17 3 -22
v -18 8 -3
v -20 8 11
v -22 -1 35
v -38 -1 35
v -38 9 33
v -33 8 11
v -30 6 -4
v -27 6 -18
v -27 3 -18
v -17 6 -22
v -22 9 33
v -26 5 31
v -26 3 31
v -33 3 31
v -33 5 31
v 26 5 31
v 33 5 31
v 38 9 33
v 22 9 33
v 26 3 31
v 22 -1 35
v 33 3 31
v 38 -1 35
v 33 0 11
v 33 8 11
v 20 8 11
v 20 0 11
v 18 1 -3
v 30 2 -4
v 30 6 -4
v 18 8 -3
v 27 3 -18
v 17 3 -22
v 17 6 -22
v 27 6 -18
v 16 0 -17
v 7 3 -24
v 13 10 -17
v -13 10 -17
v -7 3 -24
v -16 0 -17
v -11 -1 27
v -15 1 25
v -17 4 24
v -15 7 25
v -11 10 27
v 0 10 -17
v -7 8 -23
v 7 8 -23
v 11 10 27
v 15 7 25
v 17 4 24
v 15 1 25
v 11 -1 27
v 0 0 -17
usemtl c0
f 1 2 3
usemtl c1
f 1 3 4
usemtl c2
f 1 4 5
f 1 5 6
usemtl c3
f 1 6 7
usemtl c4
f 1 7 2
usemtl c5
f 2 7 8
usemtl c6
f 2 8 3
usemtl c7
f 3 8 9
usemtl c8
f 3 9 10
usemtl c9
f 3 10 11
f 3 11 12
usemtl c10
f 3 12 4
f 4 12 13
usemtl c11
f 4 13 14
usemtl c12
f 4 14 5
usemtl c13
f 5 14 15
usemtl c12
f 5 15 6
usemtl c11
f 6 15 13
usemtl c10
f 6 13 12
usemtl c14
f 6 12 7
usemtl c15
f 7 12 11
f 7 11 10
f 7 10 16
usemtl c16
f 7 16 8
usemtl c17
f 8 16 17
usemtl c18
f 8 17 18
usemtl c19
f 8 18 9
usemtl c20
f 9 18 19
usemtl c21
f 9 19 10
usemtl c22
f 10 19 20
usemtl c23
f 10 20 16
usemtl c24
f 16 20 17
usemtl c25
f 15 14 13
usemtl c26
f 21 22 23
usemtl c27
f 21 23 24
usemtl c23
f 21 24 25
usemtl c28
f 25 24 26
usemtl c20
f 25 26 27
usemtl c29
f 27 26 28
usemtl c30
f 27 28 22
usemtl c31
f 22 28 23
usemtl c32
f 23 28 29
usemtl c33
f 23 29 30
usemtl c34
f 23 30 31
usemtl c35
f 23 31 24
usemtl c21
f 24 31 26
usemtl c36
f 26 31 32
usemtl c37
f 26 32 29
usemtl c38
f 26 29 28
usemtl c39
f 29 32 33
usemtl c40
f 29 33 34
usemtl c41
f 29 34 35
usemtl c42
f 29 35 30
usemtl c12
f 30 35 31
usemtl c43
f 31 35 36
usemtl c34
f 31 36 33
usemtl c44
f 31 33 32
usemtl c45
f 37 38 39
usemtl c46
f 37 39 40
usemtl c47
f 37 40 34
usemtl c48
f 37 34 38
usemtl c49
f 38 34 33
usemtl c50
f 38 33 36
usemtl c51
f 38 36 39
f 38 39 36
usemtl c50
f 38 36 33
usemtl c52
f 38 33 41
usemtl c53
f 38 41 42
f 38 42 39
usemtl c54
f 39 42 43
usemtl c55
f 39 43 36
usemtl c56
f 39 36 40
usemtl c57
f 40 36 35
usemtl c41
f 40 35 34
usemtl c58
f 15 5 1
usemtl c59
f 15 1 6
f 15 6 44
usemtl c60
f 15 44 45
usemtl c50
f 15 45 5
f 5 45 46
usemtl c58
f 5 46 1
usemtl c61
f 1 46 47
usemtl c62
f 1 47 48
usemtl c63
f 1 48 49
usemtl c28
f 1 49 6
usemtl c64
f 6 49 50
usemtl c65
f 6 50 51
usemtl c66
f 6 51 44
usemtl c67
f 44 51 52
usemtl c68
f 44 52 53
usemtl c60
f 44 53 45
usemtl c13
f 54 53 52
usemtl c69
f 54 52 43
usemtl c70
f 54 43 42
usemtl c66
f 51 55 52
usemtl c68
f 52 55 43
usemtl c12
f 43 55 36
usemtl c43
f 36 55 56
usemtl c71
f 36 56 57
usemtl c50
f 36 57 33
usemtl c72
f 33 57 58
usemtl c73
f 33 58 59
usemtl c69
f 33 59 41
usemtl c74
f 41 59 60
usemtl c54
f 41 60 42
usemtl c70
f 42 60 45
usemtl c75
f 45 60 46
usemtl c76
f 46 60 47
usemtl c77
f 47 60 59
usemtl c78
f 47 59 55
f 47 55 51
f 47 51 50
f 47 50 48
f 48 50 49
f 58 56 55
f 58 55 59
f 56 58 57
