# Made by RuneLite Model-Dumper Plugin
mtllib black-dhide-chaps.mtl
o Item Black d'hide chaps 2026-09-24_17-11-26
v 16 6 -4
v 3 4 -7
v 2 4 -11
v 16 5 -15
v 16 7 -15
v 16 8 -4
v 15 9 3
v 15 7 3
v 15 8 7
v 15 5 7
v 15 9 15
v 15 12 7
v 16 12 -4
v 16 14 -4
v 15 14 3
v 15 12 3
v 15 13 7
v 15 9 7
v 15 13 15
v 15 17 7
v 15 19 3
v 15 17 3
v 16 18 -4
v 16 20 -4
v 16 21 -15
v 2 22 -11
v 3 22 -7
v 16 12 -23
v 16 14 -23
v 16 14 -15
v 16 12 -15
v 16 19 -15
v 16 20 -23
v 16 22 -23
v 16 21 -29
v 16 23 -29
v 16 25 -25
v 16 26 -31
v 16 4 -23
v 16 6 -23
v 15 17 15
v 15 18 7
v 15 21 7
v 15 14 7
v 16 9 -25
v 16 9 -31
v 16 12 -29
v 16 14 -29
v 16 17 -25
v 16 17 -31
v 16 18 -31
v 16 1 -25
v 16 0 -31
v 16 3 -29
v 16 5 -29
v 16 8 -31
v 12 21 -45
v 12 5 -41
v 12 5 -45
v -14 5 -45
v -14 21 -45
v -14 21 -41
v 12 21 -41
v 14 0 -28
v 16 22 -28
v 14 22 8
v 14 6 11
v 16 22 21
v 16 4 23
v 11 17 51
v 11 7 50
v -14 5 -41
v -1 22 -28
v 2 22 8
v 0 22 21
v 5 17 51
v 5 7 50
v 0 4 23
v 2 6 11
v -1 4 -23
v -4 22 8
v -4 6 11
v -2 22 21
v -2 4 23
v -7 17 51
v -7 7 50
v -18 22 21
v -13 17 51
v -13 7 50
v -18 4 23
v -16 22 8
v -16 6 11
v -18 21 -28
v -18 4 -23
v -16 0 -28
v 4 22 -27
v 8 22 -15
v 12 22 -27
v 9 21 -34
v 7 21 -34
v 11 22 -21
v 14 22 -14
v 16 22 -21
v 15 22 -26
v 13 22 -26
v 0 22 -21
v 2 22 -14
v 5 22 -21
v 3 22 -26
v 1 22 -26
v -16 11 10
v -16 18 9
v -16 15 1
v -16 13 1
v -14 22 -2
v -10 22 8
v -6 22 -2
v -9 22 -9
v -11 22 -9
v -9 22 -13
v -6 22 -8
v -4 22 -13
v -6 22 -17
v -8 22 -17
v -16 22 -13
v -14 22 -8
v -11 22 -13
v -12 22 -17
v -14 22 -17
v -18 22 -21
v -16 22 -14
v -13 22 -21
v -15 22 -26
v -17 22 -26
v -7 22 -21
v -4 22 -14
v -2 22 -21
v -3 22 -26
v -5 22 -26
v -14 22 -27
v -10 22 -15
v -6 22 -27
v -9 21 -34
v -11 21 -34
v -17 14 -2
v -16 17 3
v -17 19 -2
v -17 17 -6
v -17 15 -6
v -17 7 -2
v -16 9 3
v -17 12 -2
v -17 11 -6
v -17 9 -6
v -17 5 -10
v -17 7 -3
v -17 10 -10
v -17 8 -15
v -17 6 -15
v -17 16 -10
v -17 19 -3
v -17 21 -10
v -17 20 -15
v -17 18 -15
v -17 9 -16
v -17 13 -4
v -17 17 -16
v -18 14 -23
v -18 12 -23
v 4 22 -2
v 8 22 8
v 12 22 -2
v 9 22 14
v 7 22 14
v 4 22 21
v 12 22 21
v 8 20 33
v 9 20 35
v 11 19 40
v 13 20 35
v 12 20 31
v 10 20 31
v 3 20 35
v 5 19 40
v 7 20 35
v 6 20 31
v 4 20 31
v -9 20 35
v -7 19 40
v -5 20 35
v -6 20 31
v -8 20 31
v -16 10 32
v -14 14 44
v -16 18 32
v -17 15 25
v -17 13 25
v -14 22 21
v -10 20 33
v -6 22 21
v -9 22 14
v -11 22 14
v -15 20 35
v -13 19 40
v -11 20 35
v -12 20 31
v -14 20 31
v 16 19 21
v 15 18 27
v 16 15 22
v 15 16 18
v 15 18 18
v 16 13 22
v 16 8 22
v 15 10 18
v 15 12 18
v 15 10 27
v -18 15 22
v -17 18 27
v -18 19 21
v -17 18 18
v -17 16 18
v -17 17 14
v -18 20 21
v -17 22 14
v -16 21 9
v -16 19 9
v -18 14 20
v -17 12 18
v -17 10 18
v -18 8 22
v -18 13 22
v -17 10 27
v 14 18 32
v 12 14 44
v 14 10 32
v 15 13 25
v 15 15 25
usemtl c0
f 1 2 3
usemtl c1
f 1 3 4
usemtl c2
f 1 4 5
f 1 5 6
usemtl c3
f 1 6 7
f 1 7 8
usemtl c4
f 8 7 9
usemtl c5
f 8 9 10
usemtl c6
f 10 9 11
f 11 9 12
usemtl c7
f 12 9 7
usemtl c8
f 13 14 15
f 13 15 16
usemtl c4
f 16 15 17
usemtl c5
f 16 17 18
usemtl c6
f 18 17 19
f 19 17 20
usemtl c7
f 20 17 15
usemtl c8
f 21 22 23
usemtl c9
f 21 23 24
usemtl c10
f 24 23 25
usemtl c11
f 24 25 26
usemtl c12
f 24 26 27
usemtl c8
f 28 29 30
f 28 30 31
usemtl c2
f 31 30 13
f 31 13 6
f 31 6 5
usemtl c8
f 25 32 33
f 25 33 34
f 34 33 35
f 34 35 36
usemtl c13
f 34 36 37
f 37 36 38
usemtl c8
f 39 40 5
usemtl c3
f 39 5 4
usemtl c6
f 41 42 43
usemtl c7
f 43 42 21
usemtl c4
f 21 42 22
usemtl c5
f 22 42 44
usemtl c6
f 44 42 41
usemtl c13
f 28 45 46
f 28 46 47
usemtl c8
f 28 47 29
f 29 47 48
usemtl c13
f 29 48 49
f 49 48 50
f 33 49 51
f 33 51 35
f 39 52 53
f 39 53 54
usemtl c8
f 39 54 40
f 40 54 55
usemtl c13
f 40 55 45
f 45 55 56
usemtl c2
f 32 23 14
f 32 14 30
f 30 14 13
f 25 23 32
usemtl c14
f 57 58 59
f 57 59 60
usemtl c15
f 57 60 61
usemtl c16
f 57 61 62
usemtl c15
f 57 62 63
usemtl c14
f 57 63 58
usemtl c6
f 58 63 64
f 64 63 65
f 64 65 39
f 39 65 66
f 39 66 67
f 67 66 68
f 67 68 69
f 69 68 70
f 69 70 71
usemtl c15
f 72 60 59
f 72 59 58
usemtl c17
f 72 62 61
usemtl c16
f 72 61 60
usemtl c6
f 66 65 73
usemtl c5
f 66 73 74
f 66 74 68
usemtl c18
f 68 74 75
usemtl c5
f 68 75 70
usemtl c18
f 70 75 76
usemtl c19
f 76 75 77
f 77 75 78
usemtl c7
f 78 75 74
f 78 74 79
usemtl c18
f 79 74 73
usemtl c5
f 79 73 80
usemtl c6
f 80 73 81
f 80 81 82
f 82 81 83
f 82 83 84
f 84 83 85
f 84 85 86
usemtl c5
f 85 83 87
usemtl c18
f 85 87 88
usemtl c19
f 88 87 89
f 89 87 90
usemtl c7
f 90 87 91
f 90 91 92
f 92 91 93
f 92 93 94
f 94 93 95
usemtl c18
f 95 93 62
usemtl c5
f 95 62 72
usemtl c6
f 73 65 63
f 73 63 62
usemtl c5
f 73 62 93
f 73 93 81
usemtl c18
f 81 93 91
usemtl c5
f 81 91 83
usemtl c18
f 83 91 87
usemtl c20
f 96 97 98
usemtl c21
f 96 98 99
f 96 99 100
usemtl c22
f 101 102 103
f 101 103 104
f 101 104 105
f 106 107 108
f 106 108 109
f 106 109 110
usemtl c23
f 111 112 113
f 111 113 114
usemtl c22
f 115 116 117
f 115 117 118
f 115 118 119
f 120 121 122
f 120 122 123
f 120 123 124
f 125 126 127
f 125 127 128
f 125 128 129
f 130 131 132
f 130 132 133
f 130 133 134
f 135 136 137
f 135 137 138
f 135 138 139
usemtl c20
f 140 141 142
usemtl c21
f 140 142 143
f 140 143 144
usemtl c24
f 145 146 147
usemtl c25
f 145 147 148
usemtl c26
f 145 148 149
usemtl c24
f 150 151 152
usemtl c25
f 150 152 153
usemtl c26
f 150 153 154
usemtl c27
f 155 156 157
f 155 157 158
f 155 158 159
f 160 161 162
f 160 162 163
f 160 163 164
usemtl c25
f 165 166 167
usemtl c28
f 165 167 168
f 165 168 169
usemtl c22
f 170 171 172
f 173 174 175
usemtl c29
f 173 175 176
f 176 175 177
usemtl c30
f 178 179 180
usemtl c29
f 178 180 181
f 178 181 182
usemtl c30
f 183 184 185
usemtl c29
f 183 185 186
f 183 186 187
usemtl c30
f 188 189 190
usemtl c29
f 188 190 191
f 188 191 192
usemtl c28
f 193 194 195
f 193 195 196
f 193 196 197
usemtl c29
f 198 199 200
f 198 200 201
usemtl c22
f 198 201 202
usemtl c30
f 203 204 205
usemtl c29
f 203 205 206
f 203 206 207
usemtl c6
f 208 209 210
f 208 210 211
f 208 211 212
f 213 214 215
f 213 215 216
f 213 217 214
usemtl c27
f 218 219 220
usemtl c31
f 218 220 221
usemtl c32
f 218 221 222
usemtl c33
f 223 224 225
f 223 225 226
f 223 226 227
usemtl c31
f 111 228 112
usemtl c32
f 229 230 231
usemtl c33
f 229 231 232
usemtl c26
f 232 231 233
usemtl c6
f 234 235 236
f 234 236 237
f 234 237 238
