# Made by RuneLite Model-Dumper Plugin
mtllib dragon-arrows.mtl
o Item Dragon arrow 2026-09-24_17-15-07
v 0 0 -44
v -2 1 -44
v -2 1 30
v 0 0 30
v 2 0 45
v 4 0 36
v -4 0 -44
v -4 0 30
v -6 0 45
v -2 4 41
v -2 0 47
v -24 0 -31
v -27 1 -31
v -27 1 43
v -24 0 43
v -23 0 58
v -21 -1 49
v -30 0 -31
v -30 0 43
v -31 0 58
v -27 4 54
v -27 0 60
v -11 0 -34
v -14 1 -34
v -14 1 40
v -11 0 40
v -10 0 55
v -8 0 46
v -17 0 -34
v -17 0 40
v -18 0 55
v -14 4 51
v -14 0 57
v 11 0 -28
v 8 1 -28
v 8 1 46
v 11 0 46
v 12 0 61
v 14 0 52
v 5 0 -28
v 5 0 46
v 4 0 61
v 8 4 57
v 8 0 63
v 23 0 -39
v 20 1 -39
v 20 1 35
v 23 0 35
v 24 0 50
v 26 0 41
v 17 0 -39
v 17 0 35
v 16 0 50
v 20 4 46
v 20 0 52
v -20 0 46
v -33 0 49
v 2 0 52
v 14 -1 41
v -8 0 36
v -30 0 -58
v -27 2 -39
v -26 0 -48
v -25 1 -40
v -25 0 -40
v -23 0 -39
v -23 1 -39
v -22 0 -35
v -27 4 -35
v -27 2 -32
v -32 0 -38
v -27 4 -36
v -31 1 -39
v -31 0 -39
v -30 1 -48
v -31 0 -33
v -29 1 -39
v -29 1 -48
v -11 0 -64
v -14 3 -44
v -13 0 -54
v -11 1 -45
v -11 0 -45
v -10 0 -44
v -10 1 -44
v -8 0 -39
v -14 4 -39
v -14 3 -36
v -20 0 -42
v -14 4 -41
v -18 1 -44
v -18 0 -44
v -17 1 -54
v -17 0 -54
v -18 0 -38
v -15 1 -55
v 0 0 -67
v -2 2 -51
v -1 0 -54
v 0 1 -52
v 0 0 -52
v 2 0 -51
v 2 1 -51
v 3 0 -48
v -2 4 -48
v -2 2 -45
v -7 0 -50
v -2 4 -49
v -6 1 -51
v -6 0 -51
v -6 1 -55
v -6 0 -55
v -6 0 -46
v -4 1 -51
v -4 1 -55
v 10 0 -52
v 8 2 -35
v 9 0 -38
v 10 1 -36
v 10 0 -36
v 12 0 -35
v 12 1 -35
v 13 0 -31
v 8 3 -31
v 8 2 -29
v 4 0 -34
v 8 3 -33
v 5 1 -35
v 5 0 -35
v 6 1 -43
v 6 0 -43
v 4 0 -30
v 7 1 -35
v 8 1 -43
v 20 0 -59
v 20 2 -47
v 21 0 -55
v 22 1 -47
v 22 0 -47
v 25 0 -43
v 20 3 -43
v 20 2 -41
v 16 0 -46
v 20 3 -45
v 17 1 -47
v 17 0 -47
v 18 1 -55
v 18 0 -55
v 16 0 -42
v 18 1 -47
v 19 1 -55
usemtl c0
f 1 2 3
usemtl c1
f 1 3 4
usemtl c2
f 4 3 5
usemtl c3
f 4 5 6
usemtl c4
f 2 7 8
usemtl c5
f 2 8 3
usemtl c6
f 3 8 9
usemtl c7
f 3 9 10
usemtl c8
f 3 10 5
usemtl c9
f 5 10 11
usemtl c10
f 11 10 9
usemtl c11
f 12 13 14
usemtl c1
f 12 14 15
usemtl c2
f 15 14 16
usemtl c12
f 15 16 17
usemtl c13
f 13 18 19
usemtl c14
f 13 19 14
usemtl c15
f 14 19 20
usemtl c16
f 14 20 21
usemtl c17
f 14 21 16
usemtl c18
f 16 21 22
usemtl c19
f 22 21 20
usemtl c11
f 23 24 25
usemtl c1
f 23 25 26
usemtl c20
f 26 25 27
usemtl c21
f 26 27 28
usemtl c22
f 24 29 30
usemtl c23
f 24 30 25
usemtl c15
f 25 30 31
usemtl c16
f 25 31 32
usemtl c8
f 25 32 27
usemtl c9
f 27 32 33
usemtl c19
f 33 32 31
usemtl c11
f 34 35 36
usemtl c1
f 34 36 37
usemtl c20
f 37 36 38
usemtl c21
f 37 38 39
usemtl c13
f 35 40 41
usemtl c14
f 35 41 36
usemtl c15
f 36 41 42
usemtl c16
f 36 42 43
usemtl c8
f 36 43 38
usemtl c9
f 38 43 44
usemtl c19
f 44 43 42
usemtl c11
f 45 46 47
usemtl c1
f 45 47 48
usemtl c20
f 48 47 49
usemtl c21
f 48 49 50
usemtl c13
f 46 51 52
usemtl c14
f 46 52 47
usemtl c24
f 47 52 53
usemtl c25
f 47 53 54
usemtl c8
f 47 54 49
usemtl c9
f 49 54 55
usemtl c26
f 55 54 53
usemtl c27
f 30 56 31
f 19 57 20
f 41 58 42
usemtl c28
f 52 59 53
usemtl c29
f 8 60 9
usemtl c30
f 61 62 63
usemtl c31
f 63 62 64
usemtl c32
f 63 64 65
usemtl c33
f 65 64 66
usemtl c34
f 66 64 67
usemtl c35
f 66 67 68
usemtl c36
f 68 67 69
usemtl c37
f 68 69 70
usemtl c38
f 68 70 13
usemtl c39
f 68 13 12
usemtl c40
f 71 69 72
usemtl c41
f 71 72 73
usemtl c42
f 71 73 74
usemtl c43
f 74 73 75
usemtl c44
f 74 75 61
usemtl c42
f 61 75 73
usemtl c45
f 61 73 62
usemtl c46
f 62 73 72
usemtl c47
f 62 72 67
usemtl c35
f 62 67 64
usemtl c48
f 69 71 76
usemtl c49
f 69 76 70
usemtl c50
f 70 76 13
usemtl c51
f 13 76 18
usemtl c52
f 73 77 78
usemtl c53
f 73 78 75
usemtl c54
f 75 78 61
usemtl c55
f 72 69 67
usemtl c47
f 79 80 81
usemtl c56
f 81 80 82
usemtl c57
f 81 82 83
usemtl c33
f 83 82 84
usemtl c58
f 84 82 85
usemtl c59
f 84 85 86
usemtl c60
f 86 85 87
usemtl c61
f 86 87 88
usemtl c62
f 86 88 24
usemtl c63
f 86 24 23
usemtl c64
f 89 87 90
usemtl c65
f 89 90 91
usemtl c66
f 89 91 92
usemtl c67
f 92 91 93
usemtl c68
f 92 93 94
usemtl c69
f 94 93 79
usemtl c70
f 79 93 91
usemtl c41
f 79 91 80
usemtl c71
f 80 91 90
usemtl c72
f 80 90 85
usemtl c73
f 80 85 82
usemtl c74
f 87 89 95
f 87 95 88
usemtl c75
f 88 95 24
f 24 95 29
usemtl c76
f 90 87 85
usemtl c77
f 91 96 93
usemtl c78
f 93 96 79
usemtl c79
f 97 98 99
usemtl c80
f 99 98 100
usemtl c33
f 99 100 101
f 101 100 102
usemtl c57
f 102 100 103
usemtl c81
f 102 103 104
usemtl c82
f 104 103 105
usemtl c45
f 104 105 106
usemtl c38
f 104 106 2
usemtl c83
f 104 2 1
usemtl c84
f 107 105 108
usemtl c85
f 107 108 109
usemtl c86
f 107 109 110
usemtl c87
f 110 109 111
usemtl c88
f 110 111 112
usemtl c89
f 112 111 97
usemtl c70
f 97 111 109
usemtl c90
f 97 109 98
usemtl c91
f 98 109 108
usemtl c92
f 98 108 103
usemtl c93
f 98 103 100
usemtl c94
f 105 107 113
usemtl c95
f 105 113 106
usemtl c96
f 106 113 2
usemtl c97
f 2 113 7
usemtl c98
f 109 114 115
usemtl c99
f 109 115 111
usemtl c100
f 111 115 97
usemtl c101
f 108 105 103
usemtl c102
f 116 117 118
usemtl c81
f 118 117 119
usemtl c58
f 118 119 120
usemtl c33
f 120 119 121
usemtl c103
f 121 119 122
usemtl c104
f 121 122 123
usemtl c105
f 123 122 124
usemtl c106
f 123 124 125
usemtl c38
f 123 125 35
usemtl c107
f 123 35 34
usemtl c108
f 126 124 127
usemtl c109
f 126 127 128
usemtl c66
f 126 128 129
usemtl c110
f 129 128 130
usemtl c111
f 129 130 131
usemtl c112
f 131 130 116
usemtl c113
f 116 130 128
usemtl c114
f 116 128 117
usemtl c115
f 117 128 127
usemtl c116
f 117 127 122
usemtl c117
f 117 122 119
usemtl c118
f 124 126 132
usemtl c119
f 124 132 125
usemtl c51
f 125 132 35
usemtl c120
f 35 132 40
usemtl c121
f 128 133 134
usemtl c122
f 128 134 130
usemtl c78
f 130 134 116
usemtl c123
f 127 124 122
usemtl c124
f 135 136 137
usemtl c31
f 137 136 138
usemtl c125
f 137 138 139
usemtl c73
f 139 138 140
usemtl c126
f 140 138 141
usemtl c127
f 140 141 142
usemtl c62
f 140 142 46
usemtl c63
f 140 46 45
usemtl c128
f 143 141 144
usemtl c129
f 143 144 145
usemtl c42
f 143 145 146
usemtl c130
f 146 145 147
usemtl c131
f 146 147 148
usemtl c132
f 148 147 135
usemtl c121
f 135 147 145
usemtl c133
f 135 145 136
usemtl c134
f 136 145 144
usemtl c102
f 136 144 138
usemtl c135
f 138 144 141
usemtl c136
f 141 143 149
usemtl c137
f 141 149 142
usemtl c138
f 142 149 46
f 46 149 51
usemtl c139
f 145 150 151
usemtl c140
f 145 151 147
usemtl c141
f 147 151 135
