# Made by RuneLite Model-Dumper Plugin
mtllib essence.mtl
o Object Rocks 2026-09-12_21-01-08
v 58 36 -25
v 66 36 26
v 73 0 24
v 63 0 -30
v 25 31 -51
v -5 70 -28
v 33 70 -6
v 38 70 21
v 25 0 62
v 6 70 43
v -8 70 39
v -11 0 50
v -27 80 23
v -53 0 57
v -48 80 22
v -82 0 24
v -46 87 -1
v -68 0 -16
v -54 76 -10
v -26 0 -24
v -35 80 -12
v -2 0 -51
v 32 0 -57
v 24 0 62
v 2 70 9
v -35 87 -3
v -3 70 29
v -63 0 -55
v -89 0 -60
v -90 5 -53
v -70 5 -47
v -73 5 -33
v -62 0 -30
v -93 0 -12
v -92 5 -21
v -116 5 -36
v -126 0 -33
v -112 5 -51
v -118 0 -58
v -101 17 -39
v 85 17 -27
v 82 5 -18
v 89 5 -19
v 93 5 -25
v 92 5 -30
v 85 5 -33
v 76 5 -27
v 75 0 -27
v 81 0 -17
v 92 0 -16
v 95 0 -23
v 98 0 -30
v 85 0 -38
v 118 0 17
v 98 0 22
v 97 7 25
v 113 7 24
v 116 7 37
v 121 0 37
v 100 0 59
v 100 7 54
v 77 7 51
v 71 0 55
v 80 7 33
v 75 0 32
v 91 31 41
v -101 31 35
v -117 16 39
v -117 16 51
v -103 16 51
v -89 16 44
v -90 16 34
v -108 16 24
v -109 0 16
v -125 0 37
v -120 0 58
v -103 0 58
v -86 0 50
v -85 0 30
v -58 119 15
v -43 113 4
v -49 108 2
v -61 115 13
v -70 118 23
v -57 115 18
v -43 108 10
v -40 113 8
v -37 115 3
v -41 115 -2
v -46 113 0
v -44 101 -2
v -47 99 0
v -51 104 3
v -45 104 11
v -38 101 6
v -35 106 3
v -33 110 0
v -37 110 -5
v -40 106 -5
v -37 106 -1
v -32 85 -5
v -35 83 -6
v -41 99 8
v -79 57 33
v -81 57 29
v -83 59 31
v -80 59 34
v -83 50 37
v -87 50 32
v -88 53 33
v -85 53 38
v -32 83 -1
v 60 29 -31
v 55 27 -28
v 38 79 -15
v 44 82 -18
v 62 30 -27
v 62 18 -32
v 54 31 -43
v 52 30 -42
v 59 -4 -50
v 63 -2 -52
v 63 -7 -35
v 66 -5 -37
v 74 -7 -22
v 77 -6 -23
v 67 28 -14
v 68 28 -14
v 56 28 -25
v 47 82 -11
v 41 79 -8
v 36 93 -5
v 34 94 -11
v 39 97 -14
v 29 102 -13
v 37 100 2
v 43 103 -1
v 35 105 -15
v 25 109 -11
v 20 117 -15
v 25 103 -19
v 41 99 9
v 33 108 4
v 39 111 1
v 41 117 9
v 46 102 6
v 43 96 -8
v 32 106 -23
v 33 112 -14
v 34 114 12
v 26 121 -18
usemtl c0
f 1 2 3
usemtl c1
f 1 3 4
usemtl c2
f 1 4 5
usemtl c3
f 1 5 6
usemtl c4
f 1 6 7
usemtl c5
f 1 7 8
usemtl c6
f 1 8 2
usemtl c7
f 2 8 9
usemtl c8
f 9 8 10
usemtl c9
f 9 10 11
usemtl c10
f 9 11 12
usemtl c11
f 12 11 13
usemtl c12
f 12 13 14
usemtl c13
f 14 13 15
usemtl c14
f 14 15 16
usemtl c15
f 16 15 17
usemtl c16
f 16 17 18
usemtl c17
f 18 17 19
usemtl c18
f 18 19 20
usemtl c19
f 20 19 21
usemtl c20
f 20 21 6
usemtl c21
f 20 6 22
usemtl c22
f 22 6 5
usemtl c23
f 22 5 23
usemtl c2
f 23 5 4
usemtl c24
f 24 3 2
usemtl c25
f 25 6 21
usemtl c26
f 25 21 26
usemtl c27
f 25 26 27
usemtl c28
f 25 27 8
usemtl c29
f 25 8 7
usemtl c26
f 25 7 6
usemtl c30
f 27 26 13
usemtl c31
f 27 13 11
usemtl c32
f 27 11 10
usemtl c33
f 27 10 8
usemtl c34
f 13 26 17
usemtl c35
f 13 17 15
usemtl c36
f 26 21 19
usemtl c37
f 26 19 17
usemtl c38
f 28 29 30
usemtl c39
f 28 30 31
usemtl c40
f 28 31 32
usemtl c41
f 28 32 33
usemtl c7
f 33 32 34
usemtl c32
f 34 32 35
usemtl c42
f 34 35 36
usemtl c43
f 34 36 37
usemtl c44
f 37 36 38
usemtl c45
f 37 38 39
usemtl c27
f 39 38 30
usemtl c36
f 39 30 29
usemtl c46
f 40 32 31
usemtl c47
f 40 31 30
usemtl c48
f 40 30 38
usemtl c49
f 40 38 36
usemtl c50
f 40 36 35
usemtl c51
f 40 35 32
usemtl c52
f 41 42 43
usemtl c53
f 41 43 44
usemtl c54
f 41 44 45
usemtl c55
f 41 45 46
usemtl c56
f 41 46 47
usemtl c57
f 41 47 42
usemtl c58
f 42 47 48
usemtl c59
f 42 48 49
usemtl c60
f 42 49 50
usemtl c61
f 42 50 43
usemtl c62
f 43 50 44
usemtl c63
f 44 50 51
usemtl c64
f 44 51 52
usemtl c65
f 44 52 45
usemtl c66
f 45 52 53
usemtl c67
f 45 53 46
usemtl c53
f 46 53 48
usemtl c68
f 46 48 47
usemtl c0
f 54 55 56
usemtl c69
f 54 56 57
usemtl c70
f 54 57 58
usemtl c71
f 54 58 59
usemtl c53
f 59 58 60
usemtl c72
f 60 58 61
usemtl c73
f 60 61 62
usemtl c74
f 60 62 63
usemtl c75
f 63 62 64
usemtl c76
f 63 64 65
usemtl c28
f 65 64 56
usemtl c77
f 65 56 55
usemtl c25
f 66 58 57
usemtl c78
f 66 57 56
usemtl c79
f 66 56 64
usemtl c32
f 66 64 62
usemtl c80
f 66 62 61
usemtl c81
f 66 61 58
usemtl c82
f 67 68 69
usemtl c83
f 67 69 70
usemtl c33
f 67 70 71
usemtl c77
f 67 71 72
f 67 72 73
usemtl c84
f 67 73 68
usemtl c85
f 68 73 74
usemtl c86
f 68 74 75
usemtl c87
f 68 75 76
usemtl c88
f 68 76 69
usemtl c89
f 69 76 70
usemtl c90
f 70 76 77
usemtl c31
f 70 77 78
usemtl c30
f 70 78 71
usemtl c78
f 71 78 79
usemtl c3
f 71 79 72
usemtl c91
f 72 79 74
usemtl c92
f 72 74 73
usemtl c93
f 80 81 82
usemtl c94
f 80 82 83
usemtl c95
f 80 83 84
usemtl c96
f 80 84 85
usemtl c97
f 80 85 86
usemtl c98
f 80 86 81
usemtl c99
f 81 86 87
usemtl c100
f 81 87 88
usemtl c101
f 81 88 89
usemtl c102
f 81 89 90
usemtl c34
f 81 90 82
usemtl c103
f 82 90 91
usemtl c104
f 82 91 92
usemtl c105
f 82 92 93
usemtl c106
f 82 93 86
usemtl c68
f 82 86 85
usemtl c107
f 82 85 83
usemtl c108
f 83 85 84
usemtl c109
f 86 93 94
usemtl c110
f 86 94 95
usemtl c111
f 86 95 96
usemtl c33
f 86 96 87
usemtl c112
f 87 96 97
usemtl c113
f 87 97 88
usemtl c114
f 88 97 89
usemtl c115
f 89 97 98
usemtl c116
f 89 98 99
usemtl c117
f 89 99 90
usemtl c104
f 90 99 91
usemtl c3
f 91 99 100
usemtl c66
f 91 100 101
usemtl c118
f 91 101 102
usemtl c119
f 91 102 95
usemtl c120
f 91 95 103
usemtl c64
f 91 103 92
usemtl c121
f 92 103 104
usemtl c122
f 92 104 105
usemtl c123
f 92 105 93
usemtl c124
f 93 105 106
usemtl c125
f 93 106 94
usemtl c126
f 94 106 107
usemtl c127
f 94 107 103
usemtl c30
f 94 103 95
usemtl c55
f 95 100 96
usemtl c128
f 96 100 97
usemtl c129
f 97 100 98
usemtl c130
f 98 100 99
usemtl c131
f 107 104 103
usemtl c132
f 104 107 106
usemtl c133
f 104 106 105
usemtl c117
f 104 105 107
usemtl c123
f 104 107 108
usemtl c134
f 104 108 105
usemtl c135
f 105 108 109
usemtl c136
f 105 109 110
usemtl c137
f 105 110 106
usemtl c138
f 105 106 107
usemtl c139
f 107 106 111
usemtl c140
f 107 111 108
usemtl c100
f 108 111 109
usemtl c141
f 109 111 110
usemtl c142
f 110 111 106
usemtl c4
f 101 100 95
usemtl c143
f 101 95 112
usemtl c144
f 112 95 102
usemtl c145
f 113 114 115
usemtl c24
f 113 115 116
usemtl c65
f 113 116 117
usemtl c146
f 113 117 118
usemtl c147
f 113 118 119
usemtl c148
f 113 119 114
usemtl c7
f 114 119 120
usemtl c149
f 120 119 121
usemtl c150
f 121 119 122
usemtl c151
f 121 122 123
usemtl c152
f 123 122 124
usemtl c153
f 123 124 125
usemtl c4
f 125 124 126
usemtl c154
f 125 126 127
f 127 126 128
usemtl c85
f 127 128 117
usemtl c155
f 127 117 129
usemtl c85
f 129 117 130
usemtl c110
f 129 130 131
usemtl c9
f 129 131 114
usemtl c156
f 114 131 115
usemtl c157
f 115 131 132
usemtl c158
f 115 132 133
usemtl c159
f 115 133 116
usemtl c160
f 116 133 134
usemtl c161
f 116 134 130
usemtl c22
f 116 130 117
usemtl c162
f 117 128 118
usemtl c4
f 118 128 126
usemtl c3
f 118 126 124
usemtl c163
f 118 124 122
usemtl c69
f 118 122 119
usemtl c164
f 135 136 137
usemtl c165
f 135 137 138
usemtl c166
f 135 138 139
usemtl c167
f 135 139 140
usemtl c157
f 135 140 141
usemtl c158
f 135 141 133
usemtl c168
f 135 133 132
usemtl c167
f 135 132 136
usemtl c169
f 136 132 142
usemtl c170
f 136 142 143
usemtl c171
f 136 143 144
usemtl c172
f 136 144 137
usemtl c173
f 137 144 145
usemtl c174
f 137 145 146
usemtl c175
f 137 146 147
usemtl c161
f 137 147 134
usemtl c176
f 137 134 138
usemtl c177
f 138 134 148
usemtl c178
f 138 148 149
usemtl c179
f 138 149 139
usemtl c180
f 139 149 143
usemtl c181
f 139 143 140
usemtl c157
f 140 143 150
usemtl c182
f 140 150 145
usemtl c183
f 140 145 151
usemtl c184
f 140 151 141
usemtl c185
f 141 151 148
usemtl c186
f 141 148 133
usemtl c187
f 133 148 134
usemtl c188
f 149 144 143
usemtl c177
f 144 149 145
usemtl c189
f 145 149 151
usemtl c161
f 151 149 148
usemtl c190
f 146 145 150
usemtl c191
f 146 150 142
usemtl c186
f 146 142 147
usemtl c192
f 147 142 132
usemtl c166
f 147 132 131
usemtl c193
f 147 131 130
usemtl c178
f 147 130 134
usemtl c194
f 142 150 143
