# Made by RuneLite Model-Dumper Plugin
mtllib clay-rocks.mtl
o Object Clay rocks 2026-10-06_18-25-47
v -22 48 6
v -34 48 18
v -40 24 48
v 8 24 0
v -34 48 0
v -38 48 6
v -56 24 0
v -63 0 -5
v -42 0 58
v 20 0 -5
v -40 24 -24
v -42 0 -36
v 16 24 -24
v -24 24 -40
v -41 0 -37
v 16 0 -14
v 48 24 -40
v 16 36 -40
v -32 24 -56
v -53 0 -59
v 40 24 -56
v 50 0 -59
v 62 0 -37
v 21 84 33
v 15 84 27
v 0 12 32
v 16 12 48
v 27 84 33
v 27 84 15
v 32 12 0
v 36 0 -12
v -12 0 36
v 12 0 60
v 32 12 48
v 33 84 21
v 48 12 16
v 60 0 12
v 36 0 60
v 41 3 45
v -44 0 45
v -44 0 -45
v 41 3 -45
usemtl c0
f 1 2 3
usemtl c1
f 1 3 4
usemtl c2
f 1 4 5
usemtl c3
f 1 5 6
usemtl c4
f 1 6 2
usemtl c5
f 2 6 7
usemtl c6
f 2 7 3
usemtl c7
f 3 7 8
usemtl c8
f 3 8 9
usemtl c9
f 3 9 4
usemtl c10
f 4 9 10
usemtl c11
f 4 10 11
usemtl c12
f 4 11 5
usemtl c13
f 5 11 6
usemtl c14
f 6 11 7
usemtl c15
f 7 11 12
usemtl c16
f 7 12 8
usemtl c17
f 13 14 15
usemtl c18
f 13 15 16
usemtl c19
f 13 16 17
usemtl c20
f 13 17 18
usemtl c21
f 13 18 14
usemtl c22
f 14 18 19
usemtl c23
f 14 19 20
usemtl c24
f 14 20 15
usemtl c25
f 19 21 22
usemtl c26
f 19 22 20
usemtl c27
f 21 17 23
usemtl c28
f 21 23 22
usemtl c29
f 17 16 23
usemtl c30
f 18 21 19
usemtl c31
f 21 18 17
usemtl c12
f 11 10 12
usemtl c8
f 24 25 26
usemtl c32
f 24 26 27
usemtl c33
f 24 27 28
usemtl c34
f 24 28 25
usemtl c35
f 25 28 29
usemtl c36
f 25 29 30
usemtl c37
f 25 30 26
usemtl c3
f 26 30 31
usemtl c0
f 26 31 32
usemtl c33
f 26 32 27
usemtl c38
f 27 32 33
usemtl c39
f 27 33 34
usemtl c40
f 27 34 28
usemtl c41
f 28 34 35
usemtl c36
f 28 35 29
usemtl c42
f 29 35 36
f 29 36 30
usemtl c43
f 30 36 37
usemtl c44
f 30 37 31
usemtl c45
f 35 34 36
usemtl c46
f 36 34 38
usemtl c12
f 36 38 37
usemtl c47
f 34 33 38
usemtl c48
f 39 40 41
f 39 41 42
