# Made by RuneLite Model-Dumper Plugin
mtllib dragon-crossbow.mtl
o Item Dragon crossbow 2026-09-24_13-53-26
v -14 12 14
v -16 10 14
v -14 10 16
v -13 10 14
v -14 10 13
v 0 13 -6
v 2 13 -6
v 2 13 -10
v 0 13 -10
v -2 8 -12
v -2 9 -3
v 4 9 -3
v 4 8 -12
v 4 11 -19
v -2 11 -19
v -2 2 -17
v -1 5 -7
v 0 5 -2
v -2 9 3
v 4 9 3
v 2 5 3
v 2 5 -2
v 3 5 -7
v 4 2 -17
v 7 8 -29
v 6 11 -30
v -4 11 -30
v -5 8 -29
v -5 2 -29
v -4 0 -30
v 2 -3 -3
v 0 -3 -3
v 0 5 3
v 0 6 8
v -2 11 14
v 4 11 14
v 2 6 8
v 0 -3 1
v 2 -3 1
v 7 2 -29
v 6 0 -30
v 2 6 12
v 0 6 12
v -2 7 15
v -2 10 15
v -2 11 22
v 1 15 21
v 1 15 15
v 4 11 22
v 4 10 21
v 4 10 15
v 2 7 22
v 0 7 22
v 4 7 15
v 4 7 21
v 1 9 25
v -2 7 21
v -14 7 17
v -13 7 13
v -13 10 13
v -2 10 21
v -14 10 17
v -22 7 12
v -20 7 10
v -20 10 10
v 16 10 17
v 15 10 13
v 15 7 13
v 28 9 5
v 3 10 -8
v 3 10 -7
v 26 9 5
v -1 10 -8
v -26 9 5
v -24 9 5
v -1 10 -7
v -27 9 6
v -25 9 4
v -29 9 3
v -30 9 5
v -28 8 11
v -26 7 7
v -26 9 7
v -26 10 7
v -27 10 6
v -25 10 4
v -24 7 5
v -29 7 3
v -30 7 5
v -22 10 12
v -24 10 5
v 27 9 4
v 29 9 6
v 32 9 5
v 31 9 3
v 31 7 3
v 26 7 5
v 26 10 5
v 27 10 4
v 29 10 6
v 28 9 7
v 28 7 7
v 30 8 11
v 32 7 5
v 24 7 12
v 22 7 10
v 22 10 10
v 28 10 7
v 16 7 17
v 24 10 12
v 16 12 14
v 16 10 16
v 18 10 14
v 16 10 13
v 15 10 14
usemtl c0
f 1 2 3
usemtl c1
f 1 3 4
usemtl c2
f 1 4 5
usemtl c1
f 1 5 2
usemtl c3
f 6 7 8
usemtl c4
f 6 8 9
usemtl c5
f 6 9 10
usemtl c6
f 6 10 11
usemtl c7
f 6 11 7
usemtl c8
f 7 11 12
usemtl c9
f 7 12 8
usemtl c10
f 8 12 13
usemtl c11
f 8 13 9
usemtl c12
f 9 13 10
usemtl c13
f 10 13 14
usemtl c14
f 10 14 15
usemtl c15
f 10 15 16
usemtl c16
f 10 16 17
usemtl c17
f 10 17 11
usemtl c18
f 11 17 18
usemtl c19
f 11 18 19
usemtl c20
f 11 19 12
usemtl c21
f 12 19 20
usemtl c22
f 12 20 21
usemtl c23
f 12 21 22
usemtl c24
f 12 22 13
f 13 22 23
usemtl c25
f 13 23 14
usemtl c26
f 14 23 24
usemtl c27
f 14 24 25
usemtl c23
f 14 25 26
usemtl c28
f 14 26 27
usemtl c29
f 14 27 15
usemtl c30
f 15 27 28
usemtl c31
f 15 28 29
usemtl c32
f 15 29 16
usemtl c33
f 16 29 30
usemtl c34
f 16 30 24
usemtl c35
f 16 24 23
usemtl c36
f 16 23 17
usemtl c37
f 17 23 22
usemtl c38
f 17 22 18
usemtl c39
f 18 22 31
usemtl c40
f 18 31 32
usemtl c41
f 18 32 33
usemtl c42
f 18 33 19
usemtl c19
f 19 33 34
usemtl c43
f 19 34 35
usemtl c29
f 19 35 20
usemtl c44
f 20 35 36
usemtl c45
f 20 36 37
usemtl c25
f 20 37 21
usemtl c38
f 21 37 33
usemtl c46
f 21 33 38
usemtl c47
f 21 38 39
usemtl c48
f 21 39 22
usemtl c49
f 22 39 31
usemtl c50
f 31 39 32
usemtl c51
f 32 39 38
usemtl c19
f 32 38 33
usemtl c52
f 27 26 25
usemtl c53
f 27 25 28
usemtl c54
f 28 25 40
usemtl c55
f 28 40 29
usemtl c56
f 29 40 41
usemtl c57
f 29 41 30
usemtl c58
f 30 41 24
usemtl c24
f 24 41 40
usemtl c59
f 24 40 25
usemtl c60
f 37 34 33
usemtl c61
f 34 37 42
usemtl c62
f 34 42 43
usemtl c63
f 34 43 35
usemtl c64
f 35 43 44
usemtl c65
f 35 44 45
usemtl c66
f 35 45 46
usemtl c67
f 35 46 47
usemtl c68
f 35 47 48
usemtl c69
f 35 48 36
usemtl c25
f 36 48 49
usemtl c27
f 36 49 50
usemtl c70
f 36 50 51
usemtl c71
f 36 51 42
usemtl c59
f 36 42 37
usemtl c72
f 52 53 43
usemtl c61
f 52 43 42
usemtl c52
f 52 42 54
usemtl c44
f 52 54 55
usemtl c73
f 52 55 49
usemtl c74
f 52 49 56
usemtl c75
f 52 56 53
usemtl c6
f 53 56 46
usemtl c76
f 53 46 57
usemtl c77
f 53 57 43
usemtl c78
f 43 57 44
usemtl c79
f 44 57 58
usemtl c80
f 44 58 59
usemtl c81
f 44 59 60
usemtl c82
f 44 60 45
usemtl c83
f 45 60 61
usemtl c84
f 45 61 46
usemtl c85
f 46 61 57
usemtl c86
f 57 61 58
usemtl c87
f 58 61 62
usemtl c88
f 58 62 63
usemtl c89
f 58 63 59
usemtl c90
f 59 63 64
usemtl c91
f 59 64 65
usemtl c92
f 59 65 60
usemtl c93
f 60 65 62
usemtl c94
f 60 62 61
usemtl c95
f 56 49 46
usemtl c96
f 46 49 47
usemtl c97
f 47 49 48
usemtl c98
f 49 55 50
usemtl c99
f 50 55 66
usemtl c100
f 50 66 51
usemtl c101
f 51 66 67
usemtl c102
f 51 67 68
usemtl c92
f 51 68 54
usemtl c59
f 51 54 42
usemtl c103
f 69 70 71
usemtl c104
f 69 71 72
usemtl c105
f 73 74 75
usemtl c106
f 73 75 76
usemtl c107
f 77 78 79
usemtl c108
f 77 79 80
usemtl c109
f 77 80 81
usemtl c110
f 77 81 82
usemtl c111
f 77 82 83
usemtl c112
f 77 83 84
usemtl c113
f 77 84 85
usemtl c114
f 77 85 78
usemtl c115
f 78 85 86
usemtl c116
f 78 86 75
usemtl c117
f 78 75 87
usemtl c118
f 78 87 79
usemtl c119
f 79 87 88
usemtl c99
f 79 88 80
usemtl c120
f 80 88 89
usemtl c121
f 80 89 81
usemtl c122
f 81 89 82
usemtl c123
f 82 89 87
usemtl c90
f 82 87 64
usemtl c89
f 82 64 63
usemtl c88
f 82 63 90
usemtl c111
f 82 90 83
usemtl c124
f 83 90 75
usemtl c125
f 83 75 91
usemtl c126
f 83 91 84
usemtl c127
f 84 91 86
usemtl c128
f 84 86 85
usemtl c129
f 89 88 87
usemtl c130
f 65 90 62
usemtl c131
f 62 90 63
usemtl c132
f 90 65 75
usemtl c91
f 75 65 64
usemtl c117
f 75 64 87
usemtl c102
f 86 91 75
usemtl c133
f 92 93 94
usemtl c134
f 92 94 95
usemtl c92
f 92 95 96
usemtl c90
f 92 96 97
usemtl c135
f 92 97 72
usemtl c136
f 92 72 98
usemtl c137
f 92 98 99
usemtl c134
f 92 99 93
usemtl c138
f 93 99 100
usemtl c139
f 93 100 101
usemtl c79
f 93 101 102
usemtl c140
f 93 102 103
usemtl c141
f 93 103 94
usemtl c142
f 94 103 104
usemtl c118
f 94 104 95
usemtl c143
f 95 104 96
usemtl c144
f 96 104 102
usemtl c119
f 96 102 97
usemtl c145
f 97 102 105
usemtl c146
f 97 105 106
usemtl c147
f 97 106 107
usemtl c148
f 97 107 72
usemtl c149
f 72 107 101
usemtl c150
f 72 101 108
usemtl c151
f 72 108 98
usemtl c152
f 98 108 100
usemtl c153
f 98 100 99
usemtl c154
f 68 109 55
usemtl c81
f 68 55 54
usemtl c119
f 109 68 106
usemtl c155
f 109 106 105
usemtl c156
f 109 105 110
usemtl c157
f 109 110 66
usemtl c158
f 109 66 55
usemtl c159
f 110 107 67
usemtl c125
f 110 67 66
usemtl c88
f 107 110 101
usemtl c160
f 101 110 105
usemtl c156
f 101 105 102
usemtl c161
f 67 107 106
usemtl c155
f 67 106 68
usemtl c162
f 100 108 101
usemtl c163
f 111 112 113
usemtl c164
f 111 113 114
usemtl c165
f 111 114 115
usemtl c166
f 111 115 112
usemtl c167
f 102 104 103
