# Made by RuneLite Model-Dumper Plugin
mtllib steel-2h-sword.mtl
o Item Steel 2h sword 2026-09-24_13-33-15
v -39 5 -43
v -41 5 -41
v -41 1 -41
v -39 1 -43
v -42 7 -50
v -27 5 -25
v -24 5 -28
v -24 1 -28
v -47 -1 -44
v -42 -1 -50
v -47 3 -50
v -47 7 -44
v -27 1 -25
v -19 3 -25
v -21 1 -23
v -21 3 -23
v -21 5 -23
v 49 3 39
v 36 0 33
v 41 3 48
v -25 3 -20
v 36 6 33
v 55 3 54
v -30 -1 -23
v -27 -1 -21
v -27 3 -18
v -30 3 -20
v -20 0 -32
v -17 0 -29
v -16 3 -29
v -17 8 -29
v -27 7 -21
v -30 7 -23
v -18 3 -32
v -20 8 -32
usemtl c0
f 1 2 3
usemtl c1
f 1 3 4
usemtl c2
f 1 4 5
usemtl c3
f 1 5 2
usemtl c4
f 1 2 6
usemtl c5
f 1 6 7
usemtl c6
f 1 7 4
usemtl c7
f 4 7 8
usemtl c8
f 4 8 3
usemtl c9
f 4 3 9
usemtl c10
f 4 9 10
usemtl c11
f 4 10 5
usemtl c12
f 5 10 11
usemtl c13
f 5 11 12
usemtl c4
f 5 12 2
usemtl c14
f 2 12 9
usemtl c15
f 2 9 3
usemtl c14
f 2 3 13
usemtl c16
f 2 13 6
usemtl c17
f 14 15 16
f 14 16 17
usemtl c18
f 14 17 18
usemtl c19
f 14 18 15
usemtl c20
f 15 18 19
usemtl c21
f 15 19 20
usemtl c22
f 15 20 21
usemtl c23
f 15 21 16
f 16 21 17
usemtl c24
f 17 21 20
usemtl c25
f 17 20 22
usemtl c26
f 17 22 18
usemtl c23
f 18 22 23
usemtl c27
f 18 23 19
usemtl c28
f 19 23 20
usemtl c29
f 20 23 22
usemtl c30
f 9 12 11
usemtl c31
f 9 11 10
usemtl c32
f 3 8 13
usemtl c33
f 24 25 26
usemtl c34
f 24 26 27
usemtl c35
f 24 27 28
usemtl c36
f 24 28 25
usemtl c37
f 25 28 29
usemtl c38
f 25 29 30
usemtl c36
f 25 30 26
usemtl c31
f 26 30 31
usemtl c39
f 26 31 32
usemtl c40
f 26 32 27
usemtl c41
f 27 32 33
usemtl c42
f 27 33 34
usemtl c43
f 27 34 28
usemtl c44
f 28 34 29
usemtl c45
f 29 34 30
usemtl c46
f 30 34 35
usemtl c47
f 30 35 31
usemtl c48
f 31 35 33
usemtl c49
f 31 33 32
usemtl c50
f 34 33 35
