# Made by RuneLite Model-Dumper Plugin
mtllib dragon-hatchet.mtl
o ware
v -5 3 -35
v -2 4 -50
v -8 4 -53
v -10 3 -36
v -7 4 10
v -7 0 10
v -5 1 -35
v -2 0 -50
v -8 0 -53
v -10 1 -36
v -16 0 5
v -16 3 5
v -35 2 25
v -31 3 32
v -31 0 32
v -34 -1 25
v -21 3 23
v -25 3 27
v -14 4 42
v 0 4 41
v -12 4 29
v -21 0 23
v -12 0 29
v -10 2 20
v 0 4 19
v 0 0 19
v 0 3 10
v 10 5 9
v 10 1 9
v 15 3 -1
v 17 6 15
v 17 4 0
v 17 2 15
v 19 4 17
v 11 1 32
v 13 3 35
v 0 0 41
v 0 3 44
v -14 0 42
v -14 2 46
v -25 0 27
v -26 1 29
v 11 5 32
v -33 1 15
v -33 0 15
v -35 0 17
v -35 1 17
v -32 2 21
v -29 3 18
v -29 0 18
v -32 0 21
usemtl c0
f 1 2 3
usemtl c1
f 1 3 4
usemtl c2
f 1 4 5
usemtl c3
f 1 5 6
usemtl c4
f 1 6 7
usemtl c5
f 1 7 8
usemtl c6
f 1 8 2
usemtl c7
f 2 8 3
usemtl c8
f 3 8 9
usemtl c9
f 3 9 4
usemtl c10
f 4 9 10
usemtl c11
f 4 10 11
usemtl c12
f 4 11 12
usemtl c13
f 4 12 5
usemtl c14
f 5 12 13
usemtl c15
f 5 13 14
usemtl c16
f 5 14 6
usemtl c17
f 6 14 15
usemtl c18
f 15 14 16
usemtl c19
f 16 14 13
usemtl c12
f 16 13 12
usemtl c20
f 16 12 11
usemtl c21
f 17 18 19
usemtl c22
f 17 19 19
usemtl c23
f 17 19 20
usemtl c24
f 17 20 21
usemtl c25
f 17 21 22
usemtl c26
f 22 21 23
usemtl c27
f 23 21 24
usemtl c28
f 23 24 24
usemtl c29
f 24 24 25
f 24 25 26
f 26 25 27
usemtl c30
f 26 27 27
f 27 27 28
usemtl c31
f 27 28 29
f 29 28 30
f 29 30 30
usemtl c30
f 30 30 28
usemtl c32
f 30 28 31
usemtl c33
f 30 31 32
usemtl c34
f 30 32 30
usemtl c35
f 30 32 32
usemtl c36
f 30 32 33
usemtl c37
f 33 32 34
usemtl c38
f 33 34 35
usemtl c39
f 35 34 36
usemtl c40
f 35 36 37
usemtl c41
f 37 36 38
usemtl c42
f 37 38 39
usemtl c43
f 39 38 40
usemtl c44
f 39 40 41
usemtl c45
f 41 40 42
usemtl c46
f 42 40 19
usemtl c47
f 42 19 18
usemtl c28
f 43 24 21
usemtl c48
f 43 21 20
usemtl c49
f 43 20 38
usemtl c50
f 43 38 36
usemtl c51
f 43 36 31
usemtl c52
f 43 31 25
usemtl c53
f 43 25 24
f 43 24 43
usemtl c54
f 31 27 25
usemtl c32
f 27 31 28
usemtl c31
f 31 27 31
usemtl c55
f 40 38 20
usemtl c56
f 40 20 19
usemtl c57
f 36 34 31
usemtl c58
f 31 34 32
usemtl c59
f 44 45 46
usemtl c60
f 44 46 47
usemtl c61
f 44 47 48
usemtl c62
f 44 48 49
usemtl c63
f 44 49 45
usemtl c64
f 45 49 50
usemtl c65
f 51 47 46
usemtl c66
f 47 51 48
usemtl c67
f 48 51 45
