# Made by RuneLite Model-Dumper Plugin
mtllib trapdoor.mtl
o Object Entrance 2026-09-13_18-47-52
v 33 15 11
v 45 0 1
v 39 20 6
v 29 20 14
v 31 0 13
v 38 0 15
v 41 0 4
v 25 0 18
v 24 0 26
v 28 22 23
v 25 24 40
v 17 0 50
v 15 24 50
v 15 0 45
v 5 21 45
v -5 24 45
v 5 0 45
v 0 0 50
v -10 24 50
v -15 0 50
v -15 41 32
v -32 0 32
v -32 35 15
v -35 0 7
v -51 17 -2
v -57 0 -2
v -53 0 -18
v -39 20 -17
v -48 0 -17
v -35 17 -18
v -33 12 -25
v -45 0 -21
v -45 0 -30
v -38 0 -32
v -28 17 -28
v -34 0 -38
v -29 20 -32
v -34 0 -47
v -16 25 -36
v -9 0 -40
v 0 42 -33
v 4 37 -34
v -4 0 -37
v 9 34 -39
v -1 0 -40
v 2 0 -50
v 7 0 -49
v 13 0 -54
v 14 0 -62
v 17 37 -47
v 36 29 -56
v 39 0 -61
v 53 0 -44
v 52 19 -30
v 57 0 -12
v 60 18 -3
v 55 0 1
v 47 22 8
v 37 26 5
v 30 24 3
v 23 24 10
v 22 26 17
v 19 27 30
v 11 27 38
v 3 25 34
v -3 27 34
v -7 27 38
v -11 41 24
v -25 36 11
v -35 30 -9
v -30 27 -12
v -28 27 -16
v 30 45 -31
v 23 44 -25
v 41 23 -24
v 47 23 -3
v 35 13 -6
v 28 14 -1
v 23 13 -2
v 17 13 3
v 17 14 8
v 14 14 18
v 8 14 24
v 3 14 21
v -1 14 21
v -4 14 24
v -7 18 14
v -17 16 4
v -27 32 -7
v -23 30 -10
v -22 30 -13
v -21 28 -21
v -12 28 -29
v 0 42 -27
v 3 38 -27
v 7 34 -31
v 11 38 -34
v 13 38 -38
v 44 17 38
v 34 5 47
v 42 5 51
v 50 5 48
v 53 5 41
v 47 5 32
v 34 5 32
v 33 0 31
v 33 0 48
v 43 0 59
v 51 0 51
v 59 0 45
v 51 0 25
v -50 12 32
v -58 5 34
v -52 5 37
v -45 5 35
v -43 5 30
v -47 5 24
v -58 5 24
v -59 0 23
v -59 0 35
v -51 0 42
v -44 0 37
v -38 0 33
v -44 0 19
v -50 7 -44
v -58 0 -42
v -52 0 -39
v -45 0 -41
v -43 0 -46
v -47 0 -52
v -58 0 -52
v 7 17 -29
v 17 19 -22
v 31 13 -21
v 28 5 -19
v 31 5 -6
v 22 5 -2
v 15 5 4
v 12 6 15
v 5 5 19
v -1 6 19
v -5 8 11
v -14 7 2
v -19 15 -8
v -16 15 -11
v -15 15 -13
v -14 14 -20
v -8 14 -25
v 2 18 -23
v 3 7 -21
v 7 7 -26
v 9 7 -29
v 15 9 -20
v 13 2 -18
v 24 2 -17
v 27 2 -6
v 19 2 -3
v 13 2 2
v 10 2 12
v 4 2 15
v 0 2 15
v -3 2 8
v -12 2 -3
v -16 6 -7
v -13 6 -11
v -12 5 -18
v -6 6 -23
v -4 2 -20
v 3 2 -18
v 7 2 -24
v 3 2 -6
v -10 2 -13
usemtl c0
f 1 2 3
usemtl c1
f 1 3 4
usemtl c2
f 1 4 5
usemtl c3
f 1 5 6
usemtl c4
f 1 6 7
usemtl c5
f 1 7 2
usemtl c6
f 5 4 8
usemtl c7
f 8 4 9
usemtl c8
f 9 4 10
usemtl c9
f 9 10 11
usemtl c10
f 9 11 12
usemtl c11
f 12 11 13
usemtl c12
f 12 13 14
usemtl c13
f 14 13 15
usemtl c14
f 14 15 16
usemtl c12
f 14 16 17
usemtl c15
f 17 16 18
usemtl c16
f 18 16 19
usemtl c17
f 18 19 20
usemtl c18
f 20 19 21
usemtl c19
f 20 21 22
usemtl c20
f 22 21 23
usemtl c21
f 22 23 24
usemtl c22
f 24 23 25
usemtl c23
f 24 25 26
usemtl c24
f 26 25 27
usemtl c2
f 27 25 28
usemtl c25
f 27 28 29
usemtl c26
f 29 28 30
usemtl c27
f 29 30 31
usemtl c2
f 29 31 32
usemtl c28
f 32 31 33
usemtl c29
f 33 31 34
usemtl c30
f 34 31 35
usemtl c31
f 34 35 36
usemtl c32
f 36 35 37
usemtl c33
f 36 37 38
usemtl c34
f 38 37 39
usemtl c35
f 38 39 40
usemtl c36
f 40 39 41
usemtl c37
f 40 41 42
usemtl c38
f 40 42 43
usemtl c39
f 43 42 44
usemtl c40
f 43 44 45
usemtl c41
f 45 44 46
usemtl c42
f 46 44 47
usemtl c40
f 47 44 48
usemtl c43
f 48 44 49
usemtl c44
f 49 44 50
usemtl c10
f 49 50 51
usemtl c45
f 49 51 52
usemtl c46
f 52 51 53
usemtl c47
f 53 51 54
usemtl c48
f 53 54 55
usemtl c49
f 55 54 56
usemtl c50
f 55 56 57
usemtl c51
f 57 56 58
usemtl c52
f 57 58 2
usemtl c53
f 2 58 3
usemtl c54
f 3 58 59
usemtl c0
f 3 59 60
usemtl c55
f 3 60 4
usemtl c56
f 4 60 61
usemtl c57
f 4 61 10
usemtl c58
f 10 61 62
usemtl c59
f 10 62 11
usemtl c34
f 11 62 63
usemtl c60
f 11 63 13
usemtl c61
f 13 63 64
usemtl c62
f 13 64 15
usemtl c63
f 15 64 65
usemtl c64
f 15 65 16
usemtl c11
f 16 65 66
usemtl c15
f 16 66 19
usemtl c11
f 19 66 67
usemtl c65
f 19 67 21
usemtl c66
f 21 67 68
usemtl c67
f 21 68 23
usemtl c66
f 23 68 69
usemtl c28
f 23 69 70
usemtl c68
f 23 70 25
usemtl c69
f 25 70 28
usemtl c70
f 28 70 30
usemtl c71
f 30 70 71
usemtl c72
f 30 71 72
usemtl c73
f 30 72 35
usemtl c74
f 30 35 31
usemtl c75
f 51 73 54
usemtl c76
f 54 73 74
usemtl c77
f 54 74 75
usemtl c78
f 54 75 56
usemtl c79
f 56 75 76
usemtl c30
f 56 76 58
usemtl c77
f 58 76 59
usemtl c57
f 59 76 77
usemtl c80
f 59 77 78
usemtl c81
f 59 78 60
usemtl c9
f 60 78 79
usemtl c82
f 60 79 61
usemtl c83
f 61 79 80
usemtl c84
f 61 80 62
usemtl c44
f 62 80 81
usemtl c85
f 62 81 63
usemtl c86
f 63 81 82
usemtl c87
f 63 82 64
usemtl c88
f 64 82 83
usemtl c89
f 64 83 65
usemtl c90
f 65 83 84
usemtl c91
f 65 84 66
usemtl c49
f 66 84 85
usemtl c92
f 66 85 67
usemtl c9
f 67 85 86
usemtl c93
f 67 86 68
usemtl c94
f 68 86 87
usemtl c95
f 68 87 69
usemtl c96
f 69 87 88
usemtl c95
f 69 88 89
usemtl c97
f 69 89 70
usemtl c98
f 70 89 71
usemtl c99
f 71 89 90
usemtl c100
f 71 90 72
usemtl c34
f 72 90 91
usemtl c66
f 72 91 92
usemtl c31
f 72 92 35
usemtl c32
f 35 92 37
usemtl c101
f 37 92 39
usemtl c102
f 39 92 93
usemtl c30
f 39 93 41
usemtl c31
f 41 93 94
usemtl c43
f 41 94 42
usemtl c103
f 42 94 95
usemtl c104
f 42 95 44
usemtl c105
f 44 95 96
usemtl c3
f 44 96 97
f 44 97 50
usemtl c106
f 50 97 98
usemtl c76
f 50 98 73
usemtl c107
f 50 73 51
usemtl c108
f 99 100 101
usemtl c3
f 99 101 102
usemtl c109
f 99 102 103
usemtl c110
f 99 103 104
usemtl c111
f 99 104 105
usemtl c112
f 99 105 100
usemtl c0
f 100 105 106
usemtl c113
f 100 106 107
usemtl c114
f 100 107 108
usemtl c62
f 100 108 101
usemtl c33
f 101 108 102
usemtl c115
f 102 108 109
usemtl c116
f 102 109 110
usemtl c70
f 102 110 103
usemtl c117
f 103 110 111
usemtl c90
f 103 111 104
usemtl c35
f 104 111 106
usemtl c87
f 104 106 105
usemtl c118
f 112 113 114
usemtl c119
f 112 114 115
usemtl c120
f 112 115 116
usemtl c121
f 112 116 117
usemtl c109
f 112 117 118
usemtl c0
f 112 118 113
f 113 118 119
usemtl c122
f 113 119 120
usemtl c123
f 113 120 121
usemtl c124
f 113 121 114
usemtl c17
f 114 121 115
usemtl c0
f 115 121 122
usemtl c51
f 115 122 123
usemtl c125
f 115 123 116
usemtl c126
f 116 123 124
usemtl c38
f 116 124 117
usemtl c127
f 117 124 119
usemtl c109
f 117 119 118
usemtl c128
f 125 126 127
usemtl c106
f 125 127 128
usemtl c129
f 125 128 129
usemtl c35
f 125 129 130
usemtl c130
f 125 130 131
usemtl c101
f 125 131 126
usemtl c131
f 73 98 74
usemtl c132
f 74 98 132
usemtl c5
f 74 132 133
usemtl c133
f 74 133 75
usemtl c79
f 75 133 134
usemtl c41
f 75 134 76
f 76 134 77
usemtl c107
f 77 134 135
usemtl c36
f 77 135 136
usemtl c134
f 77 136 78
usemtl c135
f 78 136 137
usemtl c136
f 78 137 79
usemtl c93
f 79 137 80
usemtl c8
f 80 137 138
usemtl c137
f 80 138 81
f 81 138 82
usemtl c81
f 82 138 139
usemtl c134
f 82 139 83
usemtl c138
f 83 139 140
usemtl c139
f 83 140 84
usemtl c140
f 84 140 85
usemtl c141
f 85 140 141
f 85 141 86
usemtl c142
f 86 141 87
usemtl c143
f 87 141 142
usemtl c144
f 87 142 88
f 88 142 143
usemtl c145
f 88 143 144
usemtl c95
f 88 144 89
usemtl c134
f 89 144 90
usemtl c92
f 90 144 145
usemtl c81
f 90 145 91
usemtl c91
f 91 145 146
usemtl c92
f 91 146 92
usemtl c146
f 92 146 147
usemtl c147
f 92 147 93
usemtl c27
f 93 147 148
usemtl c148
f 93 148 94
f 94 148 149
usemtl c149
f 94 149 95
usemtl c42
f 95 149 96
usemtl c109
f 96 149 132
usemtl c125
f 96 132 97
usemtl c150
f 97 132 98
usemtl c137
f 149 150 132
usemtl c151
f 132 150 151
usemtl c75
f 132 151 152
usemtl c88
f 132 152 133
usemtl c152
f 133 152 153
usemtl c150
f 133 153 134
usemtl c71
f 134 153 135
usemtl c153
f 135 153 154
usemtl c154
f 135 154 155
usemtl c155
f 135 155 136
usemtl c90
f 136 155 156
usemtl c156
f 136 156 137
usemtl c47
f 137 156 157
usemtl c95
f 137 157 138
usemtl c157
f 138 157 158
usemtl c90
f 138 158 139
usemtl c38
f 139 158 159
usemtl c158
f 139 159 140
usemtl c159
f 140 159 160
usemtl c160
f 140 160 141
usemtl c139
f 141 160 161
usemtl c46
f 141 161 142
usemtl c161
f 142 161 162
usemtl c46
f 142 162 143
usemtl c145
f 143 162 163
usemtl c160
f 143 163 164
usemtl c141
f 143 164 144
usemtl c162
f 144 164 145
f 145 164 165
usemtl c136
f 145 165 146
usemtl c163
f 146 165 147
usemtl c95
f 147 165 166
usemtl c146
f 147 166 148
usemtl c110
f 148 166 167
usemtl c164
f 148 167 149
usemtl c39
f 149 167 150
usemtl c155
f 150 167 168
usemtl c93
f 150 168 169
usemtl c165
f 150 169 151
usemtl c166
f 151 169 170
usemtl c90
f 151 170 152
usemtl c146
f 152 170 153
f 153 170 154
usemtl c144
f 154 170 171
f 154 171 155
f 155 171 156
f 156 171 157
f 157 171 158
f 158 171 159
f 159 171 160
f 160 171 161
f 161 171 162
f 162 171 163
f 163 171 172
usemtl c141
f 163 172 165
usemtl c139
f 163 165 164
usemtl c165
f 167 166 172
usemtl c167
f 167 172 168
usemtl c144
f 168 172 171
f 168 171 169
f 169 171 170
usemtl c168
f 165 172 166
