# Made by RuneLite Model-Dumper Plugin
mtllib steel-crossbow.mtl
o Item Steel crossbow 2026-09-24_13-53-17
v 0 13 -6
v 2 13 -6
v 2 13 -10
v 0 13 -10
v -2 8 -12
v -2 9 -3
v 4 9 -3
v 4 8 -12
v 4 11 -19
v -2 11 -19
v -2 2 -17
v -1 5 -7
v 0 5 -2
v -2 9 3
v 4 9 3
v 2 5 3
v 2 5 -2
v 3 5 -7
v 4 2 -17
v 7 8 -29
v 6 11 -30
v -4 11 -30
v -5 8 -29
v -5 2 -29
v -4 0 -30
v 2 -3 -3
v 0 -3 -3
v 0 5 3
v 0 6 8
v -2 11 14
v 4 11 14
v 2 6 8
v 0 -3 1
v 2 -3 1
v 7 2 -29
v 6 0 -30
v 2 6 12
v 0 6 12
v -2 7 15
v -2 10 15
v -2 11 22
v 1 15 21
v 1 15 15
v 4 11 22
v 4 10 21
v 4 10 15
v 2 7 22
v 0 7 22
v 4 7 15
v 4 7 21
v 1 9 25
v -2 7 21
v -14 7 17
v -13 7 13
v -13 10 13
v -2 10 21
v -14 10 17
v -22 7 12
v -20 7 10
v -20 10 10
v 16 10 17
v 15 10 13
v 15 7 13
v 28 9 5
v 3 10 -8
v 3 10 -7
v 26 9 5
v -1 10 -8
v -26 9 5
v -24 9 5
v -1 10 -7
v -27 9 6
v -25 9 4
v -29 9 3
v -30 9 5
v -30 7 5
v -26 7 7
v -26 9 7
v -26 10 7
v -27 10 6
v -25 10 4
v -24 7 5
v -29 7 3
v -22 10 12
v -24 10 5
v 27 9 4
v 29 9 6
v 32 9 5
v 31 9 3
v 31 7 3
v 26 7 5
v 26 10 5
v 27 10 4
v 29 10 6
v 28 9 7
v 28 7 7
v 32 7 5
v 24 7 12
v 22 7 10
v 22 10 10
v 28 10 7
v 16 7 17
v 24 10 12
usemtl c0
f 1 2 3
usemtl c1
f 1 3 4
usemtl c2
f 1 4 5
usemtl c3
f 1 5 6
usemtl c4
f 1 6 2
usemtl c5
f 2 6 7
usemtl c6
f 2 7 3
usemtl c7
f 3 7 8
usemtl c8
f 3 8 4
usemtl c9
f 4 8 5
usemtl c10
f 5 8 9
usemtl c11
f 5 9 10
usemtl c12
f 5 10 11
usemtl c13
f 5 11 12
usemtl c14
f 5 12 6
usemtl c15
f 6 12 13
usemtl c16
f 6 13 14
usemtl c17
f 6 14 7
usemtl c18
f 7 14 15
usemtl c19
f 7 15 16
usemtl c20
f 7 16 17
usemtl c21
f 7 17 8
usemtl c22
f 8 17 18
usemtl c23
f 8 18 9
usemtl c24
f 9 18 19
usemtl c25
f 9 19 20
usemtl c26
f 9 20 21
usemtl c27
f 9 21 22
usemtl c28
f 9 22 10
usemtl c29
f 10 22 23
usemtl c30
f 10 23 24
usemtl c31
f 10 24 11
usemtl c32
f 11 24 25
usemtl c33
f 11 25 19
usemtl c34
f 11 19 18
usemtl c35
f 11 18 12
usemtl c36
f 12 18 17
usemtl c37
f 12 17 13
usemtl c38
f 13 17 26
usemtl c39
f 13 26 27
usemtl c40
f 13 27 28
usemtl c41
f 13 28 14
usemtl c42
f 14 28 29
usemtl c43
f 14 29 30
usemtl c44
f 14 30 15
usemtl c45
f 15 30 31
usemtl c46
f 15 31 32
usemtl c47
f 15 32 16
usemtl c9
f 16 32 28
usemtl c48
f 16 28 33
usemtl c49
f 16 33 34
usemtl c50
f 16 34 17
usemtl c51
f 17 34 26
usemtl c52
f 26 34 27
usemtl c53
f 27 34 33
usemtl c54
f 27 33 28
usemtl c7
f 22 21 20
usemtl c55
f 22 20 23
usemtl c56
f 23 20 35
usemtl c57
f 23 35 24
usemtl c20
f 24 35 36
usemtl c36
f 24 36 25
usemtl c58
f 25 36 19
usemtl c59
f 19 36 35
usemtl c60
f 19 35 20
usemtl c61
f 32 29 28
usemtl c62
f 29 32 37
usemtl c63
f 29 37 38
usemtl c64
f 29 38 30
usemtl c65
f 30 38 39
usemtl c66
f 30 39 40
usemtl c67
f 30 40 41
usemtl c68
f 30 41 42
usemtl c69
f 30 42 43
usemtl c70
f 30 43 31
usemtl c71
f 31 43 44
usemtl c72
f 31 44 45
usemtl c73
f 31 45 46
usemtl c74
f 31 46 37
usemtl c75
f 31 37 32
usemtl c76
f 47 48 38
usemtl c77
f 47 38 37
usemtl c78
f 47 37 49
usemtl c79
f 47 49 50
usemtl c80
f 47 50 44
usemtl c18
f 47 44 51
usemtl c81
f 47 51 48
usemtl c82
f 48 51 41
usemtl c83
f 48 41 52
usemtl c84
f 48 52 38
usemtl c85
f 38 52 39
usemtl c86
f 39 52 53
usemtl c87
f 39 53 54
usemtl c88
f 39 54 55
usemtl c89
f 39 55 40
usemtl c90
f 40 55 56
usemtl c91
f 40 56 41
usemtl c92
f 41 56 52
usemtl c93
f 52 56 53
usemtl c94
f 53 56 57
usemtl c95
f 53 57 58
usemtl c96
f 53 58 54
usemtl c97
f 54 58 59
usemtl c98
f 54 59 60
usemtl c99
f 54 60 55
usemtl c100
f 55 60 57
usemtl c101
f 55 57 56
usemtl c102
f 51 44 41
usemtl c103
f 41 44 42
usemtl c104
f 42 44 43
usemtl c105
f 44 50 45
usemtl c106
f 45 50 61
usemtl c107
f 45 61 46
usemtl c108
f 46 61 62
usemtl c109
f 46 62 63
usemtl c110
f 46 63 49
usemtl c111
f 46 49 37
usemtl c112
f 64 65 66
usemtl c113
f 64 66 67
usemtl c114
f 68 69 70
usemtl c115
f 68 70 71
usemtl c116
f 72 73 74
usemtl c117
f 72 74 75
usemtl c118
f 72 75 76
usemtl c119
f 72 76 77
usemtl c120
f 72 77 78
usemtl c121
f 72 78 79
usemtl c122
f 72 79 80
usemtl c123
f 72 80 73
usemtl c124
f 73 80 81
usemtl c125
f 73 81 70
usemtl c126
f 73 70 82
usemtl c127
f 73 82 74
usemtl c128
f 74 82 83
usemtl c129
f 74 83 75
usemtl c130
f 75 83 76
usemtl c87
f 76 83 82
usemtl c131
f 76 82 77
usemtl c132
f 77 82 59
usemtl c133
f 77 59 58
usemtl c134
f 77 58 84
usemtl c135
f 77 84 78
usemtl c136
f 78 84 70
usemtl c137
f 78 70 85
usemtl c138
f 78 85 79
usemtl c139
f 79 85 81
usemtl c140
f 79 81 80
usemtl c141
f 60 84 57
usemtl c94
f 57 84 58
usemtl c142
f 84 60 70
usemtl c143
f 70 60 59
usemtl c144
f 70 59 82
usemtl c145
f 81 85 70
usemtl c146
f 86 87 88
usemtl c147
f 86 88 89
usemtl c148
f 86 89 90
usemtl c149
f 86 90 91
usemtl c137
f 86 91 67
usemtl c150
f 86 67 92
usemtl c151
f 86 92 93
usemtl c152
f 86 93 87
usemtl c153
f 87 93 94
usemtl c132
f 87 94 95
usemtl c154
f 87 95 96
usemtl c155
f 87 96 88
usemtl c87
f 88 96 97
usemtl c156
f 88 97 89
usemtl c157
f 89 97 90
usemtl c88
f 90 97 96
usemtl c158
f 90 96 91
usemtl c159
f 91 96 98
usemtl c160
f 91 98 99
usemtl c161
f 91 99 100
usemtl c162
f 91 100 67
usemtl c163
f 67 100 95
usemtl c164
f 67 95 101
usemtl c165
f 67 101 92
usemtl c166
f 92 101 94
usemtl c167
f 92 94 93
usemtl c168
f 63 102 50
usemtl c169
f 63 50 49
usemtl c158
f 102 63 99
usemtl c170
f 102 99 98
usemtl c171
f 102 98 103
usemtl c162
f 102 103 61
usemtl c172
f 102 61 50
usemtl c173
f 103 100 62
usemtl c174
f 103 62 61
usemtl c175
f 100 103 95
usemtl c176
f 95 103 98
usemtl c177
f 95 98 96
usemtl c87
f 62 100 99
usemtl c178
f 62 99 63
usemtl c179
f 94 101 95
