# Made by RuneLite Model-Dumper Plugin
mtllib bronze-rocks.mtl
o Object Iron rocks 2026-09-12_20-57-30
v -53 21 10
v -40 77 -32
v -56 30 -41
v -63 6 -41
v -59 -5 21
v -38 25 -7
v -14 27 -19
v -16 31 -45
v -41 33 -57
v -44 10 -62
v -13 8 -46
v -11 3 -14
v -41 -1 0
v 32 39 -8
v 16 -6 48
v 56 -1 24
v 48 9 -56
v 24 8 -48
v 8 2 -8
v -4 36 24
v -13 33 42
v -7 -7 48
v 8 -2 18
v -22 37 15
v -22 85 24
v -31 31 51
v -36 -11 62
v -40 33 33
v -51 -7 33
v -22 -1 4
v 0 56 -48
v 0 3 -16
v 24 10 -64
v -16 10 -64
v 45 10 -41
v 45 -4 44
v -45 -8 44
v -45 10 -41
usemtl c0
f 1 2 3
usemtl c1
f 1 3 4
usemtl c2
f 1 4 5
usemtl c3
f 1 5 6
usemtl c4
f 1 6 2
usemtl c5
f 2 6 7
usemtl c6
f 2 7 8
usemtl c7
f 2 8 9
usemtl c5
f 2 9 3
usemtl c8
f 3 9 10
usemtl c4
f 3 10 4
usemtl c9
f 11 10 9
usemtl c10
f 11 9 8
usemtl c11
f 11 8 12
usemtl c12
f 12 8 7
usemtl c13
f 12 7 13
usemtl c14
f 13 7 6
usemtl c15
f 13 6 5
usemtl c4
f 14 15 16
usemtl c16
f 14 16 17
usemtl c17
f 14 17 18
usemtl c3
f 14 18 19
usemtl c2
f 14 19 15
usemtl c18
f 20 21 22
usemtl c12
f 20 22 23
usemtl c19
f 20 23 24
usemtl c20
f 20 24 25
usemtl c16
f 20 25 21
usemtl c21
f 21 25 26
usemtl c22
f 21 26 27
usemtl c23
f 21 27 22
usemtl c24
f 26 28 29
usemtl c25
f 26 29 27
usemtl c8
f 28 24 30
usemtl c21
f 28 30 29
usemtl c26
f 24 23 30
usemtl c27
f 26 25 28
usemtl c5
f 28 25 24
f 31 32 33
usemtl c17
f 31 33 34
usemtl c4
f 31 34 32
usemtl c28
f 35 36 37
f 35 37 38
