# Made by RuneLite Model-Dumper Plugin
mtllib strength-potion.mtl
o Item Strength potion(4) 2026-09-24_21-31-12
v -3 24 -1
v -3 24 1
v -3 28 1
v -3 28 -1
v -1 24 -3
v -1 24 -5
v -5 24 -1
v -5 24 1
v -1 24 3
v -1 28 3
v 1 28 3
v 3 28 1
v 3 28 -1
v 1 28 -3
v -1 28 -3
v 1 24 -3
v 1 24 -5
v 1 21 -5
v -1 21 -5
v -5 21 -1
v -5 21 1
v -1 24 5
v 1 24 5
v 1 24 3
v 3 24 1
v 3 24 -1
v -4 17 -1
v -4 17 1
v -3 21 1
v -3 21 -1
v -1 17 -4
v -3 3 -10
v -10 3 -3
v -10 3 3
v -1 17 4
v -1 21 3
v 1 17 4
v 1 21 3
v 4 17 1
v 3 21 1
v 4 17 -1
v 3 21 -1
v 1 17 -4
v 1 21 -3
v -1 21 -3
v -1 21 5
v 1 21 5
v 5 24 1
v 5 24 -1
v 5 21 1
v 5 21 -1
v -3 3 10
v 3 3 10
v 10 3 3
v 10 3 -3
v 3 3 -10
v 1 0 -9
v -1 0 -9
v -8 0 -1
v -8 0 1
v -1 0 9
v 1 0 9
v 8 0 1
v 8 0 -1
usemtl c0
f 1 2 3
usemtl c1
f 1 3 4
usemtl c2
f 1 4 5
usemtl c3
f 1 5 6
usemtl c4
f 1 6 7
usemtl c5
f 1 7 8
usemtl c6
f 1 8 2
usemtl c7
f 2 8 9
usemtl c8
f 2 9 10
usemtl c9
f 2 10 3
usemtl c10
f 3 10 4
usemtl c11
f 4 10 11
usemtl c12
f 4 11 12
usemtl c13
f 4 12 13
usemtl c14
f 4 13 14
usemtl c15
f 4 14 15
usemtl c16
f 4 15 5
usemtl c17
f 5 15 16
usemtl c18
f 5 16 6
usemtl c19
f 6 16 17
usemtl c20
f 6 17 18
usemtl c21
f 6 18 19
usemtl c22
f 6 19 7
usemtl c23
f 7 19 20
usemtl c24
f 7 20 8
usemtl c25
f 8 20 21
usemtl c26
f 8 21 22
usemtl c27
f 8 22 9
usemtl c28
f 9 22 23
usemtl c29
f 9 23 24
usemtl c30
f 9 24 11
usemtl c31
f 9 11 10
usemtl c32
f 24 25 12
usemtl c33
f 24 12 11
usemtl c34
f 25 26 13
usemtl c35
f 25 13 12
usemtl c36
f 26 16 14
usemtl c37
f 26 14 13
usemtl c38
f 16 15 14
usemtl c39
f 27 28 29
usemtl c40
f 27 29 30
usemtl c41
f 27 30 31
usemtl c42
f 27 31 32
usemtl c43
f 27 32 33
usemtl c44
f 27 33 28
usemtl c45
f 28 33 34
usemtl c46
f 28 34 35
usemtl c47
f 28 35 36
usemtl c48
f 28 36 29
usemtl c49
f 35 37 38
usemtl c50
f 35 38 36
usemtl c51
f 37 39 40
usemtl c52
f 37 40 38
usemtl c53
f 39 41 42
usemtl c54
f 39 42 40
usemtl c55
f 41 43 44
f 41 44 42
usemtl c56
f 43 31 45
usemtl c57
f 43 45 44
usemtl c58
f 31 30 45
usemtl c59
f 21 46 22
usemtl c60
f 22 46 23
usemtl c7
f 23 46 47
usemtl c61
f 23 47 48
usemtl c62
f 23 48 24
usemtl c63
f 24 48 25
usemtl c64
f 25 48 49
usemtl c65
f 25 49 26
usemtl c66
f 26 49 17
usemtl c67
f 26 17 16
usemtl c68
f 47 50 48
usemtl c69
f 48 50 49
usemtl c70
f 49 50 51
usemtl c71
f 49 51 17
usemtl c72
f 17 51 18
usemtl c73
f 34 52 35
usemtl c74
f 35 52 37
usemtl c75
f 37 52 53
usemtl c76
f 37 53 39
usemtl c77
f 39 53 54
usemtl c78
f 39 54 41
usemtl c79
f 41 54 55
usemtl c80
f 41 55 43
f 43 55 56
usemtl c81
f 43 56 31
usemtl c78
f 31 56 32
usemtl c79
f 32 56 57
usemtl c78
f 32 57 58
usemtl c82
f 32 58 33
usemtl c83
f 33 58 59
usemtl c84
f 33 59 34
usemtl c85
f 34 59 60
usemtl c86
f 34 60 52
usemtl c87
f 52 60 61
usemtl c88
f 52 61 53
usemtl c89
f 53 61 62
usemtl c90
f 53 62 54
usemtl c91
f 54 62 63
usemtl c92
f 54 63 55
usemtl c93
f 55 63 64
usemtl c80
f 55 64 56
f 56 64 57
