# Made by RuneLite Model-Dumper Plugin
mtllib table.mtl
o Object Large table 2026-09-12_20-24-38
v -108 41 34
v -114 88 46
v -110 88 35
v -97 39 36
v -100 0 38
v -110 0 35
v -110 41 44
v -104 88 48
v -100 39 47
v -100 88 38
v -114 0 46
v -104 0 48
v 93 39 38
v 103 88 47
v 98 88 38
v 103 39 33
v 106 0 34
v 98 0 38
v 100 41 47
v 112 88 42
v 108 41 41
v 106 88 34
v 103 0 47
v 112 0 42
v 109 0 -33
v 107 0 -43
v 107 39 -47
v 111 39 -36
v 100 0 -30
v 102 41 -33
v 96 0 -41
v 98 41 -43
v 96 88 -41
v 107 88 -43
v 109 88 -33
v 100 88 -30
v -98 39 -34
v -102 88 -41
v -100 88 -31
v -108 41 -32
v -110 0 -28
v -100 0 -31
v -100 39 -45
v -112 88 -40
v -111 41 -42
v -110 88 -28
v -102 0 -41
v -112 0 -40
v -73 96 36
v -120 96 36
v -118 96 61
v -45 96 62
v 72 96 38
v 72 88 38
v -73 88 36
v -122 88 36
v -118 88 61
v -46 88 63
v 82 96 64
v 123 96 35
v 125 88 35
v 119 96 59
v 122 88 61
v 125 96 -14
v 67 96 -14
v 72 96 9
v 123 96 8
v 125 88 7
v 126 88 -14
v 67 88 -14
v -75 96 -14
v -72 96 8
v -72 88 8
v 72 88 9
v -119 96 -14
v -122 96 8
v -122 88 7
v -92 96 -37
v -123 96 -15
v -72 96 -17
v 67 96 -41
v 67 88 -41
v -92 88 -37
v -123 96 -36
v -125 88 -36
v -124 88 -16
v -72 88 -17
v 70 96 -15
v 124 96 -37
v 125 88 -36
v 123 96 -16
v 125 88 -17
v 119 96 -61
v 72 96 -63
v 69 96 -42
v 124 88 -40
v 119 88 -62
v 70 88 -64
v -82 96 -61
v -92 96 -40
v -92 88 -40
v 69 88 -43
v -120 96 -60
v -123 96 -37
v -125 88 -38
v -83 88 -63
v -122 88 -60
v -75 88 -14
v -120 88 -14
v 80 88 62
v 70 88 -15
v 125 96 10
v 67 96 10
v 72 96 34
v 123 96 33
v 125 88 32
v 126 88 10
v 67 88 10
v -75 96 10
v -72 96 33
v -72 88 33
v 72 88 34
v -119 96 10
v -122 96 33
v -122 88 32
v -75 88 10
v -120 88 10
usemtl c0
f 1 2 3
usemtl c1
f 1 3 4
usemtl c2
f 1 4 5
usemtl c3
f 1 5 6
usemtl c4
f 1 6 7
usemtl c5
f 1 7 2
usemtl c6
f 2 7 8
usemtl c7
f 8 7 9
usemtl c8
f 8 9 10
usemtl c9
f 10 9 4
usemtl c10
f 10 4 3
usemtl c11
f 6 11 7
usemtl c12
f 7 11 9
usemtl c13
f 9 11 12
usemtl c14
f 9 12 4
usemtl c15
f 4 12 5
usemtl c16
f 13 14 15
usemtl c17
f 13 15 16
usemtl c18
f 13 16 17
usemtl c19
f 13 17 18
usemtl c20
f 13 18 19
usemtl c21
f 13 19 14
usemtl c22
f 14 19 20
usemtl c23
f 20 19 21
usemtl c24
f 20 21 22
usemtl c25
f 22 21 16
usemtl c26
f 22 16 15
usemtl c27
f 18 23 19
usemtl c28
f 19 23 21
usemtl c29
f 21 23 24
usemtl c30
f 21 24 16
usemtl c31
f 16 24 17
usemtl c25
f 25 26 27
usemtl c32
f 25 27 28
usemtl c33
f 25 28 29
usemtl c34
f 29 28 30
usemtl c35
f 29 30 31
usemtl c36
f 31 30 32
usemtl c37
f 31 32 26
usemtl c3
f 26 32 27
usemtl c38
f 27 32 33
usemtl c39
f 27 33 34
usemtl c40
f 27 34 28
usemtl c9
f 28 34 35
usemtl c41
f 28 35 30
usemtl c42
f 30 35 36
usemtl c43
f 30 36 32
usemtl c44
f 32 36 33
usemtl c45
f 37 38 39
usemtl c46
f 37 39 40
usemtl c22
f 37 40 41
usemtl c47
f 37 41 42
usemtl c48
f 37 42 43
usemtl c49
f 37 43 38
usemtl c50
f 38 43 44
usemtl c51
f 44 43 45
usemtl c52
f 44 45 46
usemtl c53
f 46 45 40
usemtl c42
f 46 40 39
usemtl c25
f 42 47 43
usemtl c54
f 43 47 45
usemtl c55
f 45 47 48
usemtl c56
f 45 48 40
usemtl c57
f 40 48 41
usemtl c58
f 49 50 51
usemtl c59
f 49 51 52
usemtl c60
f 49 52 53
usemtl c24
f 49 53 54
usemtl c61
f 49 54 55
usemtl c62
f 49 55 50
usemtl c63
f 50 55 56
usemtl c64
f 50 56 51
usemtl c65
f 51 56 57
usemtl c66
f 51 57 52
usemtl c67
f 52 57 58
usemtl c11
f 52 58 59
usemtl c68
f 52 59 53
usemtl c69
f 53 59 60
usemtl c24
f 53 60 61
usemtl c70
f 53 61 54
usemtl c71
f 60 59 62
usemtl c33
f 60 62 63
usemtl c72
f 60 63 61
usemtl c73
f 64 65 66
usemtl c74
f 64 66 67
usemtl c75
f 64 67 68
usemtl c76
f 64 68 69
usemtl c77
f 64 69 65
usemtl c61
f 65 69 70
usemtl c78
f 65 70 71
usemtl c69
f 65 71 72
usemtl c79
f 65 72 66
usemtl c80
f 66 72 73
usemtl c81
f 66 73 74
usemtl c82
f 66 74 67
usemtl c83
f 67 74 68
usemtl c84
f 71 75 76
usemtl c68
f 71 76 72
usemtl c11
f 72 76 77
usemtl c81
f 72 77 73
usemtl c85
f 78 79 80
usemtl c73
f 78 80 81
usemtl c24
f 78 81 82
usemtl c70
f 78 82 83
usemtl c86
f 78 83 84
usemtl c87
f 78 84 79
usemtl c88
f 79 84 85
usemtl c89
f 79 85 86
usemtl c90
f 79 86 80
usemtl c81
f 80 86 87
usemtl c11
f 80 87 88
usemtl c68
f 80 88 81
usemtl c84
f 81 88 89
usemtl c62
f 81 89 90
usemtl c61
f 81 90 82
usemtl c91
f 89 88 91
usemtl c92
f 89 91 92
usemtl c93
f 89 92 90
usemtl c73
f 93 94 95
usemtl c94
f 93 95 89
usemtl c95
f 93 89 96
usemtl c96
f 93 96 97
usemtl c97
f 93 97 94
usemtl c70
f 94 97 98
usemtl c48
f 94 98 99
usemtl c23
f 94 99 100
usemtl c68
f 94 100 95
usemtl c27
f 95 100 101
usemtl c98
f 95 101 102
usemtl c99
f 95 102 89
usemtl c100
f 89 102 96
usemtl c101
f 99 103 104
usemtl c13
f 99 104 100
usemtl c102
f 100 104 105
usemtl c57
f 100 105 101
usemtl c70
f 106 99 98
usemtl c86
f 99 106 103
usemtl c103
f 103 106 107
usemtl c104
f 103 107 104
usemtl c105
f 104 107 105
usemtl c61
f 70 108 71
usemtl c106
f 71 108 75
usemtl c103
f 75 108 109
usemtl c107
f 75 109 76
usemtl c108
f 76 109 77
usemtl c109
f 62 59 110
usemtl c110
f 62 110 63
usemtl c111
f 59 58 110
usemtl c112
f 84 83 85
usemtl c113
f 88 87 111
usemtl c114
f 88 111 91
usemtl c52
f 91 111 92
usemtl c73
f 112 113 114
usemtl c74
f 112 114 115
usemtl c75
f 112 115 116
usemtl c76
f 112 116 117
usemtl c77
f 112 117 113
usemtl c61
f 113 117 118
usemtl c78
f 113 118 119
usemtl c69
f 113 119 120
usemtl c79
f 113 120 114
usemtl c80
f 114 120 121
usemtl c81
f 114 121 122
usemtl c82
f 114 122 115
usemtl c83
f 115 122 116
usemtl c101
f 119 123 124
usemtl c85
f 119 124 120
usemtl c11
f 120 124 125
usemtl c81
f 120 125 121
usemtl c61
f 118 126 119
usemtl c106
f 119 126 123
usemtl c103
f 123 126 127
usemtl c115
f 123 127 124
usemtl c116
f 124 127 125
