# Made by RuneLite Model-Dumper Plugin
mtllib salmon.mtl
o Item Raw salmon 2026-09-20_21-14-35
v -48 -3 5
v -29 -5 10
v -36 -3 16
v -50 0 5
v -36 -3 -6
v -36 -5 -2
v -39 -5 1
v -25 -7 5
v -22 -5 10
v -25 -5 13
v -12 -5 16
v -8 -3 18
v -8 0 18
v -36 0 16
v -48 3 5
v -36 0 -6
v -7 -1 -9
v -8 -7 -4
v -34 -5 0
v 32 -3 5
v 39 0 11
v 21 -1 10
v 21 -5 5
v 21 -1 -1
v 49 0 -9
v 32 0 5
v 32 3 5
v 21 1 10
v -8 -7 13
v -8 -9 5
v 9 -2 -4
v 10 0 -4
v 9 2 -4
v 21 1 -1
v -12 -17 25
v 14 0 -18
v -7 1 -9
v 21 5 5
v -8 7 13
v -8 3 18
v -8 0 -9
v -36 3 -6
v -8 7 -4
v -8 9 5
v -25 7 5
v -22 5 10
v -12 5 16
v -36 3 16
v -29 5 10
v -34 5 0
v -39 5 1
v -36 5 -2
v -25 5 13
v -12 17 25
usemtl c0
f 1 2 3
usemtl c1
f 1 3 4
usemtl c2
f 1 4 5
usemtl c3
f 1 5 6
usemtl c4
f 1 6 7
usemtl c5
f 1 7 8
usemtl c6
f 1 8 2
usemtl c7
f 2 8 9
usemtl c8
f 2 9 10
usemtl c9
f 2 10 3
usemtl c10
f 3 10 11
usemtl c11
f 3 11 12
usemtl c12
f 3 12 13
usemtl c13
f 3 13 14
usemtl c14
f 3 14 4
usemtl c15
f 4 14 15
usemtl c16
f 4 15 16
usemtl c17
f 4 16 5
usemtl c18
f 5 16 17
usemtl c19
f 5 17 18
usemtl c20
f 5 18 8
usemtl c21
f 5 8 19
usemtl c22
f 5 19 6
usemtl c23
f 6 19 7
usemtl c24
f 7 19 8
usemtl c25
f 20 21 22
usemtl c26
f 20 22 23
usemtl c27
f 20 23 24
usemtl c28
f 20 24 25
usemtl c29
f 20 25 26
usemtl c30
f 20 26 21
usemtl c31
f 21 26 27
usemtl c32
f 21 27 28
usemtl c33
f 21 28 22
usemtl c34
f 22 28 12
usemtl c35
f 22 12 23
usemtl c36
f 23 12 29
usemtl c37
f 23 29 30
usemtl c38
f 23 30 18
usemtl c39
f 23 18 17
usemtl c40
f 23 17 31
usemtl c41
f 23 31 24
usemtl c42
f 24 31 32
usemtl c43
f 24 32 33
usemtl c44
f 24 33 34
usemtl c45
f 24 34 25
usemtl c46
f 25 34 27
usemtl c47
f 25 27 26
usemtl c48
f 8 18 30
usemtl c49
f 8 30 29
usemtl c50
f 8 29 9
usemtl c51
f 9 29 11
usemtl c52
f 9 11 35
usemtl c53
f 9 35 10
usemtl c54
f 10 35 11
usemtl c55
f 17 36 31
usemtl c56
f 31 36 32
usemtl c57
f 32 36 33
usemtl c58
f 33 36 37
usemtl c59
f 33 37 38
usemtl c60
f 33 38 34
usemtl c61
f 34 38 27
usemtl c62
f 27 38 28
usemtl c63
f 28 38 39
usemtl c64
f 28 39 40
usemtl c65
f 28 40 13
usemtl c66
f 28 13 12
usemtl c67
f 17 16 41
usemtl c57
f 17 41 36
usemtl c68
f 36 41 37
usemtl c69
f 37 41 42
usemtl c70
f 37 42 43
usemtl c71
f 37 43 38
usemtl c72
f 38 43 44
usemtl c73
f 38 44 39
usemtl c74
f 39 44 45
usemtl c75
f 39 45 46
usemtl c76
f 39 46 47
usemtl c77
f 39 47 40
usemtl c78
f 40 47 48
usemtl c79
f 40 48 14
usemtl c80
f 40 14 13
usemtl c81
f 11 29 12
usemtl c82
f 15 48 49
usemtl c83
f 15 49 45
usemtl c84
f 15 45 50
usemtl c85
f 15 50 51
usemtl c86
f 15 51 42
usemtl c87
f 15 42 16
usemtl c69
f 16 42 41
usemtl c88
f 45 44 43
usemtl c89
f 45 43 42
usemtl c90
f 45 42 52
usemtl c91
f 45 52 50
usemtl c92
f 50 52 51
usemtl c93
f 51 52 42
usemtl c94
f 45 49 46
usemtl c95
f 46 49 53
usemtl c96
f 46 53 54
usemtl c97
f 46 54 47
usemtl c98
f 47 54 53
usemtl c99
f 47 53 48
f 48 53 49
usemtl c100
f 14 48 15
