# Made by RuneLite Model-Dumper Plugin
mtllib wizard-jalarast.mtl
o NPC Wizard Jalarast 2026-09-13_16-24-44
v -1 176 12
v 1 177 13
v -3 177 11
v -1 175 12
v 2 173 10
v 5 178 8
v 1 180 13
v -1 180 12
v -1 179 12
v -3 180 11
v -5 180 11
v -5 179 11
v -9 177 9
v -6 176 10
v -6 175 10
v -4 171 11
v -4 172 13
v -2 171 12
v 1 166 8
v 6 172 5
v 6 174 6
v 6 176 5
v 7 183 2
v 1 184 12
v -3 181 12
v -3 184 11
v -5 181 12
v -9 180 9
v -6 166 6
v -8 173 7
v -8 172 1
v -9 174 1
v -8 174 0
v -7 171 0
v -8 174 -4
v -7 174 -3
v -4 168 -4
v -2 165 4
v -2 165 -3
v -5 159 -5
v -4 158 3
v 0 165 4
v 4 158 3
v 5 159 -5
v 3 165 -2
v 5 168 -1
v 5 171 3
v 7 174 0
v 8 174 1
v 6 174 4
v 7 176 5
v 7 177 1
v 7 180 -4
v 3 188 -1
v -2 188 7
v 8 177 1
v -4 180 -8
v 1 184 -5
v -2 188 -3
v -8 184 9
v -9 178 3
v -8 176 0
v -9 176 0
v -8 177 -3
v -7 177 -3
v -7 183 -2
v 7 8 -19
v 8 17 -15
v 6 21 -25
v 8 5 -29
v 5 1 -32
v 9 1 -22
v 16 1 -23
v 15 9 -20
v 16 17 -17
v 14 17 -20
v 9 17 -19
v 8 19 -24
v 14 22 -26
v 14 5 -30
v 15 2 -33
v 15 -2 -34
v 7 -3 -32
v 10 -5 -12
v 9 -3 -10
v 19 -3 -11
v 18 -5 -13
v 13 19 -25
v -23 -2 4
v -23 -7 6
v -25 1 14
v -24 9 14
v -22 2 6
v -16 1 8
v -14 -2 7
v -16 -7 9
v -18 0 16
v -22 -8 27
v -21 -6 29
v -29 -7 24
v -31 -5 26
v -12 17 6
v -15 17 16
v -16 8 17
v -19 18 3
v -19 16 6
v -14 16 7
v -16 16 13
v -23 18 14
v -21 16 11
v 5 -6 3
v -5 -6 3
v 0 -6 -3
v -22 152 7
v -16 154 10
v -22 161 4
v -22 157 -4
v -28 144 1
v -25 139 7
v -22 138 9
v -14 142 11
v -8 154 12
v -9 160 -1
v -15 159 0
v -13 156 -9
v -19 149 -12
v -24 147 -9
v -28 147 -5
v -26 145 -7
v -26 142 0
v -24 139 5
v -20 138 9
v -14 141 10
v -7 155 10
v -7 160 -1
v -11 161 -4
v -10 159 -4
v -12 155 -7
v -17 146 -10
v -24 145 -10
v 22 161 2
v 16 156 9
v 22 154 6
v 22 157 -5
v 16 158 -2
v 10 159 -3
v 9 156 11
v 15 144 13
v 23 141 10
v 25 141 9
v 28 144 2
v 28 145 -4
v 25 145 -9
v 20 147 -11
v 14 154 -10
v 11 160 -7
v 6 159 -3
v 8 156 7
v 15 142 11
v 21 140 11
v 24 140 7
v 26 142 2
v 26 144 -6
v 25 143 -9
v 18 144 -9
v 13 153 -8
v 11 158 -6
v 10 134 -4
v 7 133 7
v 8 128 8
v 11 127 -4
v -11 134 -4
v -12 127 -4
v -8 133 7
v -9 128 8
v -10 119 8
v 9 119 8
v 12 119 -5
v -13 119 -5
v 16 143 8
v 16 143 -8
v 11 152 -9
v 13 145 16
v 12 142 13
v 12 140 13
v 12 138 10
v 11 131 1
v 11 131 -1
v 12 137 -7
v 0 140 -9
v 10 149 -11
v 9 157 -8
v 0 152 13
v 0 145 14
v 0 142 15
v 0 140 13
v 0 138 12
v 0 131 8
v 11 131 8
v -11 152 -9
v -16 143 -8
v -16 143 8
v -12 145 16
v -9 157 -8
v -10 149 -11
v -12 137 -7
v -10 131 -1
v -10 131 1
v -12 138 10
v -12 140 13
v -12 142 15
v -12 131 8
v 0 158 -8
v 0 152 -12
v 0 129 -5
v 11 131 -3
v -12 131 -3
v -25 125 -9
v -25 131 -4
v -24 142 0
v -24 145 -7
v -25 127 -13
v -27 127 -8
v -17 125 -6
v -18 124 -9
v -17 131 -4
v -15 142 0
v -18 126 -14
v -15 144 -4
v -15 145 -6
v -27 111 -8
v -27 124 -14
v -17 122 -14
v -20 111 -8
v -21 110 -6
v -26 110 -6
v -26 111 -3
v -27 114 -3
v -20 114 -3
v -21 111 -3
v 25 124 -4
v 24 144 -6
v 24 142 2
v 25 130 0
v 18 123 -4
v 27 125 -3
v 27 122 -9
v 25 125 -9
v 15 143 -5
v 18 124 -9
v 15 143 -3
v 15 142 2
v 17 130 0
v 20 109 -5
v 17 120 -10
v 27 109 -5
v 26 107 -3
v 21 107 -3
v 21 109 0
v 20 111 0
v 17 123 -1
v 27 111 0
v 26 109 0
v 24 97 1
v 27 97 1
v 27 97 3
v 24 97 3
v 30 92 1
v 29 87 4
v 24 87 4
v 23 92 1
v 27 97 1
v 30 94 8
v 29 88 9
v 24 88 9
v 23 94 8
v 24 97 3
v 24 97 1
v 27 97 3
v -24 100 1
v -24 99 0
v -27 99 0
v -27 100 1
v -23 95 -1
v -25 90 2
v -29 90 3
v -30 95 0
v -24 99 0
v -22 97 5
v -24 91 7
v -28 91 8
v -30 97 7
v -27 100 1
v -27 99 0
v -24 100 0
v 12 115 -9
v -10 115 10
v 9 115 10
v 13 111 4
v 16 105 -13
v 3 105 -13
v -13 115 -9
v -13 111 4
v -20 102 7
v 1 96 12
v 19 97 10
v 16 97 -13
v -1 96 -10
v -3 105 -13
v -16 105 -13
v -14 92 -13
v -20 100 8
v -5 99 14
v 0 93 -8
v 3 93 13
v 16 94 10
v 17 95 -11
v 14 65 -13
v 13 65 -13
v 5 64 -12
v 3 64 -12
v 5 58 0
v 14 58 0
v 14 57 -3
v 6 56 -2
v 16 45 -7
v 1 46 -21
v 5 44 -5
v 4 41 -4
v 17 42 -7
v 15 45 -24
v 14 47 -23
v -6 62 2
v -15 58 1
v -5 62 2
v -10 59 14
v -10 46 16
v -5 41 1
v -16 42 -2
v -18 59 11
v -15 63 0
v -16 91 -10
v -19 62 13
v -9 61 16
v 0 90 -4
v -21 47 12
v -22 45 13
v -10 44 17
v -5 39 0
v -16 40 -2
v -22 21 13
v -16 20 15
v -22 45 13
v -19 19 4
v -12 19 7
v -19 18 5
v -21 19 13
v -16 19 15
v -13 18 7
v 16 42 -6
v 8 20 -15
v 15 20 -17
v 14 23 -25
v 6 22 -24
v 2 44 -22
v 15 19 -17
v 13 21 -24
v 7 21 -23
v 9 19 -16
v -12 189 15
v -10 206 13
v -13 187 9
v -13 180 9
v -14 183 14
v -7 185 18
v -5 188 16
v -4 206 15
v -2 224 8
v -10 206 11
v -4 188 15
v -4 206 13
v 5 187 15
v 1 206 14
v 0 206 16
v 0 189 19
v 5 181 15
v 7 178 7
v 10 183 -4
v 9 174 -1
v -7 174 -7
v -6 183 -9
v -11 178 2
v 7 172 10
v 9 169 3
v 1 168 13
v 4 164 11
v -2 168 17
v -4 169 19
v -11 169 -2
v -12 172 4
v -9 168 10
v -10 164 7
v -8 168 16
v 3 183 19
v -4 184 18
v -5 184 18
v -7 169 18
v 4 187 17
v 3 181 15
v -4 181 13
v -14 187 12
v -12 181 12
v -3 164 11
usemtl c0
f 1 2 3
usemtl c1
f 1 3 4
usemtl c2
f 1 4 2
usemtl c3
f 2 4 5
usemtl c4
f 2 5 6
usemtl c5
f 2 6 7
usemtl c6
f 2 7 8
usemtl c7
f 2 8 9
usemtl c0
f 2 9 3
usemtl c8
f 3 9 8
usemtl c9
f 3 8 10
f 3 10 11
usemtl c8
f 3 11 12
usemtl c0
f 3 12 13
f 3 13 14
usemtl c10
f 3 14 15
f 3 15 16
usemtl c11
f 3 16 17
usemtl c12
f 3 17 18
usemtl c13
f 3 18 4
usemtl c5
f 4 18 5
usemtl c14
f 5 18 19
usemtl c15
f 5 19 20
usemtl c16
f 5 20 21
usemtl c17
f 5 21 6
usemtl c18
f 6 21 22
usemtl c19
f 6 22 23
usemtl c20
f 6 23 24
usemtl c21
f 6 24 7
usemtl c13
f 7 24 25
usemtl c22
f 7 25 8
usemtl c13
f 8 25 10
usemtl c23
f 10 25 26
usemtl c24
f 10 26 27
usemtl c22
f 10 27 11
usemtl c25
f 11 27 28
usemtl c1
f 11 28 13
usemtl c8
f 11 13 12
usemtl c7
f 29 16 30
usemtl c26
f 29 30 31
usemtl c27
f 31 30 32
usemtl c28
f 31 32 33
usemtl c29
f 31 33 34
usemtl c3
f 34 33 35
usemtl c30
f 34 35 36
usemtl c31
f 34 36 37
usemtl c32
f 34 37 38
usemtl c33
f 38 37 39
usemtl c34
f 38 39 40
usemtl c13
f 38 40 41
usemtl c35
f 38 41 42
usemtl c36
f 42 41 43
usemtl c37
f 42 43 44
usemtl c38
f 42 44 45
usemtl c39
f 42 45 46
usemtl c40
f 42 46 47
usemtl c41
f 47 46 48
usemtl c42
f 47 48 49
f 47 49 50
usemtl c43
f 47 50 20
usemtl c15
f 20 50 21
usemtl c44
f 21 50 22
usemtl c4
f 22 50 51
usemtl c45
f 22 51 52
usemtl c46
f 22 52 23
usemtl c47
f 23 52 53
usemtl c48
f 23 53 54
usemtl c49
f 23 54 24
usemtl c50
f 24 54 55
usemtl c51
f 24 55 26
usemtl c52
f 24 26 25
usemtl c10
f 13 15 14
usemtl c53
f 15 13 30
f 15 30 16
usemtl c54
f 51 49 56
usemtl c55
f 51 56 52
usemtl c56
f 52 56 48
usemtl c57
f 52 48 53
usemtl c58
f 53 48 46
usemtl c57
f 53 46 57
usemtl c59
f 53 57 58
usemtl c60
f 53 58 54
usemtl c61
f 54 58 59
usemtl c51
f 54 59 55
usemtl c62
f 55 59 60
f 55 60 26
usemtl c63
f 26 60 27
usemtl c64
f 27 60 28
usemtl c65
f 28 60 61
usemtl c66
f 28 61 13
usemtl c67
f 13 61 30
usemtl c68
f 30 61 32
usemtl c69
f 32 61 62
usemtl c70
f 32 62 33
usemtl c71
f 33 62 63
usemtl c72
f 33 63 35
usemtl c25
f 35 63 64
usemtl c36
f 35 64 36
usemtl c12
f 36 64 65
usemtl c73
f 36 65 57
usemtl c74
f 36 57 37
usemtl c47
f 37 57 46
usemtl c75
f 37 46 39
usemtl c76
f 39 46 45
usemtl c77
f 39 45 40
usemtl c78
f 40 45 44
usemtl c79
f 49 51 50
usemtl c80
f 49 48 56
usemtl c81
f 63 62 65
usemtl c82
f 63 65 64
usemtl c83
f 57 59 58
usemtl c84
f 59 57 66
usemtl c85
f 59 66 60
usemtl c86
f 60 66 61
usemtl c87
f 61 66 62
f 62 66 65
usemtl c88
f 65 66 57
usemtl c89
f 67 68 69
usemtl c90
f 67 69 70
usemtl c91
f 67 70 70
usemtl c92
f 67 70 67
usemtl c93
f 67 70 71
usemtl c94
f 67 71 72
usemtl c95
f 67 72 73
usemtl c91
f 67 73 74
usemtl c95
f 67 74 68
usemtl c96
f 68 74 75
usemtl c97
f 68 75 76
usemtl c98
f 68 76 77
usemtl c99
f 68 77 69
usemtl c100
f 69 77 78
usemtl c101
f 69 78 79
usemtl c102
f 69 79 70
usemtl c103
f 70 79 80
usemtl c104
f 70 80 81
usemtl c105
f 70 81 71
usemtl c106
f 71 81 82
usemtl c107
f 71 82 83
usemtl c95
f 71 83 72
usemtl c108
f 72 83 84
f 72 84 85
usemtl c109
f 72 85 86
usemtl c72
f 72 86 73
usemtl c78
f 73 86 87
usemtl c110
f 73 87 82
usemtl c111
f 73 82 81
usemtl c112
f 73 81 74
usemtl c104
f 74 81 80
usemtl c103
f 74 80 79
usemtl c113
f 74 79 75
usemtl c114
f 75 79 88
usemtl c115
f 75 88 76
usemtl c100
f 89 90 91
usemtl c98
f 89 91 92
usemtl c101
f 89 92 93
usemtl c116
f 89 93 94
usemtl c117
f 89 94 95
usemtl c107
f 89 95 90
usemtl c118
f 90 95 96
usemtl c119
f 96 95 97
usemtl c120
f 96 97 98
usemtl c4
f 98 97 99
usemtl c121
f 98 99 100
usemtl c122
f 100 99 101
usemtl c123
f 100 101 91
usemtl c124
f 100 91 90
usemtl c125
f 87 86 85
usemtl c45
f 87 85 84
usemtl c126
f 102 103 104
usemtl c127
f 102 104 94
usemtl c128
f 102 94 105
usemtl c92
f 102 105 106
usemtl c100
f 102 106 107
usemtl c99
f 102 107 103
usemtl c89
f 103 107 108
usemtl c129
f 103 108 109
f 103 109 92
usemtl c94
f 103 92 104
usemtl c95
f 104 92 91
usemtl c113
f 104 91 97
usemtl c130
f 104 97 95
usemtl c106
f 104 95 94
usemtl c104
f 104 94 94
usemtl c131
f 104 94 104
usemtl c116
f 94 93 105
usemtl c101
f 105 93 92
usemtl c98
f 105 92 109
usemtl c132
f 105 109 110
usemtl c102
f 105 110 106
usemtl c133
f 97 91 101
usemtl c6
f 97 101 99
usemtl c112
f 74 80 80
usemtl c105
f 74 80 74
usemtl c92
f 92 93 93
usemtl c134
f 92 93 92
usemtl c92
f 79 78 88
usemtl c95
f 109 108 110
usemtl c0
f 111 112 113
usemtl c54
f 114 115 116
usemtl c135
f 114 116 117
usemtl c136
f 114 117 118
usemtl c137
f 114 118 119
usemtl c138
f 114 119 120
f 114 120 121
usemtl c137
f 114 121 115
usemtl c139
f 115 121 122
f 115 122 123
f 115 123 124
usemtl c135
f 115 124 116
usemtl c140
f 116 124 117
usemtl c141
f 117 124 125
usemtl c142
f 117 125 126
usemtl c143
f 117 126 127
usemtl c144
f 117 127 128
usemtl c136
f 117 128 118
usemtl c145
f 118 128 129
f 118 129 130
usemtl c146
f 118 130 119
usemtl c15
f 119 130 131
usemtl c147
f 119 131 120
usemtl c148
f 120 131 132
usemtl c140
f 120 132 121
usemtl c149
f 121 132 133
usemtl c150
f 121 133 134
usemtl c149
f 121 134 122
usemtl c151
f 122 134 123
f 123 134 135
f 123 135 136
usemtl c137
f 123 136 124
usemtl c152
f 124 136 125
usemtl c148
f 125 136 137
usemtl c153
f 125 137 138
usemtl c154
f 125 138 126
usemtl c155
f 126 138 139
usemtl c153
f 126 139 127
usemtl c147
f 127 139 140
usemtl c156
f 127 140 128
usemtl c15
f 128 140 129
usemtl c157
f 129 140 139
usemtl c0
f 129 139 130
f 130 139 131
f 131 139 132
f 132 139 133
f 133 139 134
f 134 139 135
f 135 139 137
usemtl c148
f 135 137 136
usemtl c157
f 138 137 139
usemtl c158
f 141 142 143
usemtl c147
f 141 143 144
usemtl c159
f 141 144 145
usemtl c30
f 141 145 142
usemtl c160
f 142 145 146
f 142 146 147
usemtl c161
f 142 147 148
usemtl c162
f 142 148 143
usemtl c163
f 143 148 149
usemtl c152
f 143 149 150
usemtl c164
f 143 150 151
usemtl c143
f 143 151 144
usemtl c142
f 144 151 152
usemtl c165
f 144 152 153
f 144 153 154
usemtl c166
f 144 154 155
usemtl c167
f 144 155 145
usemtl c168
f 145 155 156
usemtl c160
f 145 156 146
usemtl c151
f 146 156 157
usemtl c169
f 146 157 158
usemtl c30
f 146 158 147
usemtl c159
f 147 158 148
usemtl c135
f 148 158 159
usemtl c170
f 148 159 160
usemtl c135
f 148 160 149
usemtl c147
f 149 160 161
usemtl c149
f 149 161 150
usemtl c155
f 150 161 162
usemtl c153
f 150 162 151
usemtl c155
f 151 162 163
f 151 163 152
f 152 163 164
usemtl c148
f 152 164 153
usemtl c147
f 153 164 165
usemtl c154
f 153 165 154
usemtl c149
f 154 165 166
usemtl c15
f 154 166 155
usemtl c156
f 155 166 167
f 155 167 156
usemtl c149
f 156 167 157
usemtl c171
f 157 167 165
usemtl c172
f 157 165 158
f 158 165 159
usemtl c157
f 159 165 160
f 160 165 161
usemtl c0
f 161 165 162
f 162 165 163
usemtl c157
f 163 165 164
usemtl c173
f 165 167 166
usemtl c174
f 168 169 170
usemtl c175
f 168 170 171
usemtl c176
f 168 171 172
usemtl c54
f 172 171 173
usemtl c177
f 172 173 174
usemtl c81
f 174 173 175
usemtl c63
f 174 175 169
usemtl c53
f 169 175 170
usemtl c178
f 170 175 176
usemtl c179
f 170 176 177
usemtl c180
f 170 177 171
usemtl c181
f 171 177 178
usemtl c182
f 171 178 173
usemtl c183
f 173 178 179
usemtl c184
f 173 179 175
usemtl c185
f 175 179 176
usemtl c143
f 180 181 182
usemtl c186
f 180 182 183
usemtl c43
f 180 183 184
usemtl c187
f 180 184 185
usemtl c43
f 180 185 186
usemtl c188
f 180 186 187
usemtl c189
f 180 187 181
f 181 187 188
usemtl c190
f 181 188 189
usemtl c191
f 181 189 190
usemtl c192
f 181 190 191
usemtl c149
f 181 191 182
usemtl c15
f 182 191 192
usemtl c144
f 182 192 44
usemtl c193
f 182 44 43
usemtl c186
f 182 43 183
usemtl c151
f 183 43 193
usemtl c158
f 183 193 194
usemtl c146
f 183 194 184
usemtl c158
f 184 194 195
usemtl c145
f 184 195 196
usemtl c135
f 184 196 185
usemtl c149
f 185 196 186
usemtl c143
f 186 196 197
usemtl c142
f 186 197 198
usemtl c194
f 186 198 199
usemtl c195
f 186 199 187
usemtl c136
f 200 201 202
usemtl c196
f 200 202 203
usemtl c138
f 200 203 41
f 200 41 40
usemtl c197
f 200 40 204
usemtl c170
f 200 204 205
f 200 205 201
usemtl c148
f 201 205 190
usemtl c195
f 201 190 206
usemtl c198
f 201 206 207
usemtl c199
f 201 207 202
f 202 207 208
f 202 208 209
usemtl c170
f 202 209 210
usemtl c140
f 202 210 211
usemtl c200
f 202 211 203
usemtl c170
f 203 211 194
usemtl c135
f 203 194 193
usemtl c54
f 203 193 41
usemtl c201
f 41 193 43
usemtl c202
f 211 195 194
usemtl c145
f 195 211 196
f 196 211 210
usemtl c149
f 196 210 209
usemtl c144
f 196 209 197
usemtl c164
f 197 209 198
usemtl c194
f 198 209 212
usemtl c203
f 212 209 208
usemtl c204
f 204 213 214
usemtl c187
f 204 214 205
usemtl c43
f 205 214 190
usemtl c148
f 190 214 191
usemtl c145
f 191 214 192
usemtl c156
f 192 214 213
usemtl c135
f 192 213 44
usemtl c158
f 44 213 40
usemtl c200
f 40 213 204
usemtl c189
f 215 190 189
usemtl c205
f 215 189 216
usemtl c195
f 216 189 188
usemtl c191
f 206 190 215
usemtl c206
f 206 215 217
usemtl c196
f 206 217 207
usemtl c67
f 218 219 220
usemtl c207
f 218 220 221
usemtl c208
f 218 221 222
usemtl c209
f 218 222 223
usemtl c210
f 218 223 224
usemtl c25
f 218 224 225
usemtl c179
f 218 225 219
usemtl c211
f 219 225 226
usemtl c109
f 219 226 220
usemtl c29
f 220 226 227
usemtl c77
f 227 226 225
usemtl c212
f 227 225 228
usemtl c204
f 227 228 229
usemtl c213
f 229 228 230
usemtl c32
f 230 228 222
usemtl c181
f 230 222 221
usemtl c214
f 221 222 221
usemtl c215
f 231 232 233
usemtl c42
f 231 233 234
usemtl c145
f 231 234 235
usemtl c216
f 231 235 236
usemtl c217
f 231 236 237
usemtl c218
f 231 237 238
usemtl c219
f 231 238 232
usemtl c220
f 232 238 223
usemtl c221
f 232 223 222
usemtl c222
f 232 222 233
usemtl c223
f 233 222 228
usemtl c224
f 233 228 225
usemtl c181
f 233 225 224
usemtl c225
f 233 224 234
f 234 224 239
usemtl c39
f 234 239 235
usemtl c226
f 235 239 240
usemtl c227
f 240 239 238
usemtl c124
f 240 238 237
usemtl c110
f 239 224 223
usemtl c228
f 239 223 238
usemtl c229
f 241 242 243
usemtl c230
f 241 243 244
usemtl c25
f 241 244 245
usemtl c179
f 241 245 246
usemtl c231
f 241 246 247
usemtl c232
f 241 247 248
usemtl c54
f 241 248 242
usemtl c233
f 242 248 249
usemtl c35
f 249 248 250
usemtl c234
f 249 250 251
usemtl c235
f 251 250 252
usemtl c82
f 252 250 245
usemtl c236
f 252 245 253
usemtl c237
f 252 253 243
usemtl c238
f 243 253 244
usemtl c239
f 244 253 245
usemtl c220
f 248 242 242
usemtl c240
f 254 255 247
usemtl c241
f 254 247 256
usemtl c242
f 254 256 257
usemtl c243
f 254 257 258
usemtl c30
f 254 258 259
usemtl c244
f 254 259 260
usemtl c204
f 254 260 255
usemtl c245
f 255 260 261
usemtl c246
f 255 261 250
usemtl c247
f 255 250 247
usemtl c248
f 247 250 248
usemtl c80
f 262 246 261
usemtl c159
f 262 261 260
usemtl c249
f 262 260 263
usemtl c250
f 262 263 257
usemtl c251
f 262 257 256
f 262 256 246
usemtl c215
f 246 256 247
usemtl c252
f 261 245 250
usemtl c64
f 245 261 246
usemtl c253
f 260 259 263
usemtl c254
f 264 265 266
usemtl c255
f 264 266 267
usemtl c256
f 264 267 259
usemtl c257
f 264 259 258
usemtl c258
f 264 258 265
usemtl c259
f 265 258 257
usemtl c260
f 265 257 266
usemtl c261
f 266 257 263
usemtl c262
f 266 263 267
usemtl c263
f 267 263 259
usemtl c264
f 268 269 270
usemtl c117
f 268 270 271
usemtl c35
f 268 271 272
usemtl c265
f 268 272 273
usemtl c266
f 268 273 274
usemtl c264
f 268 274 269
usemtl c267
f 269 274 275
f 269 275 270
usemtl c268
f 270 275 276
usemtl c92
f 270 276 271
usemtl c269
f 271 276 277
f 271 277 278
usemtl c177
f 271 278 272
usemtl c81
f 272 278 277
usemtl c270
f 272 277 279
usemtl c271
f 272 279 273
usemtl c270
f 273 279 277
usemtl c81
f 273 277 276
usemtl c272
f 273 276 274
usemtl c268
f 274 276 275
usemtl c273
f 235 240 280
usemtl c274
f 235 280 281
usemtl c275
f 235 281 236
usemtl c276
f 236 281 282
usemtl c277
f 236 282 237
usemtl c263
f 237 282 283
usemtl c278
f 237 283 240
usemtl c279
f 240 283 280
usemtl c280
f 280 283 281
usemtl c281
f 281 283 282
usemtl c282
f 284 285 286
usemtl c130
f 284 286 287
usemtl c232
f 284 287 288
usemtl c77
f 284 288 289
usemtl c283
f 284 289 290
usemtl c284
f 284 290 285
usemtl c285
f 285 290 291
usemtl c267
f 285 291 286
usemtl c286
f 286 291 292
usemtl c132
f 286 292 287
usemtl c287
f 287 292 293
f 287 293 294
usemtl c109
f 287 294 288
usemtl c270
f 288 294 293
usemtl c81
f 288 293 295
usemtl c288
f 288 295 289
usemtl c210
f 289 295 293
usemtl c209
f 289 293 292
usemtl c289
f 289 292 290
usemtl c290
f 290 292 291
usemtl c291
f 177 296 178
usemtl c126
f 177 178 179
usemtl c292
f 177 179 176
usemtl c293
f 177 176 297
usemtl c129
f 177 297 298
usemtl c92
f 177 298 296
usemtl c294
f 296 298 299
usemtl c39
f 296 299 300
usemtl c295
f 296 300 301
usemtl c107
f 296 301 302
usemtl c291
f 296 302 178
usemtl c126
f 178 302 179
usemtl c292
f 179 302 176
usemtl c293
f 176 302 297
usemtl c296
f 297 302 303
usemtl c182
f 297 303 304
usemtl c297
f 297 304 305
usemtl c298
f 297 305 298
usemtl c95
f 298 305 306
usemtl c299
f 298 306 299
usemtl c300
f 299 306 300
usemtl c301
f 300 306 307
usemtl c41
f 300 307 308
usemtl c302
f 300 308 301
usemtl c285
f 301 308 309
usemtl c303
f 301 309 302
usemtl c243
f 302 309 310
usemtl c158
f 302 310 303
usemtl c304
f 303 310 304
usemtl c305
f 304 310 311
usemtl c306
f 304 311 312
usemtl c184
f 304 312 313
usemtl c8
f 304 313 305
usemtl c244
f 305 313 308
usemtl c307
f 305 308 314
usemtl c308
f 305 314 315
usemtl c133
f 305 315 316
usemtl c211
f 305 316 306
usemtl c296
f 306 316 317
usemtl c309
f 306 317 307
usemtl c310
f 307 317 318
usemtl c311
f 307 318 319
usemtl c312
f 307 319 308
usemtl c313
f 308 319 320
usemtl c314
f 308 320 314
usemtl c315
f 314 320 321
usemtl c316
f 314 321 315
usemtl c317
f 315 321 322
usemtl c318
f 315 322 323
usemtl c319
f 315 323 316
usemtl c15
f 316 323 318
usemtl c320
f 316 318 317
usemtl c175
f 324 323 322
usemtl c230
f 324 322 325
usemtl c92
f 324 325 326
usemtl c105
f 324 326 319
usemtl c14
f 324 319 323
usemtl c215
f 323 319 318
usemtl c296
f 322 321 320
usemtl c230
f 322 320 325
usemtl c92
f 325 320 327
usemtl c129
f 325 327 328
f 325 328 326
usemtl c67
f 326 328 329
usemtl c321
f 326 329 330
usemtl c249
f 326 330 331
usemtl c322
f 326 331 332
usemtl c105
f 326 332 319
f 319 332 327
f 319 327 320
usemtl c117
f 333 334 311
usemtl c118
f 333 311 308
usemtl c323
f 333 308 335
usemtl c324
f 333 335 336
usemtl c283
f 333 336 337
usemtl c325
f 333 337 338
usemtl c130
f 333 338 339
usemtl c326
f 333 339 334
usemtl c100
f 334 339 340
usemtl c211
f 334 340 341
usemtl c327
f 334 341 342
usemtl c328
f 334 342 311
usemtl c329
f 311 342 312
usemtl c79
f 312 342 343
usemtl c330
f 312 343 344
usemtl c331
f 312 344 313
usemtl c332
f 313 344 345
usemtl c120
f 313 345 308
usemtl c189
f 308 345 335
usemtl c43
f 335 345 344
usemtl c299
f 335 344 336
usemtl c56
f 336 344 343
usemtl c333
f 336 343 340
usemtl c334
f 336 340 337
usemtl c89
f 337 340 346
usemtl c335
f 337 346 347
usemtl c13
f 337 347 348
usemtl c336
f 337 348 349
usemtl c31
f 337 349 338
usemtl c202
f 338 349 350
usemtl c21
f 338 350 339
usemtl c337
f 339 350 347
usemtl c210
f 339 347 346
usemtl c338
f 339 346 340
usemtl c339
f 341 340 343
usemtl c330
f 341 343 342
usemtl c204
f 351 352 348
usemtl c340
f 351 348 353
usemtl c271
f 351 353 347
usemtl c79
f 351 347 350
usemtl c170
f 351 350 354
usemtl c55
f 351 354 110
usemtl c180
f 351 110 352
f 352 110 108
usemtl c231
f 352 108 107
usemtl c33
f 352 107 355
usemtl c295
f 352 355 348
usemtl c320
f 348 355 349
usemtl c341
f 349 355 354
usemtl c342
f 349 354 350
usemtl c227
f 354 106 110
usemtl c291
f 110 106 356
usemtl c105
f 110 356 357
usemtl c286
f 110 357 108
usemtl c95
f 108 357 358
usemtl c89
f 108 358 107
usemtl c298
f 107 358 359
usemtl c89
f 107 359 106
usemtl c232
f 107 106 355
usemtl c343
f 355 106 354
usemtl c344
f 353 348 347
usemtl c345
f 360 329 361
usemtl c219
f 360 361 362
usemtl c180
f 360 362 330
usemtl c329
f 360 330 329
usemtl c241
f 363 331 330
usemtl c15
f 363 330 362
usemtl c346
f 363 362 88
usemtl c45
f 363 88 78
usemtl c31
f 363 78 364
usemtl c150
f 363 364 331
usemtl c347
f 331 364 365
usemtl c37
f 331 365 332
usemtl c348
f 332 365 327
usemtl c321
f 327 365 329
usemtl c67
f 327 329 328
usemtl c80
f 361 329 365
usemtl c349
f 361 365 364
usemtl c21
f 361 364 77
usemtl c350
f 361 77 362
usemtl c248
f 362 77 76
usemtl c214
f 362 76 88
usemtl c351
f 88 76 366
usemtl c352
f 88 366 367
usemtl c115
f 88 367 78
usemtl c132
f 78 367 368
usemtl c102
f 78 368 77
usemtl c3
f 78 77 364
usemtl c102
f 76 77 369
usemtl c90
f 76 369 366
usemtl c128
f 77 368 369
usemtl c126
f 106 359 356
usemtl c347
f 308 310 309
usemtl c251
f 310 308 311
usemtl c160
f 370 371 372
usemtl c353
f 370 372 373
usemtl c197
f 370 373 374
usemtl c135
f 370 374 375
usemtl c202
f 370 375 376
usemtl c152
f 370 376 377
usemtl c163
f 370 377 371
usemtl c160
f 371 377 378
f 371 378 379
usemtl c353
f 371 379 372
usemtl c354
f 372 379 380
usemtl c355
f 380 379 381
usemtl c356
f 380 381 382
usemtl c166
f 382 381 383
usemtl c357
f 382 383 384
usemtl c358
f 382 384 385
usemtl c198
f 382 385 386
usemtl c165
f 382 386 387
f 382 387 388
usemtl c355
f 388 387 389
usemtl c188
f 388 389 390
f 388 390 391
usemtl c152
f 391 390 392
usemtl c359
f 391 392 372
f 372 392 373
usemtl c160
f 378 377 384
usemtl c198
f 378 384 383
usemtl c188
f 378 383 381
f 378 381 379
usemtl c161
f 376 385 384
usemtl c162
f 376 384 377
usemtl c354
f 389 387 393
usemtl c360
f 389 393 394
usemtl c206
f 394 393 395
usemtl c361
f 394 395 396
usemtl c164
f 394 396 395
usemtl c144
f 395 396 397
usemtl c358
f 395 397 396
usemtl c156
f 396 397 398
f 396 398 397
usemtl c163
f 399 400 392
f 399 392 390
usemtl c193
f 399 401 400
usemtl c197
f 401 399 402
usemtl c362
f 401 402 403
usemtl c191
f 401 403 402
usemtl c189
f 401 402 399
usemtl c358
f 386 385 404
usemtl c159
f 404 385 405
usemtl c202
f 405 385 376
usemtl c158
f 405 376 406
usemtl c204
f 406 376 375
usemtl c151
f 402 407 403
usemtl c192
f 402 403 407
usemtl c198
f 380 408 409
usemtl c168
f 380 409 410
usemtl c198
f 380 410 411
usemtl c357
f 411 410 412
usemtl c345
f 18 413 19
usemtl c187
f 19 413 42
usemtl c363
f 19 42 47
usemtl c364
f 19 47 20
usemtl c365
f 413 18 16
f 413 16 29
usemtl c30
f 413 29 38
usemtl c345
f 413 38 42
usemtl c35
f 29 31 34
usemtl c54
f 29 34 38
