# Made by RuneLite Model-Dumper Plugin
mtllib clay.mtl
o Item Clay 2026-09-24_19-55-09
v -11 0 -9
v -17 0 -2
v 0 10 2
v 2 0 -10
v 13 0 -1
v 15 0 12
v 3 0 17
v -6 0 18
v -15 0 8
v 12 0 -19
v 8 0 -16
v 17 6 -14
v 18 0 -20
v 25 0 -15
v 26 0 -9
v 19 0 -7
v 15 0 -6
v 9 0 -11
v 24 0 -2
v 21 0 1
v 27 4 2
v 27 0 -3
v 33 0 2
v 33 0 6
v 28 0 8
v 26 0 9
v 21 0 4
usemtl c0
f 1 2 3
usemtl c1
f 1 3 4
usemtl c2
f 4 3 5
usemtl c3
f 5 3 6
usemtl c4
f 6 3 7
usemtl c5
f 7 3 8
usemtl c6
f 8 3 9
usemtl c7
f 9 3 2
usemtl c8
f 10 11 12
usemtl c9
f 10 12 13
usemtl c10
f 13 12 14
usemtl c11
f 14 12 15
usemtl c12
f 15 12 16
usemtl c13
f 16 12 17
usemtl c14
f 17 12 18
usemtl c15
f 18 12 11
usemtl c16
f 19 20 21
usemtl c11
f 19 21 22
usemtl c17
f 22 21 23
usemtl c18
f 23 21 24
usemtl c19
f 24 21 25
usemtl c20
f 25 21 26
usemtl c21
f 26 21 27
usemtl c5
f 27 21 20
