# Made by RuneLite Model-Dumper Plugin
mtllib donie.mtl
o NPC Donie 2026-09-13_16-31-53
v 9 175 6
v 9 175 1
v 9 177 2
v 8 177 2
v 8 175 6
v 8 173 7
v 8 171 6
v 7 170 4
v 8 175 1
v 5 181 -3
v 8 182 3
v 8 177 9
v 4 165 10
v 7 172 12
v 2 170 15
v 4 174 15
v 1 176 16
v 1 171 17
v 0 170 15
v -1 174 16
v -4 172 13
v -2 165 10
v -7 173 8
v -7 171 7
v -8 175 2
v -6 171 5
v -7 175 2
v -7 169 0
v 0 164 7
v -3 157 5
v 1 164 7
v 4 157 4
v 6 169 -1
v 3 159 -3
v 0 155 -5
v -6 181 -2
v 0 185 -1
v 3 189 2
v 6 182 15
v 7 179 15
v 7 176 15
v -8 177 3
v -8 175 7
v -7 177 3
v -7 175 7
v -7 183 5
v -6 159 -1
v -12 156 4
v -6 177 10
v -3 182 16
v -2 189 2
v 1 184 14
v 1 182 16
v 2 180 17
v 3 179 15
v 3 178 15
v 4 175 15
v 13 156 1
v -4 176 16
v -1 175 16
v 0 178 16
v 0 179 16
v -4 179 16
v 0 180 17
v 1 179 16
v 1 175 17
v 5 177 17
v -3 176 18
v 9 126 -5
v 8 126 7
v 9 117 6
v 10 118 -6
v -13 126 0
v -14 118 -2
v -8 117 10
v -7 126 10
v 15 153 0
v 15 149 4
v 15 140 2
v 14 152 -8
v 12 141 -8
v -2 154 -7
v 12 154 1
v 13 149 8
v 13 144 13
v 12 137 9
v 11 125 -8
v -2 124 -8
v -2 140 -7
v -16 141 -2
v -17 152 -1
v -15 153 7
v -14 140 8
v -13 149 10
v -13 154 6
v -10 149 13
v 2 147 14
v -8 144 17
v 2 144 16
v -9 137 14
v 1 136 12
v 11 124 7
v -9 124 11
v -15 125 -3
v -15 137 11
v -20 125 10
v -18 136 2
v -21 124 5
v -26 138 4
v -27 125 7
v -26 126 12
v -24 139 13
v 15 135 -3
v 13 138 -11
v 16 125 -11
v 23 136 -4
v 23 125 -12
v 22 140 -12
v 22 127 -17
v 15 127 -15
v 16 118 -12
v 25 119 -14
v 23 121 -20
v 15 121 -19
v 18 110 -19
v 23 110 -20
v 22 112 -23
v 18 111 -22
v -19 123 16
v -28 126 17
v -23 117 24
v -21 118 12
v -30 120 13
v -28 119 24
v -14 151 0
v -13 152 6
v -16 134 1
v -24 150 3
v -23 151 9
v -13 136 12
v -26 140 15
v -29 138 4
v 22 150 -7
v 12 152 -4
v 23 148 -2
v 24 140 -14
v 11 137 -12
v 13 150 0
v 13 133 -1
v 27 136 -3
v -29 115 22
v -24 114 22
v 24 99 -25
v 21 99 -25
v 21 100 -26
v 24 100 -27
v 21 93 -24
v 21 100 -27
v 19 96 -30
v 21 88 -27
v 27 94 -25
v 24 99 -26
v 21 99 -25
v 24 100 -27
v 26 96 -31
v 24 91 -31
v 21 91 -31
v 26 89 -28
v -28 109 33
v -30 110 33
v -30 112 34
v -27 111 34
v -28 110 34
v -28 107 37
v -35 107 38
v -31 110 34
v -28 112 35
v -27 112 40
v -28 108 45
v -28 105 42
v -33 105 43
v -34 112 41
v -31 112 35
v -33 108 46
v -4 22 -35
v -4 26 -39
v -1 51 -27
v -2 43 -13
v -13 43 -14
v -9 22 -35
v -12 51 -28
v -9 26 -39
v -3 60 -17
v -3 53 -8
v -11 53 -8
v -11 60 -17
v 0 91 -11
v 0 99 9
v -14 100 9
v -17 95 -11
v -16 104 -12
v 16 104 -12
v 18 89 -5
v 11 58 12
v 3 58 11
v 2 60 23
v 10 60 23
v 13 106 5
v 10 113 8
v -8 113 11
v 10 19 28
v 10 18 22
v 13 44 11
v 12 49 26
v 5 19 28
v 1 49 26
v 2 44 10
v 5 18 21
v 9 114 -11
v -15 114 -6
v 1 -5 25
v 10 -5 25
v 9 0 44
v 0 -1 44
v 3 3 32
v 2 -2 23
v 10 -2 23
v 10 3 32
v 9 2 46
v 1 1 46
v 2 11 30
v 3 4 25
v 10 4 25
v 10 11 30
v 0 22 31
v 0 19 17
v -9 7 -55
v 0 7 -54
v -3 -7 -45
v -12 -6 -45
v -10 8 -43
v -9 10 -54
v -1 10 -53
v -3 8 -43
v -4 -8 -43
v -12 -7 -43
v -2 14 -38
v -10 14 -39
v -10 14 -48
v -3 14 -48
v 4 -6 3
v -4 -6 3
v 0 -6 -3
v 13 22 31
v 13 19 18
v -13 30 -42
v -13 22 -30
v 0 22 -29
v 0 30 -41
v -25 191 49
v -23 224 52
v -27 226 42
v -27 193 45
v -33 170 40
v -25 169 38
v -22 191 48
v -17 224 49
v -21 226 40
v -23 192 43
v -28 172 30
v -35 172 33
v -35 116 39
v -32 116 37
v -33 116 34
v -36 117 36
v -44 58 28
v -55 -3 23
v -52 -4 32
v -43 59 31
v -37 109 35
v -34 109 34
v -40 58 27
v -39 58 30
v -32 109 37
v -36 109 38
v -41 -5 27
v -44 -4 19
v 1 163 14
usemtl c0
f 1 2 3
usemtl c1
f 1 3 4
usemtl c2
f 1 4 5
usemtl c3
f 1 5 6
usemtl c4
f 1 6 2
usemtl c5
f 2 6 7
usemtl c6
f 2 7 8
f 2 8 9
usemtl c7
f 2 9 3
usemtl c8
f 3 9 4
usemtl c9
f 4 9 10
usemtl c10
f 4 10 11
usemtl c11
f 4 11 5
usemtl c12
f 5 11 12
usemtl c13
f 5 12 6
usemtl c14
f 5 6 6
usemtl c15
f 5 6 6
usemtl c16
f 6 6 7
usemtl c17
f 6 7 6
usemtl c18
f 7 6 13
usemtl c19
f 13 6 14
usemtl c20
f 13 14 15
usemtl c21
f 15 14 16
usemtl c22
f 15 16 17
usemtl c23
f 15 17 18
usemtl c24
f 18 17 19
usemtl c25
f 19 17 20
usemtl c26
f 19 20 21
usemtl c27
f 19 21 22
usemtl c28
f 22 21 23
usemtl c29
f 22 23 24
usemtl c30
f 24 23 25
usemtl c31
f 24 25 26
usemtl c32
f 26 25 27
usemtl c33
f 26 27 28
usemtl c34
f 26 28 29
usemtl c35
f 29 28 30
usemtl c36
f 29 30 31
usemtl c37
f 31 30 32
usemtl c38
f 31 32 33
usemtl c39
f 31 33 8
usemtl c40
f 8 33 9
usemtl c41
f 9 33 10
usemtl c19
f 10 33 34
usemtl c42
f 10 34 35
usemtl c9
f 10 35 36
usemtl c43
f 10 36 37
usemtl c44
f 10 37 38
usemtl c45
f 10 38 11
usemtl c46
f 11 38 39
usemtl c47
f 11 39 12
usemtl c48
f 12 39 40
usemtl c18
f 12 40 41
usemtl c49
f 12 41 14
f 12 14 6
usemtl c50
f 42 25 43
usemtl c51
f 42 43 44
usemtl c52
f 42 44 27
usemtl c53
f 42 27 25
usemtl c54
f 23 43 25
usemtl c55
f 43 23 45
usemtl c56
f 43 45 44
usemtl c57
f 44 45 46
usemtl c58
f 44 46 36
usemtl c59
f 44 36 27
usemtl c60
f 27 36 28
usemtl c34
f 28 36 47
usemtl c35
f 28 47 48
usemtl c61
f 28 48 30
usemtl c62
f 23 23 24
usemtl c63
f 23 24 23
usemtl c64
f 23 23 45
usemtl c59
f 23 45 23
usemtl c65
f 45 23 49
usemtl c66
f 45 49 46
usemtl c67
f 46 49 50
f 46 50 51
usemtl c65
f 46 51 36
usemtl c68
f 36 51 37
usemtl c69
f 37 51 38
usemtl c70
f 38 51 52
usemtl c71
f 38 52 39
usemtl c72
f 39 52 53
usemtl c73
f 39 53 54
usemtl c35
f 39 54 40
usemtl c74
f 40 54 55
usemtl c75
f 40 55 41
usemtl c76
f 41 55 56
usemtl c77
f 41 56 17
f 41 17 57
usemtl c76
f 41 57 16
usemtl c1
f 41 16 14
usemtl c44
f 35 47 36
usemtl c78
f 33 58 34
usemtl c79
f 58 33 32
usemtl c77
f 17 59 60
usemtl c25
f 17 60 20
usemtl c80
f 20 60 59
usemtl c81
f 20 59 21
usemtl c29
f 21 59 49
f 21 49 23
usemtl c77
f 17 61 59
usemtl c82
f 59 61 62
usemtl c83
f 59 62 63
usemtl c84
f 59 63 49
usemtl c67
f 49 63 50
usemtl c66
f 50 63 64
usemtl c85
f 50 64 53
usemtl c86
f 50 53 52
f 50 52 51
usemtl c87
f 17 62 61
usemtl c88
f 62 17 65
usemtl c89
f 62 65 64
usemtl c90
f 62 64 63
usemtl c87
f 56 55 17
usemtl c88
f 17 55 65
usemtl c74
f 65 55 54
usemtl c91
f 65 54 53
usemtl c92
f 65 53 64
usemtl c93
f 65 64 66
usemtl c94
f 65 66 54
usemtl c87
f 57 17 16
usemtl c91
f 67 40 54
usemtl c85
f 64 63 68
usemtl c95
f 69 70 71
usemtl c96
f 69 71 72
usemtl c97
f 69 72 73
usemtl c98
f 73 72 74
usemtl c99
f 73 74 75
usemtl c100
f 73 75 76
usemtl c101
f 76 75 70
usemtl c80
f 70 75 71
usemtl c102
f 77 78 79
usemtl c103
f 77 79 80
usemtl c104
f 77 80 81
usemtl c105
f 77 81 79
usemtl c106
f 79 81 80
usemtl c107
f 80 81 82
usemtl c108
f 80 82 34
usemtl c109
f 80 34 83
usemtl c110
f 80 83 77
usemtl c111
f 77 83 78
usemtl c112
f 78 83 84
usemtl c111
f 78 84 85
usemtl c102
f 78 85 79
usemtl c113
f 79 85 86
usemtl c114
f 79 86 87
usemtl c115
f 79 87 81
usemtl c116
f 81 87 88
f 81 88 89
usemtl c117
f 81 89 82
usemtl c118
f 82 89 90
usemtl c102
f 82 90 91
usemtl c119
f 82 91 47
usemtl c120
f 82 47 34
usemtl c111
f 92 91 90
f 92 90 93
usemtl c121
f 92 93 94
usemtl c122
f 92 94 95
usemtl c123
f 92 95 91
usemtl c124
f 91 95 47
usemtl c125
f 47 95 30
usemtl c126
f 30 95 96
usemtl c127
f 30 96 97
usemtl c128
f 30 97 32
usemtl c129
f 32 97 84
usemtl c130
f 32 84 83
usemtl c131
f 32 83 34
usemtl c132
f 98 99 97
usemtl c133
f 98 97 96
usemtl c122
f 98 96 94
usemtl c121
f 98 94 93
usemtl c134
f 98 93 100
usemtl c135
f 98 100 101
usemtl c136
f 98 101 99
usemtl c110
f 99 101 85
usemtl c137
f 99 85 97
usemtl c138
f 97 85 84
usemtl c107
f 86 102 87
usemtl c139
f 102 86 101
usemtl c140
f 102 101 103
usemtl c141
f 103 101 100
f 103 100 104
f 104 100 93
usemtl c109
f 104 93 90
usemtl c142
f 104 90 88
usemtl c114
f 88 90 89
usemtl c143
f 85 101 86
usemtl c144
f 95 94 96
usemtl c145
f 105 106 107
usemtl c146
f 107 106 108
usemtl c147
f 107 108 109
usemtl c148
f 109 108 110
usemtl c149
f 109 110 111
usemtl c52
f 109 111 112
usemtl c150
f 112 111 106
usemtl c151
f 112 106 105
usemtl c152
f 113 114 115
usemtl c153
f 113 115 116
usemtl c154
f 116 115 117
usemtl c155
f 116 117 118
usemtl c156
f 118 117 119
usemtl c157
f 118 119 120
usemtl c158
f 118 120 114
usemtl c159
f 114 120 115
usemtl c52
f 115 120 121
usemtl c74
f 115 121 117
usemtl c160
f 117 121 122
usemtl c161
f 117 122 119
usemtl c162
f 119 122 123
usemtl c163
f 119 123 124
usemtl c164
f 119 124 120
usemtl c159
f 120 124 121
usemtl c27
f 121 124 125
usemtl c165
f 121 125 122
usemtl c3
f 122 125 126
usemtl c166
f 122 126 123
usemtl c167
f 123 126 127
usemtl c168
f 123 127 128
usemtl c169
f 123 128 124
usemtl c170
f 124 128 125
usemtl c1
f 129 130 131
usemtl c171
f 129 131 132
usemtl c172
f 129 132 108
usemtl c173
f 129 108 106
usemtl c174
f 129 106 111
usemtl c76
f 129 111 130
usemtl c175
f 130 111 110
usemtl c176
f 130 110 133
usemtl c90
f 130 133 134
usemtl c52
f 130 134 131
usemtl c177
f 135 136 137
usemtl c120
f 135 137 138
usemtl c178
f 135 138 139
usemtl c111
f 135 139 136
usemtl c141
f 136 139 140
usemtl c179
f 136 140 137
usemtl c180
f 137 140 141
f 137 141 142
usemtl c181
f 137 142 138
usemtl c182
f 138 142 139
usemtl c183
f 139 142 141
f 139 141 140
usemtl c109
f 143 144 145
usemtl c177
f 143 145 146
usemtl c184
f 143 146 147
usemtl c120
f 143 147 144
usemtl c185
f 144 147 148
usemtl c186
f 144 148 145
usemtl c182
f 145 148 149
usemtl c143
f 145 149 150
usemtl c187
f 145 150 146
usemtl c188
f 146 150 147
usemtl c105
f 147 150 149
usemtl c189
f 147 149 148
usemtl c190
f 151 133 152
usemtl c191
f 152 133 132
usemtl c192
f 152 132 131
usemtl c193
f 134 133 151
usemtl c194
f 133 110 132
usemtl c169
f 132 110 108
usemtl c195
f 153 154 155
usemtl c196
f 153 155 156
usemtl c197
f 153 156 127
usemtl c198
f 153 127 126
usemtl c199
f 153 126 154
usemtl c200
f 154 126 125
usemtl c201
f 154 125 155
usemtl c202
f 155 125 128
usemtl c203
f 155 128 156
usemtl c204
f 156 128 127
usemtl c74
f 157 158 159
usemtl c153
f 157 159 160
usemtl c205
f 157 160 161
usemtl c87
f 157 161 162
usemtl c206
f 157 162 163
usemtl c207
f 157 163 158
usemtl c208
f 158 163 164
usemtl c209
f 158 164 165
usemtl c0
f 158 165 159
usemtl c210
f 159 165 166
usemtl c211
f 159 166 167
usemtl c212
f 159 167 160
usemtl c213
f 160 167 168
usemtl c194
f 160 168 161
usemtl c147
f 161 168 166
usemtl c214
f 161 166 165
usemtl c3
f 161 165 162
usemtl c215
f 162 165 164
usemtl c216
f 162 164 163
usemtl c217
f 167 166 168
usemtl c218
f 151 152 169
usemtl c156
f 151 169 170
usemtl c3
f 151 170 134
usemtl c219
f 134 170 171
usemtl c3
f 134 171 131
usemtl c220
f 131 171 172
usemtl c221
f 131 172 169
usemtl c222
f 131 169 152
usemtl c210
f 171 169 172
usemtl c223
f 169 171 170
usemtl c224
f 173 174 175
usemtl c225
f 173 175 176
usemtl c226
f 173 176 177
usemtl c227
f 173 177 178
usemtl c220
f 173 178 174
usemtl c228
f 174 178 179
usemtl c229
f 174 179 180
f 174 180 181
usemtl c230
f 174 181 175
usemtl c231
f 175 181 182
usemtl c232
f 175 182 183
usemtl c233
f 175 183 176
usemtl c234
f 176 183 177
usemtl c235
f 177 183 178
usemtl c236
f 178 183 182
usemtl c2
f 178 182 179
usemtl c237
f 179 182 184
usemtl c196
f 179 184 180
f 180 184 181
usemtl c237
f 181 184 182
usemtl c238
f 185 186 187
usemtl c239
f 185 187 188
usemtl c240
f 185 188 189
usemtl c241
f 185 189 190
usemtl c242
f 190 189 191
f 190 191 192
usemtl c240
f 192 191 186
usemtl c239
f 186 191 187
usemtl c243
f 187 191 193
usemtl c244
f 187 193 194
usemtl c245
f 187 194 188
usemtl c246
f 188 194 189
usemtl c247
f 189 194 195
usemtl c248
f 189 195 196
usemtl c249
f 189 196 191
usemtl c250
f 191 196 193
usemtl c251
f 193 196 197
usemtl c252
f 193 197 194
usemtl c253
f 194 197 198
usemtl c254
f 194 198 195
usemtl c255
f 195 198 199
usemtl c256
f 195 199 200
usemtl c257
f 195 200 196
usemtl c258
f 196 200 197
usemtl c259
f 197 200 201
usemtl c260
f 197 201 202
usemtl c261
f 197 202 203
usemtl c262
f 197 203 204
usemtl c263
f 197 204 205
usemtl c264
f 197 205 198
usemtl c265
f 198 205 206
usemtl c242
f 198 206 207
usemtl c266
f 198 207 208
usemtl c267
f 198 208 209
usemtl c268
f 198 209 210
usemtl c269
f 198 210 199
usemtl c255
f 199 210 201
usemtl c265
f 199 201 200
usemtl c270
f 211 212 213
usemtl c271
f 211 213 214
usemtl c272
f 211 214 215
usemtl c273
f 215 214 216
usemtl c274
f 215 216 217
usemtl c275
f 215 217 218
usemtl c276
f 218 217 213
usemtl c277
f 218 213 212
usemtl c278
f 207 203 208
usemtl c279
f 208 203 202
usemtl c280
f 208 202 209
usemtl c281
f 209 202 219
usemtl c282
f 209 219 72
usemtl c283
f 209 72 71
usemtl c284
f 209 71 210
usemtl c285
f 210 71 75
f 210 75 74
usemtl c286
f 210 74 220
usemtl c248
f 210 220 201
usemtl c287
f 201 220 202
usemtl c239
f 202 220 219
usemtl c288
f 219 220 72
usemtl c289
f 72 220 74
usemtl c290
f 72 74 71
usemtl c291
f 71 74 75
usemtl c268
f 206 217 216
usemtl c248
f 206 216 214
usemtl c292
f 206 214 207
usemtl c293
f 207 214 204
usemtl c294
f 207 204 203
usemtl c295
f 214 213 204
usemtl c296
f 204 213 205
usemtl c297
f 205 213 217
usemtl c298
f 205 217 206
usemtl c299
f 221 222 223
usemtl c300
f 221 223 224
usemtl c301
f 221 224 225
usemtl c302
f 221 225 226
usemtl c303
f 221 226 222
usemtl c304
f 222 226 227
f 222 227 228
usemtl c305
f 222 228 223
usemtl c306
f 223 228 229
usemtl c307
f 223 229 230
usemtl c308
f 223 230 224
usemtl c309
f 224 230 225
usemtl c310
f 225 230 229
usemtl c311
f 225 229 228
f 225 228 231
f 225 231 226
usemtl c312
f 226 231 232
usemtl c313
f 226 232 227
usemtl c314
f 227 232 233
usemtl c304
f 227 233 234
usemtl c300
f 227 234 228
usemtl c315
f 228 234 231
usemtl c316
f 231 234 235
usemtl c301
f 231 235 236
usemtl c317
f 231 236 232
usemtl c318
f 231 232 232
usemtl c316
f 231 232 231
usemtl c319
f 237 238 239
usemtl c304
f 237 239 240
usemtl c312
f 237 240 241
usemtl c320
f 237 241 242
usemtl c321
f 237 242 243
usemtl c319
f 237 243 238
usemtl c303
f 238 243 244
f 238 244 239
usemtl c322
f 239 244 245
usemtl c323
f 239 245 240
usemtl c324
f 240 245 246
usemtl c325
f 240 246 241
usemtl c326
f 241 246 244
usemtl c327
f 241 244 247
usemtl c328
f 241 247 248
usemtl c301
f 241 248 242
usemtl c312
f 242 248 249
usemtl c322
f 242 249 250
usemtl c303
f 242 250 243
usemtl c329
f 243 250 247
usemtl c330
f 243 247 244
usemtl c331
f 251 252 253
usemtl c332
f 254 255 212
usemtl c333
f 254 212 211
f 254 211 235
usemtl c317
f 254 235 234
usemtl c318
f 254 234 255
usemtl c323
f 255 234 233
usemtl c330
f 255 233 232
usemtl c334
f 255 232 236
usemtl c324
f 255 236 218
f 255 218 212
usemtl c335
f 211 215 235
usemtl c325
f 235 215 236
usemtl c336
f 236 215 218
usemtl c329
f 234 233 233
usemtl c314
f 234 233 234
usemtl c325
f 190 192 256
usemtl c335
f 190 256 257
f 190 257 185
usemtl c333
f 185 257 258
usemtl c324
f 185 258 186
f 186 258 259
usemtl c333
f 186 259 192
f 192 259 256
usemtl c308
f 256 259 250
usemtl c306
f 256 250 249
usemtl c316
f 256 249 248
usemtl c337
f 256 248 257
usemtl c301
f 257 248 258
usemtl c317
f 258 248 247
usemtl c316
f 258 247 259
usemtl c338
f 259 247 250
usemtl c339
f 250 247 250
usemtl c313
f 250 247 247
usemtl c312
f 248 249 249
usemtl c340
f 248 249 248
usemtl c328
f 244 246 245
usemtl c341
f 260 261 262
usemtl c342
f 260 262 263
usemtl c343
f 260 263 264
usemtl c344
f 260 264 265
usemtl c345
f 260 265 266
usemtl c346
f 260 266 261
usemtl c347
f 261 266 267
usemtl c343
f 261 267 262
usemtl c348
f 262 267 268
f 262 268 269
usemtl c349
f 262 269 263
usemtl c350
f 263 269 270
usemtl c351
f 263 270 271
usemtl c352
f 263 271 264
usemtl c343
f 264 271 272
usemtl c353
f 264 272 265
usemtl c354
f 265 272 273
usemtl c355
f 265 273 274
usemtl c356
f 265 274 270
usemtl c357
f 265 270 266
usemtl c358
f 266 270 269
usemtl c359
f 266 269 267
usemtl c360
f 267 269 268
usemtl c361
f 271 275 272
usemtl c362
f 275 271 270
usemtl c363
f 275 270 274
usemtl c364
f 276 277 278
usemtl c365
f 276 278 279
usemtl c366
f 276 279 280
usemtl c367
f 276 280 281
usemtl c368
f 276 281 282
usemtl c369
f 276 282 279
usemtl c370
f 279 282 283
usemtl c355
f 279 283 284
usemtl c371
f 279 284 285
usemtl c372
f 279 285 280
usemtl c373
f 283 286 287
usemtl c374
f 283 287 282
usemtl c375
f 283 282 284
usemtl c376
f 284 282 281
usemtl c377
f 278 286 283
usemtl c378
f 278 283 279
usemtl c379
f 282 287 277
usemtl c360
f 282 277 276
usemtl c380
f 277 287 286
usemtl c381
f 277 286 278
usemtl c382
f 15 288 13
usemtl c168
f 13 288 31
usemtl c383
f 13 31 8
usemtl c384
f 13 8 7
usemtl c200
f 288 15 19
usemtl c385
f 288 19 22
usemtl c173
f 288 22 29
usemtl c386
f 288 29 31
usemtl c161
f 22 24 26
usemtl c387
f 22 26 29
