# Made by RuneLite Model-Dumper Plugin
mtllib fletch.mtl
o ware
v 108 122 -40
v 108 122 -44
v 104 122 -44
v 104 122 -40
v 40 122 -40
v 40 122 -44
v 36 122 -44
v 36 122 -40
v 108 122 12
v 108 122 8
v 104 122 8
v 104 122 12
v 40 122 12
v 40 122 8
v 36 122 8
v 36 122 12
v 112 121 16
v 112 121 -48
v 32 121 -48
v 32 121 16
v -56 152 -40
v -96 152 -40
v -96 152 -32
v -56 152 -32
v -56 120 -40
v -96 120 -40
v -96 120 -32
v -56 120 -32
v -68 132 -40
v -68 124 -40
v -68 124 -56
v -68 132 -56
v -72 136 -40
v -72 136 -56
v -80 136 -40
v -80 136 -56
v -84 132 -40
v -84 132 -56
v -84 124 -40
v -84 124 -56
v -80 120 -40
v -80 120 -56
v -72 120 -40
v -72 120 -56
v -56 152 -64
v -96 152 -64
v -96 152 -56
v -56 152 -56
v -56 120 -64
v -96 120 -64
v -96 120 -56
v -56 120 -56
v -68 132 -64
v -68 124 -64
v -68 124 -88
v -68 132 -88
v -72 136 -64
v -72 136 -88
v -80 136 -64
v -80 136 -88
v -84 132 -64
v -84 132 -88
v -84 124 -64
v -84 124 -88
v -80 120 -64
v -80 120 -88
v -72 120 -88
v -72 120 -64
v -72 120 -72
v -72 88 -72
v -72 88 -80
v -72 120 -80
v -80 88 -80
v -80 120 -80
v -80 88 -72
v -80 120 -72
v -66 214 33
v -66 206 33
v -62 206 39
v -62 214 39
v -63 218 31
v -63 202 31
v -59 202 37
v -52 202 32
v -49 206 30
v -49 214 30
v -52 218 32
v -59 218 37
v -56 218 27
v -53 214 24
v -53 206 24
v -56 202 27
v -63 136 31
v -56 136 27
v -56 238 27
v -63 238 31
v -67 136 24
v -67 238 24
v -60 136 20
v -60 238 20
v -12 212 -1
v -12 208 -1
v -52 208 26
v -52 212 26
v -9 212 3
v -9 208 3
v -49 208 29
v -49 212 29
v -45 120 29
v -58 120 9
v -59 136 14
v -50 136 28
v -65 120 42
v -64 136 37
v -78 120 22
v -73 136 23
v 112 0 -48
v 112 104 -48
v 112 104 48
v 112 0 48
v 0 104 48
v 0 0 48
v -112 104 48
v -112 0 48
v -112 104 -48
v -112 0 -48
v 0 104 -48
v 0 0 -48
v -112 128 48
v 0 128 48
v 128 120 -64
v -128 120 -64
v -128 120 64
v 128 120 64
v 128 96 -64
v -128 96 -64
v -128 96 64
v 128 39 -64
v -128 39 -64
v 128 201 -64
v 128 96 64
v -112 128 -48
v 112 128 -48
v 0 128 -48
v 112 128 48
v -128 40 -64
v -128 40 64
v -128 201 -64
v 128 201 64
v -128 201 64
v 128 39 64
v 128 40 64
v 128 40 -64
v 108 122 -40
v 108 122 -40
v 108 122 -40
v 108 122 -40
usemtl c0
f 1 2 3
f 1 3 4
f 5 6 7
f 5 7 8
f 9 10 11
f 9 11 12
f 13 14 15
f 13 15 16
usemtl c1
f 17 18 19
f 17 19 20
usemtl c2
f 21 22 23
f 21 23 24
usemtl c3
f 21 24 25
f 21 25 22
f 22 25 26
usemtl c4
f 22 26 27
f 22 27 23
f 23 27 24
f 24 27 28
usemtl c3
f 24 28 25
usemtl c5
f 29 30 31
usemtl c6
f 29 31 32
usemtl c7
f 29 32 33
usemtl c8
f 33 32 34
usemtl c9
f 33 34 35
usemtl c10
f 35 34 36
usemtl c11
f 35 36 37
usemtl c12
f 37 36 38
usemtl c13
f 37 38 39
usemtl c0
f 39 38 40
usemtl c14
f 39 40 41
usemtl c15
f 41 40 42
usemtl c16
f 30 43 44
usemtl c5
f 30 44 31
usemtl c2
f 45 46 47
f 45 47 48
usemtl c3
f 45 48 49
f 45 49 46
f 46 49 50
usemtl c4
f 46 50 51
f 46 51 47
f 47 51 48
f 48 51 52
usemtl c3
f 48 52 49
usemtl c5
f 53 54 55
f 53 55 56
usemtl c17
f 53 56 57
usemtl c18
f 57 56 58
usemtl c19
f 57 58 59
usemtl c9
f 59 58 60
usemtl c20
f 59 60 61
usemtl c21
f 61 60 62
usemtl c15
f 61 62 63
usemtl c20
f 63 62 64
usemtl c22
f 63 64 65
usemtl c23
f 65 64 66
usemtl c8
f 66 64 56
usemtl c24
f 66 56 67
usemtl c5
f 67 56 55
f 67 55 54
f 67 54 68
usemtl c25
f 56 64 62
usemtl c26
f 56 62 60
usemtl c27
f 56 60 58
usemtl c28
f 69 70 71
usemtl c29
f 69 71 72
f 72 71 73
usemtl c28
f 72 73 74
usemtl c30
f 74 73 75
usemtl c31
f 74 75 76
f 76 75 70
usemtl c30
f 76 70 69
usemtl c32
f 77 78 79
usemtl c12
f 77 79 80
usemtl c22
f 77 80 81
usemtl c33
f 77 81 78
usemtl c29
f 78 81 82
usemtl c20
f 78 82 83
usemtl c34
f 78 83 79
f 79 83 80
usemtl c21
f 80 83 84
usemtl c35
f 80 84 85
usemtl c36
f 80 85 86
usemtl c35
f 80 86 87
usemtl c10
f 80 87 88
usemtl c20
f 80 88 81
usemtl c37
f 81 88 89
usemtl c38
f 81 89 90
usemtl c39
f 81 90 91
f 81 91 92
usemtl c40
f 81 92 82
usemtl c41
f 92 91 85
usemtl c18
f 92 85 84
usemtl c41
f 91 90 86
usemtl c17
f 91 86 85
usemtl c8
f 90 89 87
usemtl c18
f 90 87 86
usemtl c42
f 89 88 87
usemtl c29
f 93 94 95
f 93 95 96
usemtl c0
f 93 96 97
f 97 96 98
usemtl c26
f 97 98 99
f 99 98 100
usemtl c16
f 99 100 94
f 94 100 95
usemtl c43
f 95 100 96
f 96 100 98
usemtl c26
f 101 102 103
f 101 103 104
usemtl c43
f 101 104 105
usemtl c44
f 101 105 102
f 102 105 106
usemtl c26
f 102 106 107
f 102 107 103
usemtl c45
f 103 107 104
f 104 107 108
usemtl c43
f 104 108 105
usemtl c29
f 105 108 106
f 106 108 107
usemtl c16
f 109 110 111
f 109 111 112
usemtl c29
f 109 112 113
f 113 112 114
usemtl c0
f 113 114 115
f 115 114 116
usemtl c26
f 115 116 110
f 110 116 111
usemtl c43
f 111 116 112
f 112 116 114
usemtl c46
f 117 118 119
f 117 119 120
f 120 119 121
f 120 121 122
f 122 121 123
f 122 123 124
f 124 123 125
f 124 125 126
f 126 125 127
f 126 127 128
f 128 127 118
f 128 118 117
usemtl c47
f 117 118 120
f 129 124 130
usemtl c46
f 131 132 133
f 131 133 134
f 131 134 135
f 131 135 136
f 131 136 132
usemtl c47
f 131 132 134
usemtl c46
f 137 133 132
f 137 132 136
usemtl c47
f 138 139 140
usemtl c46
f 133 137 141
f 133 141 134
f 134 141 135
