# Made by RuneLite Model-Dumper Plugin
mtllib splitbark-boots.mtl
o Item Splitbark boots 2026-09-24_18-04-40
v 7 24 4
v 7 25 -6
v 1 25 -6
v 1 24 4
v -3 28 8
v 11 28 8
v 11 28 -10
v -3 28 -10
v -1 16 5
v 9 16 5
v 10 10 -6
v 1 10 -6
v 0 5 -9
v 1 9 3
v 10 9 3
v 10 5 -9
v -11 24 4
v -11 25 -6
v -17 25 -6
v -17 24 4
v -21 28 8
v -7 28 8
v -7 28 -10
v -21 28 -10
v -19 16 5
v -9 16 5
v -11 10 -6
v -20 10 -6
v -20 5 -9
v -20 9 3
v -11 9 3
v -10 5 -9
v 0 -1 -7
v 10 -1 -7
v 10 -1 13
v 0 -1 13
v 10 5 17
v 0 5 17
v -20 -1 -7
v -10 -1 -6
v -10 -1 13
v -20 -1 13
v -10 5 17
v -20 5 17
usemtl c0
f 1 2 3
usemtl c1
f 1 3 4
usemtl c2
f 1 4 5
usemtl c3
f 1 5 6
usemtl c4
f 1 6 2
usemtl c5
f 2 6 7
usemtl c6
f 2 7 3
usemtl c7
f 3 7 8
usemtl c8
f 3 8 4
usemtl c2
f 4 8 5
usemtl c4
f 5 8 9
usemtl c9
f 5 9 10
usemtl c10
f 5 10 6
usemtl c11
f 6 10 7
usemtl c12
f 7 10 11
usemtl c13
f 7 11 12
usemtl c14
f 7 12 8
usemtl c15
f 8 12 9
usemtl c16
f 9 12 12
usemtl c17
f 9 12 9
usemtl c15
f 9 12 13
usemtl c18
f 9 13 14
usemtl c19
f 9 14 15
usemtl c15
f 9 15 10
usemtl c20
f 10 15 16
usemtl c21
f 10 16 11
usemtl c22
f 10 11 11
usemtl c23
f 10 11 10
usemtl c0
f 17 18 19
usemtl c1
f 17 19 20
usemtl c24
f 17 20 21
usemtl c16
f 17 21 22
usemtl c25
f 17 22 18
usemtl c6
f 18 22 23
f 18 23 19
usemtl c7
f 19 23 24
usemtl c8
f 19 24 20
usemtl c24
f 20 24 21
usemtl c26
f 21 24 25
usemtl c25
f 21 25 22
usemtl c4
f 22 25 26
usemtl c27
f 22 26 23
usemtl c28
f 23 26 27
usemtl c29
f 23 27 24
usemtl c30
f 24 27 28
usemtl c26
f 24 28 25
f 25 28 29
usemtl c18
f 25 29 30
usemtl c31
f 25 30 26
usemtl c32
f 26 30 31
usemtl c33
f 26 31 32
usemtl c34
f 26 32 27
f 26 27 27
usemtl c29
f 26 27 26
usemtl c35
f 33 34 35
usemtl c36
f 33 35 36
usemtl c37
f 33 36 14
usemtl c38
f 33 14 13
usemtl c39
f 33 13 34
usemtl c21
f 34 13 16
usemtl c40
f 34 16 15
usemtl c41
f 34 15 35
usemtl c42
f 35 15 37
usemtl c43
f 35 37 38
usemtl c44
f 35 38 36
usemtl c45
f 36 38 14
usemtl c46
f 14 38 37
usemtl c47
f 14 37 15
usemtl c48
f 39 40 41
usemtl c49
f 39 41 42
usemtl c50
f 39 42 30
usemtl c25
f 39 30 29
usemtl c51
f 39 29 32
usemtl c52
f 39 32 40
usemtl c53
f 40 32 31
usemtl c54
f 40 31 41
usemtl c55
f 41 31 43
usemtl c56
f 41 43 42
usemtl c57
f 42 43 44
usemtl c45
f 42 44 30
usemtl c58
f 30 44 31
usemtl c59
f 31 44 43
usemtl c60
f 12 11 16
usemtl c61
f 12 16 13
usemtl c26
f 25 28 28
usemtl c62
f 25 28 25
usemtl c30
f 29 28 27
usemtl c63
f 29 27 32
