# Made by RuneLite Model-Dumper Plugin
mtllib black-dragon-mask.mtl
o Item Black dragon mask 2026-09-24_17-11-38
v -14 8 5
v -14 6 9
v -13 8 8
v -15 9 7
v -14 10 7
v -15 12 1
v -17 8 2
v -18 7 1
v -17 4 1
v -17 4 5
v -16 3 8
v -11 0 7
v -9 8 10
v -11 8 9
v -11 10 10
v -11 12 10
v -11 13 4
v -12 15 2
v -14 16 0
v -16 12 -1
v -17 11 -3
v -17 9 -2
v -17 8 -1
v -18 5 -3
v -22 3 -1
v -21 2 0
v -21 2 -4
v -28 -1 -5
v -8 20 6
v -10 16 4
v -6 19 7
v -2 18 9
v -2 21 8
v -4 23 -1
v -10 21 -3
v -11 18 0
v -9 15 6
v -8 16 6
v -9 14 7
v -7 13 9
v -5 17 9
v -5 15 10
v -3 18 10
v -3 17 9
v 0 20 10
v 0 21 8
v 1 24 1
v 1 25 -6
v -5 24 -6
v -12 23 -14
v -13 19 -5
v 0 20 11
v 2 18 10
v 2 17 9
v 1 18 9
v 2 21 8
v 5 23 -1
v 6 24 -6
v 6 23 -11
v 1 25 -11
v -5 23 -11
v -7 25 -14
v -12 21 -24
v -13 18 -24
v -11 16 -16
v -9 11 -17
v -13 12 -10
v -16 12 -6
v -23 8 -9
v -18 7 -5
v -17 8 -2
v -18 8 -2
v -10 0 -5
v -11 2 -8
v -9 -1 -9
v -10 6 -14
v 1 -2 -13
v 2 4 -21
v 10 -2 -10
v 11 7 -17
v 12 -1 -7
v 12 0 -5
v 10 11 -17
v 12 12 -10
v 15 12 -6
v 17 7 -5
v 22 5 -7
v 23 8 -9
v 17 11 -3
v 17 8 -2
v 17 5 -3
v 17 8 -1
v 16 8 2
v 17 7 1
v 21 3 -1
v 20 2 -4
v 17 4 1
v 20 2 0
v 13 8 5
v 17 4 5
v 19 0 4
v 18 -1 5
v 10 0 7
v 16 3 8
v 13 6 9
v 9 8 10
v 7 3 13
v 3 4 19
v 0 1 14
v 0 -2 8
v -4 4 19
v -8 3 13
v -7 6 19
v -9 11 11
v -3 18 13
v 0 21 13
v 2 18 13
v 4 15 10
v 4 17 9
v -2 19 18
v 0 20 18
v 2 19 18
v 2 18 17
v 3 16 15
v 7 13 9
v 7 16 6
v 8 14 7
v 11 13 4
v 8 15 6
v 9 16 4
v 11 15 2
v 10 18 0
v 7 20 6
v 5 19 7
v 12 21 -3
v 13 23 -14
v 8 25 -14
v 6 23 -16
v 1 24 -17
v -5 23 -16
v -7 20 -18
v -9 23 -25
v -12 22 -31
v -12 20 -31
v -10 20 -31
v -8 19 -24
v -5 16 -19
v -4 13 -19
v 1 11 -22
v -23 5 -7
v -22 8 -10
v -29 7 -15
v -2 18 23
v 0 19 23
v 1 18 23
v 2 18 19
v 3 17 20
v 3 17 18
v 4 15 16
v 5 14 16
v 6 13 15
v 10 12 10
v 15 12 1
v 13 16 0
v 1 17 -22
v -4 16 15
v -3 18 17
v -3 18 19
v -3 16 22
v -3 16 25
v -2 17 26
v 0 18 27
v 1 17 26
v 2 16 25
v 2 16 22
v 3 16 20
v 4 15 20
v 4 14 20
v 7 12 15
v 10 10 10
v 15 9 7
v 13 10 7
v 15 12 -1
v 13 15 -4
v 12 16 -16
v 14 18 -24
v 13 21 -24
v 10 23 -25
v 8 20 -18
v 6 16 -19
v -7 13 15
v -8 12 15
v -5 14 20
v -6 14 16
v -7 13 21
v -4 14 25
v 0 17 28
v 3 14 25
v 6 13 21
v -10 22 -32
v -12 24 -37
v -6 12 22
v -7 10 15
v -6 9 23
v -2 12 27
v -2 14 26
v 0 15 27
v 1 14 26
v 5 12 22
v -4 7 23
v -2 10 27
v 0 8 28
v 0 13 28
v 0 7 23
v 0 7 22
v 3 7 23
v 2 10 27
v 1 12 27
v 5 9 23
v 6 10 15
v 9 11 11
v 10 6 13
v 10 8 9
v 12 8 8
v -5 15 20
v -5 15 16
v -4 17 18
v -4 17 20
v -4 16 20
v -11 6 13
v -20 0 4
v -20 1 5
v -18 -1 5
v -25 -4 2
v 19 1 5
v 24 -4 2
v 5 13 -19
v 13 22 -31
v 11 22 -32
v 9 19 -24
v 11 20 -31
v 13 20 -31
v 13 24 -37
v 7 6 19
v 17 9 -2
v 28 -1 -5
v 28 7 -15
v 21 8 -10
usemtl c0
f 1 2 3
usemtl c1
f 1 3 4
usemtl c0
f 1 4 5
f 1 5 6
f 1 6 7
f 1 7 8
f 1 8 9
f 1 9 10
f 1 10 2
f 2 10 11
f 2 11 12
f 2 12 13
f 2 13 14
f 2 14 3
usemtl c2
f 3 14 4
usemtl c3
f 4 14 15
usemtl c0
f 4 15 16
f 4 16 5
f 5 16 6
f 6 16 17
f 6 17 18
f 6 18 19
f 6 19 20
f 6 20 7
f 7 20 21
f 7 21 22
f 7 22 23
f 7 23 24
f 7 24 8
f 8 24 25
f 8 25 9
f 9 25 26
f 9 26 27
f 9 27 24
f 24 27 25
usemtl c4
f 25 27 28
usemtl c5
f 25 28 26
usemtl c6
f 26 28 27
usemtl c7
f 29 30 31
usemtl c8
f 29 31 32
usemtl c9
f 29 32 33
usemtl c0
f 29 33 34
f 29 34 35
f 29 35 36
usemtl c10
f 29 36 30
usemtl c8
f 30 36 18
usemtl c11
f 30 18 17
usemtl c12
f 30 17 37
usemtl c13
f 37 17 38
usemtl c14
f 38 17 39
usemtl c15
f 38 39 40
usemtl c14
f 38 40 41
usemtl c16
f 41 40 42
usemtl c14
f 41 42 43
usemtl c17
f 41 43 44
usemtl c18
f 44 43 45
usemtl c19
f 44 45 32
usemtl c20
f 32 45 33
usemtl c21
f 33 45 46
usemtl c0
f 33 46 47
f 33 47 34
usemtl c22
f 34 47 48
usemtl c23
f 34 48 49
usemtl c0
f 34 49 35
f 35 49 50
f 35 50 51
f 35 51 19
f 35 19 36
f 36 19 18
f 45 43 52
f 45 52 53
usemtl c24
f 45 53 54
usemtl c25
f 45 54 55
usemtl c26
f 45 55 56
usemtl c27
f 45 56 46
usemtl c0
f 46 56 47
f 47 56 57
usemtl c18
f 47 57 48
usemtl c28
f 48 57 58
usemtl c29
f 48 58 59
usemtl c30
f 48 59 60
usemtl c31
f 48 60 61
usemtl c30
f 48 61 49
usemtl c32
f 49 61 62
usemtl c0
f 49 62 50
f 50 62 63
usemtl c33
f 50 63 64
usemtl c34
f 50 64 65
usemtl c35
f 50 65 51
usemtl c36
f 51 65 66
usemtl c37
f 51 66 67
usemtl c38
f 51 67 19
usemtl c4
f 19 67 68
usemtl c0
f 19 68 20
f 20 68 21
f 21 68 69
f 21 69 70
f 21 70 71
f 21 71 22
f 22 71 23
f 23 71 72
f 23 72 24
f 24 72 70
usemtl c36
f 24 70 73
usemtl c39
f 73 70 74
usemtl c40
f 73 74 75
usemtl c41
f 75 74 76
usemtl c42
f 75 76 77
usemtl c24
f 77 76 78
usemtl c43
f 77 78 79
usemtl c44
f 79 78 80
usemtl c0
f 79 80 81
f 81 80 82
f 82 80 83
f 82 83 84
usemtl c45
f 82 84 85
usemtl c46
f 82 85 86
usemtl c0
f 86 85 87
f 86 87 88
f 86 88 89
f 86 89 90
f 86 90 91
f 91 90 92
f 91 92 93
f 91 93 94
f 91 94 95
f 91 95 96
f 91 96 97
f 97 96 98
f 97 98 95
f 97 95 94
f 97 94 99
f 97 99 100
f 97 100 101
f 97 101 102
f 97 102 103
f 103 102 104
f 103 104 105
f 103 105 106
f 103 106 107
f 103 107 108
f 103 108 109
f 103 109 110
f 110 109 12
f 12 109 111
f 12 111 112
f 12 112 13
f 13 112 113
f 13 113 114
f 13 114 14
f 52 43 115
f 52 115 116
f 52 116 117
f 52 117 53
usemtl c47
f 53 117 118
usemtl c48
f 53 118 119
usemtl c49
f 53 119 54
usemtl c0
f 116 115 120
f 116 120 121
f 116 121 122
f 116 122 117
f 117 122 123
usemtl c45
f 117 123 124
usemtl c50
f 117 124 118
usemtl c51
f 118 124 125
usemtl c25
f 118 125 119
usemtl c52
f 119 125 126
usemtl c53
f 126 125 127
f 126 127 128
usemtl c54
f 126 128 129
usemtl c55
f 129 128 130
f 130 128 131
usemtl c41
f 130 131 132
f 130 132 133
usemtl c6
f 130 133 134
usemtl c36
f 134 133 55
usemtl c26
f 55 133 56
usemtl c0
f 56 133 57
f 57 133 135
f 57 135 58
f 58 135 136
f 58 136 137
usemtl c41
f 58 137 59
usemtl c52
f 59 137 138
usemtl c41
f 59 138 60
usemtl c56
f 60 138 139
usemtl c57
f 60 139 140
usemtl c42
f 60 140 61
usemtl c58
f 61 140 62
usemtl c59
f 62 140 141
usemtl c0
f 62 141 142
f 62 142 63
usemtl c60
f 63 142 143
usemtl c33
f 63 143 144
usemtl c61
f 63 144 64
usemtl c40
f 64 144 145
usemtl c62
f 64 145 146
usemtl c0
f 64 146 65
f 65 146 141
f 65 141 147
f 65 147 148
f 65 148 66
usemtl c63
f 66 148 149
usemtl c64
f 66 149 78
usemtl c65
f 66 78 76
usemtl c66
f 66 76 67
usemtl c67
f 67 76 74
usemtl c28
f 67 74 70
usemtl c39
f 67 70 68
usemtl c0
f 68 70 150
f 68 150 151
f 68 151 69
usemtl c68
f 69 151 152
usemtl c69
f 69 152 150
usemtl c0
f 69 150 70
f 121 120 153
f 121 153 154
f 121 154 155
f 121 155 122
f 122 155 156
f 122 156 123
usemtl c70
f 123 156 157
usemtl c46
f 123 157 158
usemtl c45
f 123 158 124
usemtl c71
f 124 158 159
usemtl c72
f 124 159 160
usemtl c49
f 124 160 161
usemtl c73
f 124 161 125
usemtl c0
f 125 161 162
f 125 162 127
f 127 162 128
f 128 162 163
f 128 163 131
f 131 163 164
f 131 164 132
f 132 164 135
f 132 135 133
usemtl c64
f 140 139 165
usemtl c50
f 140 165 147
usemtl c74
f 140 147 141
usemtl c14
f 42 115 43
usemtl c75
f 115 42 166
usemtl c76
f 115 166 167
usemtl c0
f 115 167 120
f 120 167 168
f 120 168 153
usemtl c77
f 153 168 169
usemtl c78
f 153 169 170
usemtl c0
f 153 170 171
f 153 171 154
f 154 171 172
f 154 172 173
f 154 173 155
f 155 173 174
usemtl c49
f 155 174 175
f 155 175 156
f 156 175 157
f 157 175 176
usemtl c70
f 157 176 158
usemtl c46
f 158 176 159
usemtl c70
f 159 176 177
f 159 177 178
usemtl c79
f 159 178 160
usemtl c80
f 160 178 161
usemtl c0
f 161 178 179
f 161 179 162
f 162 179 180
f 162 180 181
f 162 181 182
f 162 182 163
f 163 182 99
f 163 99 93
f 163 93 183
f 163 183 164
f 164 183 85
usemtl c81
f 164 85 84
usemtl c82
f 164 84 184
usemtl c0
f 164 184 135
f 135 184 136
usemtl c83
f 136 184 185
usemtl c46
f 136 185 186
usemtl c72
f 136 186 187
usemtl c0
f 136 187 137
f 137 187 188
f 137 188 189
usemtl c51
f 137 189 138
usemtl c49
f 138 189 190
usemtl c84
f 138 190 165
usemtl c49
f 138 165 139
usemtl c0
f 16 191 40
f 16 40 39
f 16 39 17
f 16 192 191
f 191 192 193
usemtl c85
f 191 193 194
usemtl c75
f 191 194 166
usemtl c85
f 191 166 40
usemtl c86
f 40 166 42
usemtl c0
f 193 192 195
f 193 195 170
usemtl c86
f 193 170 169
usemtl c0
f 170 195 196
f 170 196 171
f 171 196 197
f 171 197 172
f 172 197 173
f 173 197 198
f 173 198 174
f 174 198 199
f 174 199 178
usemtl c49
f 174 178 175
usemtl c46
f 147 165 149
usemtl c87
f 147 149 148
usemtl c54
f 143 142 200
f 143 200 201
usemtl c88
f 143 201 144
usemtl c89
f 144 201 145
usemtl c49
f 145 201 200
usemtl c45
f 145 200 146
usemtl c90
f 146 200 142
usemtl c0
f 146 142 141
usemtl c91
f 202 195 192
usemtl c92
f 202 192 203
usemtl c0
f 202 203 204
f 202 204 205
f 202 205 206
usemtl c20
f 202 206 195
f 195 206 196
usemtl c3
f 196 206 207
usemtl c14
f 196 207 197
usemtl c61
f 197 207 198
usemtl c31
f 198 207 208
usemtl c25
f 198 208 199
usemtl c62
f 199 208 209
usemtl c93
f 199 209 179
usemtl c0
f 199 179 178
f 204 203 113
f 204 113 210
f 204 210 211
f 204 211 205
f 205 211 212
f 205 212 213
f 205 213 207
f 205 207 206
f 210 113 111
f 210 111 214
f 210 214 212
f 210 212 211
f 214 111 215
f 214 215 108
f 214 108 216
f 214 216 212
f 212 216 217
f 212 217 218
f 212 218 213
f 213 218 207
f 207 218 208
f 208 218 209
f 209 218 219
f 209 219 220
usemtl c49
f 209 220 179
usemtl c48
f 179 220 221
usemtl c0
f 179 221 180
usemtl c62
f 180 221 222
usemtl c94
f 180 222 223
usemtl c65
f 180 223 181
usemtl c57
f 181 223 224
usemtl c73
f 181 224 99
usemtl c0
f 181 99 182
usemtl c85
f 193 225 226
usemtl c75
f 193 226 194
usemtl c95
f 194 226 166
usemtl c85
f 166 226 227
f 166 227 167
usemtl c96
f 167 227 228
usemtl c97
f 167 228 168
usemtl c98
f 168 228 169
f 169 228 229
usemtl c77
f 169 229 225
usemtl c99
f 225 229 226
usemtl c86
f 226 229 227
usemtl c100
f 227 229 228
usemtl c91
f 192 114 203
usemtl c0
f 203 114 113
f 15 192 16
f 192 15 114
usemtl c101
f 114 15 230
usemtl c20
f 230 15 14
usemtl c0
f 10 231 232
f 10 232 11
f 11 232 233
f 11 233 12
f 12 233 9
f 9 233 231
f 9 231 10
usemtl c36
f 234 232 231
usemtl c65
f 234 231 233
usemtl c29
f 234 233 232
usemtl c0
f 113 112 111
f 70 72 71
usemtl c52
f 152 151 150
usemtl c0
f 99 224 105
f 99 105 100
f 100 105 104
f 100 104 235
f 100 235 101
usemtl c102
f 101 235 236
usemtl c62
f 101 236 102
usemtl c103
f 102 236 235
usemtl c0
f 102 235 104
f 190 189 185
f 190 185 237
f 190 237 149
usemtl c104
f 190 149 165
usemtl c0
f 184 83 185
f 185 83 237
f 237 83 149
f 149 83 80
usemtl c44
f 149 80 78
usemtl c65
f 188 187 238
usemtl c34
f 188 238 239
usemtl c105
f 188 239 240
usemtl c0
f 188 240 189
f 189 240 185
f 185 240 186
usemtl c41
f 186 240 241
usemtl c106
f 186 241 242
usemtl c46
f 186 242 187
usemtl c79
f 187 242 238
usemtl c64
f 238 242 243
usemtl c54
f 238 243 239
usemtl c6
f 239 243 241
usemtl c17
f 239 241 240
usemtl c73
f 243 242 241
usemtl c0
f 84 83 184
f 220 219 244
f 220 244 221
f 221 244 106
f 221 106 223
f 223 106 105
f 223 105 224
f 244 219 216
f 244 216 108
f 244 108 107
f 244 107 106
f 219 218 217
f 219 217 216
f 99 94 93
usemtl c50
f 175 177 176
usemtl c0
f 89 85 183
f 89 183 93
f 89 93 245
f 89 245 90
f 90 245 92
f 92 245 93
usemtl c53
f 246 96 95
usemtl c54
f 246 95 98
usemtl c31
f 246 98 96
usemtl c53
f 247 248 88
usemtl c42
f 247 88 87
usemtl c53
f 247 87 248
usemtl c0
f 248 87 85
f 248 85 88
f 88 85 89
f 108 215 111
f 108 111 109
