# Made by RuneLite Model-Dumper Plugin
mtllib dragon-dagger.mtl
o Item Dragon dagger 2026-09-24_13-31-11
v -1 9 -3
v 2 9 -4
v 0 9 -12
v -3 9 -11
v -1 7 -3
v -3 7 -11
v -4 5 -15
v 0 7 -12
v -1 11 -16
v -4 11 -15
v -1 5 -16
v 2 7 -4
v 8 5 -2
v 5 7 -5
v 5 9 -5
v 8 11 -2
v -4 5 2
v -3 7 -3
v -3 9 -3
v -4 11 2
v 7 10 11
v 1 10 13
v 12 8 24
v 7 6 11
v 3 6 0
v 3 10 0
v 0 10 0
v 1 6 13
v 0 6 0
usemtl c0
f 1 2 3
f 1 3 4
usemtl c1
f 1 4 5
f 5 4 6
usemtl c2
f 6 4 7
usemtl c3
f 6 7 8
usemtl c4
f 6 8 3
usemtl c5
f 6 3 4
usemtl c6
f 4 3 9
usemtl c7
f 4 9 10
usemtl c8
f 4 10 7
usemtl c9
f 7 10 11
usemtl c10
f 7 11 8
usemtl c11
f 8 11 9
usemtl c12
f 8 9 3
usemtl c13
f 8 3 12
f 12 3 2
usemtl c14
f 13 14 15
usemtl c15
f 13 15 16
usemtl c16
f 13 16 17
usemtl c17
f 13 17 14
usemtl c18
f 14 17 18
usemtl c19
f 14 18 19
usemtl c20
f 14 19 15
usemtl c17
f 15 19 16
usemtl c21
f 16 19 20
usemtl c6
f 16 20 17
usemtl c22
f 17 20 18
usemtl c23
f 18 20 19
usemtl c24
f 10 9 11
usemtl c25
f 21 22 23
usemtl c26
f 21 23 24
usemtl c27
f 21 24 25
usemtl c28
f 21 25 26
usemtl c29
f 21 26 22
usemtl c30
f 22 26 27
usemtl c31
f 22 27 28
usemtl c32
f 22 28 23
usemtl c25
f 23 28 24
usemtl c33
f 24 28 29
usemtl c34
f 24 29 25
usemtl c35
f 27 29 28
