# Made by RuneLite Model-Dumper Plugin
mtllib iron-pickaxe.mtl
o ware
v 23 4 32
v 4 4 37
v 5 -1 31
v 22 1 28
v 34 4 23
v 22 7 28
v 5 9 31
v 4 9 37
v 1 7 42
v 1 1 42
v 4 -1 37
v -5 -1 29
v -3 -1 25
v 4 -1 26
v 4 9 26
v -5 9 29
v -6 9 35
v -6 7 40
v -6 1 40
v -6 -1 35
v -6 4 35
v -23 4 22
v -22 1 19
v -3 9 25
v 11 6 -35
v 11 2 -35
v 14 2 -35
v 14 6 -35
v -22 7 19
v -31 4 10
v 12 7 -44
v 12 1 -44
v 16 1 -43
v 16 7 -43
usemtl c0
f 1 2 3
usemtl c1
f 1 3 4
usemtl c2
f 1 4 5
usemtl c3
f 1 5 6
usemtl c4
f 1 6 7
f 1 7 2
usemtl c5
f 2 7 8
usemtl c6
f 2 8 9
usemtl c7
f 2 9 10
usemtl c8
f 2 10 11
usemtl c9
f 2 11 3
usemtl c10
f 3 11 12
usemtl c11
f 3 12 13
usemtl c12
f 3 13 14
usemtl c13
f 3 14 7
usemtl c9
f 3 7 6
usemtl c14
f 3 6 4
usemtl c15
f 4 6 5
usemtl c13
f 7 14 15
usemtl c10
f 7 15 16
usemtl c16
f 7 16 17
usemtl c17
f 7 17 8
usemtl c18
f 8 17 18
usemtl c19
f 8 18 9
usemtl c20
f 9 18 10
usemtl c21
f 10 18 19
usemtl c20
f 10 19 20
usemtl c7
f 10 20 11
usemtl c22
f 11 20 12
usemtl c23
f 12 20 21
usemtl c24
f 12 21 22
usemtl c25
f 12 22 23
usemtl c4
f 12 23 16
usemtl c26
f 12 16 24
usemtl c27
f 12 24 13
usemtl c7
f 13 24 25
f 13 25 26
usemtl c28
f 13 26 14
usemtl c29
f 14 26 27
usemtl c30
f 14 27 15
usemtl c31
f 15 27 28
usemtl c28
f 15 28 24
usemtl c32
f 15 24 16
usemtl c24
f 22 21 16
usemtl c33
f 22 16 29
usemtl c34
f 22 29 30
usemtl c35
f 22 30 23
usemtl c0
f 23 30 29
usemtl c36
f 23 29 16
usemtl c37
f 16 21 17
usemtl c38
f 17 21 18
usemtl c39
f 18 21 19
usemtl c21
f 19 21 20
usemtl c7
f 28 25 24
usemtl c40
f 25 28 27
usemtl c28
f 25 27 26
usemtl c7
f 25 26 28
usemtl c41
f 25 28 31
usemtl c7
f 25 31 26
usemtl c28
f 26 31 32
usemtl c29
f 26 32 33
f 26 33 27
usemtl c28
f 26 27 28
usemtl c31
f 28 27 34
usemtl c40
f 28 34 31
usemtl c31
f 31 34 32
usemtl c30
f 32 34 33
f 33 34 27
