mtllib bronze-kiteshield.mtl
g objMesh
v -9.000000 15.000000 42.000000
v 22.000000 6.000000 57.000000
v 22.000000 12.000000 57.000000
v -9.000000 21.000000 42.000000
v -40.000000 2.000000 45.000000
v -30.000000 7.000000 1.000000
v -30.000000 1.000000 1.000000
v -4.000000 19.000000 6.000000
v -25.000000 10.000000 -6.000000
v -27.000000 10.000000 2.000000
v -40.000000 8.000000 45.000000
v -12.000000 22.000000 37.000000
v -35.000000 11.000000 38.000000
v 9.000000 14.000000 -41.000000
v 31.000000 4.000000 14.000000
v -25.000000 6.000000 -26.000000
v -25.000000 0.000000 -26.000000
v 31.000000 10.000000 14.000000
v 20.000000 16.000000 48.000000
v -4.000000 21.000000 39.000000
v -23.000000 9.000000 -21.000000
v 3.000000 18.000000 -34.000000
v 26.000000 13.000000 13.000000
v 9.000000 19.000000 -41.000000
v 36.000000 8.000000 -14.000000
v 36.000000 3.000000 -14.000000
v 29.000000 13.000000 5.000000
v 3.000000 19.000000 7.000000
v 5.000000 19.000000 -1.000000
v 11.000000 19.000000 -32.000000
v -3.000000 19.000000 -2.000000
v 32.000000 14.000000 -11.000000
vt 0.000000 0.000000
vt 0.166667 0.000000
vt 0.000000 0.100000
vt 0.166667 0.000000
vt 0.333333 0.000000
vt 0.166667 0.100000
vt 0.333333 0.000000
vt 0.500000 0.000000
vt 0.333333 0.100000
vt 0.500000 0.000000
vt 0.666667 0.000000
vt 0.500000 0.100000
vt 0.666667 0.000000
vt 0.833333 0.000000
vt 0.666667 0.100000
vt 0.833333 0.000000
vt 1.000000 0.000000
vt 0.833333 0.100000
vt 0.000000 0.100000
vt 0.166667 0.100000
vt 0.000000 0.200000
vt 0.166667 0.100000
vt 0.333333 0.100000
vt 0.166667 0.200000
vt 0.333333 0.100000
vt 0.500000 0.100000
vt 0.333333 0.200000
vt 0.500000 0.100000
vt 0.666667 0.100000
vt 0.500000 0.200000
vt 0.666667 0.100000
vt 0.833333 0.100000
vn -0.082161 -0.684837 0.721714
vn 0.182067 -0.648605 0.736741
vn 0.459081 0.572161 0.677122
vn -0.109466 0.719601 0.683242
vn -0.790180 -0.493814 0.358303
vn -0.893337 0.397570 -0.201268
vn -0.531436 -0.841132 -0.081863
vn -0.154299 0.983594 -0.073190
vn -0.526077 0.840123 -0.118571
vn -0.528405 0.833548 -0.150365
vn -0.609955 0.681994 0.399326
vn -0.226084 0.971466 0.041958
vn -0.517290 0.850902 -0.070710
vn 0.265976 -0.826710 -0.492367
vn 0.571206 -0.806897 0.138785
vn -0.770689 0.523859 -0.358098
vn -0.545025 -0.358169 -0.755837
vn 0.857275 0.488661 0.151387
vn 0.403352 0.903806 0.130615
vn 0.131155 0.985452 0.091140
vn -0.477115 0.860304 -0.169899
vn -0.257237 0.957179 -0.119409
vn 0.324145 0.942993 0.048140
vn -0.053220 0.687846 -0.721570
vn 0.849941 0.455184 -0.258904
vn 0.915350 -0.368482 -0.151599
vn 0.524105 0.839166 0.133182
vn 0.100576 0.993232 -0.001228
vn 0.109173 0.991776 0.032915
vn 0.220313 0.967213 -0.112169
vn -0.185720 0.979694 -0.048262
vn 0.522296 0.849996 -0.036484
usemtl c0
f 1/1/1 2/2/2 3/3/3
usemtl c1
f 1/1/1 3/3/3 4/4/4
f 5/5/5 6/6/6 7/7/7
f 8/8/8 9/9/9 10/10/10
usemtl c2
f 1/1/1 4/4/4 11/11/11
f 4/4/4 12/12/12 11/11/11
usemtl c3
f 1/1/1 11/11/11 5/5/5
f 11/11/11 12/12/12 13/13/13
usemtl c4
f 1/1/1 5/5/5 7/7/7
usemtl c5
f 1/1/1 7/7/7 14/14/14
usemtl c6
f 1/1/1 14/14/14 15/15/15
usemtl c7
f 1/1/1 15/15/15 2/2/2
usemtl c8
f 2/2/2 15/15/15 3/3/3
f 7/7/7 16/16/16 17/17/17
usemtl c9
f 3/3/3 15/15/15 18/18/18
usemtl c10
f 3/3/3 18/18/18 19/19/19
usemtl c11
f 3/3/3 19/19/19 20/20/20
usemtl c12
f 3/3/3 20/20/20 4/4/4
usemtl c13
f 4/4/4 20/20/20 12/12/12
f 7/7/7 6/6/6 16/16/16
f 16/16/16 21/21/21 22/22/22
usemtl c14
f 11/11/11 13/13/13 10/10/10
usemtl c15
f 11/11/11 10/10/10 6/6/6
f 11/11/11 6/6/6 5/5/5
usemtl c16
f 7/7/7 17/17/17 14/14/14
f 18/18/18 23/23/23 19/19/19
usemtl c17
f 14/14/14 17/17/17 24/24/24
usemtl c18
f 14/14/14 24/24/24 25/25/25
f 14/14/14 26/26/26 15/15/15
f 15/15/15 26/26/26 18/18/18
usemtl c19
f 14/14/14 25/25/25 26/26/26
f 18/18/18 26/26/26 25/25/25
usemtl c20
f 18/18/18 25/25/25 27/27/27
usemtl c21
f 18/18/18 27/27/27 23/23/23
usemtl c22
f 19/19/19 23/23/23 20/20/20
usemtl c23
f 20/20/20 23/23/23 28/28/28
usemtl c24
f 20/20/20 28/28/28 8/8/8
f 24/24/24 16/16/16 22/22/22
f 22/22/22 29/29/29 30/30/30
usemtl c25
f 20/20/20 8/8/8 12/12/12
f 28/28/28 31/31/31 8/8/8
usemtl c26
f 12/12/12 8/8/8 10/10/10
usemtl c27
f 12/12/12 10/10/10 13/13/13
usemtl c28
f 17/17/17 16/16/16 24/24/24
usemtl c29
f 24/24/24 22/22/22 30/30/30
usemtl c30
f 24/24/24 30/30/30 25/25/25
f 25/25/25 30/30/30 32/32/32
usemtl c31
f 25/25/25 32/32/32 27/27/27
usemtl c32
f 27/27/27 32/32/32 29/29/29
usemtl c33
f 27/27/27 29/29/29 23/23/23
usemtl c34
f 23/23/23 29/29/29 28/28/28
usemtl c35
f 28/28/28 29/29/29 31/31/31
usemtl c36
f 8/8/8 31/31/31 9/9/9
usemtl c37
f 10/10/10 9/9/9 6/6/6
usemtl c38
f 6/6/6 9/9/9 16/16/16
usemtl c39
f 16/16/16 9/9/9 21/21/21
usemtl c40
f 22/22/22 21/21/21 31/31/31
usemtl c41
f 22/22/22 31/31/31 29/29/29
usemtl c42
f 30/30/30 29/29/29 32/32/32
usemtl c43
f 31/31/31 21/21/21 9/9/9
