# Made by RuneLite Model-Dumper Plugin
mtllib dragon-scimitar.mtl
o Item Dragon scimitar 2026-09-24_19-58-45
v -27 6 27
v -29 6 32
v -29 1 32
v -27 1 27
v -26 0 27
v -26 7 27
v -31 6 26
v -33 6 31
v -34 6 35
v -31 6 38
v -31 1 38
v -29 6 44
v -29 1 44
v -31 6 48
v -31 1 48
v -34 6 49
v -34 1 49
v -37 6 50
v -37 1 50
v -38 6 48
v -38 1 48
v -34 1 47
v -34 6 47
v -34 6 44
v -34 1 44
v -34 1 35
v -33 1 31
v -31 1 26
v -31 0 24
v -31 7 24
v -33 6 20
v -33 2 20
v -35 5 13
v -35 3 13
v -33 6 9
v -33 2 9
v -32 3 14
v -33 2 10
v -30 3 11
v -30 2 13
v -32 5 14
v -31 6 17
v -31 2 17
v -28 7 19
v -28 0 19
v -28 4 20
v -26 1 23
v -20 0 27
v -21 4 26
v -20 7 27
v -19 6 27
v -19 2 27
v -17 5 32
v -17 3 32
v -14 6 31
v -14 2 31
v -15 2 36
v -19 3 31
v -21 2 29
v -21 6 29
v -33 5 10
v -32 5 9
v -33 5 9
v -32 2 9
v -30 5 11
v -30 6 13
v -19 5 31
v -18 6 36
v -15 5 36
v -13 5 34
v -13 3 34
v -16 5 37
v -16 2 37
v -18 2 36
v -17 2 36
v -17 5 36
v -26 6 23
v -16 6 6
v -17 4 3
v -4 6 -10
v -4 4 -20
v 15 6 -25
v 16 4 -35
v 41 4 -48
v 35 4 -38
v 33 4 -33
v 30 4 -28
v 31 4 -19
v 24 4 -20
v 14 4 -15
v 8 4 -4
v -1 4 -2
v -6 4 3
v -11 4 14
v -16 4 16
v -19 4 20
usemtl c0
f 1 2 3
usemtl c1
f 1 3 4
usemtl c2
f 1 4 5
usemtl c3
f 1 5 6
usemtl c4
f 1 6 7
usemtl c5
f 1 7 2
usemtl c6
f 2 7 8
usemtl c7
f 2 8 9
usemtl c8
f 2 9 10
usemtl c9
f 2 10 3
usemtl c10
f 3 10 11
usemtl c11
f 11 10 12
usemtl c12
f 11 12 13
usemtl c13
f 13 12 14
usemtl c14
f 13 14 15
usemtl c15
f 15 14 16
usemtl c16
f 15 16 17
usemtl c17
f 17 16 18
usemtl c3
f 17 18 19
usemtl c18
f 19 18 20
usemtl c19
f 19 20 21
usemtl c20
f 21 20 22
usemtl c21
f 22 20 23
usemtl c22
f 22 23 24
usemtl c23
f 22 24 25
usemtl c24
f 25 24 9
usemtl c25
f 25 9 26
usemtl c26
f 26 9 8
usemtl c27
f 26 8 27
usemtl c28
f 27 8 28
usemtl c27
f 28 8 7
usemtl c29
f 28 7 29
usemtl c30
f 29 7 30
f 29 30 31
usemtl c31
f 29 31 32
usemtl c32
f 32 31 33
usemtl c33
f 32 33 34
usemtl c34
f 34 33 35
usemtl c35
f 34 35 36
usemtl c36
f 34 36 37
usemtl c37
f 37 36 38
usemtl c38
f 37 38 39
usemtl c39
f 37 39 40
usemtl c0
f 37 40 41
usemtl c40
f 37 41 42
usemtl c11
f 37 42 43
usemtl c41
f 43 42 44
usemtl c42
f 43 44 45
f 45 44 46
usemtl c43
f 45 46 47
f 45 47 48
f 48 47 49
usemtl c41
f 48 49 50
usemtl c44
f 48 50 51
usemtl c45
f 48 51 52
usemtl c11
f 52 51 53
f 52 53 54
usemtl c46
f 54 53 55
usemtl c47
f 54 55 56
usemtl c48
f 54 56 57
usemtl c49
f 54 57 58
usemtl c28
f 54 58 59
usemtl c50
f 59 58 60
usemtl c51
f 59 60 6
usemtl c52
f 59 6 5
usemtl c53
f 10 9 24
usemtl c54
f 10 24 12
usemtl c15
f 12 24 16
usemtl c55
f 12 16 14
usemtl c56
f 16 24 23
usemtl c57
f 16 23 18
usemtl c58
f 18 23 20
usemtl c59
f 6 30 7
usemtl c60
f 30 6 50
usemtl c61
f 30 50 44
usemtl c62
f 30 44 42
usemtl c7
f 30 42 31
usemtl c63
f 31 42 41
usemtl c64
f 31 41 33
usemtl c65
f 33 41 61
usemtl c21
f 33 61 35
usemtl c66
f 35 61 62
usemtl c67
f 35 62 63
usemtl c40
f 35 63 36
usemtl c68
f 36 63 36
usemtl c69
f 36 36 38
usemtl c70
f 38 36 64
f 38 64 61
usemtl c71
f 38 61 65
usemtl c72
f 38 65 39
usemtl c10
f 39 65 66
usemtl c73
f 39 66 40
usemtl c74
f 40 66 41
usemtl c75
f 41 66 61
usemtl c76
f 61 66 65
usemtl c77
f 50 6 60
usemtl c78
f 50 60 51
usemtl c79
f 51 60 67
usemtl c8
f 51 67 53
usemtl c6
f 53 67 68
usemtl c20
f 53 68 69
usemtl c69
f 53 69 70
usemtl c80
f 53 70 55
usemtl c81
f 55 70 56
f 56 70 71
usemtl c82
f 56 71 57
usemtl c83
f 57 71 69
usemtl c36
f 57 69 72
usemtl c84
f 57 72 73
usemtl c56
f 57 73 74
usemtl c57
f 57 74 58
usemtl c27
f 58 74 67
usemtl c85
f 58 67 60
usemtl c26
f 74 68 67
usemtl c4
f 68 74 75
usemtl c86
f 68 75 76
usemtl c26
f 68 76 69
usemtl c87
f 69 76 72
usemtl c88
f 72 76 73
usemtl c30
f 73 76 75
usemtl c88
f 73 75 74
usemtl c66
f 71 70 69
usemtl c9
f 64 62 61
f 62 64 36
usemtl c89
f 62 36 63
usemtl c41
f 49 77 50
usemtl c45
f 50 77 44
usemtl c42
f 44 77 46
usemtl c90
f 46 77 78
f 46 78 79
usemtl c91
f 79 78 80
usemtl c90
f 79 80 81
usemtl c92
f 81 80 82
usemtl c93
f 81 82 83
f 83 82 84
usemtl c91
f 84 82 85
usemtl c92
f 85 82 86
usemtl c91
f 86 82 87
usemtl c92
f 87 82 88
usemtl c94
f 88 82 89
usemtl c91
f 89 82 90
usemtl c95
f 90 82 91
usemtl c91
f 91 82 92
f 92 82 80
usemtl c92
f 92 80 93
usemtl c96
f 93 80 94
usemtl c92
f 94 80 78
usemtl c91
f 94 78 95
usemtl c93
f 95 78 96
usemtl c97
f 96 78 49
usemtl c93
f 49 78 77
