# Made by RuneLite Model-Dumper Plugin
mtllib runite-platelegs.mtl
o Item Rune platelegs 2026-09-24_18-19-42
v -13 21 -51
v -15 22 -45
v -3 23 -40
v 3 23 -40
v 15 22 -45
v 13 21 -51
v 13 21 -55
v -13 21 -55
v -13 5 -52
v -14 12 -48
v -16 22 -42
v -3 23 -34
v 3 23 -34
v 16 22 -42
v 15 12 -45
v 14 12 -48
v 13 5 -52
v 13 5 -56
v 11 19 -55
v -11 19 -55
v -11 7 -56
v -13 5 -56
v -14 2 -47
v -15 12 -45
v -17 22 -38
v -14 20 -8
v -4 20 -8
v -3 10 -1
v -3 4 -4
v 0 3 -36
v -17 3 -34
v -3 -1 -39
v 3 -1 -39
v 17 3 -34
v 3 4 -4
v 3 10 -1
v 4 20 -8
v 14 20 -8
v 17 22 -38
v 16 0 -42
v 14 2 -47
v 3 -1 -44
v -3 -1 -44
v -16 0 -42
v -15 10 -1
v -17 20 -1
v -12 23 -6
v -6 23 -6
v -3 23 -1
v -1 20 -1
v -4 19 5
v -3 4 0
v -15 4 -4
v -15 4 0
v -14 19 5
v -15 23 -1
v -12 23 3
v -6 23 3
v -12 13 41
v -6 13 41
v -6 3 39
v -1 1 12
v 12 13 41
v 14 19 5
v 4 19 5
v 6 13 41
v 12 3 39
v 17 1 12
v 15 4 0
v 15 10 -1
v 17 20 -1
v 12 23 3
v 6 23 3
v 3 23 -1
v 1 20 -1
v 3 4 0
v 1 1 12
v 6 3 39
v 15 4 -4
v 15 23 -1
v -17 1 12
v -12 3 39
v 11 7 -56
v 12 23 -6
v 6 23 -6
usemtl c0
f 1 2 3
usemtl c1
f 1 3 4
usemtl c2
f 1 4 5
usemtl c3
f 1 5 6
usemtl c4
f 1 6 7
usemtl c5
f 1 7 8
usemtl c6
f 1 8 9
usemtl c7
f 1 9 10
usemtl c8
f 1 10 2
usemtl c9
f 2 10 11
usemtl c10
f 2 11 3
usemtl c11
f 3 11 12
usemtl c12
f 3 12 4
usemtl c13
f 4 12 13
usemtl c14
f 4 13 14
usemtl c15
f 4 14 5
usemtl c16
f 5 14 15
usemtl c17
f 5 15 16
usemtl c18
f 5 16 6
usemtl c19
f 6 16 17
usemtl c20
f 6 17 7
f 7 17 18
usemtl c21
f 7 18 19
usemtl c22
f 7 19 8
usemtl c23
f 8 19 20
f 8 20 21
usemtl c24
f 8 21 22
usemtl c25
f 8 22 9
usemtl c5
f 9 22 18
usemtl c4
f 9 18 17
usemtl c26
f 9 17 23
usemtl c27
f 9 23 10
usemtl c28
f 10 23 24
usemtl c29
f 10 24 11
usemtl c30
f 11 24 25
usemtl c31
f 11 25 12
usemtl c32
f 12 25 26
usemtl c33
f 12 26 27
usemtl c34
f 12 27 28
usemtl c35
f 12 28 29
usemtl c36
f 12 29 30
usemtl c37
f 30 29 31
usemtl c38
f 30 31 32
usemtl c13
f 30 32 33
usemtl c39
f 30 33 34
usemtl c40
f 30 34 35
usemtl c41
f 30 35 13
usemtl c42
f 13 35 36
f 13 36 37
usemtl c43
f 13 37 38
usemtl c44
f 13 38 39
usemtl c45
f 13 39 14
usemtl c16
f 14 39 15
usemtl c46
f 15 39 34
usemtl c47
f 15 34 40
usemtl c48
f 15 40 16
f 16 40 41
f 16 41 17
usemtl c47
f 17 41 42
usemtl c49
f 17 42 43
usemtl c50
f 17 43 23
usemtl c51
f 23 43 44
usemtl c52
f 23 44 24
usemtl c53
f 24 44 31
usemtl c54
f 24 31 25
usemtl c55
f 25 31 26
usemtl c56
f 26 31 45
usemtl c57
f 26 45 46
usemtl c58
f 26 46 47
usemtl c2
f 26 47 27
usemtl c59
f 27 47 48
usemtl c60
f 27 48 49
usemtl c61
f 27 49 50
usemtl c62
f 27 50 28
usemtl c49
f 28 50 51
usemtl c34
f 28 51 52
usemtl c18
f 28 52 29
usemtl c3
f 29 52 53
usemtl c37
f 29 53 31
usemtl c63
f 31 53 45
usemtl c64
f 45 53 54
usemtl c65
f 45 54 55
usemtl c66
f 45 55 46
usemtl c67
f 46 55 56
usemtl c68
f 46 56 47
usemtl c69
f 47 56 48
usemtl c8
f 48 56 57
usemtl c70
f 48 57 58
usemtl c39
f 48 58 49
usemtl c71
f 49 58 50
usemtl c72
f 50 58 51
usemtl c58
f 51 58 55
usemtl c73
f 51 55 59
usemtl c74
f 51 59 60
usemtl c75
f 51 60 61
usemtl c76
f 51 61 62
usemtl c77
f 51 62 52
usemtl c78
f 52 62 54
usemtl c79
f 52 54 53
usemtl c80
f 33 32 43
usemtl c15
f 33 43 42
usemtl c81
f 33 42 40
f 33 40 34
usemtl c47
f 41 40 42
usemtl c82
f 43 32 44
usemtl c38
f 44 32 31
usemtl c83
f 63 64 65
usemtl c42
f 63 65 66
usemtl c84
f 63 66 67
usemtl c85
f 63 67 68
usemtl c86
f 63 68 64
usemtl c87
f 64 68 69
usemtl c88
f 64 69 70
usemtl c49
f 64 70 71
usemtl c72
f 64 71 72
usemtl c89
f 64 72 65
usemtl c90
f 65 72 73
usemtl c91
f 65 73 74
f 65 74 75
usemtl c92
f 65 75 36
usemtl c93
f 65 36 76
usemtl c94
f 65 76 77
usemtl c63
f 65 77 78
usemtl c95
f 65 78 66
usemtl c84
f 66 78 67
usemtl c96
f 67 78 68
f 68 78 77
usemtl c97
f 68 77 69
usemtl c98
f 69 77 76
usemtl c99
f 69 76 35
usemtl c100
f 69 35 79
usemtl c101
f 69 79 70
usemtl c102
f 70 79 34
usemtl c103
f 70 34 38
usemtl c104
f 70 38 71
usemtl c105
f 71 38 80
usemtl c72
f 71 80 72
usemtl c106
f 72 80 74
usemtl c107
f 72 74 73
usemtl c78
f 34 79 35
usemtl c108
f 38 34 39
usemtl c63
f 81 82 59
usemtl c109
f 81 59 55
usemtl c110
f 81 55 54
usemtl c111
f 81 54 62
usemtl c112
f 81 62 61
usemtl c113
f 81 61 82
usemtl c84
f 82 61 59
f 59 61 60
usemtl c23
f 18 22 21
usemtl c114
f 18 21 83
f 18 83 19
usemtl c84
f 19 83 20
f 20 83 21
usemtl c115
f 74 80 84
usemtl c116
f 74 84 85
usemtl c117
f 74 85 75
usemtl c118
f 75 85 37
usemtl c90
f 75 37 36
usemtl c119
f 85 84 38
usemtl c45
f 85 38 37
usemtl c120
f 38 84 80
usemtl c29
f 36 35 76
usemtl c121
f 55 57 56
usemtl c122
f 57 55 58
