# Made by RuneLite Model-Dumper Plugin
mtllib pizza.mtl
o Item Pineapple pizza 2026-09-13_16-41-54
v -11 8 -21
v -14 8 -19
v -16 8 -16
v -11 8 -8
v -3 8 -13
v -11 8 8
v -7 8 13
v 1 8 22
v 3 8 15
v 10 8 -8
v -1 8 -19
v 4 8 -21
v -20 8 -3
v -23 8 4
v -18 8 11
v -10 8 20
v -6 8 24
v 10 8 19
v 14 8 19
v 14 8 8
v 11 8 1
v 20 8 4
v 16 8 -12
v 23 8 -8
v 23 8 3
v -25 0 -12
v -25 0 12
v -25 8 12
v -25 8 -12
v -12 0 -24
v -12 8 -24
v 12 0 -24
v 12 8 -24
v 25 0 -12
v 25 8 -12
v 25 0 12
v 25 8 12
v 12 0 24
v 12 8 24
v -12 0 24
v -12 8 24
v 7 8 -11
v 5 8 -13
v 2 8 -13
v 0 8 -8
v 5 8 -6
v -7 8 -4
v -7 8 -3
v -10 8 4
v -6 8 4
v 7 8 2
v 10 8 -6
v 11 8 -2
v -4 8 -13
v -8 8 -13
v -13 8 -3
v -15 8 0
v -6 8 9
v -3 8 11
v 0 8 9
v 2 8 5
v 3 8 11
v 10 8 6
v 11 8 10
v 5 8 12
v -13 10 -19
v -16 10 -16
v -13 10 -7
v -11 10 -16
v 3 10 -17
v 5 10 -15
v 14 10 -18
v 5 10 -20
v -9 10 14
v -12 10 13
v -16 10 20
v -9 10 16
v 21 10 7
v 21 10 3
v 15 10 -3
v 17 10 6
v 2 10 -4
v 5 10 -6
v 4 10 -13
v 1 10 -6
v -25 10 7
v -22 10 10
v -13 10 12
v -21 10 6
v -25 10 -12
v -25 10 -9
v -16 10 -4
v -22 10 -12
v 3 10 15
v -2 10 15
v 1 10 24
v 4 10 15
v 22 10 -7
v 19 10 -8
v 10 10 -8
v 19 10 -4
v -6 10 -13
v -3 10 -14
v -2 10 -22
v -6 10 -16
v 1 10 10
v 1 10 7
v -7 10 3
v -2 10 10
v 10 10 18
v 14 10 18
v 18 10 12
v 11 10 15
usemtl c0
f 1 2 3
f 1 3 4
f 1 4 5
f 5 4 6
f 5 6 7
f 5 7 8
f 5 8 9
f 5 9 10
f 5 10 11
f 11 10 12
f 4 13 14
f 4 14 15
f 4 15 6
f 7 16 17
f 7 17 8
f 9 18 19
f 9 19 20
f 9 20 21
f 9 21 10
f 10 21 22
f 10 22 23
f 23 22 24
f 24 22 25
usemtl c1
f 26 27 28
usemtl c2
f 26 28 29
usemtl c3
f 26 29 30
usemtl c4
f 30 29 31
usemtl c5
f 30 31 32
usemtl c6
f 32 31 33
usemtl c7
f 32 33 34
usemtl c8
f 34 33 35
usemtl c9
f 34 35 36
usemtl c10
f 36 35 37
usemtl c11
f 36 37 38
usemtl c12
f 38 37 39
usemtl c13
f 38 39 40
usemtl c14
f 40 39 41
usemtl c15
f 40 41 27
usemtl c16
f 27 41 28
usemtl c17
f 28 41 29
usemtl c18
f 29 41 39
usemtl c3
f 29 39 37
usemtl c19
f 29 37 35
usemtl c20
f 29 35 33
usemtl c21
f 29 33 31
usemtl c22
f 42 43 44
f 42 44 45
f 42 45 46
f 46 45 47
f 46 47 48
f 46 48 49
f 46 49 50
f 46 50 51
f 46 51 52
f 52 51 53
f 45 54 55
f 45 55 4
f 45 4 47
f 48 56 57
f 48 57 49
f 50 58 59
f 50 59 60
f 50 60 61
f 50 61 51
f 51 61 62
f 51 62 63
f 63 62 64
f 64 62 65
usemtl c23
f 66 67 68
f 66 68 69
f 70 71 72
f 70 72 73
f 74 75 76
f 74 76 77
f 78 79 80
f 78 80 81
f 82 83 84
f 82 84 85
f 86 87 88
f 86 88 89
f 90 91 92
f 90 92 93
f 94 95 96
f 94 96 97
f 98 99 100
f 98 100 101
f 102 103 104
f 102 104 105
f 106 107 108
f 106 108 109
f 110 111 112
f 110 112 113
