# Blender 5.2.0 LTS
# www.blender.org
mtllib ladder.mtl
o Object_Ladder_2026-09-13_16-36-42
v -32.000000 21.000000 -0.000002
v -32.000000 14.000001 7.999999
v 32.000000 14.000001 7.999999
v 32.000000 21.000000 -0.000002
v -32.000000 13.999999 -8.000001
v -32.000000 7.000000 -0.000001
v 32.000000 7.000000 -0.000001
v 32.000000 13.999999 -8.000001
v -32.000000 56.000000 -0.000004
v -32.000000 49.000000 7.999996
v 32.000000 49.000000 7.999996
v 32.000000 56.000000 -0.000004
v -32.000000 49.000000 -8.000004
v -32.000000 42.000000 -0.000003
v 32.000000 42.000000 -0.000003
v 32.000000 49.000000 -8.000004
v -32.000000 93.000000 -0.000007
v -32.000000 86.000000 7.999993
v 32.000000 86.000000 7.999993
v 32.000000 93.000000 -0.000007
v -32.000000 86.000000 -8.000007
v -32.000000 79.000000 -0.000006
v 32.000000 79.000000 -0.000006
v 32.000000 86.000000 -8.000007
v -32.000000 133.000000 -0.000010
v -32.000000 126.000000 7.999990
v 32.000000 126.000000 7.999990
v 32.000000 133.000000 -0.000010
v -32.000000 126.000000 -8.000010
v -32.000000 119.000000 -0.000009
v 32.000000 119.000000 -0.000009
v 32.000000 126.000000 -8.000010
v -32.000000 175.000000 -0.000013
v -32.000000 168.000000 7.999987
v 32.000000 168.000000 7.999987
v 32.000000 175.000000 -0.000013
v -32.000000 168.000000 -8.000012
v -32.000000 161.000000 -0.000012
v 32.000000 161.000000 -0.000012
v 32.000000 168.000000 -8.000012
v -32.000000 216.000000 -0.000016
v -32.000000 209.000000 7.999984
v 32.000000 209.000000 7.999984
v 32.000000 216.000000 -0.000016
v -32.000000 209.000000 -8.000016
v -32.000000 202.000000 -0.000015
v 32.000000 202.000000 -0.000015
v 32.000000 209.000000 -8.000016
v -32.000000 0.000001 12.000000
v -48.000000 0.000001 12.000000
v -48.000000 -0.000001 -12.000000
v -32.000000 -0.000001 -12.000000
v -32.000000 233.000000 11.999983
v -48.000000 233.000000 11.999983
v -48.000000 233.000000 -12.000017
v -32.000000 233.000000 -12.000017
v 48.000000 0.000001 12.000000
v 32.000000 0.000001 12.000000
v 32.000000 -0.000001 -12.000000
v 48.000000 -0.000001 -12.000000
v 48.000000 233.000000 11.999983
v 32.000000 233.000000 11.999983
v 32.000000 233.000000 -12.000017
v 48.000000 233.000000 -12.000017
vn -0.0000 0.7526 0.6585
vn -0.0000 0.7526 -0.6585
vn -1.0000 -0.0000 -0.0000
vn -0.0000 -0.7526 0.6585
vn 1.0000 -0.0000 -0.0000
vn -0.0000 -0.7526 -0.6585
vn -0.0000 -1.0000 -0.0000
vn -0.0000 -0.0000 1.0000
vn -0.0000 -0.0000 -1.0000
vn -0.0000 1.0000 -0.0000
s 0
usemtl c0
f 1//1 2//1 3//1
f 9//1 10//1 11//1
f 17//1 18//1 19//1
f 25//1 26//1 27//1
f 33//1 34//1 35//1
f 41//1 42//1 43//1
usemtl c1
f 1//1 3//1 4//1
f 9//1 11//1 12//1
f 17//1 19//1 20//1
f 25//1 27//1 28//1
f 33//1 35//1 36//1
f 41//1 43//1 44//1
usemtl c2
f 1//2 4//2 5//2
f 9//2 12//2 13//2
f 17//2 20//2 21//2
f 25//2 28//2 29//2
f 33//2 36//2 37//2
f 41//2 44//2 45//2
usemtl c3
f 1//3 5//3 2//3
f 9//3 13//3 10//3
f 17//3 21//3 18//3
f 25//3 29//3 26//3
f 33//3 37//3 34//3
f 41//3 45//3 42//3
usemtl c4
f 2//3 5//3 6//3
f 10//3 13//3 14//3
f 18//3 21//3 22//3
f 26//3 29//3 30//3
f 34//3 37//3 38//3
f 42//3 45//3 46//3
usemtl c5
f 2//4 6//4 7//4
f 10//4 14//4 15//4
f 18//4 22//4 23//4
f 26//4 30//4 31//4
f 34//4 38//4 39//4
f 42//4 46//4 47//4
usemtl c6
f 2//4 7//4 3//4
f 10//4 15//4 11//4
f 18//4 23//4 19//4
f 26//4 31//4 27//4
f 34//4 39//4 35//4
f 42//4 47//4 43//4
usemtl c7
f 3//5 7//5 4//5
f 11//5 15//5 12//5
f 19//5 23//5 20//5
f 27//5 31//5 28//5
f 35//5 39//5 36//5
f 43//5 47//5 44//5
usemtl c8
f 4//5 7//5 8//5
f 12//5 15//5 16//5
f 20//5 23//5 24//5
f 28//5 31//5 32//5
f 36//5 39//5 40//5
f 44//5 47//5 48//5
usemtl c9
f 4//2 8//2 5//2
f 12//2 16//2 13//2
f 20//2 24//2 21//2
f 28//2 32//2 29//2
f 36//2 40//2 37//2
f 44//2 48//2 45//2
usemtl c10
f 5//6 8//6 6//6
f 13//6 16//6 14//6
f 21//6 24//6 22//6
f 29//6 32//6 30//6
f 37//6 40//6 38//6
f 45//6 48//6 46//6
usemtl c11
f 6//6 8//6 7//6
f 14//6 16//6 15//6
f 22//6 24//6 23//6
f 30//6 32//6 31//6
f 38//6 40//6 39//6
f 46//6 48//6 47//6
usemtl c12
f 49//7 50//7 51//7
f 57//7 58//7 59//7
usemtl c13
f 49//7 51//7 52//7
f 57//7 59//7 60//7
usemtl c14
f 49//5 52//5 53//5
f 49//8 53//8 54//8
f 49//8 54//8 50//8
f 50//3 54//3 55//3
f 50//3 55//3 51//3
f 51//9 55//9 56//9
f 51//9 56//9 52//9
f 52//5 56//5 53//5
f 53//10 56//10 54//10
f 54//10 56//10 55//10
f 57//5 60//5 61//5
f 57//8 61//8 62//8
f 57//8 62//8 58//8
f 58//3 62//3 63//3
f 58//3 63//3 59//3
f 59//9 63//9 64//9
f 59//9 64//9 60//9
f 60//5 64//5 61//5
f 61//10 64//10 62//10
f 62//10 64//10 63//10
