# Made by RuneLite Model-Dumper Plugin
mtllib cake.mtl
o Item Cake 2026-09-13_16-41-43
v -17 16 -8
v -17 16 8
v 0 20 0
v -8 16 -17
v -8 14 -17
v -13 14 -12
v -17 14 -8
v -17 14 -3
v -17 14 -1
v -17 14 8
v -8 16 17
v 8 16 17
v 17 16 8
v 17 16 -8
v 8 16 -17
v 3 14 -17
v 1 14 -17
v -4 12 -17
v -8 9 -17
v -10 11 -15
v -12 11 -13
v -15 11 -10
v -17 9 -8
v -17 12 -6
v -17 12 -4
v -17 12 2
v -17 12 4
v -17 9 8
v -15 11 10
v -13 11 12
v -12 14 13
v -8 14 17
v -3 14 17
v -1 14 17
v 8 14 17
v 13 14 12
v 17 14 8
v 17 14 3
v 17 14 1
v 17 14 -8
v 12 14 -13
v 8 14 -17
v 4 12 -17
v -2 12 -17
v 8 9 -17
v 8 7 -17
v -8 7 -17
v 17 9 8
v 17 9 -8
v 17 12 -2
v 17 12 4
v 17 12 6
v 15 11 10
v 8 9 17
v 8 7 17
v 17 7 8
v 17 7 -8
v 10 11 -15
v 13 11 -12
v 15 11 -10
v 17 12 -4
v -8 9 17
v 2 12 17
v -4 12 17
v -6 12 17
v -10 11 15
v -17 7 8
v -8 7 17
v -8 5 17
v 8 5 17
v 17 5 8
v 17 5 -8
v 12 11 13
v 10 11 15
v 4 12 17
v 6 12 -17
v -17 7 -8
v -8 5 -17
v -17 5 -8
v -17 5 8
v -17 0 8
v -8 0 17
v 8 0 17
v 17 0 8
v 17 0 -8
v 8 5 -17
v 8 0 -17
v -8 0 -17
v -17 0 -8
usemtl c0
f 1 2 3
usemtl c1
f 1 3 4
usemtl c2
f 1 4 5
usemtl c3
f 1 5 6
usemtl c4
f 1 6 7
usemtl c5
f 1 7 8
usemtl c6
f 1 8 2
usemtl c7
f 2 8 9
usemtl c8
f 2 9 10
usemtl c9
f 2 10 11
usemtl c10
f 2 11 3
usemtl c11
f 3 11 12
usemtl c12
f 3 12 13
usemtl c13
f 3 13 14
usemtl c14
f 3 14 15
usemtl c15
f 3 15 4
usemtl c16
f 4 15 16
usemtl c17
f 4 16 17
usemtl c18
f 4 17 5
usemtl c19
f 5 17 18
usemtl c20
f 5 18 19
usemtl c21
f 5 19 20
usemtl c22
f 5 20 21
f 5 21 6
usemtl c23
f 6 21 22
usemtl c24
f 6 22 7
usemtl c25
f 7 22 23
usemtl c26
f 7 23 24
usemtl c27
f 7 24 25
f 7 25 8
usemtl c28
f 8 25 9
f 9 25 26
usemtl c29
f 9 26 27
usemtl c30
f 9 27 10
usemtl c31
f 10 27 28
usemtl c32
f 10 28 29
usemtl c33
f 10 29 30
f 10 30 31
usemtl c34
f 10 31 11
f 11 31 32
usemtl c35
f 11 32 33
usemtl c36
f 11 33 12
usemtl c37
f 12 33 34
usemtl c38
f 12 34 35
usemtl c39
f 12 35 13
usemtl c40
f 13 35 36
usemtl c41
f 13 36 37
usemtl c42
f 13 37 38
usemtl c43
f 13 38 14
usemtl c44
f 14 38 39
f 14 39 40
usemtl c45
f 14 40 15
usemtl c46
f 15 40 41
f 15 41 42
usemtl c47
f 15 42 16
usemtl c48
f 16 42 43
usemtl c49
f 16 43 17
f 17 43 44
usemtl c50
f 17 44 18
usemtl c51
f 18 44 19
f 19 44 45
usemtl c52
f 19 45 46
usemtl c53
f 19 46 47
usemtl c54
f 19 47 23
usemtl c55
f 19 23 22
usemtl c56
f 19 22 21
f 19 21 20
usemtl c51
f 48 49 50
f 48 50 51
f 48 51 52
usemtl c57
f 48 52 37
usemtl c58
f 48 37 53
usemtl c55
f 48 53 54
usemtl c59
f 48 54 55
usemtl c60
f 48 55 56
usemtl c61
f 48 56 49
usemtl c52
f 49 56 57
usemtl c62
f 49 57 45
usemtl c49
f 49 45 58
f 49 58 59
f 49 59 60
f 49 60 40
f 49 40 61
f 49 61 50
usemtl c50
f 50 61 39
usemtl c49
f 50 39 51
f 51 39 38
usemtl c63
f 51 38 37
f 51 37 52
usemtl c49
f 59 58 41
usemtl c64
f 59 41 40
f 59 40 60
usemtl c49
f 58 45 42
usemtl c64
f 58 42 41
usemtl c65
f 62 54 63
usemtl c66
f 62 63 64
f 62 64 65
usemtl c67
f 62 65 32
usemtl c68
f 62 32 66
usemtl c69
f 62 66 28
usemtl c70
f 62 28 67
usemtl c71
f 62 67 68
usemtl c72
f 62 68 54
usemtl c73
f 54 68 55
usemtl c36
f 55 68 69
usemtl c74
f 55 69 70
usemtl c75
f 55 70 56
usemtl c76
f 56 70 71
usemtl c77
f 56 71 57
usemtl c78
f 57 71 72
usemtl c64
f 57 72 46
usemtl c62
f 57 46 45
usemtl c79
f 54 53 73
f 54 73 74
usemtl c80
f 54 74 35
usemtl c81
f 54 35 75
usemtl c82
f 54 75 63
usemtl c29
f 63 75 34
usemtl c28
f 63 34 64
f 64 34 33
usemtl c30
f 64 33 32
f 64 32 65
usemtl c23
f 73 53 36
usemtl c83
f 73 36 35
f 73 35 74
usemtl c49
f 45 44 43
f 45 43 76
f 45 76 42
usemtl c48
f 42 76 43
usemtl c84
f 23 28 26
usemtl c82
f 23 26 25
f 23 25 24
usemtl c85
f 28 66 30
usemtl c86
f 28 30 29
usemtl c87
f 26 28 27
usemtl c88
f 30 66 31
usemtl c33
f 31 66 32
usemtl c89
f 34 75 35
usemtl c90
f 36 53 37
usemtl c48
f 39 61 40
usemtl c91
f 77 67 28
usemtl c92
f 77 28 23
usemtl c93
f 77 23 47
usemtl c76
f 77 47 78
usemtl c75
f 77 78 79
usemtl c74
f 77 79 67
usemtl c36
f 67 79 80
usemtl c33
f 67 80 68
f 68 80 69
usemtl c94
f 69 80 81
usemtl c95
f 69 81 82
f 69 82 70
usemtl c96
f 70 82 83
usemtl c97
f 70 83 71
usemtl c98
f 71 83 84
usemtl c99
f 71 84 72
usemtl c100
f 72 84 85
usemtl c101
f 72 85 86
usemtl c64
f 72 86 46
usemtl c78
f 46 86 47
usemtl c77
f 47 86 78
usemtl c51
f 78 86 87
usemtl c102
f 78 87 88
usemtl c103
f 78 88 79
usemtl c104
f 79 88 89
usemtl c105
f 79 89 80
f 80 89 81
usemtl c106
f 81 89 85
usemtl c107
f 81 85 84
usemtl c108
f 81 84 82
usemtl c109
f 82 84 83
usemtl c101
f 85 87 86
usemtl c110
f 87 85 88
usemtl c111
f 88 85 89
