# Made by RuneLite Model-Dumper Plugin
mtllib splitbark-hat.mtl
o Item Splitbark helm 2026-09-24_18-04-36
v -10 27 -2
v -9 30 -20
v -13 21 -2
v -13 19 4
v -12 24 3
v -4 26 2
v -3 26 -2
v -3 30 -20
v -3 29 -38
v -9 28 -20
v -3 24 -3
v -3 28 -20
v 7 21 -2
v 3 28 -20
v 3 30 -20
v 4 27 -2
v 7 19 3
v 7 10 4
v 6 1 -5
v 6 24 3
v -2 25 3
v -3 25 3
v 6 0 4
v 7 10 10
v 7 3 11
v -12 0 4
v -12 1 -5
v -13 10 4
v 3 14 15
v 5 10 18
v 0 19 17
v -1 21 17
v -14 3 11
v -13 10 10
v -9 14 15
v -11 10 18
v -6 19 17
v -5 21 17
usemtl c0
f 1 2 3
usemtl c1
f 1 3 4
usemtl c2
f 1 4 5
usemtl c3
f 1 5 6
usemtl c4
f 1 6 7
usemtl c5
f 1 7 8
usemtl c6
f 1 8 2
usemtl c7
f 2 8 9
usemtl c8
f 2 9 10
usemtl c9
f 2 10 3
usemtl c10
f 3 10 11
usemtl c11
f 11 10 12
usemtl c12
f 11 12 13
usemtl c13
f 13 12 14
usemtl c14
f 13 14 15
usemtl c15
f 13 15 16
usemtl c16
f 13 16 17
usemtl c17
f 13 17 18
usemtl c18
f 13 18 19
usemtl c19
f 13 19 18
usemtl c0
f 13 18 17
usemtl c7
f 9 8 15
usemtl c20
f 9 15 14
usemtl c21
f 9 14 12
f 9 12 10
usemtl c22
f 7 16 15
usemtl c23
f 7 15 8
usemtl c24
f 17 16 20
usemtl c25
f 20 16 21
f 21 16 7
usemtl c26
f 21 7 22
usemtl c27
f 22 7 6
usemtl c17
f 23 18 24
usemtl c28
f 23 24 25
usemtl c1
f 23 25 18
usemtl c19
f 23 18 19
usemtl c18
f 23 19 18
usemtl c29
f 19 23 26
f 19 26 27
usemtl c30
f 19 27 23
f 23 27 26
usemtl c17
f 26 27 28
usemtl c0
f 26 28 27
usemtl c31
f 27 28 3
usemtl c32
f 27 3 28
usemtl c17
f 28 3 4
usemtl c0
f 28 4 3
usemtl c33
f 24 29 25
usemtl c34
f 24 25 29
usemtl c35
f 29 25 30
usemtl c2
f 29 30 31
usemtl c36
f 29 31 30
usemtl c37
f 29 30 25
usemtl c35
f 29 25 30
usemtl c37
f 29 30 25
usemtl c36
f 30 29 31
usemtl c38
f 30 31 32
usemtl c39
f 30 32 31
usemtl c2
f 30 31 29
usemtl c39
f 31 30 32
usemtl c38
f 31 32 30
usemtl c19
f 33 34 28
usemtl c2
f 33 28 26
usemtl c40
f 33 26 34
usemtl c41
f 33 34 35
usemtl c42
f 33 35 34
usemtl c35
f 35 33 36
usemtl c19
f 35 36 37
usemtl c18
f 35 37 36
usemtl c37
f 35 36 33
usemtl c35
f 35 33 36
usemtl c37
f 35 36 33
usemtl c18
f 36 35 37
usemtl c43
f 36 37 38
usemtl c25
f 36 38 37
usemtl c19
f 36 37 35
usemtl c25
f 37 36 38
usemtl c43
f 37 38 36
usemtl c0
f 25 24 18
usemtl c17
f 26 28 34
