# Made by RuneLite Model-Dumper Plugin
mtllib mystic-gloves.mtl
o Item Mystic gloves 2026-09-24_18-00-18
v 2 6 -7
v 2 0 -7
v 0 0 -13
v 0 6 -13
v -11 5 -9
v -9 5 -5
v -9 1 -5
v -11 1 -9
v -12 5 -10
v -9 5 -4
v -9 1 -4
v -12 1 -10
v -20 -1 -9
v -20 8 -9
v -17 8 0
v -17 -1 0
v -21 6 -2
v -21 1 -2
v -22 6 -6
v -22 1 -6
v -19 4 -9
v -18 7 -9
v -15 4 -9
v -15 3 -9
v -18 0 -9
v -19 3 -9
v 15 6 -2
v 20 6 1
v 20 0 1
v 15 0 -2
v 11 1 8
v 11 5 8
v 16 5 11
v 16 1 11
v 14 3 20
v 14 0 18
v 15 3 15
v 15 4 15
v 14 7 18
v 14 4 20
v 16 1 12
v 11 1 9
v 11 5 9
v 16 5 12
v 14 8 21
v 14 -1 21
v 10 6 21
v 10 1 21
v 8 6 20
v 8 1 20
v 6 8 16
v 6 -1 16
usemtl c0
f 1 2 3
usemtl c1
f 1 3 4
usemtl c2
f 1 4 5
usemtl c3
f 1 5 6
usemtl c4
f 1 6 2
usemtl c5
f 2 6 7
usemtl c6
f 7 6 5
usemtl c7
f 7 5 8
usemtl c8
f 8 5 4
usemtl c9
f 8 4 3
usemtl c10
f 9 10 11
usemtl c11
f 9 11 12
usemtl c12
f 9 12 13
usemtl c13
f 9 13 14
usemtl c14
f 9 14 15
usemtl c15
f 9 15 10
usemtl c16
f 10 15 11
usemtl c17
f 11 15 16
usemtl c18
f 16 15 17
usemtl c19
f 16 17 18
usemtl c20
f 18 17 19
usemtl c21
f 18 19 20
usemtl c22
f 20 19 14
usemtl c23
f 20 14 13
usemtl c24
f 17 15 14
usemtl c25
f 17 14 19
usemtl c26
f 21 22 23
f 24 25 26
usemtl c27
f 27 28 29
usemtl c28
f 27 29 30
usemtl c29
f 27 30 31
usemtl c30
f 27 31 32
usemtl c31
f 27 32 28
usemtl c32
f 28 32 33
usemtl c33
f 28 33 29
usemtl c34
f 29 33 34
usemtl c35
f 34 33 32
usemtl c36
f 34 32 31
usemtl c37
f 35 36 37
usemtl c38
f 38 39 40
usemtl c39
f 41 42 43
usemtl c11
f 41 43 44
usemtl c40
f 41 44 45
usemtl c41
f 41 45 46
usemtl c42
f 46 45 47
usemtl c43
f 46 47 48
usemtl c44
f 48 47 49
usemtl c45
f 48 49 50
usemtl c46
f 50 49 51
usemtl c43
f 50 51 52
usemtl c47
f 52 51 43
usemtl c48
f 52 43 42
usemtl c49
f 45 44 43
usemtl c50
f 45 43 51
usemtl c51
f 45 51 47
usemtl c52
f 47 51 49
