# Made by RuneLite Model-Dumper Plugin
mtllib mithril-full-helm.mtl
o Item Mithril full helm 2026-09-24_18-13-51
v 10 3 -3
v 3 0 5
v 5 2 -7
v 8 15 -11
v 10 11 -2
v 10 7 1
v 6 4 8
v 0 1 12
v -3 0 5
v -5 2 -7
v -8 15 -11
v 0 20 -10
v 5 25 -5
v 10 21 -2
v 10 12 1
v 11 11 -2
v 10 9 11
v 6 10 14
v 2 10 13
v -2 10 13
v -6 4 8
v -10 7 1
v -10 3 -3
v -10 11 -2
v -10 21 -2
v -5 25 -5
v 0 24 7
v 7 22 9
v 8 18 9
v 11 18 9
v 6 21 13
v -6 21 13
v -6 10 14
v -11 11 -2
v -10 12 1
v -8 18 9
v -7 22 9
v 0 22 9
v 3 19 11
v -3 19 11
v -11 18 9
v -4 10 14
v -4 21 13
v -10 9 11
v 0 27 -10
v -2 37 -15
v -2 36 -24
v -2 27 -16
v -2 27 -19
v -2 31 -28
v -2 22 -26
v -2 25 -17
v 2 27 -19
v 2 25 -17
v 2 22 -26
v 2 31 -28
v 2 36 -24
v 2 27 -16
v 2 37 -15
v -2 19 -21
v -2 24 -16
v 2 24 -16
v 2 19 -21
v -2 18 -19
v -2 22 -15
v 2 22 -15
v 2 18 -19
v 1 8 -23
v -1 8 -23
v -2 15 -16
v -2 18 -14
v 2 18 -14
v 2 15 -16
v -3 21 13
v -3 10 14
v -1 10 14
v -1 21 13
v 1 21 13
v 1 10 14
v 3 10 14
v 3 21 13
v 4 21 13
v 4 10 14
usemtl c0
f 1 2 3
usemtl c1
f 1 3 4
usemtl c2
f 1 4 5
usemtl c3
f 1 5 6
usemtl c4
f 1 6 2
usemtl c5
f 2 6 7
usemtl c6
f 2 7 8
usemtl c7
f 2 8 9
usemtl c8
f 2 9 3
usemtl c9
f 3 9 10
usemtl c10
f 3 10 4
usemtl c5
f 4 10 11
usemtl c11
f 4 11 12
usemtl c0
f 4 12 13
usemtl c12
f 4 13 14
usemtl c13
f 4 14 5
usemtl c12
f 5 14 15
usemtl c4
f 5 15 16
usemtl c14
f 5 16 6
usemtl c15
f 6 16 17
usemtl c16
f 6 17 18
usemtl c17
f 6 18 19
usemtl c18
f 6 19 7
usemtl c19
f 7 19 8
usemtl c20
f 8 19 20
usemtl c21
f 8 20 21
usemtl c22
f 8 21 9
usemtl c23
f 9 21 22
usemtl c24
f 9 22 23
usemtl c7
f 9 23 10
usemtl c25
f 10 23 11
usemtl c26
f 11 23 24
usemtl c27
f 11 24 25
usemtl c28
f 11 25 26
usemtl c29
f 11 26 12
usemtl c9
f 12 26 13
usemtl c30
f 13 26 27
usemtl c31
f 13 27 28
usemtl c8
f 13 28 14
f 14 28 29
usemtl c32
f 14 29 15
usemtl c33
f 15 29 30
usemtl c34
f 15 30 16
usemtl c35
f 16 30 17
usemtl c36
f 17 30 31
usemtl c37
f 17 31 18
usemtl c38
f 18 31 32
usemtl c39
f 18 32 33
usemtl c40
f 18 33 20
usemtl c20
f 18 20 19
usemtl c41
f 24 23 22
usemtl c26
f 24 22 34
usemtl c30
f 24 34 35
usemtl c42
f 24 35 25
usemtl c43
f 25 35 36
usemtl c44
f 25 36 37
usemtl c45
f 25 37 26
usemtl c46
f 26 37 27
usemtl c44
f 27 37 38
usemtl c47
f 27 38 28
usemtl c24
f 28 38 39
usemtl c48
f 28 39 29
usemtl c49
f 29 39 30
usemtl c48
f 30 39 31
usemtl c50
f 31 39 32
usemtl c51
f 32 39 40
usemtl c52
f 32 40 41
usemtl c53
f 32 41 33
usemtl c54
f 32 33 42
f 32 42 43
usemtl c55
f 20 22 21
usemtl c56
f 22 20 33
usemtl c57
f 22 33 44
usemtl c58
f 22 44 34
usemtl c59
f 34 44 41
usemtl c19
f 34 41 35
usemtl c60
f 35 41 36
usemtl c20
f 36 41 40
usemtl c61
f 36 40 37
usemtl c62
f 37 40 38
usemtl c53
f 38 40 39
usemtl c63
f 33 41 44
usemtl c64
f 13 12 45
usemtl c65
f 13 45 26
usemtl c66
f 26 45 12
usemtl c67
f 45 46 47
usemtl c68
f 45 47 48
usemtl c69
f 48 47 49
usemtl c70
f 49 47 50
usemtl c71
f 49 50 51
usemtl c72
f 49 51 52
usemtl c73
f 49 52 53
usemtl c74
f 53 52 54
usemtl c75
f 53 54 55
usemtl c76
f 53 55 56
usemtl c77
f 53 56 57
usemtl c78
f 53 57 58
usemtl c79
f 58 57 45
usemtl c80
f 45 57 59
usemtl c81
f 45 59 46
usemtl c82
f 46 59 57
usemtl c83
f 46 57 47
usemtl c84
f 47 57 56
usemtl c80
f 47 56 50
usemtl c78
f 50 56 55
usemtl c85
f 50 55 51
usemtl c86
f 51 55 60
usemtl c87
f 51 60 52
usemtl c72
f 52 60 61
usemtl c88
f 52 61 54
usemtl c89
f 54 61 62
usemtl c90
f 54 62 63
usemtl c91
f 54 63 55
usemtl c92
f 55 63 60
usemtl c93
f 60 63 64
usemtl c87
f 60 64 61
usemtl c94
f 61 64 65
usemtl c95
f 61 65 62
usemtl c87
f 62 65 66
usemtl c66
f 62 66 67
usemtl c96
f 62 67 63
usemtl c92
f 63 67 64
usemtl c79
f 64 67 68
usemtl c97
f 64 68 69
usemtl c98
f 64 69 70
usemtl c99
f 64 70 71
usemtl c72
f 64 71 65
usemtl c100
f 65 71 66
usemtl c101
f 66 71 72
usemtl c102
f 66 72 67
usemtl c85
f 67 72 73
usemtl c103
f 67 73 68
usemtl c104
f 68 73 69
usemtl c105
f 69 73 70
usemtl c106
f 70 73 72
usemtl c107
f 70 72 71
usemtl c54
f 74 75 76
f 74 76 77
f 78 79 80
f 78 80 81
f 82 83 18
f 82 18 31
