# Made by RuneLite Model-Dumper Plugin
mtllib anglerfish.mtl
o Item Anglerfish 2026-09-13_16-42-11
v 9 44 46
v 18 42 39
v 22 40 40
v 21 44 40
v 19 49 35
v 18 29 27
v 25 35 46
v 25 46 41
v 19 53 34
v 7 48 40
v 18 49 33
v 19 53 30
v 18 51 27
v 26 60 19
v 17 28 19
v 28 0 32
v 19 10 36
v 20 11 39
v 19 15 41
v 20 16 42
v 19 23 43
v 21 26 45
v 26 22 46
v 27 34 45
v 37 37 39
v 31 55 30
v 21 57 31
v 19 56 30
v 9 54 30
v 37 46 15
v 40 40 5
v 24 58 10
v -3 22 -6
v 25 -3 24
v 41 13 11
v 38 11 21
v 40 18 25
v 41 19 28
v 36 10 31
v 32 8 33
v 34 7 37
v 32 9 40
v 22 7 42
v 20 8 40
v 12 8 39
v 20 12 43
v 7 17 46
v 22 23 44
v 9 25 50
v 38 30 41
v 38 34 41
v 44 30 26
v 41 43 23
v 35 52 22
v 31 55 26
v 31 54 23
v 40 43 20
v 40 43 17
v 51 53 7
v 40 41 14
v 42 26 8
v 31 25 0
v 29 35 -1
v 28 47 1
v 30 50 4
v 27 50 3
v 16 51 6
v 4 48 15
v -6 46 31
v -4 41 33
v -4 42 35
v -4 41 38
v -5 33 41
v -4 32 41
v -4 31 41
v -4 24 42
v -3 22 39
v -4 21 37
v -5 16 37
v 6 7 24
v 17 2 17
v 28 2 14
v 31 4 15
v 29 4 10
v 29 15 4
v 41 16 20
v 52 3 19
v 40 15 22
v 40 29 18
v 41 23 24
v 57 9 25
v 42 1 37
v 8 50 -3
v 33 57 -2
v -6 50 20
v -10 50 25
v -6 42 41
v -3 44 35
v 6 43 34
v -3 42 41
v 9 43 40
v -3 40 42
v -3 39 43
v 9 37 43
v -4 34 44
v -3 34 47
v -3 32 44
v 9 31 44
v -3 28 46
v -2 26 45
v 10 24 43
v -3 23 45
v -6 23 45
v -3 20 39
v 7 20 38
v -8 10 35
v -5 7 30
v 10 -2 9
v 36 -5 11
v -10 49 12
v -10 52 -8
v -16 49 16
v -15 49 17
v -11 46 18
v -9 47 21
v -10 47 24
v -17 46 21
v -20 51 21
v -14 53 26
v -12 33 42
v -4 34 48
v -18 48 7
v -22 53 11
v -25 45 5
v -29 43 6
v -26 53 22
v -19 53 27
v -18 36 33
v -21 36 42
v -19 33 46
v -21 30 42
v -17 24 34
v -12 8 36
v -28 35 26
v -29 29 28
v -22 30 34
v -24 31 41
v -32 36 59
v -29 35 60
v -31 34 59
v -28 23 29
v -25 4 32
v -17 6 38
v -18 8 31
v -16 11 28
v -9 12 31
v -7 10 28
v -9 9 25
v -9 6 22
v -8 -6 5
v 2 -2 1
v 25 8 -3
v 25 22 -8
v 24 38 -10
v 1 46 -9
v -15 44 -20
v -20 47 -3
v -38 50 -15
v -48 54 -9
v -38 45 -14
v -17 38 -10
v -34 21 -12
v -38 28 3
v -35 26 14
v -34 29 14
v -31 31 23
v -31 28 26
v -31 24 24
v -28 6 15
v -20 0 23
v -6 19 -18
v -19 19 -23
v -29 29 -28
v -26 49 -31
v -35 18 -21
v -37 19 -14
v -46 20 -14
v -47 21 -3
v -56 23 1
v -50 23 8
v -56 25 15
v -48 26 19
v -35 25 14
v -46 28 27
v -34 27 18
v -33 27 22
v -38 30 31
v -45 17 -30
v -36 18 -36
v -53 16 -42
v -60 11 -43
v -52 10 -41
v -36 13 -34
v -30 5 -21
v -34 19 -11
v -38 20 5
v -34 25 14
v -33 23 16
v -25 14 -41
v -37 17 -48
v -48 12 -51
v -53 13 -44
v -36 8 -45
v -13 -5 -10
v -17 7 -2
v -25 10 -61
v -32 12 -51
v -40 10 -57
v -41 11 -49
v 2 21 -10
v -33 36 58
v -29 40 75
v -27 39 75
v -29 38 76
v -31 40 76
v -17 42 85
v -18 41 83
v -18 40 85
v -18 41 87
v -16 47 87
v -16 40 81
v -15 39 88
v 41 36 22
v 56 50 16
v -17 43 91
v -12 42 91
v -9 41 87
v -11 43 83
v 39 62 24
v -15 6 26
v -16 3 16
v -18 -1 8
v -23 5 14
v -36 -8 -2
v -26 -14 -17
v -13 7 28
v -47 -10 4
v -36 -4 -3
usemtl c0
f 1 2 3
usemtl c1
f 1 3 4
usemtl c2
f 1 4 2
usemtl c3
f 2 4 5
usemtl c4
f 2 5 6
f 2 6 7
usemtl c5
f 2 7 3
usemtl c6
f 3 7 8
f 3 8 4
usemtl c7
f 4 8 9
usemtl c8
f 4 9 5
usemtl c9
f 5 9 10
usemtl c10
f 5 10 11
usemtl c11
f 5 11 6
usemtl c12
f 6 11 12
usemtl c3
f 6 12 13
usemtl c13
f 6 13 14
usemtl c11
f 6 14 15
f 6 15 16
usemtl c14
f 6 16 17
usemtl c15
f 6 17 18
usemtl c11
f 6 18 19
usemtl c6
f 6 19 20
usemtl c16
f 6 20 21
f 6 21 7
usemtl c17
f 7 21 22
usemtl c18
f 7 22 23
usemtl c19
f 7 23 24
f 7 24 8
usemtl c20
f 8 24 25
usemtl c21
f 8 25 26
usemtl c22
f 8 26 27
usemtl c18
f 8 27 9
usemtl c23
f 9 27 12
usemtl c18
f 9 12 11
usemtl c24
f 9 11 10
usemtl c25
f 26 14 27
usemtl c26
f 27 14 28
usemtl c27
f 27 28 12
usemtl c28
f 12 28 29
usemtl c29
f 12 29 13
usemtl c30
f 13 29 28
usemtl c31
f 13 28 14
usemtl c32
f 14 30 31
usemtl c33
f 14 31 32
usemtl c34
f 14 32 33
usemtl c13
f 14 33 15
f 15 33 16
usemtl c35
f 16 33 34
usemtl c36
f 16 34 35
usemtl c32
f 16 35 36
usemtl c37
f 16 36 37
usemtl c38
f 16 37 38
usemtl c39
f 16 38 39
usemtl c40
f 16 39 40
usemtl c41
f 16 40 41
usemtl c42
f 16 41 42
usemtl c43
f 16 42 43
usemtl c26
f 16 43 44
usemtl c44
f 16 44 17
usemtl c45
f 17 44 45
usemtl c46
f 17 45 18
usemtl c47
f 18 45 44
usemtl c11
f 18 44 43
usemtl c7
f 18 43 46
usemtl c48
f 18 46 19
usemtl c49
f 19 46 47
f 19 47 20
usemtl c50
f 20 47 46
usemtl c8
f 20 46 48
usemtl c16
f 20 48 21
usemtl c51
f 21 48 49
usemtl c52
f 21 49 22
usemtl c53
f 22 49 48
usemtl c7
f 22 48 23
f 23 48 46
usemtl c17
f 23 46 43
usemtl c54
f 23 43 42
usemtl c21
f 23 42 50
usemtl c20
f 23 50 24
usemtl c55
f 24 50 51
f 24 51 25
usemtl c56
f 25 51 52
usemtl c57
f 25 52 26
usemtl c39
f 26 52 53
usemtl c58
f 26 53 54
usemtl c41
f 26 54 55
usemtl c42
f 26 55 14
usemtl c59
f 14 55 56
usemtl c41
f 14 56 54
usemtl c58
f 14 54 53
usemtl c39
f 14 53 57
usemtl c37
f 14 57 30
usemtl c60
f 30 57 58
usemtl c61
f 30 58 59
usemtl c62
f 30 59 60
usemtl c63
f 30 60 31
usemtl c64
f 31 60 61
f 31 61 62
f 31 62 63
f 31 63 64
usemtl c65
f 31 64 65
usemtl c66
f 31 65 32
usemtl c67
f 32 65 66
usemtl c68
f 32 66 67
usemtl c69
f 32 67 33
usemtl c70
f 33 67 68
usemtl c34
f 33 68 69
usemtl c71
f 33 69 70
usemtl c72
f 33 70 71
usemtl c73
f 33 71 72
usemtl c74
f 33 72 73
usemtl c75
f 33 73 74
f 33 74 75
usemtl c76
f 33 75 76
usemtl c77
f 33 76 77
usemtl c78
f 33 77 78
usemtl c79
f 33 78 79
usemtl c80
f 33 79 80
usemtl c70
f 33 80 81
usemtl c81
f 33 81 34
usemtl c82
f 34 81 82
usemtl c83
f 34 82 83
usemtl c84
f 34 83 35
usemtl c85
f 35 83 84
usemtl c64
f 35 84 85
f 35 85 62
f 35 62 61
f 35 61 86
usemtl c86
f 35 86 36
usemtl c87
f 36 86 87
usemtl c88
f 36 87 88
usemtl c37
f 36 88 37
usemtl c89
f 37 88 86
usemtl c64
f 37 86 89
f 37 89 90
usemtl c90
f 37 90 91
usemtl c91
f 37 91 38
usemtl c92
f 38 91 90
usemtl c93
f 38 90 52
usemtl c38
f 38 52 42
usemtl c39
f 38 42 39
usemtl c94
f 39 42 41
usemtl c95
f 39 41 92
usemtl c96
f 39 92 40
usemtl c97
f 40 92 41
usemtl c98
f 64 93 67
usemtl c67
f 64 67 66
usemtl c99
f 64 66 94
usemtl c100
f 64 94 65
usemtl c101
f 65 94 66
usemtl c68
f 67 93 68
usemtl c102
f 68 93 95
usemtl c103
f 68 95 69
usemtl c104
f 69 95 96
f 69 96 97
usemtl c105
f 69 97 98
usemtl c106
f 69 98 70
usemtl c107
f 70 98 99
usemtl c108
f 70 99 71
usemtl c109
f 71 99 98
usemtl c110
f 71 98 97
usemtl c111
f 71 97 72
usemtl c112
f 72 97 100
usemtl c113
f 72 100 101
usemtl c114
f 72 101 102
usemtl c115
f 72 102 73
usemtl c116
f 73 102 103
usemtl c87
f 73 103 104
usemtl c117
f 73 104 105
usemtl c118
f 73 105 106
usemtl c119
f 73 106 74
f 74 106 75
usemtl c120
f 75 106 107
usemtl c121
f 75 107 108
usemtl c122
f 75 108 109
usemtl c123
f 75 109 110
usemtl c124
f 75 110 76
usemtl c87
f 76 110 111
usemtl c125
f 76 111 112
usemtl c126
f 76 112 113
usemtl c127
f 76 113 77
usemtl c128
f 77 113 114
usemtl c129
f 77 114 115
usemtl c130
f 77 115 78
usemtl c121
f 78 115 114
usemtl c75
f 78 114 79
usemtl c131
f 79 114 113
usemtl c68
f 79 113 116
usemtl c132
f 79 116 117
usemtl c133
f 79 117 80
usemtl c134
f 80 117 118
usemtl c68
f 80 118 81
usemtl c98
f 81 118 84
f 81 84 82
usemtl c61
f 82 84 119
usemtl c129
f 82 119 83
usemtl c135
f 83 119 84
usemtl c136
f 120 95 93
usemtl c137
f 120 93 121
usemtl c138
f 120 121 122
usemtl c139
f 120 122 123
usemtl c140
f 120 123 124
f 120 124 95
usemtl c20
f 95 124 125
usemtl c140
f 95 125 126
usemtl c141
f 95 126 96
usemtl c142
f 96 126 127
usemtl c143
f 96 127 128
usemtl c144
f 96 128 129
usemtl c25
f 96 129 130
usemtl c145
f 96 130 97
usemtl c146
f 97 130 131
usemtl c147
f 97 131 103
usemtl c148
f 97 103 100
usemtl c127
f 100 103 102
usemtl c149
f 100 102 101
usemtl c137
f 122 121 132
usemtl c150
f 122 132 133
usemtl c59
f 122 133 128
f 122 128 127
usemtl c141
f 122 127 123
usemtl c151
f 123 127 124
usemtl c152
f 124 127 126
usemtl c153
f 124 126 125
usemtl c154
f 132 134 133
usemtl c155
f 133 134 135
usemtl c156
f 133 135 136
usemtl c157
f 133 136 128
usemtl c158
f 128 136 137
usemtl c157
f 128 137 129
usemtl c159
f 129 137 138
usemtl c160
f 129 138 130
f 130 138 139
usemtl c161
f 130 139 140
usemtl c162
f 130 140 141
usemtl c163
f 130 141 142
f 130 142 143
usemtl c164
f 130 143 116
usemtl c145
f 130 116 113
usemtl c165
f 130 113 131
usemtl c166
f 131 113 109
usemtl c167
f 131 109 106
usemtl c168
f 131 106 103
usemtl c169
f 103 106 105
usemtl c170
f 103 105 104
usemtl c171
f 138 136 144
usemtl c172
f 138 144 145
usemtl c173
f 138 145 146
usemtl c160
f 138 146 139
usemtl c174
f 139 146 147
usemtl c175
f 139 147 148
usemtl c176
f 139 148 149
usemtl c177
f 139 149 140
usemtl c178
f 140 149 141
f 141 149 150
usemtl c134
f 141 150 147
usemtl c179
f 141 147 146
usemtl c163
f 141 146 142
usemtl c173
f 142 146 145
usemtl c172
f 142 145 151
usemtl c180
f 142 151 152
usemtl c181
f 142 152 153
usemtl c182
f 142 153 143
usemtl c183
f 143 153 154
usemtl c184
f 143 154 116
usemtl c185
f 116 154 155
usemtl c186
f 116 155 156
usemtl c187
f 116 156 117
usemtl c188
f 117 156 157
usemtl c189
f 117 157 158
usemtl c190
f 117 158 159
usemtl c191
f 117 159 118
usemtl c192
f 118 159 160
usemtl c98
f 118 160 161
usemtl c193
f 118 161 162
f 118 162 84
usemtl c64
f 84 162 85
f 85 162 163
f 85 163 62
f 62 163 63
f 63 163 164
f 63 164 64
usemtl c193
f 64 164 93
f 93 164 165
usemtl c98
f 93 165 121
usemtl c194
f 121 165 166
usemtl c195
f 121 166 167
usemtl c196
f 121 167 132
usemtl c197
f 132 167 134
usemtl c148
f 134 167 168
f 134 168 169
usemtl c198
f 134 169 135
usemtl c166
f 135 169 170
f 135 170 171
usemtl c199
f 135 171 172
usemtl c200
f 135 172 173
usemtl c201
f 135 173 174
usemtl c146
f 135 174 175
usemtl c202
f 135 175 176
usemtl c203
f 135 176 144
usemtl c204
f 135 144 136
usemtl c64
f 60 89 61
f 61 89 86
usemtl c172
f 144 177 145
f 145 177 151
usemtl c205
f 151 177 178
usemtl c203
f 151 178 179
usemtl c206
f 151 179 152
usemtl c207
f 152 179 180
usemtl c208
f 152 180 154
usemtl c209
f 152 154 153
usemtl c63
f 166 165 181
f 166 181 182
usemtl c210
f 166 182 183
usemtl c192
f 166 183 171
usemtl c211
f 166 171 167
usemtl c212
f 167 171 184
usemtl c168
f 167 184 168
usemtl c213
f 168 184 170
usemtl c214
f 168 170 169
usemtl c168
f 170 184 171
usemtl c215
f 172 171 183
usemtl c216
f 172 183 185
usemtl c207
f 172 185 186
usemtl c217
f 172 186 187
usemtl c218
f 172 187 173
usemtl c219
f 173 187 188
usemtl c215
f 173 188 189
usemtl c220
f 173 189 190
usemtl c221
f 173 190 174
usemtl c222
f 174 190 191
usemtl c223
f 174 191 192
usemtl c224
f 174 192 193
usemtl c225
f 174 193 194
usemtl c226
f 174 194 175
usemtl c227
f 175 194 195
usemtl c202
f 175 195 196
usemtl c228
f 175 196 176
usemtl c229
f 176 196 197
usemtl c230
f 176 197 177
usemtl c205
f 176 177 144
usemtl c231
f 198 185 183
usemtl c232
f 198 183 199
f 198 199 200
usemtl c233
f 198 200 201
usemtl c234
f 198 201 202
usemtl c218
f 198 202 203
usemtl c232
f 198 203 204
usemtl c231
f 198 204 185
usemtl c235
f 185 204 205
usemtl c236
f 185 205 186
usemtl c237
f 186 205 187
usemtl c238
f 187 205 206
usemtl c239
f 187 206 188
usemtl c240
f 188 206 189
usemtl c222
f 189 206 190
usemtl c241
f 190 206 207
usemtl c242
f 190 207 191
usemtl c215
f 191 207 192
usemtl c224
f 192 207 193
usemtl c243
f 193 207 194
usemtl c244
f 194 207 208
usemtl c245
f 194 208 195
usemtl c202
f 195 208 196
usemtl c228
f 196 208 178
usemtl c246
f 196 178 197
usemtl c247
f 197 178 177
usemtl c248
f 183 182 209
usemtl c249
f 183 209 199
usemtl c250
f 199 209 210
usemtl c251
f 199 210 211
usemtl c154
f 199 211 200
usemtl c208
f 200 211 212
usemtl c252
f 200 212 201
usemtl c253
f 201 212 202
usemtl c42
f 202 212 211
usemtl c249
f 202 211 203
usemtl c251
f 203 211 213
usemtl c250
f 203 213 209
usemtl c254
f 203 209 204
usemtl c248
f 204 209 182
usemtl c255
f 204 182 214
usemtl c211
f 204 214 215
usemtl c256
f 204 215 205
usemtl c221
f 205 215 179
usemtl c161
f 205 179 206
usemtl c200
f 206 179 207
usemtl c146
f 207 179 208
usemtl c202
f 208 179 178
usemtl c257
f 210 209 216
usemtl c42
f 210 216 217
f 210 217 218
f 210 218 219
f 210 219 211
f 211 219 213
f 213 219 218
f 213 218 217
f 213 217 216
usemtl c257
f 213 216 209
usemtl c64
f 164 163 220
f 164 220 165
f 165 220 181
f 181 220 161
usemtl c258
f 181 161 214
f 181 214 182
usemtl c175
f 147 221 148
usemtl c259
f 148 221 222
usemtl c32
f 148 222 223
usemtl c260
f 148 223 149
usemtl c261
f 149 223 150
usemtl c262
f 150 223 224
usemtl c175
f 150 224 221
usemtl c263
f 150 221 147
f 221 225 222
usemtl c264
f 222 225 226
usemtl c265
f 222 226 227
usemtl c266
f 222 227 223
usemtl c98
f 223 227 224
usemtl c267
f 224 227 228
usemtl c264
f 224 228 225
usemtl c268
f 224 225 221
usemtl c269
f 225 229 226
usemtl c270
f 226 229 230
usemtl c271
f 226 230 227
usemtl c272
f 227 230 231
usemtl c273
f 227 231 232
usemtl c274
f 227 232 228
usemtl c275
f 228 232 229
usemtl c201
f 228 229 225
usemtl c276
f 53 52 233
usemtl c277
f 53 233 234
usemtl c278
f 53 234 57
usemtl c279
f 57 234 233
usemtl c64
f 57 233 89
f 57 89 60
usemtl c276
f 57 60 58
usemtl c280
f 58 60 59
usemtl c64
f 233 52 89
f 89 52 90
usemtl c281
f 229 235 230
usemtl c282
f 230 235 236
usemtl c283
f 230 236 237
usemtl c284
f 230 237 238
usemtl c285
f 230 238 231
usemtl c286
f 231 238 232
usemtl c287
f 232 238 237
usemtl c288
f 232 237 236
usemtl c289
f 232 236 235
usemtl c290
f 232 235 229
usemtl c291
f 137 136 138
usemtl c292
f 54 239 55
usemtl c293
f 55 239 56
usemtl c294
f 56 239 54
usemtl c197
f 160 159 240
usemtl c295
f 160 240 241
usemtl c197
f 160 241 242
usemtl c195
f 160 242 214
usemtl c296
f 160 214 161
usemtl c297
f 241 180 243
usemtl c298
f 241 243 242
usemtl c299
f 242 243 244
usemtl c300
f 242 244 245
usemtl c212
f 242 245 215
usemtl c211
f 242 215 214
usemtl c150
f 180 241 240
usemtl c185
f 180 240 154
usemtl c42
f 154 240 155
usemtl c301
f 155 240 246
usemtl c302
f 155 246 158
usemtl c303
f 155 158 156
usemtl c304
f 156 158 157
usemtl c57
f 52 50 42
usemtl c56
f 50 52 51
usemtl c55
f 159 246 240
usemtl c305
f 246 159 158
usemtl c166
f 243 179 247
usemtl c148
f 243 247 244
usemtl c167
f 244 247 248
usemtl c105
f 244 248 245
usemtl c300
f 245 248 215
usemtl c306
f 215 248 179
usemtl c147
f 179 248 247
usemtl c64
f 162 220 163
f 220 162 161
usemtl c215
f 180 179 243
usemtl c307
f 111 110 112
usemtl c168
f 112 110 109
usemtl c299
f 112 109 113
usemtl c308
f 108 107 109
usemtl c309
f 109 107 106
usemtl c310
f 86 88 87
