mtllib dragon-rocks.mtl
g objMesh
v 22.000000 76.000000 -6.000000
v 34.000000 78.000000 -18.000000
v 40.000000 58.000000 -48.000000
v -8.000000 48.000000 0.000000
v 0.000000 43.000000 -32.000000
v -32.000000 33.000000 0.000000
v -36.000000 18.000000 12.000000
v 34.000000 76.000000 0.000000
v 38.000000 77.000000 -6.000000
v 40.000000 49.000000 24.000000
v 56.000000 54.000000 0.000000
v -21.000000 116.000000 -33.000000
v -15.000000 114.000000 -27.000000
v 63.000000 31.000000 5.000000
v 42.000000 36.000000 -58.000000
v -20.000000 22.000000 5.000000
v -48.000000 37.000000 -16.000000
v -36.000000 40.000000 -60.000000
v -60.000000 23.000000 -12.000000
v 42.000000 25.000000 36.000000
v -16.000000 41.000000 24.000000
v 24.000000 44.000000 40.000000
v 41.000000 25.000000 37.000000
v -16.000000 19.000000 14.000000
v -48.000000 31.000000 40.000000
v -16.000000 49.000000 40.000000
v 32.000000 44.000000 56.000000
v 53.000000 25.000000 59.000000
v -40.000000 27.000000 56.000000
v -50.000000 0.000000 59.000000
v -62.000000 5.000000 37.000000
v -16.000000 47.000000 -48.000000
v -27.000000 116.000000 -33.000000
v -27.000000 111.000000 -15.000000
v -33.000000 112.000000 -21.000000
v 12.000000 33.000000 -36.000000
v -32.000000 48.000000 -48.000000
v -12.000000 38.000000 -60.000000
v -41.000000 38.000000 -45.000000
v 44.000000 34.000000 -45.000000
v 44.000000 24.000000 45.000000
v -41.000000 10.000000 45.000000
vt 0.000000 0.000000
vt 0.142857 0.000000
vt 0.000000 0.125000
vt 0.142857 0.000000
vt 0.285714 0.000000
vt 0.142857 0.125000
vt 0.285714 0.000000
vt 0.428571 0.000000
vt 0.285714 0.125000
vt 0.428571 0.000000
vt 0.571429 0.000000
vt 0.428571 0.125000
vt 0.571429 0.000000
vt 0.714286 0.000000
vt 0.571429 0.125000
vt 0.714286 0.000000
vt 0.857143 0.000000
vt 0.714286 0.125000
vt 0.857143 0.000000
vt 1.000000 0.000000
vt 0.857143 0.125000
vt 0.000000 0.125000
vt 0.142857 0.125000
vt 0.000000 0.250000
vt 0.142857 0.125000
vt 0.285714 0.125000
vt 0.142857 0.250000
vt 0.285714 0.125000
vt 0.428571 0.125000
vt 0.285714 0.250000
vt 0.428571 0.125000
vt 0.571429 0.125000
vt 0.428571 0.250000
vt 0.571429 0.125000
vt 0.714286 0.125000
vt 0.571429 0.250000
vt 0.714286 0.125000
vt 0.857143 0.125000
vt 0.714286 0.250000
vt 0.857143 0.125000
vt 1.000000 0.125000
vt 0.857143 0.250000
vn -0.426245 0.902595 -0.016090
vn 0.304534 0.907259 -0.284190
vn 0.195364 0.678306 -0.705942
vn -0.786350 0.604609 0.112798
vn 0.871007 0.476204 0.105797
vn 0.068479 0.435918 0.895492
vn 0.259400 0.559095 0.785335
vn -0.055349 0.786071 0.612905
vn 0.436242 0.864840 0.241583
vn 0.147748 0.572622 0.804302
vn 0.852027 0.490559 0.173280
vn 0.495182 0.534722 -0.682267
vn 0.622975 0.671560 0.396905
vn 0.955541 0.289028 -0.005185
vn -0.274825 0.361941 -0.888869
vn -0.754362 0.448773 0.475563
vn -0.843331 0.465189 0.262715
vn -0.544670 0.766343 -0.335675
vn -0.632519 0.665088 0.392682
vn 0.427419 0.432603 0.791703
vn -0.050672 0.646180 -0.759276
vn 0.409061 0.792096 -0.449302
vn 0.449838 0.511209 -0.730021
vn -0.252098 0.400994 -0.878790
vn -0.681616 0.677959 -0.269070
vn -0.193378 0.978043 0.051524
vn 0.159348 0.738647 0.652403
vn 0.656447 0.736624 0.151956
vn -0.494614 0.518094 0.695380
vn -0.312983 0.219201 0.922289
vn -0.882685 0.457683 0.089534
vn 0.351940 0.561398 -0.746724
vn -0.248980 0.886274 -0.386206
vn -0.201879 0.649406 0.730844
vn -0.869785 0.486377 0.059464
vn 0.647445 0.759869 -0.006408
vn -0.504413 0.575079 -0.641464
vn 0.225888 0.816007 -0.528894
vn 0.054757 -0.975814 -0.203509
vn -0.046641 -0.991123 -0.110125
vn 0.054757 -0.975814 -0.203509
vn 0.155099 -0.941671 -0.292964
usemtl c0
f 1/1/1 2/2/2 3/3/3
usemtl c1
f 1/1/1 3/3/3 4/4/4
f 5/5/5 6/6/6 7/7/7
usemtl c2
f 1/1/1 4/4/4 8/8/8
usemtl c3
f 1/1/1 8/8/8 9/9/9
usemtl c4
f 1/1/1 9/9/9 2/2/2
f 9/9/9 10/10/10 11/11/11
usemtl c5
f 2/2/2 9/9/9 11/11/11
usemtl c6
f 2/2/2 11/11/11 3/3/3
f 12/12/12 13/13/13 5/5/5
usemtl c7
f 3/3/3 11/11/11 14/14/14
usemtl c8
f 3/3/3 14/14/14 15/15/15
usemtl c9
f 3/3/3 15/15/15 4/4/4
usemtl c10
f 4/4/4 15/15/15 16/16/16
usemtl c11
f 4/4/4 16/16/16 10/10/10
f 17/17/17 18/18/18 19/19/19
usemtl c12
f 4/4/4 10/10/10 8/8/8
usemtl c13
f 8/8/8 10/10/10 9/9/9
usemtl c14
f 11/11/11 10/10/10 20/20/20
usemtl c15
f 11/11/11 20/20/20 14/14/14
usemtl c16
f 21/21/21 22/22/22 23/23/23
usemtl c17
f 21/21/21 23/23/23 24/24/24
usemtl c18
f 21/21/21 24/24/24 25/25/25
usemtl c19
f 21/21/21 25/25/25 26/26/26
usemtl c20
f 21/21/21 26/26/26 22/22/22
usemtl c21
f 22/22/22 26/26/26 27/27/27
usemtl c22
f 22/22/22 27/27/27 28/28/28
usemtl c23
f 22/22/22 28/28/28 23/23/23
usemtl c24
f 27/27/27 29/29/29 30/30/30
f 6/6/6 17/17/17 19/19/19
usemtl c25
f 27/27/27 30/30/30 28/28/28
f 29/29/29 26/26/26 25/25/25
usemtl c26
f 29/29/29 25/25/25 31/31/31
usemtl c27
f 29/29/29 31/31/31 30/30/30
usemtl c28
f 25/25/25 24/24/24 31/31/31
usemtl c29
f 26/26/26 29/29/29 27/27/27
usemtl c30
f 10/10/10 16/16/16 20/20/20
usemtl c31
f 12/12/12 5/5/5 32/32/32
usemtl c32
f 12/12/12 32/32/32 33/33/33
usemtl c33
f 12/12/12 33/33/33 13/13/13
usemtl c34
f 13/13/13 33/33/33 34/34/34
usemtl c35
f 13/13/13 34/34/34 6/6/6
f 33/33/33 35/35/35 34/34/34
usemtl c36
f 13/13/13 6/6/6 5/5/5
usemtl c37
f 5/5/5 7/7/7 36/36/36
f 37/37/37 38/38/38 18/18/18
usemtl c38
f 5/5/5 36/36/36 32/32/32
usemtl c39
f 32/32/32 36/36/36 38/38/38
usemtl c40
f 32/32/32 38/38/38 37/37/37
usemtl c41
f 32/32/32 37/37/37 33/33/33
usemtl c42
f 33/33/33 37/37/37 35/35/35
usemtl c43
f 34/34/34 35/35/35 17/17/17
f 34/34/34 17/17/17 6/6/6
usemtl c44
f 6/6/6 19/19/19 7/7/7
usemtl c45
f 35/35/35 37/37/37 17/17/17
usemtl c46
f 17/17/17 37/37/37 18/18/18
usemtl c47
f 39/39/39 40/40/40 41/41/41
f 39/39/39 41/41/41 42/42/42
