# Made by RuneLite Model-Dumper Plugin
mtllib fish-pie.mtl
o Item Admiral pie 2026-09-13_16-42-01
v -2 0 -1
v 11 0 -14
v 16 0 -5
v 16 0 3
v 11 0 12
v 2 0 17
v -6 0 17
v -15 0 12
v -20 0 3
v -20 0 -5
v -15 0 -14
v -6 0 -19
v 2 0 -19
v 14 12 -17
v 21 12 -6
v 21 12 4
v 14 12 15
v 3 12 22
v -7 12 22
v -18 12 15
v -25 12 4
v -25 12 -6
v -18 12 -17
v -7 12 -24
v 3 12 -24
v 23 12 -7
v 16 12 -19
v 14 17 -17
v 20 17 -6
v 23 12 5
v 20 17 4
v 16 12 17
v 14 17 15
v 4 12 24
v 3 17 21
v -7 12 24
v -7 17 21
v -19 12 17
v -18 17 15
v -27 12 5
v -24 17 4
v -27 12 -7
v -24 17 -6
v -19 12 -19
v -18 17 -17
v -7 12 -26
v -7 17 -23
v 4 12 -26
v 3 17 -23
v 2 15 -19
v 11 15 -14
v 16 15 -5
v 16 15 3
v 11 15 12
v 2 15 17
v -6 15 17
v -15 15 12
v -20 15 3
v -20 15 -5
v -15 15 -14
v -6 15 -19
v -2 22 -1
v -27 21 1
v -22 17 5
v -22 21 5
v -27 24 1
v -22 17 -5
v -24 24 -2
v -22 21 -5
v -18 15 -6
v -15 15 -5
v -13 15 -3
v -18 23 1
v -12 17 1
v -13 15 5
v -15 15 9
v -18 15 8
v -21 24 1
v -19 21 -2
v 15 20 0
v 11 15 2
v 20 24 8
v 17 17 0
v 22 23 -10
v 20 24 -10
v 11 15 -2
v 9 15 1
v -17 20 2
v -18 21 4
v -15 19 8
v -13 17 6
v 22 23 8
v 13 13 1
v 13 13 -3
usemtl c0
f 1 2 3
usemtl c1
f 1 3 4
usemtl c2
f 1 4 5
usemtl c3
f 1 5 6
usemtl c4
f 1 6 7
usemtl c5
f 1 7 8
usemtl c6
f 1 8 9
usemtl c7
f 1 9 10
usemtl c8
f 1 10 11
usemtl c9
f 1 11 12
usemtl c10
f 1 12 13
usemtl c11
f 1 13 2
usemtl c12
f 2 13 14
usemtl c13
f 2 14 15
usemtl c14
f 2 15 3
usemtl c15
f 3 15 16
usemtl c16
f 3 16 4
usemtl c1
f 4 16 17
usemtl c2
f 4 17 5
usemtl c17
f 5 17 18
usemtl c18
f 5 18 6
usemtl c19
f 6 18 19
usemtl c20
f 6 19 7
usemtl c21
f 7 19 20
usemtl c22
f 7 20 8
usemtl c23
f 8 20 21
usemtl c24
f 8 21 9
f 9 21 22
usemtl c25
f 9 22 10
usemtl c26
f 10 22 23
usemtl c27
f 10 23 11
usemtl c28
f 11 23 24
usemtl c1
f 11 24 12
usemtl c29
f 12 24 25
usemtl c30
f 12 25 13
usemtl c31
f 13 25 14
usemtl c32
f 26 27 28
usemtl c33
f 26 28 29
usemtl c34
f 26 29 30
usemtl c35
f 30 29 31
usemtl c36
f 30 31 32
usemtl c37
f 32 31 33
usemtl c38
f 32 33 34
usemtl c39
f 34 33 35
usemtl c40
f 34 35 36
usemtl c41
f 36 35 37
usemtl c42
f 36 37 38
usemtl c43
f 38 37 39
usemtl c44
f 38 39 40
usemtl c45
f 40 39 41
usemtl c46
f 40 41 42
usemtl c47
f 42 41 43
usemtl c48
f 42 43 44
usemtl c49
f 44 43 45
usemtl c50
f 44 45 46
usemtl c51
f 46 45 47
usemtl c52
f 46 47 48
usemtl c53
f 48 47 49
usemtl c54
f 48 49 27
usemtl c55
f 27 49 28
usemtl c56
f 28 49 50
usemtl c57
f 28 50 51
usemtl c58
f 28 51 29
usemtl c59
f 29 51 52
usemtl c37
f 29 52 31
usemtl c59
f 31 52 53
usemtl c60
f 31 53 33
usemtl c61
f 33 53 54
usemtl c62
f 33 54 35
usemtl c57
f 35 54 55
usemtl c63
f 35 55 37
usemtl c60
f 37 55 56
usemtl c64
f 37 56 39
usemtl c60
f 39 56 57
usemtl c63
f 39 57 41
usemtl c65
f 41 57 58
usemtl c57
f 41 58 43
usemtl c37
f 43 58 59
f 43 59 45
usemtl c49
f 45 59 60
usemtl c66
f 45 60 47
usemtl c57
f 47 60 61
usemtl c58
f 47 61 49
usemtl c57
f 49 61 50
usemtl c67
f 50 61 62
f 50 62 51
f 51 62 52
usemtl c68
f 52 62 53
usemtl c69
f 53 62 54
usemtl c70
f 54 62 55
usemtl c71
f 55 62 56
usemtl c72
f 56 62 57
f 57 62 58
usemtl c73
f 58 62 59
usemtl c74
f 59 62 60
usemtl c75
f 60 62 61
usemtl c76
f 63 64 65
usemtl c77
f 63 65 66
usemtl c78
f 63 66 67
usemtl c79
f 67 66 68
usemtl c80
f 67 68 69
usemtl c81
f 67 69 70
usemtl c82
f 70 69 71
usemtl c83
f 71 69 72
usemtl c84
f 72 69 73
usemtl c85
f 72 73 74
usemtl c86
f 74 73 75
usemtl c87
f 75 73 76
usemtl c88
f 76 73 65
usemtl c89
f 76 65 64
usemtl c90
f 76 64 77
usemtl c91
f 66 65 78
usemtl c92
f 66 78 68
usemtl c93
f 68 78 79
usemtl c94
f 68 79 69
usemtl c95
f 80 81 82
usemtl c96
f 80 82 83
usemtl c97
f 80 83 84
usemtl c98
f 80 84 85
usemtl c99
f 80 85 86
usemtl c100
f 80 86 87
usemtl c101
f 80 87 81
usemtl c102
f 88 89 90
usemtl c103
f 88 90 91
usemtl c104
f 92 82 81
usemtl c105
f 92 81 93
usemtl c106
f 83 82 92
usemtl c107
f 94 86 85
usemtl c108
f 94 85 84
usemtl c109
f 73 79 78
usemtl c110
f 73 78 65
