# Made by RuneLite Model-Dumper Plugin
mtllib runite-sword.mtl
o Object Rune sword 2026-09-24_13-25-40
v 21 2 -12
v 14 0 -18
v 10 28 -10
v 13 28 -3
v 25 2 -5
v 29 0 -8
v 27 0 -14
v 22 0 -16
v -1 9 -21
v 1 28 -15
v 7 76 -15
v 11 76 -11
v 14 76 -5
v 14 28 5
v 20 0 9
v 26 0 -1
v -11 9 -19
v -7 28 -14
v 0 76 -17
v -9 141 -3
v -5 135 -4
v -4 142 1
v -1 135 6
v 12 76 1
v 9 28 12
v 8 0 20
v 2 28 17
v 0 7 24
v -9 5 33
v -4 0 33
v -11 3 46
v -7 0 46
v -18 0 58
v -16 0 56
v -19 9 -11
v -14 28 -15
v -7 76 -16
v -14 134 -4
v -39 177 -20
v -32 177 -17
v -11 143 4
v -23 9 0
v -19 28 -8
v -11 76 -12
v -18 134 -1
v -44 174 -16
v -43 179 -19
v -30 222 -42
v -28 222 -44
v -24 219 -45
v -22 222 -40
v -32 183 -13
v -38 176 -7
v -17 139 7
v -11 140 11
v 1 182 30
v 2 183 25
v 6 183 22
v 10 182 24
v -3 135 10
v 8 76 6
v 2 76 8
v -6 28 18
v -14 7 18
v -18 5 30
v -17 3 44
v -21 0 57
v -19 0 11
v -18 27 1
v -11 75 -5
v -20 134 3
v -47 176 -9
v -46 180 -14
v -41 185 -12
v -27 224 -39
v -18 247 -51
v -19 246 -54
v -19 246 -56
v -15 245 -56
v -14 247 -51
v -23 223 -37
v -37 182 -6
v -58 219 11
v -43 176 -8
v -10 75 2
v -14 133 12
v -4 76 8
v -6 134 12
v 4 182 32
v 2 235 30
v 1 232 28
v 2 233 24
v 6 233 21
v 7 235 23
v 8 181 29
v -13 27 8
v -20 0 26
v -19 0 41
v -21 0 52
v -14 0 -26
v -21 6 -24
v -24 6 -17
v -28 0 -10
v -25 0 -35
v -30 4 -33
v -34 4 -29
v -34 0 -23
v -40 0 -35
v -40 0 -30
v -33 0 -38
v -38 0 -37
v -63 216 12
v -64 218 6
v -60 221 4
v 7 234 28
v -1 263 33
v -6 263 34
v -8 261 32
v -8 261 28
v -3 262 26
v -1 264 28
v -15 247 -50
v -17 275 -55
v -20 276 -56
v -21 275 -59
v -20 275 -61
v -17 273 -60
v -16 275 -57
v -15 289 -64
v -5 288 29
usemtl c0
f 1 2 3
usemtl c1
f 1 3 4
usemtl c2
f 1 4 5
usemtl c3
f 1 5 6
usemtl c4
f 1 6 7
usemtl c5
f 1 7 2
usemtl c6
f 2 7 8
usemtl c0
f 2 9 10
usemtl c1
f 2 10 3
usemtl c7
f 3 10 11
usemtl c8
f 3 11 12
f 3 12 4
usemtl c9
f 4 12 13
usemtl c2
f 4 13 14
usemtl c10
f 4 14 5
usemtl c11
f 5 14 15
usemtl c12
f 5 15 16
f 5 16 6
usemtl c13
f 9 17 18
usemtl c0
f 9 18 10
f 10 18 19
usemtl c1
f 10 19 11
usemtl c0
f 11 19 20
usemtl c1
f 11 20 21
usemtl c8
f 11 21 12
usemtl c9
f 12 21 22
usemtl c14
f 12 22 13
usemtl c15
f 13 22 23
usemtl c5
f 13 23 24
usemtl c3
f 13 24 14
usemtl c12
f 14 24 25
f 14 25 15
usemtl c16
f 15 25 26
usemtl c17
f 26 25 27
usemtl c18
f 26 27 28
usemtl c17
f 26 28 29
usemtl c16
f 26 29 30
f 30 29 31
f 30 31 32
usemtl c19
f 32 31 33
usemtl c20
f 32 33 34
usemtl c21
f 17 35 36
usemtl c3
f 17 36 18
f 18 36 37
usemtl c13
f 18 37 19
usemtl c22
f 19 37 38
usemtl c13
f 19 38 20
f 20 38 39
usemtl c15
f 20 39 40
usemtl c23
f 20 40 41
f 20 41 22
usemtl c0
f 20 22 21
usemtl c24
f 35 42 43
usemtl c20
f 35 43 36
f 36 43 44
usemtl c21
f 36 44 37
usemtl c25
f 37 44 45
usemtl c26
f 37 45 38
usemtl c27
f 38 45 46
usemtl c11
f 38 46 39
usemtl c21
f 39 46 47
usemtl c19
f 39 47 48
usemtl c21
f 39 48 49
usemtl c5
f 39 49 40
f 40 49 50
usemtl c15
f 40 50 51
usemtl c5
f 40 51 52
usemtl c6
f 40 52 53
usemtl c28
f 40 53 41
usemtl c29
f 41 53 54
usemtl c30
f 41 54 55
f 41 55 56
usemtl c29
f 41 56 57
usemtl c28
f 41 57 22
usemtl c23
f 22 57 58
usemtl c15
f 22 58 23
f 23 58 59
usemtl c5
f 23 59 60
usemtl c4
f 23 60 24
usemtl c25
f 24 60 61
usemtl c28
f 24 61 25
usemtl c31
f 25 61 27
usemtl c24
f 27 61 62
usemtl c32
f 27 62 63
usemtl c33
f 27 63 28
usemtl c32
f 28 63 64
usemtl c34
f 28 64 65
usemtl c18
f 28 65 29
f 29 65 66
usemtl c17
f 29 66 31
usemtl c18
f 31 66 67
usemtl c31
f 31 67 33
usemtl c35
f 42 68 69
usemtl c32
f 42 69 43
usemtl c30
f 43 69 70
usemtl c36
f 43 70 44
usemtl c33
f 44 70 71
usemtl c37
f 44 71 45
usemtl c38
f 45 71 72
usemtl c17
f 45 72 46
f 46 72 73
usemtl c19
f 46 73 47
f 47 73 74
usemtl c39
f 47 74 75
usemtl c36
f 47 75 48
usemtl c30
f 48 75 76
usemtl c32
f 48 76 77
usemtl c37
f 48 77 49
usemtl c20
f 49 77 78
usemtl c26
f 49 78 50
usemtl c40
f 50 78 79
usemtl c0
f 50 79 51
usemtl c2
f 51 79 80
usemtl c41
f 51 80 81
usemtl c6
f 51 81 52
usemtl c28
f 52 81 74
usemtl c6
f 52 74 82
usemtl c25
f 52 82 53
usemtl c20
f 53 82 83
usemtl c24
f 53 83 84
usemtl c33
f 53 84 54
usemtl c42
f 54 84 71
usemtl c35
f 54 71 70
usemtl c43
f 54 70 85
f 54 85 86
f 54 86 55
f 55 86 87
usemtl c35
f 55 87 62
usemtl c32
f 55 62 88
f 55 88 89
usemtl c35
f 55 89 56
usemtl c42
f 56 89 90
f 56 90 91
usemtl c33
f 56 91 57
usemtl c44
f 57 91 92
usemtl c28
f 57 92 58
usemtl c23
f 58 92 93
usemtl c15
f 58 93 59
usemtl c0
f 59 93 94
usemtl c45
f 59 94 95
usemtl c4
f 59 95 60
usemtl c46
f 60 95 88
usemtl c20
f 60 88 61
usemtl c24
f 61 88 62
usemtl c47
f 68 64 96
usemtl c48
f 68 96 69
f 69 96 85
usemtl c43
f 69 85 70
usemtl c47
f 64 63 96
usemtl c48
f 96 63 87
f 96 87 85
usemtl c43
f 85 87 86
usemtl c35
f 63 62 87
usemtl c42
f 64 68 97
usemtl c49
f 64 97 65
f 65 97 98
usemtl c34
f 65 98 66
f 66 98 99
usemtl c24
f 66 99 67
usemtl c13
f 17 9 100
usemtl c3
f 17 100 101
usemtl c21
f 17 101 35
usemtl c20
f 35 101 102
usemtl c24
f 35 102 42
usemtl c32
f 42 102 103
usemtl c35
f 42 103 68
usemtl c5
f 101 100 104
usemtl c4
f 101 104 105
usemtl c46
f 101 105 102
usemtl c50
f 102 105 106
usemtl c33
f 102 106 103
usemtl c32
f 103 106 107
usemtl c34
f 107 106 108
usemtl c24
f 107 108 109
usemtl c3
f 105 104 110
usemtl c12
f 105 110 111
usemtl c19
f 105 111 106
usemtl c18
f 106 111 108
usemtl c15
f 100 9 2
usemtl c49
f 71 84 72
f 72 84 112
usemtl c24
f 72 112 113
usemtl c31
f 72 113 73
usemtl c19
f 73 113 74
usemtl c28
f 74 113 114
usemtl c6
f 74 114 82
usemtl c46
f 82 114 83
usemtl c20
f 83 114 113
usemtl c24
f 83 113 112
usemtl c49
f 83 112 84
usemtl c37
f 88 95 89
usemtl c19
f 89 95 115
usemtl c38
f 89 115 90
usemtl c20
f 90 115 116
usemtl c34
f 90 116 117
usemtl c42
f 90 117 91
f 91 117 118
usemtl c34
f 91 118 92
usemtl c37
f 92 118 119
usemtl c21
f 92 119 93
usemtl c51
f 93 119 120
usemtl c0
f 93 120 94
usemtl c1
f 94 120 121
usemtl c52
f 94 121 115
usemtl c53
f 94 115 95
usemtl c39
f 74 81 75
usemtl c36
f 75 81 122
usemtl c30
f 75 122 76
usemtl c33
f 76 122 123
usemtl c30
f 76 123 124
usemtl c35
f 76 124 77
usemtl c42
f 77 124 125
usemtl c24
f 77 125 78
usemtl c54
f 78 125 126
usemtl c51
f 78 126 79
usemtl c55
f 79 126 127
f 79 127 80
usemtl c10
f 80 127 128
usemtl c56
f 80 128 122
usemtl c54
f 80 122 81
usemtl c57
f 122 128 123
usemtl c58
f 123 128 129
usemtl c24
f 123 129 124
usemtl c34
f 124 129 125
usemtl c54
f 125 129 126
usemtl c51
f 126 129 127
f 127 129 128
usemtl c23
f 115 121 116
usemtl c59
f 116 121 130
usemtl c37
f 116 130 117
usemtl c34
f 117 130 118
usemtl c31
f 118 130 119
usemtl c60
f 119 130 120
usemtl c40
f 120 130 121
