# Made by RuneLite Model-Dumper Plugin
mtllib cauldron.mtl
o Object Cauldron 2026-09-13_17-18-58
v -5 76 20
v -5 76 18
v -6 76 19
v -6 76 19
v -7 76 22
v -8 76 21
v -9 76 22
v -8 76 21
v -11 76 20
v -10 76 19
v -11 76 18
v -10 76 19
v -9 76 16
v -8 76 17
v -7 76 16
v -8 76 17
v -1 76 -16
v -1 76 -22
v -2 76 -21
v -2 76 -17
v -7 76 -10
v -8 76 -11
v -13 76 -10
v -12 76 -11
v -19 76 -16
v -18 76 -17
v -19 76 -22
v -18 76 -21
v -13 76 -28
v -12 76 -27
v -7 76 -28
v -8 76 -27
v 36 76 6
v 36 76 -4
v 34 76 -2
v 34 76 4
v 26 76 16
v 24 76 14
v 16 76 16
v 18 76 14
v 6 76 6
v 8 76 4
v 6 76 -4
v 8 76 -2
v 16 76 -14
v 18 76 -12
v 26 76 -14
v 24 76 -12
v 32 76 4
v 32 76 -2
v 29 76 -1
v 29 76 3
v 24 76 12
v 23 76 9
v 18 76 12
v 19 76 9
v 10 76 4
v 13 76 3
v 10 76 -2
v 13 76 -1
v 18 76 -10
v 19 76 -7
v 24 76 -10
v 23 76 -7
v 18 90 -35
v -17 90 -35
v -35 90 -18
v -35 90 17
v -17 90 35
v 18 90 35
v 35 90 17
v 35 90 -18
v 35 107 -18
v 18 107 -35
v -17 107 -35
v -35 107 -18
v -35 107 17
v -17 107 35
v 18 107 35
v 35 107 17
v 49 107 21
v 49 107 -21
v 21 107 -49
v -21 107 -49
v -49 107 -21
v -49 107 21
v -21 107 49
v 21 107 49
v 17 93 39
v 40 93 16
v 40 93 -17
v 17 93 -40
v -16 93 -40
v -39 93 -17
v -39 93 16
v -16 93 39
v -21 79 49
v 21 79 49
v 49 79 21
v 49 79 -21
v 21 79 -49
v -21 79 -49
v -49 79 -21
v -49 79 21
v -49 37 21
v -21 37 49
v 21 37 49
v 49 37 21
v 49 37 -21
v 21 37 -49
v -21 37 -49
v -49 37 -21
v -39 16 -17
v -39 16 16
v -16 16 39
v 17 16 39
v 40 16 16
v 40 16 -17
v 17 16 -40
v -16 16 -40
v 31 0 36
v 27 16 28
v 13 16 35
v 17 0 43
v 5 16 21
v 9 0 29
v 19 16 14
v 24 0 22
v 17 0 -40
v 13 16 -32
v 27 16 -25
v 31 0 -33
v 19 16 -11
v 24 0 -19
v 5 16 -18
v 9 0 -26
v -44 0 8
v -35 16 8
v -35 16 -8
v -44 0 -8
v -19 16 -8
v -28 0 -8
v -19 16 8
v -28 0 8
usemtl c0
f 1 2 3
f 1 3 4
f 1 4 5
f 5 4 6
f 5 6 7
f 7 6 8
f 7 8 9
f 9 8 10
f 9 10 11
f 11 10 12
f 11 12 13
f 13 12 14
f 13 14 15
f 15 14 16
f 15 16 2
f 2 16 3
f 17 18 19
f 17 19 20
f 17 20 21
f 21 20 22
f 21 22 23
f 23 22 24
f 23 24 25
f 25 24 26
f 25 26 27
f 27 26 28
f 27 28 29
f 29 28 30
f 29 30 31
f 31 30 32
f 31 32 18
f 18 32 19
f 33 34 35
f 33 35 36
f 33 36 37
f 37 36 38
f 37 38 39
f 39 38 40
f 39 40 41
f 41 40 42
f 41 42 43
f 43 42 44
f 43 44 45
f 45 44 46
f 45 46 47
f 47 46 48
f 47 48 34
f 34 48 35
f 49 50 51
f 49 51 52
f 49 52 53
f 53 52 54
f 53 54 55
f 55 54 56
f 55 56 57
f 57 56 58
f 57 58 59
f 59 58 60
f 59 60 61
f 61 60 62
f 61 62 63
f 63 62 64
f 63 64 50
f 50 64 51
usemtl c1
f 65 66 67
usemtl c2
f 65 67 68
usemtl c3
f 65 68 69
usemtl c4
f 65 69 70
usemtl c5
f 65 70 71
usemtl c6
f 65 71 72
usemtl c7
f 65 72 73
usemtl c8
f 65 73 74
usemtl c9
f 65 74 66
usemtl c10
f 66 74 75
usemtl c11
f 66 75 67
usemtl c12
f 67 75 76
usemtl c13
f 67 76 68
usemtl c14
f 68 76 77
usemtl c15
f 68 77 69
f 69 77 78
usemtl c16
f 69 78 70
usemtl c13
f 70 78 79
usemtl c12
f 70 79 71
usemtl c17
f 71 79 80
usemtl c18
f 71 80 72
usemtl c19
f 72 80 73
usemtl c20
f 73 80 81
usemtl c9
f 73 81 82
usemtl c21
f 73 82 83
usemtl c22
f 73 83 74
usemtl c23
f 74 83 75
usemtl c24
f 75 83 84
usemtl c25
f 75 84 85
usemtl c26
f 75 85 76
usemtl c27
f 76 85 86
usemtl c21
f 76 86 77
usemtl c28
f 77 86 87
usemtl c29
f 77 87 78
usemtl c30
f 78 87 79
usemtl c31
f 79 87 88
usemtl c32
f 79 88 80
usemtl c33
f 80 88 81
f 81 88 89
usemtl c21
f 81 89 90
usemtl c34
f 81 90 82
usemtl c35
f 82 90 91
usemtl c36
f 82 91 83
usemtl c37
f 83 91 92
usemtl c38
f 83 92 84
f 84 92 93
usemtl c39
f 84 93 85
usemtl c26
f 85 93 94
usemtl c40
f 85 94 86
usemtl c41
f 86 94 95
usemtl c42
f 86 95 87
usemtl c43
f 87 95 96
usemtl c44
f 87 96 88
usemtl c45
f 88 96 89
usemtl c46
f 89 96 97
usemtl c47
f 89 97 98
usemtl c48
f 89 98 90
usemtl c49
f 90 98 99
usemtl c36
f 90 99 91
usemtl c50
f 91 99 100
usemtl c51
f 91 100 92
f 92 100 101
usemtl c50
f 92 101 93
usemtl c36
f 93 101 102
usemtl c52
f 93 102 94
usemtl c53
f 94 102 103
usemtl c54
f 94 103 95
usemtl c42
f 95 103 104
usemtl c55
f 95 104 96
usemtl c56
f 96 104 97
usemtl c57
f 97 104 105
f 97 105 106
usemtl c58
f 97 106 98
usemtl c59
f 98 106 107
usemtl c60
f 98 107 99
usemtl c29
f 99 107 108
usemtl c61
f 99 108 100
usemtl c62
f 100 108 109
usemtl c51
f 100 109 101
f 101 109 110
usemtl c63
f 101 110 102
usemtl c36
f 102 110 111
usemtl c64
f 102 111 103
usemtl c27
f 103 111 112
usemtl c59
f 103 112 104
usemtl c65
f 104 112 105
usemtl c59
f 105 112 113
usemtl c66
f 105 113 114
usemtl c67
f 105 114 106
usemtl c68
f 106 114 115
usemtl c69
f 106 115 107
usemtl c47
f 107 115 116
usemtl c26
f 107 116 108
usemtl c70
f 108 116 117
usemtl c16
f 108 117 109
usemtl c71
f 109 117 118
usemtl c51
f 109 118 110
f 110 118 119
usemtl c62
f 110 119 111
usemtl c61
f 111 119 120
usemtl c29
f 111 120 112
usemtl c60
f 112 120 113
usemtl c72
f 121 122 123
usemtl c73
f 121 123 124
usemtl c42
f 124 123 125
usemtl c74
f 124 125 126
usemtl c75
f 126 125 127
usemtl c76
f 126 127 128
usemtl c77
f 128 127 122
usemtl c78
f 128 122 121
usemtl c38
f 129 130 131
usemtl c79
f 129 131 132
usemtl c80
f 132 131 133
usemtl c81
f 132 133 134
usemtl c20
f 134 133 135
usemtl c82
f 134 135 136
usemtl c83
f 136 135 130
usemtl c84
f 136 130 129
usemtl c85
f 137 138 139
usemtl c86
f 137 139 140
usemtl c87
f 140 139 141
usemtl c63
f 140 141 142
usemtl c37
f 142 141 143
usemtl c70
f 142 143 144
usemtl c23
f 144 143 138
usemtl c88
f 144 138 137
