# Made by RuneLite Model-Dumper Plugin
mtllib adamant-rocks.mtl
o Object Adamantite rocks 2026-09-12_20-57-24
v -10 25 -53
v 32 67 -40
v 41 18 -56
v 41 -6 -63
v -21 2 -59
v 7 23 -38
v 19 22 -14
v 45 18 -16
v 57 16 -41
v 62 -9 -44
v 46 -6 -13
v 14 -1 -11
v 0 -1 -41
v 8 36 32
v -48 9 16
v -24 7 56
v 56 -8 48
v 48 -7 24
v 8 0 8
v -24 43 -4
v -42 46 -13
v -48 8 -7
v -18 4 8
v -15 41 -22
v -24 92 -22
v -51 46 -31
v -62 8 -36
v -33 44 -40
v -33 4 -51
v -4 1 -22
v 48 41 0
v 16 -2 0
v 64 -10 24
v 64 -10 -16
v 41 -2 45
v -44 10 45
v -44 6 -45
v 41 -3 -45
usemtl c0
f 1 2 3
usemtl c1
f 1 3 4
usemtl c2
f 1 4 5
usemtl c3
f 1 5 6
usemtl c4
f 1 6 2
usemtl c5
f 2 6 7
usemtl c6
f 2 7 8
usemtl c7
f 2 8 9
usemtl c8
f 2 9 3
usemtl c9
f 3 9 10
usemtl c10
f 3 10 4
usemtl c11
f 11 10 9
usemtl c12
f 11 9 8
usemtl c13
f 11 8 12
usemtl c14
f 12 8 7
usemtl c15
f 12 7 13
usemtl c16
f 13 7 6
usemtl c17
f 13 6 5
usemtl c18
f 14 15 16
usemtl c19
f 14 16 17
usemtl c20
f 14 17 18
usemtl c21
f 14 18 19
usemtl c22
f 14 19 15
usemtl c23
f 20 21 22
usemtl c3
f 20 22 23
usemtl c24
f 20 23 24
f 20 24 25
usemtl c3
f 20 25 21
usemtl c25
f 21 25 26
usemtl c26
f 21 26 27
usemtl c27
f 21 27 22
usemtl c28
f 26 28 29
usemtl c29
f 26 29 27
usemtl c30
f 28 24 30
usemtl c31
f 28 30 29
usemtl c8
f 24 23 30
usemtl c32
f 26 25 28
usemtl c33
f 28 25 24
usemtl c34
f 31 32 33
usemtl c35
f 31 33 34
usemtl c12
f 31 34 32
usemtl c36
f 35 36 37
f 35 37 38
