# Made by RuneLite Model-Dumper Plugin
mtllib splitbark-robe-bottom.mtl
o Item Splitbark legs 2026-09-24_18-04-45
v 0 21 21
v -2 21 4
v -11 21 9
v -13 23 11
v 0 23 24
v -2 1 26
v -1 3 22
v 6 5 12
v 6 21 12
v -2 24 1
v -2 5 4
v -12 3 11
v -14 1 13
v -29 19 27
v -17 19 38
v -2 22 23
v -18 4 39
v -12 21 8
v -7 21 -1
v -15 21 -9
v -24 21 -3
v -27 23 -3
v -14 23 10
v -16 1 11
v -14 3 9
v -7 5 -1
v -4 5 -1
v -4 24 -1
v -14 24 -11
v -15 5 -12
v -15 5 -9
v -25 3 -2
v -29 1 -1
v -41 19 14
v -26 22 -1
v -30 19 26
v -31 4 26
v 19 5 -20
v 20 3 -23
v -2 5 1
v 19 24 -20
v 20 21 -23
v 17 24 -22
v 17 5 -22
v 30 24 -9
v 32 21 -11
v 32 3 -11
v 8 21 -35
v 6 24 -33
v 32 5 -7
v 10 5 13
v 8 24 11
v 8 3 -35
v 5 5 -35
v -29 6 34
v -24 6 38
v -24 16 38
v -29 16 34
v -29 4 28
v -41 6 21
v -37 6 26
v -37 16 26
v -41 16 21
v -42 4 15
usemtl c0
f 1 2 3
usemtl c1
f 1 3 4
usemtl c2
f 1 4 5
usemtl c3
f 1 5 6
usemtl c4
f 1 6 7
usemtl c5
f 1 7 8
usemtl c6
f 1 8 9
f 1 9 2
usemtl c7
f 2 9 10
usemtl c8
f 2 10 11
usemtl c9
f 2 11 12
usemtl c10
f 2 12 3
usemtl c11
f 3 12 4
usemtl c12
f 4 12 13
usemtl c13
f 4 13 14
usemtl c14
f 4 14 15
usemtl c15
f 4 15 16
usemtl c16
f 4 16 5
usemtl c17
f 5 16 15
usemtl c18
f 5 15 17
usemtl c19
f 5 17 6
usemtl c20
f 18 19 20
usemtl c21
f 18 20 21
usemtl c3
f 18 21 22
usemtl c22
f 18 22 23
usemtl c23
f 18 23 24
usemtl c24
f 18 24 25
usemtl c25
f 18 25 26
usemtl c26
f 18 26 19
usemtl c27
f 19 26 27
usemtl c28
f 19 27 28
usemtl c29
f 19 28 29
usemtl c30
f 19 29 20
usemtl c31
f 20 29 30
usemtl c32
f 20 30 31
usemtl c9
f 20 31 32
usemtl c25
f 20 32 21
usemtl c33
f 21 32 22
usemtl c34
f 22 32 33
usemtl c35
f 22 33 34
usemtl c36
f 22 34 35
usemtl c37
f 22 35 23
usemtl c38
f 23 35 36
usemtl c14
f 23 36 37
usemtl c13
f 23 37 24
usemtl c39
f 38 39 11
usemtl c40
f 38 11 40
usemtl c41
f 38 40 41
usemtl c42
f 38 41 42
usemtl c43
f 38 42 39
usemtl c44
f 39 42 43
usemtl c45
f 39 43 44
usemtl c46
f 39 44 27
usemtl c47
f 39 27 26
usemtl c48
f 42 41 45
usemtl c49
f 42 45 46
usemtl c50
f 42 46 47
usemtl c51
f 42 47 39
f 42 39 48
usemtl c52
f 42 48 43
usemtl c14
f 43 48 49
usemtl c53
f 43 49 28
usemtl c54
f 43 28 44
usemtl c55
f 44 28 27
usemtl c56
f 50 47 46
usemtl c41
f 50 46 45
usemtl c57
f 50 45 51
usemtl c58
f 51 45 52
usemtl c59
f 51 52 8
usemtl c60
f 8 52 9
usemtl c61
f 9 52 10
usemtl c62
f 10 52 41
usemtl c63
f 10 41 40
usemtl c64
f 10 40 11
usemtl c41
f 52 45 41
usemtl c65
f 49 48 53
usemtl c33
f 49 53 54
usemtl c66
f 49 54 29
usemtl c58
f 49 29 28
usemtl c67
f 29 54 30
usemtl c68
f 55 56 57
usemtl c69
f 55 57 58
usemtl c70
f 55 58 59
usemtl c71
f 59 58 14
usemtl c18
f 59 14 13
usemtl c68
f 60 61 62
f 60 62 63
usemtl c72
f 60 63 64
usemtl c73
f 64 63 34
usemtl c74
f 64 34 33
usemtl c75
f 36 34 63
usemtl c76
f 36 63 62
usemtl c77
f 36 62 61
usemtl c78
f 36 61 37
usemtl c79
f 36 35 34
usemtl c80
f 15 57 56
usemtl c81
f 15 56 17
usemtl c82
f 58 57 15
usemtl c71
f 58 15 14
usemtl c83
f 48 39 53
