# Made by RuneLite Model-Dumper Plugin
mtllib shark.mtl
o Item Shark 2026-09-13_16-42-06
v -18 3 -53
v -39 0 -64
v -44 3 -28
v -40 19 -21
v 14 23 -31
v 26 1 -47
v -18 0 -53
v -44 0 -28
v -55 1 30
v -46 17 27
v -43 19 25
v -37 21 17
v -24 23 -18
v 6 18 -20
v 33 12 10
v 44 3 21
v 44 0 21
v 14 -20 -31
v -40 -14 -21
v -46 -14 27
v -46 -12 31
v -55 1 47
v -46 15 31
v -42 20 29
v -33 1 49
v -18 1 23
v 0 1 -7
v -10 18 -14
v 21 3 20
v 32 3 38
v 48 0 63
v 32 0 38
v 33 -9 10
v 6 -14 -20
v -24 -20 -18
v -37 -18 17
v -43 -15 25
v -42 -16 29
v -47 -8 45
v -46 0 62
v -46 3 62
v -47 12 45
v -10 -14 -14
v 21 0 20
v 12 0 64
v -20 22 -16
v -28 22 4
v -12 22 4
v 4 22 -8
v 4 -19 -8
v -12 -19 4
v -28 -19 4
v -20 -19 -16
usemtl c0
f 1 2 3
usemtl c1
f 1 3 4
usemtl c2
f 1 4 5
usemtl c3
f 1 5 6
usemtl c4
f 1 6 7
usemtl c5
f 1 7 2
usemtl c6
f 2 7 8
usemtl c7
f 2 8 3
usemtl c8
f 3 8 9
usemtl c9
f 3 9 4
usemtl c10
f 4 9 10
usemtl c11
f 4 10 11
usemtl c12
f 4 11 12
usemtl c13
f 4 12 13
usemtl c14
f 4 13 5
usemtl c15
f 5 13 14
usemtl c16
f 5 14 15
usemtl c17
f 5 15 16
usemtl c18
f 5 16 6
usemtl c19
f 6 16 17
usemtl c20
f 6 17 18
usemtl c4
f 6 18 7
usemtl c21
f 7 18 19
usemtl c22
f 7 19 8
usemtl c23
f 8 19 9
usemtl c24
f 9 19 20
usemtl c25
f 9 20 21
usemtl c26
f 9 21 22
usemtl c27
f 9 22 23
usemtl c28
f 9 23 10
usemtl c29
f 10 23 24
f 10 24 11
usemtl c30
f 11 24 12
usemtl c31
f 12 24 25
usemtl c32
f 12 25 26
usemtl c33
f 12 26 27
usemtl c34
f 12 27 28
usemtl c35
f 12 28 13
usemtl c36
f 13 28 14
usemtl c37
f 14 28 27
usemtl c38
f 14 27 29
usemtl c39
f 14 29 15
usemtl c40
f 15 29 30
usemtl c41
f 15 30 16
usemtl c42
f 16 30 31
usemtl c43
f 16 31 17
usemtl c44
f 17 31 32
usemtl c45
f 17 32 33
usemtl c46
f 17 33 18
usemtl c47
f 18 33 34
usemtl c22
f 18 34 35
usemtl c48
f 18 35 19
usemtl c49
f 19 35 36
usemtl c47
f 19 36 37
usemtl c50
f 19 37 20
usemtl c29
f 20 37 38
f 20 38 21
usemtl c51
f 21 38 39
usemtl c25
f 21 39 22
usemtl c52
f 22 39 40
usemtl c25
f 22 40 41
usemtl c53
f 22 41 42
usemtl c54
f 22 42 23
usemtl c53
f 23 42 24
usemtl c55
f 24 42 25
usemtl c30
f 25 42 41
usemtl c56
f 25 41 40
usemtl c57
f 25 40 39
usemtl c58
f 25 39 38
usemtl c22
f 25 38 36
usemtl c59
f 25 36 26
usemtl c60
f 26 36 27
usemtl c61
f 27 36 43
usemtl c57
f 27 43 34
usemtl c62
f 27 34 44
usemtl c63
f 27 44 29
usemtl c64
f 29 44 45
usemtl c65
f 29 45 30
usemtl c66
f 30 45 32
usemtl c67
f 30 32 31
usemtl c68
f 46 47 48
f 46 48 49
usemtl c69
f 43 36 35
usemtl c41
f 43 35 34
usemtl c70
f 32 45 44
usemtl c71
f 32 44 33
usemtl c72
f 33 44 34
usemtl c73
f 36 38 37
usemtl c74
f 50 51 52
f 50 52 53
