# Made by RuneLite Model-Dumper Plugin
mtllib dragon-pickaxe.mtl
o ware
v -22 6 24
v -8 6 35
v -6 11 30
v -21 9 19
v -29 5 11
v -21 3 19
v -6 1 30
v -8 1 35
v -7 3 41
v -7 9 41
v -8 11 35
v 4 12 32
v 4 12 26
v -3 11 25
v -3 1 25
v 4 2 32
v 3 2 37
v 1 3 42
v -4 6 44
v 1 9 42
v 3 12 37
v 3 7 37
v 22 8 33
v 23 11 28
v 4 2 27
v 16 0 -42
v 16 6 -41
v 12 5 -42
v 12 -1 -42
v 23 5 28
v 32 8 21
v 35 8 24
v 34 8 27
v -30 6 17
v -27 5 11
usemtl c0
f 1 2 3
usemtl c1
f 1 3 4
usemtl c2
f 1 4 5
usemtl c3
f 1 5 6
usemtl c4
f 1 6 7
usemtl c5
f 1 7 2
usemtl c6
f 2 7 8
usemtl c7
f 2 8 9
usemtl c8
f 2 9 10
usemtl c9
f 2 10 11
usemtl c10
f 2 11 3
usemtl c11
f 3 11 12
usemtl c12
f 3 12 13
usemtl c13
f 3 13 14
usemtl c14
f 3 14 7
usemtl c15
f 3 7 6
usemtl c16
f 3 6 4
usemtl c17
f 4 6 5
usemtl c18
f 7 14 15
usemtl c19
f 7 15 16
usemtl c20
f 7 16 17
usemtl c21
f 7 17 8
usemtl c22
f 8 17 18
usemtl c23
f 8 18 9
usemtl c24
f 9 18 19
usemtl c25
f 9 19 10
usemtl c26
f 10 19 20
usemtl c23
f 10 20 21
usemtl c27
f 10 21 11
usemtl c28
f 11 21 12
usemtl c29
f 12 21 22
usemtl c30
f 12 22 23
usemtl c19
f 12 23 24
usemtl c31
f 12 24 16
usemtl c32
f 12 16 25
usemtl c33
f 12 25 13
usemtl c34
f 13 25 26
usemtl c35
f 13 26 27
usemtl c36
f 13 27 14
usemtl c37
f 14 27 28
usemtl c38
f 14 28 15
usemtl c39
f 15 28 29
usemtl c40
f 15 29 25
usemtl c41
f 15 25 16
usemtl c42
f 23 22 16
f 23 16 30
usemtl c19
f 23 30 31
usemtl c43
f 23 31 24
usemtl c44
f 24 31 30
usemtl c45
f 24 30 16
usemtl c46
f 30 24 32
usemtl c33
f 30 32 23
usemtl c47
f 23 32 24
usemtl c48
f 16 22 17
usemtl c49
f 17 22 18
usemtl c50
f 18 22 20
usemtl c51
f 18 20 19
usemtl c50
f 22 21 20
usemtl c52
f 29 26 25
usemtl c53
f 26 29 28
usemtl c54
f 26 28 27
usemtl c19
f 33 23 30
usemtl c44
f 33 30 24
usemtl c43
f 33 24 23
usemtl c55
f 6 1 34
usemtl c16
f 6 34 4
usemtl c1
f 4 34 1
usemtl c56
f 6 1 35
usemtl c57
f 6 35 4
usemtl c58
f 4 35 1
