# Made by RuneLite Model-Dumper Plugin
mtllib wizard-boots.mtl
o Item Wizard boots 2026-09-24_18-00-05
v 15 5 -9
v 15 10 -6
v 14 16 5
v 15 9 3
v 15 0 -7
v 5 5 -9
v 6 10 -6
v 16 28 -10
v 16 28 8
v 2 28 8
v 4 16 5
v 6 9 3
v 15 5 18
v 15 0 16
v 5 0 16
v 5 0 -7
v 2 28 -10
v 6 25 -6
v 12 25 -6
v 12 24 4
v 6 24 4
v 5 5 18
v -14 16 5
v -15 10 -6
v -15 5 -9
v -15 9 3
v -4 16 5
v -2 28 8
v -16 28 8
v -16 28 -10
v -6 10 -6
v -5 5 -9
v -15 0 -7
v -15 0 16
v -15 5 18
v -6 9 3
v -2 28 -10
v -6 25 -6
v -6 24 4
v -12 24 4
v -12 25 -6
v -5 0 16
v -5 0 -7
v -5 5 18
usemtl c0
f 1 2 3
usemtl c1
f 1 3 4
usemtl c2
f 1 4 5
usemtl c3
f 1 5 6
usemtl c4
f 1 6 7
usemtl c5
f 1 7 2
usemtl c6
f 2 7 8
usemtl c1
f 2 8 3
usemtl c7
f 3 8 9
usemtl c8
f 3 9 10
usemtl c9
f 3 10 11
usemtl c10
f 3 11 4
usemtl c11
f 4 11 12
usemtl c12
f 4 12 13
usemtl c7
f 4 13 14
usemtl c13
f 4 14 5
usemtl c14
f 5 14 15
usemtl c15
f 5 15 16
usemtl c16
f 5 16 6
usemtl c17
f 6 16 12
usemtl c18
f 6 12 11
usemtl c19
f 6 11 7
usemtl c12
f 7 11 17
usemtl c20
f 7 17 8
usemtl c21
f 8 17 18
usemtl c9
f 8 18 19
usemtl c12
f 8 19 9
usemtl c22
f 9 19 20
usemtl c23
f 9 20 10
usemtl c16
f 10 20 21
usemtl c24
f 10 21 17
usemtl c25
f 10 17 11
usemtl c26
f 16 15 12
usemtl c27
f 12 15 22
usemtl c28
f 12 22 13
usemtl c29
f 13 22 14
usemtl c25
f 14 22 15
usemtl c30
f 21 18 17
usemtl c31
f 18 21 19
f 19 21 20
usemtl c32
f 23 24 25
usemtl c33
f 23 25 26
usemtl c34
f 23 26 27
usemtl c25
f 23 27 28
usemtl c35
f 23 28 29
usemtl c36
f 23 29 30
usemtl c25
f 23 30 24
usemtl c37
f 24 30 31
usemtl c38
f 24 31 25
usemtl c39
f 25 31 32
usemtl c40
f 25 32 33
usemtl c9
f 25 33 26
usemtl c41
f 26 33 34
usemtl c27
f 26 34 35
usemtl c26
f 26 35 36
usemtl c42
f 26 36 27
usemtl c43
f 27 36 32
usemtl c44
f 27 32 31
usemtl c45
f 27 31 37
usemtl c46
f 27 37 28
usemtl c47
f 28 37 38
usemtl c17
f 28 38 39
usemtl c48
f 28 39 29
usemtl c49
f 29 39 40
usemtl c50
f 29 40 30
usemtl c51
f 30 40 41
usemtl c48
f 30 41 37
usemtl c52
f 30 37 31
usemtl c3
f 36 42 43
usemtl c53
f 36 43 32
usemtl c54
f 32 43 33
usemtl c51
f 33 43 34
usemtl c55
f 34 43 42
usemtl c56
f 34 42 44
usemtl c41
f 34 44 35
usemtl c57
f 35 44 36
usemtl c58
f 36 44 42
usemtl c17
f 41 38 37
usemtl c31
f 38 41 40
f 38 40 39
