# Made by RuneLite Model-Dumper Plugin
mtllib dragon-boots.mtl
o Item Dragon boots 2026-09-24_18-23-50
v -15 0 -7
v -5 0 -7
v -5 0 16
v -15 0 16
v -15 13 4
v -16 7 -10
v -4 7 -10
v -6 13 4
v -4 7 19
v -16 7 19
v -13 9 15
v -10 11 10
v -4 16 5
v -14 16 5
v -15 12 -7
v -6 12 -7
v -7 9 15
v -12 24 4
v -17 23 7
v -1 23 7
v -6 24 4
v -6 25 -6
v -12 25 -6
v -17 23 -9
v -17 20 7
v -1 20 7
v -1 20 -8
v -1 23 -9
v -17 20 -8
v -16 18 6
v -2 18 6
v -2 16 -7
v -16 16 -7
v -10 17 15
v 5 0 -7
v 15 0 -7
v 15 0 16
v 5 0 16
v 6 13 4
v 4 7 -10
v 16 7 -10
v 15 13 4
v 16 7 19
v 4 7 19
v 7 9 15
v 10 11 10
v 4 16 5
v 6 12 -7
v 15 12 -7
v 14 16 5
v 2 18 6
v 2 16 -7
v 16 16 -7
v 16 18 6
v 1 20 7
v 1 20 -8
v 17 20 -8
v 17 20 7
v 1 23 7
v 1 23 -9
v 17 23 -9
v 17 23 7
v 6 24 4
v 6 25 -6
v 12 25 -6
v 12 24 4
v 10 17 15
v 13 9 15
usemtl c0
f 1 2 3
usemtl c1
f 1 3 4
usemtl c2
f 1 4 5
usemtl c3
f 1 5 6
usemtl c4
f 1 6 7
usemtl c5
f 1 7 2
usemtl c6
f 2 7 8
usemtl c7
f 2 8 3
usemtl c8
f 3 8 9
usemtl c9
f 3 9 4
usemtl c10
f 4 9 10
usemtl c11
f 4 10 5
f 5 10 11
usemtl c12
f 5 11 12
usemtl c13
f 5 12 8
usemtl c14
f 5 8 13
usemtl c15
f 5 13 14
usemtl c16
f 5 14 6
usemtl c17
f 6 14 15
usemtl c18
f 6 15 16
usemtl c19
f 6 16 7
usemtl c20
f 7 16 13
usemtl c21
f 7 13 8
usemtl c22
f 8 12 17
usemtl c23
f 8 17 9
usemtl c24
f 9 17 11
usemtl c10
f 9 11 10
usemtl c25
f 18 19 20
usemtl c26
f 18 20 21
usemtl c27
f 18 21 22
f 18 22 23
usemtl c7
f 18 23 24
usemtl c21
f 18 24 19
usemtl c16
f 19 24 25
usemtl c28
f 19 25 26
usemtl c29
f 19 26 20
usemtl c30
f 20 26 27
usemtl c31
f 20 27 28
usemtl c32
f 20 28 22
usemtl c33
f 20 22 21
usemtl c34
f 22 28 24
usemtl c33
f 22 24 23
usemtl c35
f 24 29 25
usemtl c15
f 25 29 30
usemtl c36
f 25 30 31
usemtl c17
f 25 31 26
usemtl c18
f 26 31 32
usemtl c37
f 26 32 27
usemtl c38
f 27 32 33
usemtl c39
f 27 33 29
usemtl c40
f 27 29 28
usemtl c41
f 28 29 24
usemtl c42
f 29 33 30
usemtl c28
f 30 33 14
usemtl c36
f 30 14 31
usemtl c17
f 31 14 13
usemtl c18
f 31 13 32
usemtl c37
f 32 13 16
usemtl c38
f 32 16 33
usemtl c43
f 33 16 15
usemtl c3
f 33 15 14
usemtl c44
f 34 12 11
usemtl c45
f 34 11 17
usemtl c46
f 34 17 12
usemtl c34
f 35 36 37
usemtl c7
f 35 37 38
usemtl c47
f 35 38 39
usemtl c48
f 35 39 40
usemtl c18
f 35 40 36
usemtl c49
f 36 40 41
usemtl c20
f 36 41 42
usemtl c21
f 36 42 37
usemtl c50
f 37 42 43
usemtl c13
f 37 43 44
usemtl c51
f 37 44 38
usemtl c52
f 38 44 39
usemtl c11
f 39 44 45
usemtl c12
f 39 45 46
usemtl c53
f 39 46 42
usemtl c28
f 39 42 47
usemtl c54
f 39 47 40
usemtl c55
f 40 47 48
usemtl c56
f 40 48 41
usemtl c57
f 41 48 49
usemtl c58
f 41 49 50
usemtl c21
f 41 50 42
usemtl c14
f 42 50 47
usemtl c47
f 47 50 51
f 47 51 52
usemtl c59
f 47 52 48
usemtl c1
f 48 52 53
usemtl c57
f 48 53 49
usemtl c58
f 49 53 50
usemtl c4
f 50 53 54
usemtl c13
f 50 54 51
usemtl c60
f 51 54 55
usemtl c15
f 51 55 56
usemtl c14
f 51 56 52
usemtl c21
f 52 56 57
usemtl c58
f 52 57 53
usemtl c37
f 53 57 58
usemtl c61
f 53 58 54
usemtl c35
f 54 58 55
usemtl c28
f 55 58 59
usemtl c16
f 55 59 60
usemtl c35
f 55 60 56
usemtl c41
f 56 60 61
usemtl c40
f 56 61 57
usemtl c31
f 57 61 62
usemtl c30
f 57 62 58
usemtl c29
f 58 62 59
usemtl c25
f 59 62 63
usemtl c21
f 59 63 60
usemtl c7
f 60 63 64
usemtl c33
f 60 64 65
usemtl c34
f 60 65 61
usemtl c32
f 61 65 62
usemtl c33
f 62 65 66
usemtl c26
f 62 66 63
usemtl c27
f 63 66 65
f 63 65 64
usemtl c62
f 67 68 46
usemtl c44
f 67 46 45
usemtl c45
f 67 45 68
usemtl c17
f 68 45 43
usemtl c63
f 68 43 42
usemtl c64
f 68 42 46
usemtl c12
f 43 45 44
