# Made by RuneLite Model-Dumper Plugin
mtllib tree.mtl
o Object Tree 2026-09-12_20-30-59
v -12 372 0
v -32 304 64
v 32 304 64
v 80 304 0
v 32 304 -64
v -32 304 -64
v -80 304 0
v -18 320 -45
v -36 256 -99
v -99 256 -32
v -45 321 -18
v -99 256 45
v -45 320 18
v -36 256 99
v -18 320 45
v 36 256 99
v 18 320 45
v 99 256 34
v 45 320 18
v 99 256 -45
v 45 320 -18
v 36 256 -99
v 18 320 -45
v -24 272 -60
v -48 208 -128
v -128 208 -43
v -60 273 -24
v -128 208 60
v -60 272 24
v -48 208 128
v -24 272 60
v 48 208 128
v 24 272 60
v 128 208 49
v 60 272 24
v 128 208 -60
v 60 272 -24
v 48 208 -128
v 24 272 -60
v -32 224 -80
v -62 160 -128
v -128 160 -59
v -80 225 -32
v -128 160 80
v -80 224 32
v -64 160 128
v -32 224 80
v 64 160 128
v 32 224 80
v 128 160 65
v 80 224 32
v 128 160 -80
v 80 224 -32
v 64 160 -128
v 32 224 -80
v -6 103 7
v -5 118 7
v -67 176 0
v -6 103 -6
v -5 118 -6
v 57 200 1
v 12 158 7
v 13 143 7
v 13 143 -4
v 12 158 -4
v 33 15 0
v 18 19 0
v 19 -1 12
v 33 4 8
v 39 -3 8
v 42 10 0
v 33 5 -8
v 19 1 -12
v 39 -2 -8
v 48 1 0
v 61 -7 0
v 4 348 1
v 0 181 -4
v 0 181 5
v 4 348 4
v 8 348 1
v 15 173 -4
v -14 48 -10
v -14 46 11
v 13 32 15
v 15 173 9
v 8 348 4
v 13 33 -11
v 0 9 -34
v -28 24 -21
v -32 20 0
v -26 16 20
v 0 0 29
v 21 -1 23
v 25 -3 0
v 20 3 -23
v -15 34 -32
v -8 28 -19
v 2 7 -27
v -8 20 -37
v -12 19 -41
v -20 35 -40
v -22 26 -29
v -19 16 -14
v -26 27 -33
v -23 32 -45
v -29 35 -56
v -20 28 22
v -11 25 10
v -22 14 4
v -27 21 18
v -29 18 23
v -25 26 30
v -14 13 27
v -2 2 18
v -16 9 32
v -28 20 35
v -35 18 45
usemtl c0
f 1 2 3
f 1 3 4
f 1 4 5
f 1 5 6
f 1 6 7
f 1 7 2
usemtl c1
f 8 9 10
f 8 10 11
f 11 10 12
f 11 12 13
f 13 12 14
f 13 14 15
f 15 14 16
f 15 16 17
f 17 16 18
f 17 18 19
f 19 18 20
f 19 20 21
f 21 20 22
f 21 22 23
f 23 22 9
f 23 9 8
f 24 25 26
f 24 26 27
f 27 26 28
f 27 28 29
f 29 28 30
f 29 30 31
f 31 30 32
f 31 32 33
f 33 32 34
f 33 34 35
f 35 34 36
f 35 36 37
f 37 36 38
f 37 38 39
f 39 38 25
f 39 25 24
f 40 41 42
f 40 42 43
f 43 42 44
f 43 44 45
f 45 44 46
f 45 46 47
f 47 46 48
f 47 48 49
f 49 48 50
f 49 50 51
f 51 50 52
f 51 52 53
f 53 52 54
f 53 54 55
f 55 54 41
f 55 41 40
usemtl c2
f 56 57 58
usemtl c3
f 56 58 59
usemtl c4
f 59 58 60
usemtl c5
f 60 58 57
usemtl c3
f 61 62 63
usemtl c6
f 61 63 64
usemtl c7
f 61 64 65
usemtl c8
f 61 65 62
usemtl c9
f 66 67 68
usemtl c10
f 66 68 69
usemtl c11
f 66 69 70
usemtl c12
f 66 70 71
usemtl c13
f 66 71 72
usemtl c14
f 66 72 67
usemtl c15
f 67 72 73
usemtl c16
f 71 74 72
usemtl c17
f 74 71 75
usemtl c18
f 74 75 76
usemtl c19
f 76 75 70
usemtl c20
f 70 75 71
usemtl c21
f 77 78 79
usemtl c22
f 77 79 80
usemtl c23
f 77 80 81
usemtl c24
f 77 81 78
usemtl c25
f 78 81 82
usemtl c6
f 78 82 83
usemtl c26
f 78 83 84
usemtl c27
f 78 84 79
usemtl c28
f 79 84 85
usemtl c29
f 79 85 86
usemtl c30
f 79 86 80
usemtl c23
f 80 86 87
usemtl c19
f 80 87 81
usemtl c31
f 81 87 82
usemtl c32
f 82 87 86
usemtl c33
f 82 86 88
usemtl c15
f 82 88 83
f 83 88 89
usemtl c34
f 83 89 90
usemtl c35
f 83 90 91
usemtl c36
f 83 91 84
usemtl c37
f 84 91 92
f 84 92 93
usemtl c27
f 84 93 85
usemtl c38
f 85 93 94
usemtl c39
f 85 94 95
usemtl c40
f 85 95 88
usemtl c41
f 85 88 86
usemtl c42
f 96 89 88
f 96 88 95
usemtl c43
f 97 98 99
usemtl c44
f 97 99 100
f 97 100 101
usemtl c7
f 97 101 102
usemtl c45
f 97 102 103
usemtl c46
f 97 103 98
usemtl c47
f 98 103 104
usemtl c48
f 102 105 103
usemtl c49
f 105 102 106
f 105 106 107
usemtl c6
f 107 106 101
usemtl c50
f 101 106 102
usemtl c3
f 108 109 110
usemtl c51
f 108 110 111
usemtl c52
f 108 111 112
usemtl c53
f 108 112 113
usemtl c26
f 108 113 114
usemtl c23
f 108 114 109
usemtl c54
f 109 114 115
usemtl c55
f 113 116 114
usemtl c56
f 116 113 117
f 116 117 118
usemtl c52
f 118 117 112
f 112 117 113
