# Made by RuneLite Model-Dumper Plugin
mtllib counter.mtl
o Object Shop counter 2026-09-12_20-29-21
v 72 0 64
v 72 115 64
v 56 115 64
v 56 0 64
v 56 41 48
v 56 0 48
v 56 0 -30
v 56 41 -30
v 176 41 48
v 176 41 -30
v 176 0 -30
v 176 0 48
v 176 0 64
v 176 115 64
v 176 48 48
v 72 41 48
v 72 48 48
v 72 0 48
v 72 41 -30
v 72 0 -30
v 176 96 48
v 176 96 -30
v 176 48 -30
v 72 96 48
v 72 96 -30
v 72 48 -30
v -176 115 64
v -176 115 -62
v -190 115 -62
v -190 115 64
v -176 0 64
v -176 48 48
v -176 96 48
v -72 115 64
v -72 115 -62
v -176 115 -64
v -176 0 -64
v -176 0 -62
v -190 0 -62
v -192 115 -62
v -192 115 64
v -192 0 64
v -190 0 64
v -32 99 -64
v -52 111 -64
v 52 111 -64
v 32 99 -64
v 29 94 -59
v -29 94 -59
v -40 91 -64
v -40 23 -64
v -52 4 -64
v -56 115 -64
v 56 115 -64
v 56 0 -64
v 52 4 -64
v 40 91 -64
v 36 87 -59
v 36 27 -59
v 29 21 -59
v -29 21 -59
v -36 87 -59
v -36 27 -59
v -32 16 -64
v 32 16 -64
v -56 0 -64
v -56 115 -62
v 56 115 -62
v 56 0 -62
v 40 23 -64
v -56 0 -62
v -72 0 -62
v -56 115 64
v 72 115 -62
v 72 0 -62
v 72 0 -64
v 72 115 -64
v 76 4 -64
v 172 4 -64
v 176 0 -64
v 172 111 -64
v 176 115 -64
v 176 0 -62
v 176 115 -62
v 190 115 -62
v 190 0 -62
v 192 0 -62
v 192 115 -62
v 192 4 -58
v 192 4 60
v 192 0 64
v 192 111 60
v 192 115 64
v 190 0 64
v 190 115 64
v 96 99 -64
v 76 111 -64
v 152 99 -64
v 149 94 -59
v 99 94 -59
v 88 91 -64
v 88 23 -64
v 160 91 -64
v 160 23 -64
v 156 27 -59
v 156 87 -59
v 152 16 -64
v 96 16 -64
v 99 21 -59
v 149 21 -59
v 92 27 -59
v 92 87 -59
v 192 111 -58
v 192 23 -46
v 192 16 -38
v 192 16 40
v 192 23 48
v 192 91 48
v 192 99 40
v 192 99 -38
v -56 0 64
v -56 48 48
v -56 96 48
v 56 96 48
v 56 48 48
v -56 41 48
v -56 0 48
v -56 41 -30
v -56 0 -30
v -72 0 64
v -72 41 48
v -72 0 48
v -72 0 -30
v -72 41 -30
v -176 41 48
v -72 48 48
v -176 0 48
v -176 41 -30
v -176 0 -30
v -72 48 -30
v -176 48 -30
v -176 96 -30
v -72 96 48
v 56 48 -30
v -56 48 -30
v -56 96 -30
v -72 96 -30
v 56 96 -30
v -152 99 -64
v -172 111 -64
v -76 111 -64
v -96 99 -64
v -99 94 -59
v -149 94 -59
v -160 91 -64
v -160 23 -64
v -172 4 -64
v -72 115 -64
v -72 0 -64
v -76 4 -64
v -88 91 -64
v -92 87 -59
v -92 27 -59
v -99 21 -59
v -149 21 -59
v -156 87 -59
v -156 27 -59
v -152 16 -64
v -96 16 -64
v -88 23 -64
v 192 91 -46
v 187 87 -42
v 187 27 -42
v 187 21 -35
v 187 21 37
v 187 27 44
v 187 87 44
v 187 94 37
v 187 94 -35
v -192 99 40
v -192 111 60
v -192 111 -58
v -192 99 -38
v -187 94 -35
v -187 94 37
v -192 91 48
v -192 23 48
v -192 4 60
v -192 0 -62
v -192 4 -58
v -192 91 -46
v -187 87 -42
v -187 27 -42
v -187 21 -35
v -187 21 37
v -187 87 44
v -187 27 44
v -192 16 40
v -192 16 -38
v -192 23 -46
v 85 80 4
v 85 80 41
v 88 82 43
v 96 88 4
v 92 85 43
v 96 88 41
v 119 56 41
v 119 56 4
v 108 48 41
v 112 51 43
v 116 54 43
v 77 119 46
v 57 125 48
v 49 119 49
v 49 117 49
v 77 117 46
v 84 119 45
v 86 123 45
v 82 123 -3
v 72 119 -2
v 52 125 0
v 44 119 1
v 41 125 49
v 21 119 51
v 21 117 51
v 72 117 -2
v 44 117 1
v 16 119 4
v 36 125 2
v 11 123 52
v 13 119 52
v 13 117 52
v 80 119 -3
v 80 117 -3
v 84 117 45
v 8 119 4
v 6 123 5
v 16 117 4
v 8 117 4
v 89 115 47
v 84 115 -5
v 84 117 -5
v 89 117 47
v 9 115 54
v 9 117 54
v 4 115 3
v 4 117 3
v -155 148 44
v -155 115 44
v -148 115 39
v -148 148 39
v -153 153 37
v -155 153 39
v -162 148 39
v -162 115 39
v -162 148 31
v -162 115 31
v -155 148 26
v -155 115 26
v -148 148 31
v -148 115 31
v -153 153 35
v -153 158 35
v -153 158 37
v -155 158 39
v -157 153 37
v -157 153 35
v -155 153 33
v -155 158 33
v -155 158 36
v -157 158 37
v -157 158 35
v -131 142 43
v -131 115 43
v -125 115 39
v -125 142 39
v -129 146 37
v -131 146 39
v -137 142 39
v -137 115 39
v -137 142 32
v -137 115 32
v -131 142 28
v -131 115 28
v -125 142 32
v -125 115 32
v -129 146 35
v -129 150 35
v -129 150 37
v -131 150 39
v -133 146 37
v -133 146 35
v -131 146 33
v -131 150 33
v -131 150 36
v -133 150 37
v -133 150 35
v -138 140 25
v -143 140 28
v -143 115 28
v -138 115 25
v -138 140 19
v -142 144 21
v -142 144 23
v -143 144 24
v -148 140 25
v -148 115 25
v -138 115 19
v -143 140 16
v -143 144 20
v -142 148 21
v -142 148 23
v -144 148 23
v -144 144 23
v -148 140 19
v -148 115 19
v -143 115 16
v -144 144 21
v -144 148 21
v -143 148 22
v 95 151 -13
v 95 135 -4
v 146 135 -4
v 146 151 -13
v 95 160 -25
v 91 160 -25
v 91 151 -13
v 91 135 -4
v 95 135 30
v 146 135 30
v 150 135 30
v 150 135 -4
v 150 151 -13
v 146 160 -25
v 146 160 -34
v 95 160 -34
v 91 160 -34
v 91 147 -34
v 91 115 -34
v 91 115 30
v 91 135 30
v 95 115 30
v 146 115 30
v 150 115 30
v 150 115 -34
v 150 147 -34
v 150 160 -25
v 150 160 -34
v 146 147 -43
v 95 147 -43
v 91 147 -43
v 91 115 -43
v 95 115 -43
v 146 115 -43
v 150 147 -43
v 150 115 -43
v 132 138 11
v 132 138 -1
v 132 135 -1
v 132 135 11
v 144 138 11
v 144 138 -1
v 144 135 -1
v 144 135 11
v 132 138 27
v 132 138 15
v 132 135 15
v 132 135 27
v 144 138 27
v 144 138 15
v 144 135 15
v 144 135 27
v 115 138 27
v 115 138 15
v 115 135 15
v 115 135 27
v 127 138 27
v 127 138 15
v 127 135 15
v 127 135 27
v 115 138 11
v 115 138 -1
v 115 135 -1
v 115 135 11
v 127 138 11
v 127 138 -1
v 127 135 -1
v 127 135 11
v 97 138 11
v 97 138 -1
v 97 135 -1
v 97 135 11
v 109 138 11
v 109 138 -1
v 109 135 -1
v 109 135 11
v 97 138 27
v 97 138 15
v 97 135 15
v 97 135 27
v 109 138 27
v 109 138 15
v 109 135 15
v 109 135 27
v -179 115 -5
v -151 115 2
v -151 123 2
v -179 123 -5
v -174 115 -29
v -174 123 -29
v -145 115 -21
v -145 123 -21
v -153 123 -2
v -176 123 -8
v -171 123 -25
v -148 123 -19
v -180 126 -5
v -150 126 3
v -146 138 -17
v -175 138 -25
v -146 134 -19
v -175 134 -25
v 32 165 -22
v 30 166 -22
v 32 148 -9
v 32 148 -35
v -16 117 -10
v -16 117 -35
v -16 115 -35
v -16 115 -10
v 16 117 -10
v 16 117 -35
v 16 115 -35
v 16 115 -10
v -2 168 -18
v 0 168 -26
v 0 117 -26
v -4 117 -18
v 2 168 -18
v 4 117 -18
v -16 168 -18
v -16 168 -26
v 16 168 -26
v 16 168 -18
v -16 173 -22
v -32 165 -22
v 16 173 -22
v 32 138 -15
v 38 138 -19
v 42 148 -17
v 26 138 -19
v 22 148 -17
v 26 138 -25
v 22 148 -27
v 32 138 -29
v 38 138 -25
v 42 148 -27
v 36 139 -24
v 36 139 -20
v 32 139 -17
v 28 139 -20
v 28 139 -24
v 32 139 -27
v 32 139 -22
v -32 138 -15
v -26 138 -19
v -22 148 -17
v -32 148 -9
v -38 138 -19
v -42 148 -17
v -38 138 -25
v -42 148 -27
v -32 138 -29
v -32 148 -35
v -26 138 -25
v -22 148 -27
v -28 139 -24
v -28 139 -20
v -32 139 -17
v -36 139 -20
v -36 139 -24
v -32 139 -27
v -32 139 -22
v -30 166 -22
v -84 118 -33
v -84 118 -53
v -84 115 -53
v -84 115 -33
v -64 118 -33
v -64 118 -53
v -64 115 -53
v -64 115 -33
v -74 118 -34
v -65 118 -38
v -74 128 -34
v -83 118 -38
v -79 131 -43
v -83 118 -48
v -74 128 -52
v -74 118 -52
v -65 118 -48
v -69 131 -43
v -75 134 -42
v -75 134 -44
v -75 131 -44
v -75 131 -42
v -73 134 -42
v -73 134 -44
v -73 131 -44
v -73 131 -42
v 72 87 4
v 72 87 41
v 76 87 43
v 85 87 4
v 81 87 43
v 85 87 41
v 85 48 41
v 85 48 4
v 72 48 41
v 76 48 43
v 81 48 43
usemtl c0
f 1 2 3
usemtl c1
f 1 3 4
usemtl c2
f 4 3 5
usemtl c3
f 4 5 6
usemtl c4
f 6 5 7
f 7 5 8
f 9 10 11
f 9 11 12
usemtl c3
f 9 12 13
usemtl c2
f 9 13 14
usemtl c5
f 9 14 15
usemtl c6
f 9 15 16
usemtl c7
f 16 15 17
usemtl c8
f 16 17 1
usemtl c9
f 16 1 18
usemtl c10
f 16 18 19
usemtl c11
f 19 18 20
usemtl c12
f 21 22 23
usemtl c13
f 21 23 15
usemtl c14
f 21 15 14
usemtl c15
f 21 14 24
usemtl c0
f 24 14 2
usemtl c16
f 24 2 17
usemtl c17
f 24 17 25
usemtl c18
f 25 17 26
usemtl c19
f 25 26 23
usemtl c20
f 25 23 22
usemtl c21
f 27 28 29
usemtl c0
f 27 29 30
f 27 30 31
usemtl c16
f 27 31 32
f 27 32 33
usemtl c0
f 27 33 34
usemtl c22
f 27 34 28
usemtl c23
f 28 34 35
usemtl c24
f 28 35 36
usemtl c25
f 28 36 37
usemtl c26
f 28 37 38
usemtl c27
f 28 38 39
usemtl c28
f 28 39 29
usemtl c29
f 29 39 40
usemtl c22
f 29 40 41
usemtl c30
f 29 41 30
usemtl c31
f 30 41 42
usemtl c32
f 30 42 43
usemtl c1
f 30 43 31
usemtl c33
f 44 45 46
f 44 46 47
usemtl c34
f 44 47 48
usemtl c11
f 44 48 49
f 44 49 50
usemtl c33
f 44 50 45
f 45 50 51
f 45 51 52
usemtl c35
f 45 52 53
f 45 53 54
usemtl c33
f 45 54 46
f 46 54 55
f 46 55 56
usemtl c36
f 46 56 57
f 46 57 47
usemtl c37
f 47 57 58
usemtl c38
f 47 58 48
usemtl c39
f 48 58 59
usemtl c40
f 48 59 60
usemtl c41
f 48 60 49
f 49 60 61
usemtl c42
f 49 61 62
usemtl c11
f 49 62 50
f 50 62 51
f 51 62 63
f 51 63 64
usemtl c33
f 51 64 52
f 52 64 65
f 52 65 56
usemtl c35
f 52 56 66
usemtl c43
f 52 66 53
usemtl c25
f 53 66 67
usemtl c24
f 53 67 68
usemtl c44
f 53 68 54
usemtl c45
f 54 68 69
usemtl c33
f 54 69 55
usemtl c46
f 57 56 70
usemtl c47
f 57 70 59
usemtl c48
f 57 59 58
usemtl c49
f 70 56 65
usemtl c50
f 70 65 60
usemtl c51
f 70 60 59
usemtl c34
f 65 64 61
usemtl c52
f 65 61 60
usemtl c11
f 64 63 61
usemtl c42
f 61 63 62
usemtl c26
f 67 66 71
usemtl c27
f 67 71 72
usemtl c16
f 67 72 35
usemtl c53
f 67 35 73
usemtl c22
f 67 73 3
usemtl c23
f 67 3 68
usemtl c54
f 68 3 2
usemtl c53
f 68 2 74
usemtl c16
f 68 74 69
usemtl c27
f 69 74 75
usemtl c26
f 75 74 76
usemtl c25
f 76 74 77
usemtl c43
f 76 77 78
usemtl c35
f 76 78 79
f 76 79 80
usemtl c33
f 80 79 81
f 80 81 82
f 80 82 83
usemtl c45
f 83 82 84
usemtl c55
f 83 84 85
usemtl c56
f 83 85 86
usemtl c57
f 86 85 87
usemtl c58
f 87 85 88
usemtl c57
f 87 88 89
usemtl c33
f 87 89 90
usemtl c57
f 87 90 91
f 91 90 92
usemtl c43
f 91 92 93
usemtl c23
f 91 93 94
usemtl c59
f 94 93 95
usemtl c60
f 94 95 14
usemtl c2
f 94 14 13
usemtl c35
f 66 56 55
usemtl c33
f 96 97 81
f 96 81 98
usemtl c34
f 96 98 99
usemtl c11
f 96 99 100
f 96 100 101
usemtl c33
f 96 101 97
f 97 101 102
f 97 102 78
usemtl c35
f 97 78 77
f 97 77 82
usemtl c33
f 97 82 81
usemtl c36
f 103 81 79
usemtl c46
f 103 79 104
usemtl c47
f 103 104 105
usemtl c48
f 103 105 106
usemtl c37
f 103 106 98
usemtl c36
f 103 98 81
usemtl c33
f 107 79 78
f 107 78 108
usemtl c34
f 107 108 109
usemtl c52
f 107 109 110
usemtl c50
f 107 110 104
usemtl c49
f 107 104 79
usemtl c33
f 78 102 108
usemtl c11
f 108 102 111
f 108 111 109
usemtl c42
f 109 111 112
f 109 112 100
usemtl c41
f 109 100 110
f 110 100 99
usemtl c40
f 110 99 105
usemtl c51
f 110 105 104
usemtl c11
f 102 101 112
f 102 112 111
f 101 100 112
usemtl c38
f 98 106 99
usemtl c39
f 99 106 105
usemtl c44
f 84 82 77
usemtl c24
f 84 77 74
usemtl c23
f 84 74 14
usemtl c61
f 84 14 95
usemtl c62
f 84 95 85
usemtl c63
f 85 95 88
usemtl c64
f 88 95 93
usemtl c43
f 88 93 113
usemtl c57
f 88 113 89
usemtl c36
f 89 113 114
usemtl c65
f 89 114 115
usemtl c66
f 89 115 116
usemtl c33
f 89 116 90
f 90 116 117
f 90 117 118
f 90 118 92
f 92 118 119
f 92 119 120
f 92 120 113
usemtl c45
f 92 113 93
usemtl c22
f 14 74 2
usemtl c54
f 73 35 34
usemtl c0
f 73 34 121
usemtl c16
f 73 121 122
f 73 122 123
usemtl c0
f 73 123 3
usemtl c15
f 3 123 124
usemtl c14
f 3 124 125
usemtl c5
f 3 125 5
usemtl c6
f 5 125 126
usemtl c7
f 126 125 122
usemtl c8
f 126 122 121
usemtl c9
f 126 121 127
usemtl c10
f 126 127 128
usemtl c11
f 128 127 129
usemtl c1
f 34 130 121
usemtl c2
f 130 34 131
usemtl c3
f 130 131 132
usemtl c4
f 132 131 133
f 133 131 134
usemtl c6
f 135 131 136
usemtl c7
f 135 136 32
usemtl c8
f 135 32 31
usemtl c9
f 135 31 137
usemtl c10
f 135 137 138
usemtl c11
f 138 137 139
usemtl c67
f 32 136 140
usemtl c68
f 32 140 141
usemtl c69
f 32 141 142
usemtl c70
f 32 142 33
usemtl c14
f 34 143 136
usemtl c5
f 34 136 131
usemtl c15
f 33 143 34
usemtl c71
f 17 15 23
usemtl c72
f 17 23 26
usemtl c16
f 1 17 2
usemtl c67
f 122 125 144
usemtl c68
f 122 144 145
usemtl c69
f 122 145 146
usemtl c70
f 122 146 123
usemtl c73
f 143 147 140
usemtl c74
f 143 140 136
usemtl c73
f 124 148 144
usemtl c74
f 124 144 125
usemtl c75
f 141 140 147
usemtl c76
f 141 147 142
usemtl c75
f 145 144 148
usemtl c76
f 145 148 146
usemtl c33
f 149 150 151
f 149 151 152
usemtl c34
f 149 152 153
usemtl c11
f 149 153 154
f 149 154 155
usemtl c33
f 149 155 150
f 150 155 156
f 150 156 157
usemtl c35
f 150 157 36
f 150 36 158
usemtl c33
f 150 158 151
f 151 158 159
f 151 159 160
usemtl c36
f 151 160 161
f 151 161 152
usemtl c37
f 152 161 162
usemtl c38
f 152 162 153
usemtl c39
f 153 162 163
usemtl c40
f 153 163 164
usemtl c41
f 153 164 154
f 154 164 165
usemtl c42
f 154 165 166
usemtl c11
f 154 166 155
f 155 166 156
f 156 166 167
f 156 167 168
usemtl c33
f 156 168 157
f 157 168 169
f 157 169 160
usemtl c35
f 157 160 37
usemtl c43
f 157 37 36
usemtl c46
f 161 160 170
usemtl c47
f 161 170 163
usemtl c48
f 161 163 162
usemtl c49
f 170 160 169
usemtl c50
f 170 169 164
usemtl c51
f 170 164 163
usemtl c34
f 169 168 165
usemtl c52
f 169 165 164
usemtl c11
f 168 167 165
usemtl c42
f 165 167 166
usemtl c33
f 72 159 158
usemtl c45
f 72 158 35
usemtl c44
f 35 158 36
usemtl c35
f 37 160 159
usemtl c49
f 114 113 171
usemtl c77
f 114 171 172
usemtl c78
f 114 172 173
usemtl c51
f 114 173 115
usemtl c79
f 115 173 174
usemtl c52
f 115 174 116
usemtl c34
f 116 174 175
usemtl c11
f 116 175 117
f 117 175 176
f 117 176 118
f 118 176 177
f 118 177 119
f 119 177 178
f 119 178 120
usemtl c34
f 120 178 179
usemtl c80
f 120 179 171
usemtl c36
f 120 171 113
usemtl c81
f 171 179 172
usemtl c82
f 172 179 174
usemtl c83
f 172 174 173
usemtl c42
f 178 177 176
f 178 176 175
usemtl c84
f 178 175 179
usemtl c85
f 179 175 174
usemtl c86
f 180 181 182
f 180 182 183
usemtl c13
f 180 183 184
usemtl c87
f 180 184 185
usemtl c88
f 180 185 186
usemtl c89
f 180 186 181
usemtl c90
f 181 186 187
usemtl c91
f 181 187 188
usemtl c32
f 181 188 41
usemtl c92
f 181 41 40
usemtl c93
f 181 40 182
usemtl c6
f 182 40 189
usemtl c94
f 182 189 190
usemtl c95
f 182 190 191
f 182 191 183
usemtl c96
f 183 191 192
usemtl c97
f 183 192 184
usemtl c98
f 184 192 193
usemtl c99
f 184 193 194
usemtl c5
f 184 194 185
f 185 194 195
usemtl c100
f 185 195 196
usemtl c101
f 185 196 186
usemtl c102
f 186 196 187
f 187 196 197
usemtl c103
f 187 197 198
usemtl c104
f 187 198 188
usemtl c86
f 188 198 199
usemtl c105
f 188 199 190
usemtl c106
f 188 190 42
usemtl c32
f 188 42 41
usemtl c107
f 191 190 200
usemtl c108
f 191 200 193
f 191 193 192
usemtl c95
f 200 190 199
usemtl c109
f 200 199 194
usemtl c108
f 200 194 193
usemtl c110
f 199 198 195
usemtl c111
f 199 195 194
usemtl c112
f 198 197 195
usemtl c1
f 195 197 196
usemtl c113
f 39 189 40
usemtl c94
f 42 190 189
usemtl c114
f 201 202 203
usemtl c115
f 201 203 204
usemtl c116
f 204 203 205
usemtl c117
f 204 205 206
usemtl c118
f 204 206 207
usemtl c119
f 204 207 208
usemtl c120
f 203 202 209
usemtl c121
f 203 209 210
usemtl c122
f 203 210 205
usemtl c123
f 205 210 211
usemtl c124
f 205 211 206
usemtl c125
f 206 211 207
usemtl c126
f 212 213 214
usemtl c127
f 212 214 215
usemtl c128
f 212 215 216
usemtl c129
f 212 216 217
usemtl c130
f 212 217 218
usemtl c131
f 212 218 219
usemtl c132
f 212 219 220
usemtl c133
f 212 220 213
usemtl c134
f 213 220 221
usemtl c135
f 213 221 214
usemtl c136
f 214 221 222
usemtl c137
f 214 222 223
usemtl c138
f 214 223 224
usemtl c139
f 214 224 225
usemtl c140
f 214 225 215
usemtl c141
f 222 221 220
usemtl c142
f 222 220 226
usemtl c143
f 222 226 227
usemtl c144
f 222 227 228
usemtl c145
f 222 228 229
usemtl c146
f 222 229 223
usemtl c147
f 223 229 224
usemtl c148
f 224 229 228
usemtl c149
f 224 228 230
usemtl c150
f 224 230 231
usemtl c151
f 224 231 232
usemtl c152
f 224 232 225
usemtl c153
f 220 219 233
usemtl c154
f 220 233 234
usemtl c155
f 220 234 226
usemtl c156
f 233 219 218
usemtl c157
f 233 218 217
usemtl c158
f 233 217 235
usemtl c159
f 233 235 234
usemtl c160
f 236 237 228
usemtl c161
f 236 228 238
usemtl c162
f 236 238 239
usemtl c163
f 236 239 231
usemtl c164
f 236 231 237
usemtl c165
f 237 231 230
usemtl c166
f 237 230 228
usemtl c167
f 227 238 228
usemtl c168
f 239 232 231
usemtl c169
f 216 235 217
usemtl c170
f 240 241 242
usemtl c171
f 240 242 243
usemtl c172
f 240 243 244
usemtl c173
f 244 243 245
usemtl c174
f 244 245 246
usemtl c172
f 246 245 247
usemtl c175
f 246 247 241
usemtl c176
f 241 247 242
usemtl c177
f 242 247 243
usemtl c178
f 243 247 245
usemtl c179
f 248 249 250
usemtl c180
f 248 250 251
f 248 251 252
usemtl c181
f 248 252 253
usemtl c182
f 248 253 254
usemtl c183
f 248 254 249
usemtl c184
f 249 254 255
usemtl c185
f 255 254 256
usemtl c186
f 255 256 257
usemtl c187
f 257 256 258
usemtl c188
f 257 258 259
usemtl c189
f 259 258 260
usemtl c190
f 259 260 261
usemtl c189
f 261 260 251
usemtl c191
f 261 251 250
usemtl c189
f 251 260 262
usemtl c192
f 251 262 252
usemtl c193
f 252 262 263
usemtl c194
f 252 263 264
usemtl c195
f 252 264 253
usemtl c196
f 253 264 265
usemtl c197
f 253 265 266
usemtl c198
f 253 266 254
usemtl c185
f 254 266 256
usemtl c199
f 256 266 267
usemtl c200
f 256 267 258
usemtl c201
f 258 267 268
usemtl c202
f 258 268 260
usemtl c189
f 260 268 262
usemtl c203
f 262 268 269
usemtl c204
f 262 269 263
usemtl c188
f 263 269 270
usemtl c205
f 263 270 264
usemtl c206
f 264 270 265
usemtl c207
f 265 270 271
usemtl c208
f 265 271 266
usemtl c197
f 266 271 267
usemtl c209
f 267 271 272
usemtl c210
f 267 272 268
usemtl c211
f 268 272 269
usemtl c212
f 269 272 270
usemtl c196
f 270 272 271
usemtl c213
f 273 274 275
usemtl c214
f 273 275 276
usemtl c215
f 273 276 277
usemtl c216
f 273 277 278
usemtl c217
f 273 278 279
usemtl c218
f 273 279 274
usemtl c219
f 274 279 280
usemtl c220
f 280 279 281
usemtl c221
f 280 281 282
usemtl c222
f 282 281 283
usemtl c196
f 282 283 284
usemtl c223
f 284 283 285
usemtl c190
f 284 285 286
usemtl c223
f 286 285 276
usemtl c210
f 286 276 275
usemtl c223
f 276 285 287
usemtl c224
f 276 287 277
usemtl c225
f 277 287 288
usemtl c226
f 277 288 289
usemtl c227
f 277 289 278
usemtl c228
f 278 289 290
usemtl c229
f 278 290 291
usemtl c230
f 278 291 279
usemtl c220
f 279 291 281
usemtl c231
f 281 291 292
usemtl c232
f 281 292 283
usemtl c233
f 283 292 293
usemtl c234
f 283 293 285
usemtl c235
f 285 293 287
usemtl c211
f 287 293 294
usemtl c188
f 287 294 288
usemtl c207
f 288 294 295
usemtl c236
f 288 295 289
usemtl c237
f 289 295 290
usemtl c238
f 290 295 296
usemtl c239
f 290 296 291
usemtl c240
f 291 296 292
usemtl c241
f 292 296 297
usemtl c222
f 292 297 293
usemtl c242
f 293 297 294
usemtl c243
f 294 297 295
usemtl c244
f 295 297 296
usemtl c245
f 298 299 300
usemtl c246
f 298 300 301
usemtl c247
f 298 301 302
usemtl c248
f 298 302 303
usemtl c249
f 298 303 304
usemtl c250
f 298 304 299
usemtl c251
f 299 304 305
usemtl c252
f 299 305 306
usemtl c253
f 299 306 307
usemtl c254
f 299 307 300
usemtl c255
f 302 301 308
usemtl c256
f 302 308 309
usemtl c257
f 302 309 310
usemtl c256
f 302 310 303
usemtl c257
f 303 310 311
usemtl c258
f 303 311 304
usemtl c259
f 304 311 312
usemtl c260
f 304 312 305
usemtl c261
f 305 312 313
usemtl c252
f 305 313 314
usemtl c262
f 305 314 306
usemtl c263
f 306 314 315
usemtl c264
f 306 315 316
usemtl c265
f 306 316 307
usemtl c257
f 309 308 317
usemtl c266
f 309 317 315
usemtl c267
f 309 315 318
usemtl c268
f 309 318 310
usemtl c269
f 310 318 319
usemtl c270
f 310 319 311
usemtl c271
f 311 319 320
f 311 320 312
usemtl c272
f 312 320 313
f 313 320 319
usemtl c273
f 313 319 318
usemtl c274
f 313 318 314
usemtl c275
f 314 318 315
usemtl c276
f 315 317 316
usemtl c145
f 321 322 323
usemtl c277
f 321 323 324
usemtl c278
f 321 324 325
usemtl c279
f 321 325 326
usemtl c280
f 321 326 327
usemtl c281
f 321 327 322
usemtl c282
f 322 327 328
usemtl c283
f 322 328 329
usemtl c284
f 322 329 330
usemtl c285
f 322 330 323
usemtl c15
f 323 330 331
usemtl c54
f 323 331 332
usemtl c286
f 323 332 324
usemtl c287
f 324 332 333
usemtl c288
f 324 333 334
usemtl c289
f 324 334 325
usemtl c290
f 325 334 335
usemtl c291
f 325 335 336
usemtl c292
f 325 336 337
usemtl c293
f 325 337 326
usemtl c294
f 326 337 338
usemtl c295
f 326 338 327
usemtl c296
f 327 338 328
usemtl c297
f 328 338 339
f 328 339 340
usemtl c298
f 328 340 341
usemtl c299
f 328 341 329
usemtl c14
f 329 341 342
usemtl c300
f 329 342 330
usemtl c301
f 330 342 343
usemtl c279
f 330 343 331
usemtl c76
f 331 343 344
usemtl c302
f 331 344 332
usemtl c303
f 332 344 345
usemtl c304
f 332 345 346
usemtl c305
f 332 346 347
usemtl c306
f 332 347 333
usemtl c307
f 333 347 334
usemtl c308
f 334 347 335
usemtl c309
f 335 347 348
usemtl c39
f 335 348 349
usemtl c310
f 335 349 350
usemtl c21
f 335 350 336
usemtl c311
f 336 350 351
usemtl c312
f 336 351 337
usemtl c313
f 337 351 338
usemtl c314
f 338 351 339
usemtl c315
f 339 351 352
usemtl c311
f 352 351 350
usemtl c316
f 352 350 353
usemtl c317
f 353 350 349
usemtl c318
f 353 349 354
usemtl c42
f 354 349 355
f 354 355 356
usemtl c11
f 356 355 346
f 356 346 345
usemtl c319
f 347 346 355
usemtl c320
f 347 355 348
usemtl c321
f 348 355 349
usemtl c322
f 341 340 342
usemtl c323
f 357 358 359
usemtl c300
f 357 359 360
usemtl c324
f 357 360 361
usemtl c325
f 357 361 358
usemtl c326
f 358 361 362
usemtl c327
f 358 362 363
usemtl c328
f 358 363 359
usemtl c329
f 362 361 364
usemtl c330
f 362 364 363
usemtl c331
f 361 360 364
usemtl c323
f 365 366 367
usemtl c300
f 365 367 368
usemtl c324
f 365 368 369
usemtl c325
f 365 369 366
usemtl c326
f 366 369 370
usemtl c327
f 366 370 371
usemtl c328
f 366 371 367
usemtl c329
f 370 369 372
usemtl c330
f 370 372 371
usemtl c331
f 369 368 372
usemtl c323
f 373 374 375
usemtl c300
f 373 375 376
usemtl c324
f 373 376 377
usemtl c325
f 373 377 374
usemtl c326
f 374 377 378
usemtl c327
f 374 378 379
usemtl c328
f 374 379 375
usemtl c329
f 378 377 380
usemtl c330
f 378 380 379
usemtl c331
f 377 376 380
usemtl c323
f 381 382 383
usemtl c300
f 381 383 384
usemtl c324
f 381 384 385
usemtl c325
f 381 385 382
usemtl c326
f 382 385 386
usemtl c327
f 382 386 387
usemtl c328
f 382 387 383
usemtl c329
f 386 385 388
usemtl c330
f 386 388 387
usemtl c331
f 385 384 388
usemtl c323
f 389 390 391
usemtl c300
f 389 391 392
usemtl c324
f 389 392 393
usemtl c325
f 389 393 390
usemtl c326
f 390 393 394
usemtl c327
f 390 394 395
usemtl c328
f 390 395 391
usemtl c329
f 394 393 396
usemtl c330
f 394 396 395
usemtl c331
f 393 392 396
usemtl c323
f 397 398 399
usemtl c300
f 397 399 400
usemtl c324
f 397 400 401
usemtl c325
f 397 401 398
usemtl c326
f 398 401 402
usemtl c327
f 398 402 403
usemtl c328
f 398 403 399
usemtl c329
f 402 401 404
usemtl c330
f 402 404 403
usemtl c331
f 401 400 404
usemtl c332
f 405 406 407
usemtl c333
f 405 407 408
usemtl c334
f 405 408 409
usemtl c335
f 409 408 410
usemtl c336
f 409 410 411
usemtl c337
f 411 410 412
usemtl c338
f 411 412 406
usemtl c339
f 406 412 407
usemtl c340
f 407 412 413
usemtl c341
f 407 413 408
usemtl c342
f 408 413 414
f 408 414 415
usemtl c343
f 408 415 410
usemtl c344
f 410 415 412
usemtl c345
f 412 415 416
f 412 416 413
usemtl c346
f 413 416 414
f 414 416 415
usemtl c347
f 417 418 419
usemtl c348
f 417 419 420
usemtl c349
f 417 420 408
usemtl c350
f 417 408 418
usemtl c351
f 418 408 407
usemtl c352
f 418 407 421
usemtl c353
f 418 421 419
usemtl c354
f 419 421 420
usemtl c355
f 420 421 422
usemtl c356
f 420 422 408
usemtl c357
f 423 424 425
usemtl c358
f 424 423 426
usemtl c359
f 427 428 429
usemtl c360
f 427 429 430
usemtl c361
f 427 430 431
usemtl c362
f 427 431 428
usemtl c363
f 428 431 432
usemtl c364
f 428 432 433
usemtl c365
f 428 433 429
usemtl c366
f 432 431 434
usemtl c367
f 432 434 433
usemtl c368
f 431 430 434
usemtl c369
f 435 436 437
usemtl c370
f 435 437 438
usemtl c371
f 435 438 439
usemtl c372
f 435 439 436
usemtl c366
f 436 439 440
usemtl c373
f 436 440 437
usemtl c374
f 439 438 440
usemtl c375
f 441 442 443
usemtl c376
f 441 443 444
usemtl c377
f 441 444 445
usemtl c378
f 441 445 446
usemtl c379
f 441 446 442
usemtl c369
f 442 446 445
usemtl c380
f 442 445 447
usemtl c381
f 442 447 443
usemtl c382
f 443 447 423
usemtl c383
f 443 423 444
usemtl c379
f 444 423 447
usemtl c384
f 444 447 445
usemtl c385
f 448 449 450
usemtl c386
f 448 450 425
usemtl c387
f 448 425 451
usemtl c388
f 451 425 452
usemtl c371
f 451 452 453
usemtl c389
f 453 452 454
usemtl c390
f 453 454 455
usemtl c391
f 455 454 426
usemtl c392
f 455 426 456
usemtl c393
f 456 426 457
usemtl c394
f 456 457 449
usemtl c395
f 449 457 450
usemtl c386
f 450 457 458
usemtl c396
f 450 458 459
usemtl c384
f 450 459 425
usemtl c397
f 425 459 460
usemtl c398
f 425 460 452
usemtl c399
f 452 460 461
usemtl c358
f 452 461 454
usemtl c400
f 454 461 462
usemtl c401
f 454 462 426
usemtl c402
f 426 462 463
usemtl c403
f 426 463 457
usemtl c404
f 457 463 458
usemtl c405
f 458 463 464
usemtl c406
f 458 464 459
usemtl c379
f 459 464 460
usemtl c407
f 460 464 461
usemtl c408
f 461 464 462
usemtl c409
f 462 464 463
usemtl c385
f 465 466 467
usemtl c410
f 465 467 468
usemtl c411
f 465 468 469
usemtl c412
f 469 468 470
usemtl c371
f 469 470 471
usemtl c389
f 471 470 472
usemtl c390
f 471 472 473
usemtl c413
f 473 472 474
usemtl c414
f 473 474 475
usemtl c415
f 475 474 476
usemtl c394
f 475 476 466
usemtl c395
f 466 476 467
usemtl c386
f 467 476 477
usemtl c396
f 467 477 478
usemtl c416
f 467 478 468
usemtl c369
f 468 478 479
usemtl c383
f 468 479 470
usemtl c399
f 470 479 480
usemtl c358
f 470 480 472
usemtl c400
f 472 480 481
usemtl c363
f 472 481 474
usemtl c417
f 474 481 482
usemtl c418
f 474 482 476
usemtl c404
f 476 482 477
usemtl c405
f 477 482 483
usemtl c406
f 477 483 478
usemtl c379
f 478 483 479
usemtl c407
f 479 483 480
usemtl c408
f 480 483 481
usemtl c409
f 481 483 482
usemtl c419
f 446 484 474
usemtl c420
f 484 446 468
usemtl c421
f 485 486 487
usemtl c93
f 485 487 488
usemtl c422
f 485 488 489
usemtl c423
f 485 489 486
usemtl c424
f 486 489 490
usemtl c45
f 486 490 491
usemtl c425
f 486 491 487
usemtl c426
f 490 489 492
usemtl c58
f 490 492 491
usemtl c427
f 489 488 492
usemtl c428
f 493 494 495
usemtl c429
f 493 495 496
usemtl c430
f 496 495 497
usemtl c361
f 496 497 498
usemtl c418
f 498 497 499
usemtl c431
f 498 499 500
usemtl c432
f 500 499 501
usemtl c433
f 501 499 502
usemtl c434
f 501 502 494
usemtl c435
f 494 502 495
usemtl c436
f 495 502 497
usemtl c437
f 497 502 499
usemtl c359
f 503 504 505
usemtl c360
f 503 505 506
usemtl c361
f 503 506 507
usemtl c362
f 503 507 504
usemtl c363
f 504 507 508
usemtl c364
f 504 508 509
usemtl c365
f 504 509 505
usemtl c366
f 508 507 510
usemtl c367
f 508 510 509
usemtl c368
f 507 506 510
usemtl c438
f 511 512 513
usemtl c439
f 511 513 514
usemtl c440
f 514 513 515
usemtl c441
f 514 515 516
usemtl c442
f 514 516 517
usemtl c443
f 514 517 518
usemtl c444
f 513 512 519
usemtl c445
f 513 519 520
usemtl c446
f 513 520 515
usemtl c447
f 515 520 521
usemtl c448
f 515 521 516
usemtl c449
f 516 521 517
