# Made by RuneLite Model-Dumper Plugin
mtllib adamant-boots.mtl
o Item Adamant boots 2026-09-24_18-24-11
v 5 0 3
v -7 0 3
v -1 0 -5
v 4 0 -6
v 14 0 -6
v 14 0 17
v 4 0 17
v 5 13 5
v 3 7 -9
v 15 7 -9
v 14 13 5
v 15 7 20
v 3 7 20
v 3 16 6
v 5 12 -6
v 14 12 -6
v 13 16 6
v 1 18 7
v 1 16 -6
v -16 0 -6
v -6 0 -6
v -6 0 17
v -16 0 17
v -16 13 5
v -17 7 -9
v -5 7 -9
v -7 13 5
v -5 7 20
v -17 7 20
v -5 16 6
v -15 16 6
v -16 12 -6
v -7 12 -6
v -3 16 -6
v -3 18 7
v -17 18 7
v -17 16 -6
v 15 16 -6
v 15 18 7
v 0 20 8
v 0 20 -7
v 16 20 -7
v 5 24 5
v 0 23 8
v 16 23 8
v 11 24 5
v 5 25 -5
v 0 23 -8
v 16 20 8
v 16 23 -8
v 11 25 -5
v -13 24 5
v -18 23 8
v -2 23 8
v -7 24 5
v -13 25 -5
v -18 23 -8
v -18 20 8
v -2 20 8
v -2 20 -7
v -2 23 -8
v -7 25 -5
v -18 20 -7
usemtl c0
f 1 2 3
usemtl c1
f 4 5 6
usemtl c2
f 4 6 7
usemtl c3
f 4 7 8
usemtl c4
f 4 8 9
usemtl c5
f 4 9 5
usemtl c6
f 5 9 10
usemtl c7
f 5 10 11
usemtl c8
f 5 11 6
usemtl c9
f 6 11 12
usemtl c10
f 6 12 13
usemtl c11
f 6 13 7
usemtl c12
f 7 13 8
usemtl c13
f 8 13 12
usemtl c14
f 8 12 11
usemtl c15
f 8 11 14
usemtl c16
f 8 14 9
usemtl c17
f 9 14 15
usemtl c18
f 9 15 10
usemtl c19
f 10 15 16
usemtl c20
f 10 16 17
usemtl c21
f 10 17 11
usemtl c22
f 11 17 14
usemtl c23
f 14 17 18
f 14 18 19
usemtl c24
f 14 19 15
usemtl c25
f 14 15 15
usemtl c26
f 14 15 14
usemtl c27
f 20 21 22
usemtl c28
f 20 22 23
usemtl c16
f 20 23 24
usemtl c29
f 20 24 25
usemtl c1
f 20 25 26
usemtl c30
f 20 26 21
usemtl c7
f 21 26 27
usemtl c20
f 21 27 22
usemtl c31
f 22 27 28
usemtl c32
f 22 28 23
usemtl c33
f 23 28 29
usemtl c34
f 23 29 24
usemtl c35
f 24 29 27
usemtl c36
f 24 27 30
usemtl c37
f 24 30 31
usemtl c16
f 24 31 25
usemtl c38
f 25 31 32
usemtl c5
f 25 32 33
usemtl c39
f 25 33 26
usemtl c40
f 26 33 30
usemtl c21
f 26 30 27
usemtl c14
f 27 29 28
usemtl c39
f 30 33 33
usemtl c41
f 30 33 30
usemtl c42
f 30 33 34
usemtl c43
f 30 34 35
usemtl c14
f 30 35 31
usemtl c44
f 31 35 36
usemtl c45
f 31 36 37
usemtl c46
f 31 37 32
usemtl c38
f 31 32 32
usemtl c47
f 31 32 31
usemtl c27
f 17 16 16
usemtl c48
f 17 16 17
usemtl c49
f 17 16 38
usemtl c50
f 17 38 39
usemtl c51
f 17 39 18
usemtl c52
f 18 39 40
usemtl c53
f 18 40 41
usemtl c54
f 18 41 19
usemtl c55
f 19 41 42
usemtl c56
f 19 42 38
usemtl c57
f 19 38 15
usemtl c58
f 15 38 16
usemtl c59
f 43 44 45
usemtl c60
f 43 45 46
usemtl c29
f 43 46 47
usemtl c54
f 43 47 48
usemtl c61
f 43 48 44
usemtl c62
f 44 48 40
usemtl c63
f 44 40 49
usemtl c64
f 44 49 45
usemtl c65
f 45 49 42
usemtl c66
f 45 42 50
usemtl c65
f 45 50 51
usemtl c67
f 45 51 46
usemtl c22
f 46 51 47
usemtl c68
f 47 51 48
usemtl c69
f 48 51 50
f 48 50 41
usemtl c70
f 48 41 40
usemtl c56
f 50 42 41
usemtl c70
f 40 39 49
usemtl c69
f 49 39 38
usemtl c56
f 49 38 42
usemtl c59
f 52 53 54
usemtl c60
f 52 54 55
usemtl c29
f 52 55 56
usemtl c54
f 52 56 57
usemtl c61
f 52 57 53
usemtl c62
f 53 57 58
usemtl c63
f 53 58 59
usemtl c64
f 53 59 54
usemtl c65
f 54 59 60
usemtl c66
f 54 60 61
usemtl c65
f 54 61 62
usemtl c67
f 54 62 55
usemtl c22
f 55 62 56
usemtl c68
f 56 62 57
usemtl c69
f 57 62 61
f 57 61 63
usemtl c70
f 57 63 58
usemtl c53
f 58 63 36
usemtl c71
f 58 36 35
usemtl c72
f 58 35 59
usemtl c73
f 59 35 34
usemtl c56
f 59 34 60
usemtl c74
f 60 34 37
usemtl c75
f 60 37 63
usemtl c56
f 60 63 61
usemtl c64
f 63 37 36
usemtl c58
f 33 37 34
usemtl c76
f 37 33 32
