# Made by RuneLite Model-Dumper Plugin
mtllib magic-shortbow.mtl
o Item Magic shortbow 2026-09-24_13-46-48
v 10 3 -8
v 2 1 2
v -1 1 1
v 4 4 -9
v 3 14 -27
v 6 13 -25
v 10 10 -5
v 2 3 3
v -2 0 15
v -2 -5 12
v -7 -5 11
v -7 1 14
v -1 4 2
v 4 10 -6
v 3 17 -26
v 14 18 -31
v 6 16 -24
v -31 -7 30
v -26 -7 30
v -26 -10 29
v -31 -10 29
v -26 -11 36
v 4 16 -27
v -32 -8 29
v -26 -8 29
v 4 13 -21
usemtl c0
f 1 2 3
usemtl c1
f 1 3 4
usemtl c2
f 1 4 5
usemtl c3
f 1 5 6
usemtl c4
f 1 6 7
usemtl c5
f 1 7 2
usemtl c6
f 2 7 8
usemtl c7
f 2 8 9
usemtl c8
f 2 9 10
usemtl c9
f 2 10 3
usemtl c10
f 3 10 11
usemtl c11
f 3 11 12
usemtl c12
f 3 12 13
usemtl c13
f 3 13 14
usemtl c14
f 3 14 4
usemtl c15
f 4 14 15
usemtl c16
f 4 15 5
usemtl c17
f 5 15 6
usemtl c9
f 5 6 16
usemtl c18
f 5 16 15
usemtl c19
f 15 16 17
usemtl c20
f 15 17 6
usemtl c21
f 6 17 7
usemtl c22
f 7 17 14
usemtl c2
f 7 14 8
usemtl c23
f 8 14 13
usemtl c24
f 8 13 12
usemtl c18
f 8 12 9
usemtl c25
f 9 12 18
usemtl c26
f 9 18 19
usemtl c27
f 9 19 10
usemtl c18
f 10 19 20
usemtl c28
f 10 20 11
usemtl c29
f 11 20 21
usemtl c30
f 11 21 12
usemtl c31
f 12 21 18
usemtl c32
f 18 21 19
usemtl c25
f 19 21 20
usemtl c33
f 14 17 15
usemtl c34
f 6 17 16
usemtl c35
f 19 18 22
usemtl c36
f 19 22 20
usemtl c37
f 20 22 21
usemtl c38
f 21 22 18
usemtl c39
f 23 24 25
f 23 25 26
f 23 26 25
f 23 25 24
