# Made by RuneLite Model-Dumper Plugin
mtllib iron-ore.mtl
o Item Coal 2026-09-12_21-09-08
v 15 -1 -6
v -9 0 -6
v -6 19 -6
v 9 13 -9
v 9 1 8
v -17 2 12
v -8 16 6
v -2 16 10
v 1 20 1
v -2 3 19
v 13 0 1
v 22 2 17
v 24 21 11
v 16 14 1
v 25 -1 -2
v 36 0 1
v 37 1 14
v 31 15 8
v 31 14 1
v 26 19 0
v 31 2 23
v 7 3 21
v 11 23 22
v 26 17 21
v 29 4 36
v 18 5 41
v 3 5 34
v 11 19 28
v 18 19 32
v 20 24 29
v -33 -4 -35
v -18 -1 -11
v -10 17 -20
v -28 10 -34
v -7 -6 -41
v 13 -3 -17
v 3 11 -25
v 3 9 -33
v -6 15 -34
v 13 -5 -35
v -25 3 19
v -17 5 32
v -15 17 28
v -23 14 22
v -15 3 17
v -6 4 30
v -13 14 25
v -13 14 22
v -15 16 21
v -6 3 19
v -19 1 3
v -29 -1 -13
v -30 19 -13
v -21 15 -1
v -32 2 6
v -44 0 -9
v -36 14 -9
v -36 16 -1
v -32 20 -2
v -43 1 3
v 21 -3 -17
v 28 -1 -6
v 31 17 -10
v 22 11 -16
v 30 -3 -18
v 38 -2 -7
v 33 12 -12
v 33 11 -16
v 31 16 -16
v 38 -3 -17
usemtl c0
f 1 2 3
usemtl c1
f 1 3 4
usemtl c2
f 1 4 5
usemtl c3
f 1 5 2
usemtl c4
f 2 5 6
usemtl c5
f 2 6 7
usemtl c6
f 2 7 3
usemtl c7
f 3 7 4
usemtl c8
f 4 7 8
usemtl c7
f 4 8 9
usemtl c9
f 4 9 5
usemtl c10
f 5 9 10
usemtl c11
f 5 10 6
usemtl c12
f 6 10 8
usemtl c13
f 6 8 7
usemtl c14
f 10 9 8
usemtl c8
f 11 12 13
usemtl c15
f 11 13 14
usemtl c16
f 11 14 15
usemtl c1
f 11 15 16
usemtl c17
f 11 16 12
usemtl c18
f 12 16 17
usemtl c19
f 12 17 18
usemtl c20
f 12 18 13
usemtl c6
f 13 18 14
usemtl c21
f 14 18 19
usemtl c3
f 14 19 20
usemtl c22
f 14 20 15
usemtl c23
f 15 20 16
usemtl c24
f 16 20 19
usemtl c25
f 16 19 17
usemtl c1
f 17 19 18
usemtl c26
f 21 22 23
usemtl c27
f 21 23 24
usemtl c28
f 21 24 25
usemtl c29
f 21 25 22
usemtl c30
f 22 25 26
usemtl c31
f 22 26 27
usemtl c32
f 22 27 28
usemtl c33
f 22 28 23
usemtl c34
f 23 28 24
usemtl c35
f 24 28 29
usemtl c36
f 24 29 30
usemtl c37
f 24 30 25
usemtl c38
f 25 30 26
usemtl c39
f 26 30 29
usemtl c40
f 26 29 27
usemtl c41
f 27 29 28
usemtl c42
f 31 32 33
usemtl c43
f 31 33 34
usemtl c44
f 31 34 35
usemtl c45
f 31 35 32
usemtl c46
f 32 35 36
usemtl c47
f 32 36 37
usemtl c48
f 32 37 33
usemtl c49
f 33 37 34
usemtl c50
f 34 37 38
usemtl c51
f 34 38 39
usemtl c52
f 34 39 35
usemtl c53
f 35 39 40
usemtl c54
f 35 40 36
usemtl c55
f 36 40 38
usemtl c56
f 36 38 37
usemtl c57
f 40 39 38
usemtl c58
f 41 42 43
usemtl c59
f 41 43 44
usemtl c19
f 41 44 45
usemtl c60
f 41 45 42
usemtl c61
f 42 45 46
usemtl c10
f 42 46 47
usemtl c6
f 42 47 43
usemtl c4
f 43 47 44
usemtl c21
f 44 47 48
usemtl c3
f 44 48 49
f 44 49 45
usemtl c62
f 45 49 50
usemtl c24
f 45 50 46
usemtl c25
f 46 50 48
usemtl c1
f 46 48 47
usemtl c24
f 50 49 48
usemtl c63
f 51 52 53
usemtl c64
f 51 53 54
usemtl c65
f 51 54 55
usemtl c66
f 51 55 52
usemtl c67
f 52 55 56
usemtl c68
f 52 56 57
usemtl c69
f 52 57 53
usemtl c70
f 53 57 54
usemtl c71
f 54 57 58
usemtl c72
f 54 58 59
usemtl c73
f 54 59 55
usemtl c74
f 55 59 60
usemtl c75
f 55 60 56
usemtl c76
f 56 60 58
usemtl c49
f 56 58 57
usemtl c77
f 60 59 58
usemtl c78
f 61 62 63
usemtl c79
f 61 63 64
usemtl c68
f 61 64 65
usemtl c80
f 61 65 62
usemtl c81
f 62 65 66
usemtl c82
f 62 66 67
usemtl c83
f 62 67 63
usemtl c84
f 63 67 64
usemtl c85
f 64 67 68
usemtl c29
f 64 68 69
usemtl c86
f 64 69 65
usemtl c87
f 65 69 70
usemtl c88
f 65 70 66
usemtl c89
f 66 70 68
usemtl c90
f 66 68 67
usemtl c91
f 70 69 68
