# Made by RuneLite Model-Dumper Plugin
mtllib steel-hatchet.mtl
o ware
v -23 1 34
v -21 1 23
v -17 1 42
v -11 4 36
v -12 4 28
v -12 0 28
v -11 0 36
v -3 1 32
v -3 3 32
v -4 3 26
v -4 1 26
v -2 0 34
v -3 5 34
v -4 5 26
v -9 4 -17
v -9 0 -17
v -3 0 26
v 5 0 32
v 5 6 32
v -6 4 -17
v -11 5 -22
v -10 0 -22
v -6 0 -17
v -6 5 -23
v -5 0 -23
usemtl c0
f 1 2 3
f 1 3 2
usemtl c1
f 2 3 4
usemtl c2
f 2 4 5
usemtl c3
f 2 5 6
usemtl c4
f 2 6 7
usemtl c2
f 2 7 3
usemtl c1
f 3 7 4
usemtl c5
f 4 7 8
usemtl c6
f 4 8 9
usemtl c7
f 4 9 5
usemtl c8
f 5 9 10
usemtl c9
f 5 10 6
usemtl c10
f 6 10 11
usemtl c11
f 6 11 7
usemtl c12
f 7 11 8
usemtl c13
f 8 11 12
usemtl c14
f 8 12 9
usemtl c15
f 9 12 13
usemtl c16
f 9 13 10
f 10 13 14
f 10 14 15
usemtl c17
f 10 15 11
usemtl c18
f 11 15 16
usemtl c19
f 11 16 17
usemtl c20
f 11 17 12
usemtl c21
f 12 17 18
usemtl c22
f 12 18 19
usemtl c23
f 12 19 13
usemtl c24
f 13 19 14
f 14 19 15
usemtl c25
f 15 19 20
usemtl c26
f 15 20 21
usemtl c27
f 15 21 22
usemtl c28
f 15 22 16
usemtl c29
f 16 22 23
usemtl c30
f 16 23 18
usemtl c31
f 16 18 17
usemtl c32
f 24 21 20
usemtl c33
f 24 20 25
usemtl c34
f 24 25 22
usemtl c35
f 24 22 21
usemtl c36
f 20 23 25
usemtl c37
f 25 23 22
usemtl c38
f 19 18 23
usemtl c39
f 19 23 20
