# Made by RuneLite Model-Dumper Plugin
mtllib green-dhide-body.mtl
o Item Green d'hide body 2026-09-24_17-09-44
v 7 7 -28
v -7 7 -28
v 0 8 -22
v 13 8 -22
v 7 3 -29
v 17 5 -27
v 17 3 -27
v 16 1 -22
v 0 1 -22
v -7 3 -29
v -16 1 -22
v -17 3 -27
v -17 5 -27
v -13 8 -22
v -11 4 24
v 11 4 24
v -18 7 -8
v -15 6 20
v -17 4 19
v -18 1 -8
v -15 2 20
v -11 0 22
v 11 0 22
v 18 1 -8
v 15 2 20
v 17 4 19
v 18 7 -8
v 15 6 20
v -6 8 -10
v 0 8 2
v 6 8 -10
v 2 8 -17
v -2 8 -17
v 4 8 -3
v 9 8 9
v 14 7 -3
v 11 8 -10
v 7 8 -10
v 1 8 -22
v 12 8 -22
v 9 7 -26
v 6 7 -26
v 7 8 -11
v -6 7 -26
v -9 7 -26
v -12 8 -22
v -1 8 -22
v -7 8 -11
v 1 8 6
v 4 8 13
v 7 8 6
v 5 8 1
v 2 8 1
v -7 8 6
v -4 8 13
v -1 8 6
v -2 8 1
v -5 8 1
v 5 8 15
v 8 4 24
v 11 8 15
v 9 8 10
v 7 8 10
v -11 8 15
v -8 4 24
v -5 8 15
v -7 8 10
v -9 8 10
v -3 8 13
v 0 8 20
v 3 8 13
v 1 8 8
v -1 8 8
v -18 2 0
v -17 4 12
v -18 6 0
v -18 4 -7
v -14 0 6
v -15 1 13
v -17 3 6
v -17 2 1
v -17 1 1
v -17 5 6
v -15 7 13
v -14 8 6
v -17 7 1
v -17 6 1
v -17 4 14
v -15 5 19
v -16 6 14
v -17 5 10
v -17 4 10
v -16 2 14
v -15 3 19
v -17 3 10
v -14 7 -3
v -9 8 9
v -4 8 -3
v -7 8 -10
v -11 8 -10
v 18 6 0
v 17 4 12
v 18 2 0
v 18 4 -7
v 17 3 6
v 15 1 13
v 14 0 6
v 17 1 1
v 17 2 1
v 14 8 6
v 15 7 13
v 17 5 6
v 17 6 1
v 17 7 1
v 16 6 14
v 15 5 19
v 17 4 14
v 17 4 10
v 17 5 10
v 15 3 19
v 16 2 14
v 17 3 10
usemtl c0
f 1 2 3
usemtl c1
f 1 3 4
usemtl c2
f 1 4 5
usemtl c3
f 5 4 6
usemtl c4
f 5 6 7
usemtl c5
f 5 7 8
usemtl c6
f 5 8 9
f 5 9 10
usemtl c7
f 10 9 11
usemtl c8
f 10 11 12
usemtl c9
f 10 12 13
f 10 13 14
usemtl c10
f 10 14 2
usemtl c11
f 2 14 3
usemtl c12
f 2 3 1
usemtl c13
f 15 16 3
usemtl c11
f 15 3 14
usemtl c14
f 15 14 17
usemtl c15
f 15 17 18
usemtl c16
f 18 17 19
usemtl c17
f 19 17 20
f 19 20 21
usemtl c18
f 21 20 22
usemtl c19
f 22 20 11
usemtl c20
f 22 11 9
usemtl c21
f 22 9 23
usemtl c22
f 23 9 8
usemtl c6
f 23 8 24
usemtl c23
f 23 24 25
usemtl c24
f 25 24 26
usemtl c5
f 26 24 27
usemtl c25
f 26 27 28
usemtl c26
f 28 27 16
usemtl c10
f 16 27 4
usemtl c11
f 16 4 3
usemtl c27
f 17 14 13
usemtl c28
f 17 13 20
usemtl c27
f 20 13 12
usemtl c29
f 20 12 11
usemtl c5
f 24 8 7
f 24 7 27
f 27 7 6
usemtl c30
f 27 6 4
usemtl c6
f 9 10 5
usemtl c31
f 29 30 31
f 29 31 32
f 29 32 33
usemtl c17
f 34 35 36
usemtl c32
f 34 36 37
usemtl c33
f 34 37 38
usemtl c34
f 39 40 41
usemtl c12
f 39 41 42
usemtl c17
f 43 40 39
usemtl c12
f 44 45 46
usemtl c34
f 44 46 47
usemtl c17
f 47 46 48
usemtl c31
f 49 50 51
f 49 51 52
f 49 52 53
f 54 55 56
f 54 56 57
f 54 57 58
usemtl c35
f 59 60 61
usemtl c36
f 59 61 62
usemtl c37
f 59 62 63
usemtl c35
f 64 65 66
usemtl c36
f 64 66 67
usemtl c37
f 64 67 68
usemtl c31
f 69 70 71
f 69 71 72
f 69 72 73
usemtl c38
f 74 75 76
usemtl c39
f 74 76 77
usemtl c40
f 74 77 77
usemtl c41
f 78 79 80
usemtl c42
f 78 80 81
usemtl c43
f 78 81 82
usemtl c38
f 83 84 85
usemtl c44
f 83 85 86
usemtl c45
f 83 86 87
usemtl c46
f 88 89 90
usemtl c47
f 88 90 91
usemtl c48
f 88 91 92
usemtl c49
f 88 92 93
usemtl c47
f 88 93 94
usemtl c50
f 92 95 93
usemtl c51
f 96 97 98
usemtl c52
f 96 98 99
f 96 99 100
usemtl c5
f 101 102 103
usemtl c25
f 101 103 104
usemtl c10
f 101 104 104
usemtl c53
f 105 106 107
usemtl c54
f 105 107 108
usemtl c5
f 105 108 109
usemtl c21
f 110 111 112
usemtl c55
f 110 112 113
usemtl c56
f 110 113 114
usemtl c30
f 115 116 117
usemtl c5
f 115 117 118
f 115 118 119
usemtl c53
f 117 120 121
usemtl c5
f 117 121 122
usemtl c24
f 117 122 118
