# Made by RuneLite Model-Dumper Plugin
mtllib red-dragon-mask.mtl
o Item Red dragon mask 2026-09-24_17-11-45
v -14 8 5
v -14 6 9
v -13 8 8
v -15 9 7
v -14 10 7
v -15 12 1
v -17 8 2
v -18 7 1
v -17 4 1
v -17 4 5
v -16 3 8
v -11 0 7
v -9 8 10
v -11 8 9
v -11 10 10
v -11 12 10
v -11 13 4
v -12 15 2
v -14 16 0
v -16 12 -1
v -17 11 -3
v -17 9 -2
v -17 8 -1
v -18 5 -3
v -22 3 -1
v -21 2 0
v -21 2 -4
v -28 -1 -5
v -8 20 6
v -10 16 4
v -6 19 7
v -2 18 9
v -2 21 8
v -4 23 -1
v -10 21 -3
v -11 18 0
v -9 15 6
v -8 16 6
v -9 14 7
v -7 13 9
v -5 17 9
v -5 15 10
v -3 18 10
v -3 17 9
v 0 20 10
v 0 21 8
v 1 24 1
v 1 25 -6
v -5 24 -6
v -12 23 -14
v -13 19 -5
v 0 20 11
v 2 18 10
v 2 17 9
v 1 18 9
v 2 21 8
v 5 23 -1
v 6 24 -6
v 6 23 -11
v 1 25 -11
v -5 23 -11
v -7 25 -14
v -12 21 -24
v -13 18 -24
v -11 16 -16
v -9 11 -17
v -13 12 -10
v -16 12 -6
v -23 8 -9
v -18 7 -5
v -17 8 -2
v -18 8 -2
v -10 0 -5
v -11 2 -8
v -9 -1 -9
v -10 6 -14
v 1 -2 -13
v 2 4 -21
v 10 -2 -10
v 11 7 -17
v 12 -1 -7
v 12 0 -5
v 10 11 -17
v 12 12 -10
v 15 12 -6
v 17 7 -5
v 22 5 -7
v 23 8 -9
v 17 11 -3
v 17 8 -2
v 17 5 -3
v 17 8 -1
v 16 8 2
v 17 7 1
v 21 3 -1
v 20 2 -4
v 17 4 1
v 20 2 0
v 13 8 5
v 17 4 5
v 19 0 4
v 18 -1 5
v 10 0 7
v 16 3 8
v 13 6 9
v 9 8 10
v 7 3 13
v 3 4 19
v 0 1 14
v 0 -2 8
v -4 4 19
v -8 3 13
v -7 6 19
v -9 11 11
v -3 18 13
v 0 21 13
v 2 18 13
v 4 15 10
v 4 17 9
v -2 19 18
v 0 20 18
v 2 19 18
v 2 18 17
v 3 16 15
v 7 13 9
v 7 16 6
v 8 14 7
v 11 13 4
v 8 15 6
v 9 16 4
v 11 15 2
v 10 18 0
v 7 20 6
v 5 19 7
v 12 21 -3
v 13 23 -14
v 8 25 -14
v 6 23 -16
v 1 24 -17
v -5 23 -16
v -7 20 -18
v -9 23 -25
v -12 22 -31
v -12 20 -31
v -10 20 -31
v -8 19 -24
v -5 16 -19
v -4 13 -19
v 1 11 -22
v -23 5 -7
v -22 8 -10
v -29 7 -15
v -2 18 23
v 0 19 23
v 1 18 23
v 2 18 19
v 3 17 20
v 3 17 18
v 4 15 16
v 5 14 16
v 6 13 15
v 10 12 10
v 15 12 1
v 13 16 0
v 1 17 -22
v -4 16 15
v -3 18 17
v -3 18 19
v -3 16 22
v -3 16 25
v -2 17 26
v 0 18 27
v 1 17 26
v 2 16 25
v 2 16 22
v 3 16 20
v 4 15 20
v 4 14 20
v 7 12 15
v 10 10 10
v 15 9 7
v 13 10 7
v 15 12 -1
v 13 15 -4
v 12 16 -16
v 14 18 -24
v 13 21 -24
v 10 23 -25
v 8 20 -18
v 6 16 -19
v -7 13 15
v -8 12 15
v -5 14 20
v -6 14 16
v -7 13 21
v -4 14 25
v 0 17 28
v 3 14 25
v 6 13 21
v -10 22 -32
v -12 24 -37
v -6 12 22
v -7 10 15
v -6 9 23
v -2 12 27
v -2 14 26
v 0 15 27
v 1 14 26
v 5 12 22
v -4 7 23
v -2 10 27
v 0 8 28
v 0 13 28
v 0 7 23
v 0 7 22
v 3 7 23
v 2 10 27
v 1 12 27
v 5 9 23
v 6 10 15
v 9 11 11
v 10 6 13
v 10 8 9
v 12 8 8
v -5 15 20
v -5 15 16
v -4 17 18
v -4 17 20
v -4 16 20
v -11 6 13
v -20 0 4
v -20 1 5
v -18 -1 5
v -25 -4 2
v 19 1 5
v 24 -4 2
v 5 13 -19
v 13 22 -31
v 11 22 -32
v 9 19 -24
v 11 20 -31
v 13 20 -31
v 13 24 -37
v 7 6 19
v 17 9 -2
v 28 -1 -5
v 28 7 -15
v 21 8 -10
usemtl c0
f 1 2 3
usemtl c1
f 1 3 4
usemtl c2
f 1 4 5
usemtl c3
f 1 5 6
usemtl c4
f 1 6 7
usemtl c5
f 1 7 8
usemtl c6
f 1 8 9
f 1 9 10
usemtl c3
f 1 10 2
usemtl c7
f 2 10 11
usemtl c2
f 2 11 12
usemtl c8
f 2 12 13
usemtl c9
f 2 13 14
usemtl c10
f 2 14 3
usemtl c11
f 3 14 4
usemtl c12
f 4 14 15
usemtl c8
f 4 15 16
usemtl c2
f 4 16 5
usemtl c3
f 5 16 6
usemtl c13
f 6 16 17
usemtl c14
f 6 17 18
usemtl c10
f 6 18 19
usemtl c15
f 6 19 20
usemtl c16
f 6 20 7
usemtl c4
f 7 20 21
usemtl c7
f 7 21 22
usemtl c17
f 7 22 23
usemtl c18
f 7 23 24
f 7 24 8
usemtl c19
f 8 24 25
usemtl c20
f 8 25 9
usemtl c21
f 9 25 26
usemtl c22
f 9 26 27
f 9 27 24
usemtl c23
f 24 27 25
usemtl c24
f 25 27 28
usemtl c25
f 25 28 26
usemtl c26
f 26 28 27
usemtl c27
f 29 30 31
usemtl c28
f 29 31 32
usemtl c29
f 29 32 33
usemtl c30
f 29 33 34
usemtl c31
f 29 34 35
usemtl c15
f 29 35 36
usemtl c32
f 29 36 30
usemtl c33
f 30 36 18
usemtl c34
f 30 18 17
usemtl c35
f 30 17 37
usemtl c36
f 37 17 38
usemtl c37
f 38 17 39
usemtl c38
f 38 39 40
usemtl c39
f 38 40 41
usemtl c40
f 41 40 42
usemtl c41
f 41 42 43
usemtl c42
f 41 43 44
usemtl c43
f 44 43 45
usemtl c44
f 44 45 32
usemtl c14
f 32 45 33
usemtl c45
f 33 45 46
usemtl c46
f 33 46 47
f 33 47 34
f 34 47 48
usemtl c47
f 34 48 49
usemtl c48
f 34 49 35
usemtl c49
f 35 49 50
usemtl c50
f 35 50 51
usemtl c51
f 35 51 19
usemtl c52
f 35 19 36
usemtl c53
f 36 19 18
usemtl c54
f 45 43 52
usemtl c55
f 45 52 53
usemtl c56
f 45 53 54
usemtl c57
f 45 54 55
usemtl c58
f 45 55 56
usemtl c59
f 45 56 46
usemtl c60
f 46 56 47
usemtl c61
f 47 56 57
usemtl c62
f 47 57 48
usemtl c63
f 48 57 58
usemtl c64
f 48 58 59
usemtl c65
f 48 59 60
usemtl c66
f 48 60 61
usemtl c64
f 48 61 49
usemtl c67
f 49 61 62
usemtl c68
f 49 62 50
usemtl c69
f 50 62 63
usemtl c70
f 50 63 64
usemtl c71
f 50 64 65
usemtl c72
f 50 65 51
usemtl c73
f 51 65 66
usemtl c74
f 51 66 67
usemtl c75
f 51 67 19
usemtl c76
f 19 67 68
usemtl c45
f 19 68 20
usemtl c77
f 20 68 21
usemtl c78
f 21 68 69
usemtl c79
f 21 69 70
usemtl c80
f 21 70 71
usemtl c81
f 21 71 22
usemtl c82
f 22 71 23
usemtl c78
f 23 71 72
usemtl c47
f 23 72 24
usemtl c83
f 24 72 70
usemtl c84
f 24 70 73
usemtl c85
f 73 70 74
usemtl c86
f 73 74 75
usemtl c87
f 75 74 76
usemtl c88
f 75 76 77
usemtl c89
f 77 76 78
usemtl c90
f 77 78 79
usemtl c91
f 79 78 80
usemtl c92
f 79 80 81
f 81 80 82
f 82 80 83
f 82 83 84
usemtl c93
f 82 84 85
usemtl c94
f 82 85 86
usemtl c95
f 86 85 87
usemtl c96
f 86 87 88
usemtl c97
f 86 88 89
usemtl c98
f 86 89 90
usemtl c99
f 86 90 91
usemtl c100
f 91 90 92
usemtl c101
f 91 92 93
usemtl c102
f 91 93 94
usemtl c103
f 91 94 95
usemtl c104
f 91 95 96
usemtl c105
f 91 96 97
usemtl c106
f 97 96 98
usemtl c107
f 97 98 95
usemtl c108
f 97 95 94
usemtl c109
f 97 94 99
usemtl c103
f 97 99 100
usemtl c110
f 97 100 101
usemtl c111
f 97 101 102
usemtl c112
f 97 102 103
usemtl c113
f 103 102 104
usemtl c114
f 103 104 105
usemtl c115
f 103 105 106
usemtl c116
f 103 106 107
usemtl c117
f 103 107 108
usemtl c118
f 103 108 109
usemtl c119
f 103 109 110
usemtl c120
f 110 109 12
usemtl c121
f 12 109 111
usemtl c25
f 12 111 112
usemtl c8
f 12 112 13
usemtl c16
f 13 112 113
usemtl c122
f 13 113 114
usemtl c35
f 13 114 14
usemtl c21
f 52 43 115
usemtl c123
f 52 115 116
usemtl c124
f 52 116 117
usemtl c110
f 52 117 53
usemtl c125
f 53 117 118
usemtl c126
f 53 118 119
usemtl c127
f 53 119 54
usemtl c128
f 116 115 120
usemtl c129
f 116 120 121
usemtl c112
f 116 121 122
usemtl c130
f 116 122 117
usemtl c131
f 117 122 123
usemtl c132
f 117 123 124
usemtl c133
f 117 124 118
usemtl c134
f 118 124 125
usemtl c135
f 118 125 119
usemtl c136
f 119 125 126
usemtl c137
f 126 125 127
f 126 127 128
usemtl c54
f 126 128 129
usemtl c138
f 129 128 130
f 130 128 131
f 130 131 132
f 130 132 133
usemtl c139
f 130 133 134
usemtl c61
f 134 133 55
usemtl c58
f 55 133 56
usemtl c140
f 56 133 57
usemtl c141
f 57 133 135
usemtl c142
f 57 135 58
usemtl c55
f 58 135 136
usemtl c143
f 58 136 137
usemtl c144
f 58 137 59
usemtl c145
f 59 137 138
usemtl c138
f 59 138 60
usemtl c146
f 60 138 139
usemtl c147
f 60 139 140
usemtl c113
f 60 140 61
usemtl c148
f 61 140 62
usemtl c149
f 62 140 141
usemtl c150
f 62 141 142
usemtl c119
f 62 142 63
usemtl c151
f 63 142 143
usemtl c152
f 63 143 144
usemtl c153
f 63 144 64
usemtl c154
f 64 144 145
usemtl c124
f 64 145 146
usemtl c155
f 64 146 65
usemtl c156
f 65 146 141
usemtl c157
f 65 141 147
usemtl c103
f 65 147 148
usemtl c108
f 65 148 66
usemtl c158
f 66 148 149
usemtl c159
f 66 149 78
usemtl c160
f 66 78 76
usemtl c161
f 66 76 67
usemtl c162
f 67 76 74
usemtl c163
f 67 74 70
usemtl c164
f 67 70 68
usemtl c165
f 68 70 150
usemtl c166
f 68 150 151
usemtl c66
f 68 151 69
usemtl c167
f 69 151 152
usemtl c168
f 69 152 150
usemtl c64
f 69 150 70
usemtl c25
f 121 120 153
usemtl c169
f 121 153 154
usemtl c170
f 121 154 155
usemtl c166
f 121 155 122
usemtl c171
f 122 155 156
usemtl c172
f 122 156 123
usemtl c173
f 123 156 157
usemtl c174
f 123 157 158
usemtl c132
f 123 158 124
usemtl c175
f 124 158 159
usemtl c176
f 124 159 160
usemtl c102
f 124 160 161
usemtl c177
f 124 161 125
usemtl c178
f 125 161 162
usemtl c141
f 125 162 127
f 127 162 128
usemtl c179
f 128 162 163
usemtl c143
f 128 163 131
usemtl c55
f 131 163 164
usemtl c180
f 131 164 132
usemtl c177
f 132 164 135
usemtl c112
f 132 135 133
usemtl c181
f 140 139 165
usemtl c182
f 140 165 147
usemtl c183
f 140 147 141
usemtl c184
f 42 115 43
usemtl c185
f 115 42 166
usemtl c186
f 115 166 167
usemtl c31
f 115 167 120
usemtl c7
f 120 167 168
usemtl c3
f 120 168 153
usemtl c29
f 153 168 169
usemtl c187
f 153 169 170
usemtl c4
f 153 170 171
usemtl c188
f 153 171 154
usemtl c46
f 154 171 172
usemtl c165
f 154 172 173
usemtl c177
f 154 173 155
usemtl c189
f 155 173 174
usemtl c190
f 155 174 175
f 155 175 156
f 156 175 157
usemtl c191
f 157 175 176
usemtl c192
f 157 176 158
usemtl c90
f 158 176 159
usemtl c98
f 159 176 177
usemtl c193
f 159 177 178
usemtl c173
f 159 178 160
usemtl c190
f 160 178 161
usemtl c194
f 161 178 179
usemtl c195
f 161 179 162
usemtl c116
f 162 179 180
usemtl c180
f 162 180 181
usemtl c196
f 162 181 182
usemtl c197
f 162 182 163
usemtl c198
f 163 182 99
usemtl c181
f 163 99 93
usemtl c102
f 163 93 183
usemtl c199
f 163 183 164
usemtl c200
f 164 183 85
usemtl c201
f 164 85 84
usemtl c202
f 164 84 184
usemtl c182
f 164 184 135
usemtl c203
f 135 184 136
usemtl c204
f 136 184 185
usemtl c205
f 136 185 186
usemtl c206
f 136 186 187
usemtl c207
f 136 187 137
usemtl c208
f 137 187 188
usemtl c165
f 137 188 189
usemtl c209
f 137 189 138
usemtl c210
f 138 189 190
usemtl c211
f 138 190 165
usemtl c194
f 138 165 139
usemtl c17
f 16 191 40
usemtl c3
f 16 40 39
usemtl c2
f 16 39 17
usemtl c31
f 16 192 191
usemtl c212
f 191 192 193
usemtl c213
f 191 193 194
usemtl c214
f 191 194 166
usemtl c186
f 191 166 40
usemtl c215
f 40 166 42
usemtl c188
f 193 192 195
usemtl c51
f 193 195 170
usemtl c216
f 193 170 169
usemtl c122
f 170 195 196
usemtl c53
f 170 196 171
usemtl c7
f 171 196 197
usemtl c217
f 171 197 172
usemtl c218
f 172 197 173
usemtl c22
f 173 197 198
usemtl c103
f 173 198 174
usemtl c56
f 174 198 199
usemtl c219
f 174 199 178
usemtl c190
f 174 178 175
usemtl c220
f 147 165 149
usemtl c221
f 147 149 148
usemtl c222
f 143 142 200
usemtl c223
f 143 200 201
usemtl c224
f 143 201 144
usemtl c107
f 144 201 145
usemtl c225
f 145 201 200
usemtl c226
f 145 200 146
usemtl c227
f 146 200 142
usemtl c228
f 146 142 141
usemtl c229
f 202 195 192
usemtl c230
f 202 192 203
usemtl c231
f 202 203 204
usemtl c232
f 202 204 205
f 202 205 206
usemtl c233
f 202 206 195
f 195 206 196
usemtl c234
f 196 206 207
usemtl c235
f 196 207 197
usemtl c236
f 197 207 198
usemtl c237
f 198 207 208
usemtl c238
f 198 208 199
usemtl c239
f 199 208 209
usemtl c240
f 199 209 179
usemtl c190
f 199 179 178
usemtl c241
f 204 203 113
usemtl c242
f 204 113 210
usemtl c14
f 204 210 211
usemtl c243
f 204 211 205
usemtl c244
f 205 211 212
usemtl c81
f 205 212 213
usemtl c245
f 205 213 207
usemtl c246
f 205 207 206
usemtl c79
f 210 113 111
usemtl c247
f 210 111 214
usemtl c248
f 210 214 212
usemtl c249
f 210 212 211
usemtl c218
f 214 111 215
usemtl c250
f 214 215 108
usemtl c22
f 214 108 216
usemtl c251
f 214 216 212
usemtl c118
f 212 216 217
usemtl c154
f 212 217 218
usemtl c252
f 212 218 213
usemtl c167
f 213 218 207
usemtl c66
f 207 218 208
usemtl c108
f 208 218 209
usemtl c253
f 209 218 219
usemtl c254
f 209 219 220
usemtl c255
f 209 220 179
usemtl c256
f 179 220 221
usemtl c108
f 179 221 180
usemtl c257
f 180 221 222
usemtl c258
f 180 222 223
usemtl c259
f 180 223 181
usemtl c145
f 181 223 224
usemtl c260
f 181 224 99
usemtl c103
f 181 99 182
usemtl c261
f 193 225 226
usemtl c185
f 193 226 194
usemtl c262
f 194 226 166
usemtl c261
f 166 226 227
f 166 227 167
usemtl c187
f 167 227 228
usemtl c263
f 167 228 168
usemtl c264
f 168 228 169
usemtl c265
f 169 228 229
usemtl c266
f 169 229 225
usemtl c216
f 225 229 226
usemtl c215
f 226 229 227
usemtl c266
f 227 229 228
usemtl c267
f 192 114 203
usemtl c7
f 203 114 113
usemtl c2
f 15 192 16
usemtl c268
f 192 15 114
usemtl c269
f 114 15 230
usemtl c11
f 230 15 14
usemtl c270
f 10 231 232
usemtl c271
f 10 232 11
usemtl c272
f 11 232 233
usemtl c273
f 11 233 12
usemtl c274
f 12 233 9
usemtl c112
f 9 233 231
usemtl c275
f 9 231 10
usemtl c123
f 234 232 231
usemtl c112
f 234 231 233
usemtl c276
f 234 233 232
usemtl c268
f 113 112 111
usemtl c277
f 70 72 71
usemtl c117
f 152 151 150
usemtl c278
f 99 224 105
usemtl c279
f 99 105 100
usemtl c141
f 100 105 104
usemtl c279
f 100 104 235
usemtl c173
f 100 235 101
usemtl c103
f 101 235 236
usemtl c109
f 101 236 102
usemtl c280
f 102 236 235
usemtl c281
f 102 235 104
usemtl c282
f 190 189 185
usemtl c283
f 190 185 237
usemtl c284
f 190 237 149
usemtl c285
f 190 149 165
usemtl c286
f 184 83 185
usemtl c283
f 185 83 237
usemtl c284
f 237 83 149
f 149 83 80
usemtl c91
f 149 80 78
usemtl c117
f 188 187 238
usemtl c287
f 188 238 239
usemtl c272
f 188 239 240
usemtl c288
f 188 240 189
usemtl c180
f 189 240 185
usemtl c109
f 185 240 186
usemtl c289
f 186 240 241
usemtl c103
f 186 241 242
usemtl c202
f 186 242 187
usemtl c290
f 187 242 238
usemtl c291
f 238 242 243
usemtl c292
f 238 243 239
usemtl c123
f 239 243 241
usemtl c293
f 239 241 240
usemtl c134
f 243 242 241
usemtl c92
f 84 83 184
usemtl c294
f 220 219 244
usemtl c207
f 220 244 221
usemtl c295
f 221 244 106
usemtl c180
f 221 106 223
usemtl c296
f 223 106 105
usemtl c165
f 223 105 224
usemtl c297
f 244 219 216
usemtl c278
f 244 216 108
usemtl c134
f 244 108 107
usemtl c207
f 244 107 106
usemtl c178
f 219 218 217
usemtl c298
f 219 217 216
usemtl c299
f 99 94 93
usemtl c300
f 175 177 176
usemtl c301
f 89 85 183
usemtl c171
f 89 183 93
usemtl c228
f 89 93 245
usemtl c302
f 89 245 90
usemtl c303
f 90 245 92
usemtl c304
f 92 245 93
usemtl c113
f 246 96 95
usemtl c54
f 246 95 98
usemtl c305
f 246 98 96
usemtl c106
f 247 248 88
usemtl c165
f 247 88 87
usemtl c106
f 247 87 248
usemtl c196
f 248 87 85
f 248 85 88
usemtl c95
f 88 85 89
usemtl c274
f 108 215 111
usemtl c139
f 108 111 109
