# Made by RuneLite Model-Dumper Plugin
mtllib adamant-plateskirt.mtl
o Item Adamant plateskirt 2026-09-24_18-15-35
v 10 9 -17
v 10 0 -13
v 10 0 -17
v -20 0 -17
v -20 9 -17
v -20 9 -13
v 10 9 -13
v 19 0 1
v 18 9 6
v 17 6 34
v 25 0 34
v -20 0 -13
v -28 9 6
v -29 0 1
v -35 0 34
v -27 6 34
v -8 9 13
v -2 9 13
v -15 9 13
v -15 6 34
v -8 6 34
v 5 9 13
v 11 9 11
v 17 9 9
v 11 6 34
v -2 6 34
v 5 6 34
v -27 9 9
v -21 9 11
v -21 6 34
v 18 7 9
v 20 4 7
v 20 0 6
v 21 4 34
v 23 2 34
v -28 7 9
v -30 4 7
v -33 2 34
v -31 4 34
v -30 0 6
usemtl c0
f 1 2 3
usemtl c1
f 1 3 4
usemtl c2
f 1 4 5
usemtl c3
f 1 5 6
usemtl c4
f 1 6 7
usemtl c0
f 1 7 2
usemtl c5
f 2 7 8
usemtl c6
f 8 7 9
usemtl c7
f 8 9 10
usemtl c8
f 8 10 11
usemtl c9
f 12 6 5
usemtl c10
f 12 5 4
usemtl c11
f 13 9 7
usemtl c12
f 13 7 6
usemtl c13
f 13 6 14
usemtl c14
f 13 14 15
usemtl c15
f 13 15 16
usemtl c16
f 13 16 9
usemtl c17
f 9 16 10
usemtl c18
f 6 12 14
usemtl c19
f 17 18 9
usemtl c20
f 17 9 13
usemtl c21
f 17 13 19
usemtl c22
f 17 19 20
usemtl c23
f 17 20 21
usemtl c19
f 18 22 9
f 9 22 23
f 9 23 24
usemtl c22
f 24 23 25
usemtl c19
f 24 25 10
usemtl c22
f 22 18 26
usemtl c23
f 22 26 27
usemtl c21
f 13 28 29
f 13 29 19
usemtl c23
f 29 28 16
usemtl c24
f 29 16 30
usemtl c25
f 8 9 31
usemtl c26
f 8 31 32
usemtl c27
f 8 32 33
usemtl c5
f 34 35 32
usemtl c28
f 34 32 31
usemtl c29
f 36 13 14
usemtl c30
f 36 14 37
usemtl c31
f 36 37 38
usemtl c32
f 36 38 39
usemtl c33
f 40 37 14
