# Made by RuneLite Model-Dumper Plugin
mtllib flax.mtl
o ware
v 10 5 -8
v 12 3 -3
v 19 0 -14
v -2 6 2
v 1 3 7
v -7 -1 4
v -2 -1 8
v -8 2 9
v -6 2 11
v -4 3 11
v -2 3 8
v -1 3 5
v -3 3 3
v -6 2 4
v -8 2 6
v 1 5 -7
v 6 3 -9
v -5 0 -17
v 9 6 6
v 15 3 3
v 11 -1 11
v 16 -1 7
v 16 2 12
v 18 2 10
v 18 3 9
v 15 3 6
v 12 3 4
v 10 3 7
v 11 2 10
v 13 2 12
v -3 5 -4
v 2 3 -4
v -5 0 -15
v -1 6 11
v 6 3 10
v -1 -1 16
v 5 -1 14
v 4 2 19
v 6 2 18
v 6 3 17
v 4 3 13
v 3 3 10
v -1 3 12
v -1 2 15
v 1 2 18
v 3 9 -13
v 3 7 -7
v 14 4 -14
v -12 10 -10
v -12 7 -3
v -18 3 -10
v -15 3 -4
v -21 6 -6
v -20 6 -4
v -18 7 -3
v -15 7 -5
v -12 7 -7
v -13 7 -9
v -17 6 -10
v -20 6 -9
v -10 9 -8
v -6 7 -4
v -3 4 -18
v -19 10 4
v -14 7 8
v -22 3 8
v -17 3 11
v -21 6 13
v -19 6 14
v -18 7 14
v -16 7 10
v -16 7 6
v -19 7 5
v -22 6 7
v -23 6 10
v 7 9 -10
v 11 7 -13
v -1 4 -17
v 18 10 1
v 23 7 -5
v 22 3 5
v 25 3 -1
v 27 6 4
v 28 6 2
v 28 7 1
v 23 7 -1
v 21 7 -3
v 19 7 1
v 21 6 4
v 24 6 5
usemtl c0
f 1 2 3
usemtl c1
f 2 1 4
usemtl c2
f 2 4 5
usemtl c3
f 5 4 6
usemtl c4
f 5 6 7
usemtl c5
f 8 9 10
usemtl c6
f 8 10 11
usemtl c7
f 8 11 12
usemtl c8
f 8 12 13
usemtl c9
f 8 13 14
usemtl c10
f 8 14 15
usemtl c11
f 16 17 18
usemtl c12
f 17 16 19
usemtl c13
f 17 19 20
usemtl c14
f 20 19 21
usemtl c15
f 20 21 22
usemtl c16
f 23 24 25
usemtl c17
f 23 25 26
usemtl c18
f 23 26 27
usemtl c19
f 23 27 28
usemtl c20
f 23 28 29
usemtl c21
f 23 29 30
usemtl c22
f 31 32 33
usemtl c12
f 32 31 34
usemtl c23
f 32 34 35
usemtl c24
f 35 34 36
usemtl c25
f 35 36 37
usemtl c26
f 38 39 40
usemtl c27
f 38 40 41
usemtl c28
f 38 41 42
usemtl c26
f 38 42 43
usemtl c29
f 38 43 44
usemtl c30
f 38 44 45
usemtl c15
f 46 47 48
usemtl c31
f 47 46 49
usemtl c32
f 47 49 50
usemtl c33
f 50 49 51
usemtl c34
f 50 51 52
usemtl c35
f 53 54 55
usemtl c20
f 53 55 56
usemtl c36
f 53 56 57
usemtl c37
f 53 57 58
usemtl c38
f 53 58 59
usemtl c39
f 53 59 60
usemtl c40
f 61 62 63
usemtl c41
f 62 61 64
usemtl c31
f 62 64 65
usemtl c42
f 65 64 66
usemtl c43
f 65 66 67
usemtl c44
f 68 69 70
usemtl c45
f 68 70 71
usemtl c46
f 68 71 72
usemtl c47
f 68 72 73
f 68 73 74
usemtl c48
f 68 74 75
usemtl c49
f 76 77 78
usemtl c50
f 77 76 79
usemtl c51
f 77 79 80
usemtl c52
f 80 79 81
usemtl c53
f 80 81 82
usemtl c54
f 83 84 85
usemtl c55
f 83 85 86
usemtl c56
f 83 86 87
usemtl c57
f 83 87 88
usemtl c58
f 83 88 89
usemtl c59
f 83 89 90
