# Made by RuneLite Model-Dumper Plugin
mtllib rat.mtl
o NPC Rat  (level-1) 2026-09-12_20-20-15
v 1 -1 -1
v 0 -1 2
v -1 -1 -1
v 27 1 33
v 23 1 36
v 22 1 23
v 26 1 25
v 31 1 32
v 33 0 33
v 31 0 35
v 30 1 34
v 30 8 31
v 12 13 36
v 17 1 40
v 15 1 21
v 11 13 25
v 29 8 27
v 29 1 24
v 30 1 22
v 32 0 24
v 30 1 26
v 35 1 30
v 32 6 30
v 33 0 35
v 11 1 39
v 9 1 23
v 3 5 34
v 3 3 34
v 2 3 29
v 2 5 29
v 22 0 23
v 22 0 22
v 20 0 21
v 3 7 31
v 34 8 28
v 33 8 26
v 30 6 26
v 32 1 22
v 3 7 33
v -4 5 30
v -2 2 29
v -3 5 28
v 22 0 38
v 23 0 36
v 23 0 37
v 32 1 24
v 41 1 24
v 38 3 29
v 37 5 29
v 37 6 29
v 37 7 29
v 34 7 30
v 40 1 22
v 42 2 23
v 41 4 24
v 37 5 29
v 40 4 22
v 34 7 23
v 37 9 30
v 31 7 25
v 34 6 23
v 34 5 23
v 34 3 22
v 33 9 23
v 35 5 23
v -9 4 28
v -9 4 30
v -9 2 29
v -17 1 29
v -17 3 28
v -17 3 30
v -22 2 29
usemtl c0
f 1 2 3
usemtl c1
f 4 5 6
usemtl c2
f 4 6 7
usemtl c3
f 4 7 8
usemtl c4
f 4 8 9
usemtl c5
f 4 9 10
usemtl c6
f 4 10 11
usemtl c7
f 4 11 12
usemtl c8
f 4 12 5
usemtl c9
f 5 12 13
usemtl c10
f 5 13 14
usemtl c11
f 5 14 15
usemtl c12
f 5 15 6
usemtl c13
f 6 15 16
usemtl c14
f 6 16 17
usemtl c15
f 6 17 7
usemtl c16
f 7 17 18
usemtl c17
f 7 18 19
usemtl c18
f 7 19 20
usemtl c19
f 7 20 21
usemtl c20
f 7 21 8
usemtl c21
f 8 21 22
usemtl c14
f 8 22 23
usemtl c22
f 8 23 11
usemtl c23
f 8 11 24
usemtl c24
f 8 24 9
usemtl c25
f 9 24 10
usemtl c26
f 10 24 11
usemtl c27
f 25 26 15
usemtl c2
f 25 15 14
usemtl c28
f 25 14 13
usemtl c29
f 25 13 27
usemtl c30
f 25 27 28
usemtl c27
f 25 28 26
usemtl c31
f 26 28 29
usemtl c32
f 26 29 30
usemtl c33
f 26 30 16
usemtl c34
f 26 16 15
usemtl c35
f 26 15 6
usemtl c36
f 6 15 15
usemtl c5
f 6 15 31
usemtl c15
f 6 31 32
usemtl c30
f 6 32 33
usemtl c13
f 6 33 15
usemtl c17
f 15 33 15
usemtl c13
f 15 33 32
usemtl c5
f 15 32 31
usemtl c37
f 30 34 16
usemtl c8
f 16 34 13
usemtl c9
f 16 13 12
usemtl c38
f 16 12 17
usemtl c7
f 17 12 35
usemtl c22
f 17 35 36
usemtl c39
f 17 36 37
usemtl c40
f 17 37 18
usemtl c41
f 18 37 21
usemtl c42
f 18 21 38
usemtl c43
f 18 38 19
usemtl c30
f 19 38 20
usemtl c44
f 20 38 21
usemtl c45
f 13 39 27
usemtl c46
f 27 39 40
usemtl c47
f 27 40 28
usemtl c48
f 28 40 41
usemtl c49
f 28 41 29
usemtl c50
f 29 41 42
usemtl c51
f 29 42 30
usemtl c52
f 30 42 34
usemtl c53
f 34 42 39
usemtl c54
f 34 39 13
usemtl c55
f 5 14 25
usemtl c15
f 14 5 14
usemtl c14
f 14 14 43
usemtl c42
f 14 43 5
usemtl c56
f 14 5 44
usemtl c17
f 14 44 45
usemtl c57
f 14 45 43
usemtl c10
f 43 45 5
usemtl c41
f 5 45 44
usemtl c58
f 21 46 22
usemtl c59
f 22 46 47
usemtl c42
f 22 47 48
usemtl c60
f 22 48 23
usemtl c61
f 23 48 49
f 23 49 50
usemtl c23
f 23 50 51
usemtl c62
f 23 51 52
usemtl c63
f 23 52 35
usemtl c64
f 23 35 12
usemtl c65
f 23 12 11
usemtl c66
f 46 53 47
usemtl c37
f 47 53 54
usemtl c38
f 47 54 55
usemtl c22
f 47 55 48
usemtl c67
f 48 55 56
usemtl c68
f 48 56 49
usemtl c69
f 49 56 50
usemtl c67
f 50 56 55
usemtl c70
f 50 55 51
usemtl c7
f 51 55 57
usemtl c60
f 51 57 58
usemtl c71
f 51 58 36
usemtl c26
f 51 36 35
usemtl c72
f 51 35 59
usemtl c73
f 51 59 52
usemtl c60
f 52 59 35
usemtl c40
f 36 60 37
usemtl c74
f 37 60 58
f 37 58 61
usemtl c75
f 37 61 62
usemtl c76
f 37 62 63
usemtl c77
f 37 63 46
usemtl c35
f 37 46 21
usemtl c78
f 60 64 58
usemtl c79
f 58 64 36
usemtl c10
f 36 64 60
usemtl c80
f 53 46 63
usemtl c81
f 53 63 57
usemtl c42
f 53 57 54
usemtl c82
f 54 57 55
usemtl c37
f 65 61 57
usemtl c83
f 65 57 63
usemtl c74
f 65 63 62
usemtl c84
f 65 62 61
usemtl c16
f 61 58 57
usemtl c85
f 40 42 66
usemtl c86
f 40 66 67
usemtl c87
f 40 67 68
usemtl c48
f 40 68 41
usemtl c88
f 41 68 42
usemtl c89
f 42 68 66
usemtl c90
f 66 68 69
usemtl c91
f 66 69 70
usemtl c92
f 66 70 67
usemtl c93
f 67 70 71
usemtl c94
f 67 71 69
usemtl c95
f 67 69 68
usemtl c96
f 39 42 40
usemtl c91
f 70 69 72
usemtl c97
f 70 72 71
usemtl c98
f 71 72 69
