# Made by RuneLite Model-Dumper Plugin
mtllib ladder.mtl
o Object Ladder 2026-09-13_16-36-42
v -32 21 0
v -32 14 8
v 32 14 8
v 32 21 0
v -32 14 -8
v -32 7 0
v 32 7 0
v 32 14 -8
v -32 56 0
v -32 49 8
v 32 49 8
v 32 56 0
v -32 49 -8
v -32 42 0
v 32 42 0
v 32 49 -8
v -32 93 0
v -32 86 8
v 32 86 8
v 32 93 0
v -32 86 -8
v -32 79 0
v 32 79 0
v 32 86 -8
v -32 133 0
v -32 126 8
v 32 126 8
v 32 133 0
v -32 126 -8
v -32 119 0
v 32 119 0
v 32 126 -8
v -32 175 0
v -32 168 8
v 32 168 8
v 32 175 0
v -32 168 -8
v -32 161 0
v 32 161 0
v 32 168 -8
v -32 216 0
v -32 209 8
v 32 209 8
v 32 216 0
v -32 209 -8
v -32 202 0
v 32 202 0
v 32 209 -8
v -32 0 12
v -48 0 12
v -48 0 -12
v -32 0 -12
v -32 233 12
v -48 233 12
v -48 233 -12
v -32 233 -12
v 48 0 12
v 32 0 12
v 32 0 -12
v 48 0 -12
v 48 233 12
v 32 233 12
v 32 233 -12
v 48 233 -12
v 32 233 -60
v 32 0 -60
v 32 233 60
v 63 233 58
v -71 233 58
v 63 233 -58
v 48 233 60
v 48 0 60
v 48 233 -60
v -32 233 60
v -32 0 60
v -32 233 -60
v -48 233 -60
v -48 0 -60
v -48 233 60
v -32 21 0
v -32 21 0
v -32 21 0
v -32 21 0
v -32 21 0
usemtl c0
f 1 2 3
usemtl c1
f 1 3 4
usemtl c2
f 1 4 5
usemtl c3
f 1 5 2
usemtl c4
f 2 5 6
usemtl c5
f 2 6 7
usemtl c6
f 2 7 3
usemtl c7
f 3 7 4
usemtl c8
f 4 7 8
usemtl c9
f 4 8 5
usemtl c10
f 5 8 6
usemtl c11
f 6 8 7
usemtl c0
f 9 10 11
usemtl c1
f 9 11 12
usemtl c2
f 9 12 13
usemtl c3
f 9 13 10
usemtl c4
f 10 13 14
usemtl c5
f 10 14 15
usemtl c6
f 10 15 11
usemtl c7
f 11 15 12
usemtl c8
f 12 15 16
usemtl c9
f 12 16 13
usemtl c10
f 13 16 14
usemtl c11
f 14 16 15
usemtl c0
f 17 18 19
usemtl c1
f 17 19 20
usemtl c2
f 17 20 21
usemtl c3
f 17 21 18
usemtl c4
f 18 21 22
usemtl c5
f 18 22 23
usemtl c6
f 18 23 19
usemtl c7
f 19 23 20
usemtl c8
f 20 23 24
usemtl c9
f 20 24 21
usemtl c10
f 21 24 22
usemtl c11
f 22 24 23
usemtl c0
f 25 26 27
usemtl c1
f 25 27 28
usemtl c2
f 25 28 29
usemtl c3
f 25 29 26
usemtl c4
f 26 29 30
usemtl c5
f 26 30 31
usemtl c6
f 26 31 27
usemtl c7
f 27 31 28
usemtl c8
f 28 31 32
usemtl c9
f 28 32 29
usemtl c10
f 29 32 30
usemtl c11
f 30 32 31
usemtl c0
f 33 34 35
usemtl c1
f 33 35 36
usemtl c2
f 33 36 37
usemtl c3
f 33 37 34
usemtl c4
f 34 37 38
usemtl c5
f 34 38 39
usemtl c6
f 34 39 35
usemtl c7
f 35 39 36
usemtl c8
f 36 39 40
usemtl c9
f 36 40 37
usemtl c10
f 37 40 38
usemtl c11
f 38 40 39
usemtl c0
f 41 42 43
usemtl c1
f 41 43 44
usemtl c2
f 41 44 45
usemtl c3
f 41 45 42
usemtl c4
f 42 45 46
usemtl c5
f 42 46 47
usemtl c6
f 42 47 43
usemtl c7
f 43 47 44
usemtl c8
f 44 47 48
usemtl c9
f 44 48 45
usemtl c10
f 45 48 46
usemtl c11
f 46 48 47
usemtl c12
f 49 50 51
usemtl c13
f 49 51 52
usemtl c14
f 49 52 53
f 49 53 54
f 49 54 50
f 50 54 55
f 50 55 51
f 51 55 56
f 51 56 52
f 52 56 53
f 53 56 54
f 54 56 55
usemtl c12
f 57 58 59
usemtl c13
f 57 59 60
usemtl c14
f 57 60 61
f 57 61 62
f 57 62 58
f 58 62 63
f 58 63 59
f 59 63 64
f 59 64 60
f 60 64 61
f 61 64 62
f 62 64 63
usemtl c15
f 65 66 67
f 68 69 70
