# Made by RuneLite Model-Dumper Plugin
mtllib splitbark-gauntlets.mtl
o Item Splitbark gauntlets 2026-09-24_18-04-52
v -64 0 -64
v 64 0 -64
v 64 0 64
v -64 0 64
v -22 6 -11
v -15 6 -9
v -15 0 -9
v -22 0 -11
v -26 2 -1
v -26 6 -1
v -22 6 1
v -22 2 1
v -24 0 9
v -28 2 11
v -30 2 9
v -31 0 6
v -22 2 2
v -24 9 10
v -28 7 11
v -30 7 10
v -32 9 7
v -26 6 0
v -26 2 0
v -22 6 2
v 4 6 -6
v 10 6 -9
v 10 0 -9
v 4 0 -6
v 11 2 2
v 11 6 2
v 15 6 1
v 15 2 1
v 22 0 6
v 21 2 11
v 18 2 12
v 13 0 10
v 22 9 7
v 21 8 12
v 18 8 13
v 13 9 11
v 12 6 3
v 12 2 3
usemtl c0
f 1 2 3
f 1 3 4
usemtl c1
f 5 6 7
usemtl c2
f 5 7 8
usemtl c3
f 5 8 9
usemtl c4
f 5 9 10
usemtl c5
f 5 10 6
usemtl c6
f 6 10 11
usemtl c7
f 6 11 7
usemtl c8
f 7 11 12
usemtl c9
f 7 12 8
usemtl c10
f 8 12 9
usemtl c11
f 9 12 10
usemtl c12
f 10 12 11
usemtl c13
f 13 14 15
usemtl c14
f 13 15 16
usemtl c15
f 13 16 17
usemtl c16
f 13 17 18
usemtl c17
f 13 18 19
usemtl c18
f 13 19 14
usemtl c19
f 14 19 20
usemtl c20
f 14 20 15
usemtl c19
f 15 20 21
usemtl c18
f 15 21 16
usemtl c21
f 16 21 22
usemtl c22
f 16 22 23
usemtl c23
f 16 23 17
usemtl c24
f 17 23 22
usemtl c25
f 17 22 24
usemtl c26
f 17 24 18
usemtl c27
f 18 24 22
usemtl c28
f 18 22 21
usemtl c29
f 18 21 19
usemtl c30
f 19 21 20
usemtl c31
f 25 26 27
usemtl c32
f 25 27 28
usemtl c33
f 25 28 29
usemtl c34
f 25 29 30
usemtl c35
f 25 30 26
usemtl c36
f 26 30 31
usemtl c37
f 26 31 27
usemtl c38
f 27 31 32
usemtl c39
f 27 32 28
usemtl c40
f 28 32 29
usemtl c41
f 29 32 31
usemtl c42
f 29 31 30
usemtl c43
f 33 34 35
usemtl c44
f 33 35 36
usemtl c45
f 33 36 32
usemtl c46
f 33 32 37
usemtl c47
f 33 37 38
usemtl c48
f 33 38 34
usemtl c49
f 34 38 39
usemtl c50
f 34 39 35
usemtl c51
f 35 39 40
usemtl c52
f 35 40 36
usemtl c53
f 36 40 41
usemtl c54
f 36 41 42
usemtl c55
f 36 42 32
usemtl c56
f 32 42 41
usemtl c57
f 32 41 31
usemtl c58
f 32 31 37
usemtl c59
f 37 31 41
usemtl c60
f 37 41 40
usemtl c61
f 37 40 38
usemtl c62
f 38 40 39
