# Made by RuneLite Model-Dumper Plugin
mtllib adamant-mace.mtl
o Item Adamant mace 2026-09-24_13-38-43
v 0 30 20
v -6 23 25
v 3 23 26
v 7 20 15
v -5 20 14
v -14 23 19
v -10 16 27
v -2 18 38
v 8 16 28
v 13 23 22
v 9 14 19
v 3 13 7
v -1 13 6
v -9 14 17
v -15 6 23
v -6 8 29
v 3 8 30
v 12 6 26
v -5 6 19
v -1 -1 25
v 4 6 20
v 3 10 8
v 6 3 -24
v 6 7 -24
v 2 7 -24
v -1 10 7
v 2 3 -24
v 8 1 -29
v 8 7 -30
v 2 1 -30
v 2 7 -31
usemtl c0
f 1 2 3
usemtl c1
f 1 3 4
usemtl c2
f 1 4 5
usemtl c3
f 1 5 2
usemtl c4
f 2 5 6
usemtl c5
f 2 6 7
usemtl c6
f 2 7 8
usemtl c7
f 2 8 3
usemtl c8
f 3 8 9
usemtl c7
f 3 9 10
usemtl c8
f 3 10 4
usemtl c9
f 4 10 11
usemtl c10
f 4 11 12
usemtl c2
f 4 12 5
usemtl c11
f 5 12 13
usemtl c12
f 5 13 14
usemtl c13
f 5 14 6
usemtl c14
f 6 14 7
f 7 14 15
usemtl c5
f 7 15 16
f 7 16 8
usemtl c3
f 8 16 17
usemtl c8
f 8 17 9
usemtl c15
f 9 17 18
usemtl c2
f 9 18 11
f 9 11 10
usemtl c16
f 15 19 16
usemtl c14
f 16 19 20
usemtl c17
f 16 20 17
usemtl c2
f 17 20 21
usemtl c8
f 17 21 18
usemtl c9
f 18 21 11
usemtl c18
f 11 21 22
usemtl c19
f 11 22 12
usemtl c20
f 12 22 23
usemtl c21
f 12 23 24
usemtl c22
f 12 24 25
usemtl c23
f 12 25 13
usemtl c24
f 12 13 22
usemtl c25
f 22 13 26
usemtl c26
f 22 26 23
usemtl c27
f 23 26 27
usemtl c28
f 23 27 28
usemtl c29
f 23 28 29
usemtl c30
f 23 29 24
usemtl c31
f 23 24 25
usemtl c32
f 23 25 27
usemtl c33
f 27 25 30
usemtl c34
f 27 30 28
usemtl c21
f 28 30 31
usemtl c35
f 28 31 29
usemtl c36
f 29 31 25
usemtl c37
f 29 25 24
usemtl c1
f 15 14 19
usemtl c38
f 19 14 26
usemtl c39
f 19 26 21
usemtl c40
f 19 21 20
usemtl c41
f 21 26 22
usemtl c42
f 14 13 26
usemtl c43
f 26 13 25
usemtl c44
f 26 25 27
usemtl c45
f 31 30 25
