# Made by RuneLite Model-Dumper Plugin
mtllib dragon-plateskirt.mtl
o Item Dragon plateskirt 2026-09-24_18-23-30
v 9 9 -17
v 9 1 -13
v 9 1 -17
v -19 1 -17
v -19 9 -17
v -19 9 -13
v 9 9 -13
v 11 0 -9
v 11 9 -9
v 17 5 3
v 14 0 -2
v 17 2 6
v 18 4 8
v 22 2 35
v 21 0 35
v 21 0 39
v 22 2 39
v 23 5 35
v 23 5 39
v 23 3 45
v -19 1 -13
v -21 9 -9
v -5 10 8
v 14 9 6
v 16 9 11
v 18 7 10
v 18 5 9
v 22 7 36
v 22 7 40
v -21 0 -9
v -27 5 3
v -24 9 6
v -7 10 14
v -5 10 14
v -3 10 14
v 4 10 13
v 10 10 12
v 15 9 11
v 15 11 36
v 19 9 36
v -24 0 -2
v -27 2 6
v -28 4 8
v -28 5 9
v -28 7 10
v -26 9 11
v -25 9 11
v -20 10 12
v -14 10 13
v -7 12 36
v -27 0 3
v -5 12 36
v -3 12 40
v -3 12 36
v -7 12 40
v -14 12 36
v -14 12 40
v -11 12 53
v 4 12 36
v 4 12 40
v 10 12 36
v 10 12 40
v 15 11 40
v 19 9 40
v 21 8 46
v -29 -3 39
v -31 0 39
v -31 0 35
v -29 -3 35
v -32 2 39
v -32 2 35
v -33 5 39
v -33 5 35
v -32 7 36
v -29 9 36
v -25 11 36
v -20 12 36
v -32 7 40
v -29 9 40
v -25 11 40
v -20 12 40
v 1 12 53
v 13 12 49
v -33 3 45
v -31 8 46
v -23 12 49
usemtl c0
f 1 2 3
usemtl c1
f 1 3 4
usemtl c2
f 1 4 5
usemtl c3
f 1 5 6
usemtl c4
f 1 6 7
usemtl c5
f 1 7 2
usemtl c6
f 2 7 8
usemtl c3
f 8 7 9
usemtl c1
f 8 9 10
usemtl c0
f 8 10 11
f 11 10 12
f 12 10 13
f 12 13 14
f 12 14 15
f 15 14 16
f 16 14 17
f 17 14 18
f 17 18 19
f 17 19 20
usemtl c7
f 21 6 5
usemtl c8
f 21 5 4
usemtl c9
f 7 6 22
usemtl c10
f 7 22 9
usemtl c11
f 9 22 23
usemtl c12
f 9 23 24
usemtl c2
f 9 24 10
usemtl c13
f 10 24 25
usemtl c14
f 10 25 26
usemtl c5
f 10 26 27
usemtl c0
f 10 27 13
f 13 27 14
f 14 27 18
f 18 27 28
usemtl c15
f 18 28 29
usemtl c16
f 18 29 19
usemtl c17
f 30 22 6
usemtl c18
f 30 6 21
usemtl c19
f 22 30 31
usemtl c20
f 22 31 32
usemtl c21
f 22 32 23
usemtl c22
f 23 32 33
usemtl c23
f 23 33 34
f 23 34 35
usemtl c24
f 23 35 24
usemtl c25
f 24 35 36
usemtl c26
f 24 36 37
usemtl c27
f 24 37 38
usemtl c28
f 24 38 25
usemtl c12
f 25 38 39
usemtl c29
f 25 39 40
usemtl c30
f 25 40 26
usemtl c31
f 26 40 28
usemtl c0
f 26 28 27
usemtl c32
f 30 41 31
usemtl c33
f 31 41 42
usemtl c34
f 31 42 43
usemtl c35
f 31 43 44
f 31 44 45
usemtl c36
f 31 45 46
usemtl c37
f 31 46 32
usemtl c38
f 32 46 47
usemtl c39
f 32 47 48
usemtl c23
f 32 48 49
usemtl c40
f 32 49 33
usemtl c41
f 33 49 50
usemtl c42
f 33 50 34
usemtl c23
f 33 34 23
usemtl c43
f 51 42 41
usemtl c40
f 52 53 54
usemtl c44
f 52 54 35
f 52 35 34
usemtl c42
f 52 34 50
usemtl c40
f 52 50 55
usemtl c23
f 55 50 56
usemtl c22
f 55 56 57
usemtl c45
f 55 57 58
usemtl c23
f 59 54 53
usemtl c22
f 59 53 60
usemtl c46
f 59 60 61
usemtl c7
f 59 61 37
f 59 37 36
usemtl c41
f 59 36 54
f 54 36 35
usemtl c47
f 60 62 61
usemtl c27
f 61 62 39
usemtl c20
f 61 39 38
usemtl c19
f 61 38 37
usemtl c48
f 62 63 39
usemtl c49
f 39 63 40
usemtl c50
f 40 63 64
usemtl c51
f 40 64 28
usemtl c52
f 28 64 29
usemtl c30
f 29 64 65
usemtl c53
f 66 67 68
usemtl c54
f 66 68 69
usemtl c55
f 68 67 70
f 68 70 71
usemtl c48
f 68 71 43
usemtl c56
f 68 43 42
usemtl c57
f 71 70 72
f 71 72 73
usemtl c58
f 71 73 43
f 43 73 44
usemtl c59
f 44 73 45
f 45 73 74
usemtl c60
f 45 74 46
usemtl c61
f 46 74 75
usemtl c19
f 46 75 47
f 47 75 76
usemtl c62
f 47 76 77
usemtl c63
f 47 77 48
usemtl c44
f 48 77 49
f 49 77 56
usemtl c41
f 49 56 50
usemtl c64
f 72 78 74
usemtl c57
f 72 74 73
usemtl c65
f 75 74 78
usemtl c66
f 75 78 79
usemtl c67
f 75 79 76
usemtl c68
f 76 79 80
usemtl c69
f 76 80 81
usemtl c38
f 76 81 77
usemtl c39
f 77 81 56
usemtl c70
f 56 81 57
usemtl c45
f 60 53 82
usemtl c71
f 63 62 83
usemtl c72
f 70 84 72
usemtl c73
f 85 79 78
usemtl c74
f 86 81 80
