# Made by RuneLite Model-Dumper Plugin
mtllib steel-sword.mtl
o Item Steel sword 2026-09-24_13-26-02
v 8 0 -16
v 7 0 -20
v 7 5 -20
v 8 5 -16
v -4 0 -19
v 0 0 -23
v 0 5 -23
v -4 5 -19
v 1 3 -18
v 4 3 -17
v 4 2 -17
v 1 2 -18
v -5 3 36
v 1 3 37
v 1 2 37
v -5 2 36
v -4 3 45
v 1 4 -28
v 1 5 -33
v 1 0 -33
v 1 1 -28
v 1 1 -22
v 1 4 -22
v 4 4 -21
v 5 4 -28
v 5 5 -32
v 5 0 -32
v 5 1 -28
v 4 1 -21
usemtl c0
f 1 2 3
usemtl c1
f 1 3 4
usemtl c2
f 1 4 5
usemtl c3
f 1 5 2
f 2 5 6
usemtl c4
f 2 6 7
usemtl c5
f 2 7 3
usemtl c6
f 3 7 4
usemtl c7
f 4 7 8
usemtl c8
f 4 8 5
usemtl c9
f 5 8 6
usemtl c10
f 6 8 7
usemtl c11
f 9 10 11
usemtl c12
f 9 11 12
usemtl c13
f 9 12 13
usemtl c14
f 9 13 10
usemtl c15
f 10 13 14
usemtl c16
f 10 14 15
usemtl c17
f 10 15 11
usemtl c18
f 11 15 12
usemtl c19
f 12 15 16
usemtl c20
f 12 16 13
usemtl c21
f 13 16 17
usemtl c22
f 13 17 14
usemtl c23
f 14 17 15
usemtl c24
f 15 17 16
usemtl c25
f 18 19 20
usemtl c26
f 18 20 21
usemtl c27
f 18 21 22
f 18 22 23
usemtl c28
f 18 23 24
usemtl c29
f 18 24 25
usemtl c30
f 18 25 26
usemtl c31
f 18 26 19
usemtl c32
f 19 26 27
usemtl c33
f 19 27 20
usemtl c34
f 20 27 28
usemtl c35
f 20 28 21
usemtl c36
f 26 25 28
usemtl c37
f 26 28 27
usemtl c38
f 29 28 25
usemtl c39
f 29 25 24
