# Made by RuneLite Model-Dumper Plugin
mtllib mystic-robe-bottom.mtl
o Item Mystic robe bottom 2026-09-24_18-00-39
v 37 11 -36
v 34 1 -32
v 36 0 -35
v 15 0 -50
v 15 11 -51
v 13 11 -47
v 35 11 -33
v 29 -1 -21
v 32 13 -21
v 28 -1 -16
v 16 -1 15
v 19 16 9
v 12 -1 25
v 13 17 21
v 5 9 44
v 2 -1 42
v -1 -1 47
v 0 9 50
v -4 3 61
v 13 1 -46
v 4 -1 -38
v 4 12 -40
v 18 13 -31
v 0 17 -4
v -7 20 6
v -16 21 31
v -10 21 32
v 5 17 42
v 1 18 48
v -2 15 59
v 26 6 -25
v 24 6 -26
v 4 13 -40
v 11 6 -35
v 9 6 -36
v 0 -1 -35
v -20 16 -16
v -24 -1 -12
v -32 -1 -4
v -29 17 -7
v -47 9 9
v -51 9 16
v -49 18 15
v -45 17 9
v -44 -1 11
v -47 -1 16
v -58 3 24
v -32 21 25
v -30 21 19
v -26 21 24
v -15 21 36
v -10 21 50
v -17 24 49
v -58 15 22
v -47 21 26
v -52 23 25
v -43 24 32
v -7 23 55
usemtl c0
f 1 2 3
usemtl c1
f 1 3 4
usemtl c2
f 1 4 5
usemtl c3
f 1 5 6
usemtl c4
f 1 6 7
usemtl c5
f 1 7 2
usemtl c6
f 2 7 8
usemtl c7
f 8 7 9
usemtl c8
f 8 9 10
usemtl c9
f 10 9 11
usemtl c10
f 11 9 12
f 11 12 13
usemtl c11
f 13 12 14
usemtl c12
f 13 14 15
usemtl c13
f 13 15 16
usemtl c14
f 16 15 17
f 17 15 18
usemtl c15
f 17 18 19
usemtl c16
f 20 6 5
usemtl c17
f 6 20 21
usemtl c18
f 6 21 22
usemtl c19
f 6 22 23
usemtl c20
f 6 23 7
usemtl c21
f 7 23 9
usemtl c22
f 9 23 24
usemtl c23
f 9 24 12
usemtl c24
f 12 24 25
usemtl c25
f 12 25 14
usemtl c20
f 14 25 26
usemtl c26
f 14 26 27
usemtl c27
f 14 27 28
usemtl c28
f 14 28 15
usemtl c29
f 15 28 18
usemtl c30
f 18 28 29
usemtl c31
f 18 29 30
usemtl c32
f 31 32 9
usemtl c33
f 32 31 10
usemtl c34
f 33 34 35
usemtl c35
f 35 34 36
usemtl c36
f 37 38 39
f 37 39 40
f 37 40 25
f 37 25 24
usemtl c37
f 37 24 22
f 37 22 38
usemtl c38
f 38 22 36
usemtl c21
f 36 22 21
usemtl c39
f 41 42 43
usemtl c40
f 41 43 44
usemtl c41
f 41 44 40
usemtl c42
f 41 40 39
usemtl c43
f 41 39 45
usemtl c44
f 41 45 42
usemtl c45
f 42 45 46
usemtl c46
f 42 46 47
usemtl c39
f 44 43 48
usemtl c47
f 44 48 49
usemtl c41
f 44 49 40
usemtl c48
f 40 49 50
usemtl c49
f 40 50 25
usemtl c50
f 25 50 26
usemtl c51
f 27 51 29
usemtl c52
f 27 29 28
usemtl c53
f 26 51 27
usemtl c54
f 49 48 50
usemtl c55
f 52 29 51
usemtl c56
f 52 51 53
usemtl c57
f 42 54 43
usemtl c58
f 55 43 56
usemtl c59
f 43 55 48
usemtl c60
f 48 55 57
usemtl c61
f 58 29 52
usemtl c37
f 24 23 22
