# Blender 5.2.0 LTS
# www.blender.org
mtllib fletch.mtl
o Object_Workbench_2026-09-24_20-22-01
v 108.000000 122.000000 -40.000015
v 108.000000 122.000000 -44.000015
v 104.000000 122.000000 -44.000015
v 104.000000 122.000000 -40.000015
v 40.000000 122.000000 -40.000015
v 40.000000 122.000000 -44.000015
v 36.000000 122.000000 -44.000015
v 36.000000 122.000000 -40.000015
v 108.000000 122.000000 11.999981
v 108.000000 122.000000 7.999982
v 104.000000 122.000000 7.999982
v 104.000000 122.000000 11.999981
v 40.000000 122.000000 11.999981
v 40.000000 122.000000 7.999982
v 36.000000 122.000000 7.999982
v 36.000000 122.000000 11.999981
v 112.000000 121.000000 15.999981
v 112.000000 121.000000 -48.000015
v 32.000000 121.000000 -48.000015
v 32.000000 121.000000 15.999981
v -56.000000 152.000000 -40.000023
v -96.000000 152.000000 -40.000023
v -96.000000 152.000000 -32.000023
v -56.000000 152.000000 -32.000023
v -56.000000 120.000000 -40.000015
v -96.000000 120.000000 -40.000015
v -96.000000 120.000000 -32.000015
v -56.000000 120.000000 -32.000015
v -68.000000 132.000000 -40.000023
v -68.000000 124.000000 -40.000015
v -68.000000 123.999985 -56.000015
v -68.000000 132.000000 -56.000023
v -72.000000 136.000000 -40.000023
v -72.000000 136.000000 -56.000023
v -80.000000 136.000000 -40.000023
v -80.000000 136.000000 -56.000023
v -84.000000 132.000000 -40.000023
v -84.000000 132.000000 -56.000023
v -84.000000 124.000000 -40.000015
v -84.000000 123.999985 -56.000015
v -80.000000 120.000000 -40.000015
v -80.000000 119.999985 -56.000015
v -72.000000 120.000000 -40.000015
v -72.000000 119.999985 -56.000015
v -56.000000 152.000000 -64.000031
v -96.000000 152.000000 -64.000031
v -96.000000 152.000000 -56.000023
v -56.000000 152.000000 -56.000023
v -56.000000 119.999985 -64.000015
v -96.000000 119.999985 -64.000015
v -96.000000 119.999985 -56.000015
v -56.000000 119.999985 -56.000015
v -68.000000 132.000000 -64.000015
v -68.000000 123.999985 -64.000015
v -68.000000 123.999985 -88.000015
v -68.000000 132.000000 -88.000015
v -72.000000 136.000000 -64.000015
v -72.000000 136.000000 -88.000015
v -80.000000 136.000000 -64.000015
v -80.000000 136.000000 -88.000015
v -84.000000 132.000000 -64.000015
v -84.000000 132.000000 -88.000015
v -84.000000 123.999985 -64.000015
v -84.000000 123.999985 -88.000015
v -80.000000 119.999985 -64.000015
v -80.000000 119.999985 -88.000015
v -72.000000 119.999985 -88.000015
v -72.000000 119.999985 -64.000015
v -72.000000 119.999985 -72.000015
v -72.000000 87.999985 -72.000015
v -72.000000 87.999985 -80.000015
v -72.000000 119.999985 -80.000015
v -80.000000 87.999985 -80.000015
v -80.000000 119.999985 -80.000015
v -80.000000 87.999985 -72.000015
v -80.000000 119.999985 -72.000015
v -66.000000 214.000000 32.999969
v -66.000000 206.000000 32.999969
v -62.000000 206.000000 38.999969
v -62.000000 214.000000 38.999969
v -63.000000 218.000000 30.999966
v -63.000000 202.000000 30.999969
v -59.000000 202.000000 36.999969
v -52.000000 202.000000 31.999969
v -49.000000 206.000000 29.999969
v -49.000000 214.000000 29.999969
v -52.000000 218.000000 31.999966
v -59.000000 218.000000 36.999969
v -56.000000 218.000000 26.999966
v -53.000000 214.000000 23.999969
v -53.000000 206.000000 23.999969
v -56.000000 202.000000 26.999969
v -63.000000 136.000000 30.999981
v -56.000000 136.000000 26.999981
v -56.000000 238.000000 26.999966
v -63.000000 238.000000 30.999966
v -67.000000 136.000000 23.999981
v -67.000000 238.000000 23.999966
v -60.000000 136.000000 19.999981
v -60.000000 238.000000 19.999966
v -12.000000 212.000000 -1.000032
v -12.000000 208.000000 -1.000032
v -52.000000 208.000000 25.999969
v -52.000000 212.000000 25.999969
v -9.000000 212.000000 2.999968
v -9.000000 208.000000 2.999968
v -49.000000 208.000000 28.999969
v -49.000000 212.000000 28.999969
v -45.000000 120.000000 28.999981
v -58.000000 120.000000 8.999983
v -59.000000 136.000000 13.999980
v -50.000000 136.000000 27.999981
v -65.000000 120.000000 41.999985
v -64.000000 136.000000 36.999977
v -78.000000 120.000000 21.999981
v -73.000000 136.000000 22.999981
v 112.000000 -0.000008 -48.000000
v 112.000000 104.000000 -48.000015
v 112.000000 104.000000 47.999985
v 112.000000 0.000008 48.000000
v 0.000000 104.000000 47.999985
v 0.000000 0.000008 48.000000
v -112.000000 104.000000 47.999985
v -112.000000 0.000008 48.000000
v -112.000000 104.000000 -48.000015
v -112.000000 -0.000008 -48.000000
v 0.000000 104.000000 -48.000015
v 0.000000 -0.000008 -48.000000
v 128.000000 119.999985 -64.000015
v -128.000000 119.999985 -64.000015
v -128.000000 120.000015 63.999985
v 128.000000 120.000015 63.999985
v 128.000000 95.999985 -64.000015
v -128.000000 95.999985 -64.000015
v -128.000000 96.000015 63.999985
v 128.000000 38.999992 -64.000000
v -128.000000 38.999992 -64.000000
v 128.000000 96.000015 63.999985
vn -0.0000 1.0000 -0.0000
vn -1.0000 -0.0000 -0.0000
vn -0.8682 -0.0000 0.4961
vn -0.8184 0.2174 0.5320
vn -0.8197 0.2228 0.5277
vn -0.8192 0.2203 0.5295
vn -0.8199 0.2233 0.5271
vn 1.0000 -0.0000 -0.0000
vn -0.0000 -0.0000 -1.0000
vn -0.0000 -0.0000 1.0000
vn 0.7071 -0.7071 -0.0000
vn 0.7071 0.7071 -0.0000
vn 0.5374 0.7255 -0.4299
vn 0.5810 -0.0291 0.8134
vn -0.7071 0.7071 -0.0000
vn -0.8321 -0.0000 0.5547
vn -0.7071 -0.7071 -0.0000
vn 0.8682 -0.0000 -0.4961
vn 0.8192 0.2203 -0.5295
vn 0.8184 0.2174 -0.5320
vn 0.8197 0.2228 -0.5277
vn 0.8199 0.2233 -0.5271
vn 0.8321 -0.0000 -0.5547
vn 0.5810 -0.6681 -0.4648
vn 0.6180 0.6695 -0.4120
vn -0.6180 -0.6695 0.4120
vn -0.6180 0.6695 0.4120
vn 0.5812 0.0097 0.8137
vn -0.4961 -0.0000 -0.8682
vn -0.5595 -0.0000 -0.8288
vn -0.0000 -1.0000 -0.0000
vn -0.5320 0.2174 -0.8184
vn -0.5277 0.2227 -0.8197
vn -0.5295 0.2203 -0.8192
vn -0.5271 0.2233 -0.8199
vn -0.5547 -0.0000 -0.8321
vn 0.4961 -0.0000 0.8682
vn 0.5450 -0.0000 0.8384
vn 0.5320 0.2174 0.8184
vn 0.5277 0.2227 0.8197
vn 0.5295 0.2203 0.8192
vn 0.5271 0.2233 0.8199
vn 0.5547 -0.0000 0.8321
vn 0.5651 -0.0099 0.8249
vn 0.5647 -0.0109 0.8253
vn 0.5691 -0.0005 0.8222
vn 0.5691 0.0158 0.8221
vn 0.5692 -0.0000 0.8222
vn -0.4779 0.2688 -0.8363
vn -0.5735 -0.0000 -0.8192
vn -0.6415 -0.0902 -0.7618
vn 0.5767 -0.7209 -0.3845
vn 0.8000 -0.0000 -0.6000
vn -0.7071 -0.0000 0.7071
s 1
usemtl c0
f 1//1 2//1 3//1
f 1//1 3//1 4//1
f 5//1 6//1 7//1
f 5//1 7//1 8//1
f 9//1 10//1 11//1
f 9//1 11//1 12//1
f 13//1 14//1 15//1
f 13//1 15//1 16//1
f 39//2 38//2 40//2
f 93//3 96//3 97//3
f 97//3 96//3 98//3
f 113//4 114//5 115//6
f 115//6 114//5 116//7
usemtl c1
f 17//1 18//1 19//1
f 17//1 19//1 20//1
usemtl c2
f 21//1 22//1 23//1
f 21//1 23//1 24//1
f 45//1 46//1 47//1
f 45//1 47//1 48//1
usemtl c3
f 21//8 24//8 25//8
f 21//9 25//9 22//9
f 22//9 25//9 26//9
f 24//8 28//8 25//8
f 45//8 48//8 49//8
f 45//9 49//9 46//9
f 46//9 49//9 50//9
f 48//8 52//8 49//8
usemtl c4
f 22//2 26//2 27//2
f 22//2 27//2 23//2
f 23//10 27//10 24//10
f 24//10 27//10 28//10
f 46//2 50//2 51//2
f 46//2 51//2 47//2
f 47//10 51//10 48//10
f 48//10 51//10 52//10
usemtl c5
f 29//8 30//8 31//8
f 30//11 44//11 31//11
f 53//8 54//8 55//8
f 53//8 55//8 56//8
f 67//9 56//9 55//9
f 67//11 55//11 54//11
f 67//11 54//11 68//11
usemtl c6
f 29//8 31//8 32//8
usemtl c7
f 29//12 32//12 33//12
usemtl c8
f 33//12 32//12 34//12
f 66//9 64//9 56//9
f 90//13 89//13 87//13
usemtl c9
f 33//1 34//1 35//1
f 59//1 58//1 60//1
usemtl c10
f 35//1 34//1 36//1
f 80//14 87//14 88//14
usemtl c11
f 35//15 36//15 37//15
usemtl c12
f 37//15 36//15 38//15
f 77//16 79//16 80//16
usemtl c13
f 37//2 38//2 39//2
usemtl c14
f 39//17 40//17 41//17
usemtl c15
f 41//17 40//17 42//17
f 61//2 62//2 63//2
usemtl c16
f 30//11 43//11 44//11
f 99//18 100//18 94//18
f 94//18 100//18 95//18
f 109//19 110//20 111//21
f 109//19 111//21 112//22
usemtl c17
f 53//12 56//12 57//12
f 91//23 86//23 85//23
usemtl c18
f 57//12 56//12 58//12
f 92//24 85//24 84//24
f 90//25 87//25 86//25
usemtl c19
f 57//1 58//1 59//1
usemtl c20
f 59//15 60//15 61//15
f 63//2 62//2 64//2
f 78//26 82//26 83//26
f 80//27 88//27 81//27
usemtl c21
f 61//15 60//15 62//15
f 80//28 83//28 84//28
usemtl c22
f 63//17 64//17 65//17
f 77//27 80//27 81//27
usemtl c23
f 65//17 64//17 66//17
usemtl c24
f 66//9 56//9 67//9
usemtl c25
f 56//9 64//9 62//9
usemtl c26
f 56//9 62//9 60//9
f 97//29 98//29 99//29
f 99//29 98//29 100//29
f 101//30 102//30 103//30
f 101//30 103//30 104//30
f 102//31 106//31 107//31
f 102//31 107//31 103//31
f 115//32 116//33 110//34
f 110//34 116//33 111//35
usemtl c27
f 56//9 60//9 58//9
usemtl c28
f 69//8 70//8 71//8
f 72//9 73//9 74//9
usemtl c29
f 69//8 71//8 72//8
f 72//9 71//9 73//9
f 78//36 81//36 82//36
f 93//37 94//37 95//37
f 93//37 95//37 96//37
f 105//38 108//38 106//38
f 106//38 108//38 107//38
f 109//39 112//40 113//41
f 113//41 112//40 114//42
usemtl c30
f 74//2 73//2 75//2
f 76//10 70//10 69//10
usemtl c31
f 74//2 75//2 76//2
f 76//10 75//10 70//10
usemtl c32
f 77//16 78//16 79//16
usemtl c33
f 77//36 81//36 78//36
usemtl c34
f 78//26 83//26 79//26
f 79//43 83//43 80//43
usemtl c35
f 80//44 84//45 85//46
f 80//47 86//47 87//47
usemtl c36
f 80//44 85//46 86//48
usemtl c37
f 81//1 88//1 89//1
usemtl c38
f 81//49 89//49 90//49
usemtl c39
f 81//50 90//50 91//50
f 81//51 91//51 92//51
usemtl c40
f 81//29 92//29 82//29
usemtl c41
f 92//52 91//52 85//52
f 91//23 90//23 86//23
usemtl c42
f 89//1 88//1 87//1
usemtl c43
f 95//1 100//1 96//1
f 96//1 100//1 98//1
f 101//1 104//1 105//1
f 104//1 108//1 105//1
f 111//1 116//1 112//1
f 112//1 116//1 114//1
usemtl c44
f 101//53 105//53 102//53
f 102//53 105//53 106//53
usemtl c45
f 103//54 107//54 104//54
f 104//54 107//54 108//54
usemtl c46
f 117//8 118//8 119//8
f 117//8 119//8 120//8
f 120//10 119//10 121//10
f 120//10 121//10 122//10
f 122//10 121//10 123//10
f 122//10 123//10 124//10
f 124//2 123//2 125//2
f 124//2 125//2 126//2
f 126//9 125//9 127//9
f 126//9 127//9 128//9
f 128//9 127//9 118//9
f 128//9 118//9 117//9
f 129//1 130//1 131//1
f 129//1 131//1 132//1
f 129//8 132//8 133//8
f 129//9 133//9 134//9
f 129//9 134//9 130//9
f 135//2 131//2 130//2
f 135//2 130//2 134//2
f 131//10 135//10 138//10
f 131//10 138//10 132//10
f 132//8 138//8 133//8
usemtl c47
f 117//8 118//8 120//8
f 129//1 130//1 132//1
l 136 137
