# Made by RuneLite Model-Dumper Plugin
mtllib bread.mtl
o Item Bread 2026-09-12_20-39-06
v -4 6 -24
v -10 6 -20
v -8 10 -18
v 4 6 -24
v 4 0 -24
v -4 0 -24
v -10 0 -20
v -12 6 -10
v -8 10 -10
v 8 10 -18
v 10 6 -20
v 10 0 -20
v 4 6 24
v 10 6 20
v 8 10 18
v -4 6 24
v -4 0 24
v 4 0 24
v 10 0 20
v 12 6 10
v 8 10 10
v -8 10 18
v -10 6 20
v -10 0 20
v 12 0 10
v 12 6 4
v 8 10 6
v -8 10 14
v -12 6 12
v -12 0 12
v 12 0 4
v 12 6 -4
v 8 10 -2
v 8 10 2
v 8 6 2
v 8 6 6
v -8 6 14
v -8 6 10
v -8 10 10
v -12 6 4
v -12 0 4
v 12 0 -4
v 12 6 -12
v 8 10 -10
v 8 10 -6
v 8 6 -6
v 8 6 -2
v -8 10 6
v -8 10 -2
v -8 10 2
v 8 6 -10
v -8 6 -2
v -12 6 -4
v -8 6 2
v -8 6 6
v -8 6 -6
v 8 6 -14
v 8 10 -14
v -8 10 -6
v -12 0 -10
v -12 0 -4
v 12 0 -12
usemtl c0
f 1 2 3
usemtl c1
f 1 3 4
usemtl c2
f 1 4 5
usemtl c3
f 1 5 6
usemtl c4
f 1 6 2
usemtl c0
f 2 6 7
usemtl c5
f 2 7 8
usemtl c6
f 2 8 3
usemtl c7
f 3 8 9
usemtl c8
f 3 9 10
usemtl c9
f 3 10 4
usemtl c10
f 4 10 11
usemtl c11
f 4 11 12
usemtl c12
f 4 12 5
usemtl c13
f 5 12 7
usemtl c14
f 5 7 6
usemtl c15
f 13 14 15
usemtl c16
f 13 15 16
usemtl c17
f 13 16 17
usemtl c18
f 13 17 18
usemtl c19
f 13 18 14
usemtl c20
f 14 18 19
usemtl c21
f 14 19 20
usemtl c22
f 14 20 15
usemtl c23
f 15 20 21
usemtl c19
f 15 21 22
usemtl c24
f 15 22 16
usemtl c25
f 16 22 23
usemtl c26
f 16 23 24
usemtl c27
f 16 24 17
usemtl c28
f 17 24 18
usemtl c29
f 18 24 19
usemtl c30
f 19 24 25
usemtl c31
f 19 25 20
usemtl c32
f 20 25 26
usemtl c33
f 20 26 21
usemtl c14
f 21 26 27
usemtl c34
f 21 27 28
usemtl c35
f 21 28 22
usemtl c36
f 22 28 29
usemtl c37
f 22 29 23
usemtl c27
f 23 29 30
usemtl c38
f 23 30 24
usemtl c39
f 24 30 25
usemtl c40
f 25 30 31
usemtl c31
f 25 31 26
usemtl c41
f 26 31 32
usemtl c42
f 26 32 33
usemtl c43
f 26 33 34
usemtl c44
f 26 34 35
usemtl c45
f 26 35 36
usemtl c46
f 26 36 27
usemtl c47
f 27 36 28
usemtl c48
f 28 36 37
usemtl c49
f 28 37 29
usemtl c44
f 29 37 38
usemtl c28
f 29 38 39
usemtl c50
f 29 39 40
usemtl c51
f 29 40 41
usemtl c52
f 29 41 30
usemtl c53
f 30 41 31
usemtl c54
f 31 41 42
usemtl c55
f 31 42 32
usemtl c56
f 32 42 43
usemtl c57
f 32 43 44
usemtl c43
f 32 44 45
usemtl c44
f 32 45 46
usemtl c45
f 32 46 47
usemtl c9
f 32 47 33
usemtl c48
f 33 47 48
usemtl c58
f 33 48 34
usemtl c19
f 34 48 39
usemtl c5
f 34 39 38
f 34 38 35
usemtl c15
f 35 38 36
usemtl c59
f 36 38 37
usemtl c19
f 49 50 45
usemtl c58
f 49 45 44
usemtl c48
f 49 44 51
f 49 51 52
usemtl c45
f 49 52 53
usemtl c60
f 49 53 50
usemtl c61
f 50 53 40
usemtl c52
f 50 40 54
usemtl c5
f 50 54 45
f 45 54 46
usemtl c15
f 46 54 47
usemtl c59
f 47 54 55
usemtl c48
f 47 55 48
usemtl c45
f 48 55 40
usemtl c60
f 48 40 39
usemtl c59
f 56 52 51
usemtl c15
f 56 51 57
usemtl c5
f 56 57 58
usemtl c62
f 56 58 59
usemtl c63
f 56 59 53
usemtl c64
f 56 53 52
usemtl c44
f 58 10 9
usemtl c65
f 58 9 59
usemtl c7
f 59 9 53
usemtl c66
f 53 9 8
usemtl c67
f 53 8 60
usemtl c36
f 53 60 61
usemtl c68
f 53 61 40
usemtl c63
f 40 61 41
usemtl c69
f 41 61 42
usemtl c54
f 42 61 62
usemtl c70
f 42 62 43
usemtl c71
f 43 62 11
usemtl c32
f 43 11 10
usemtl c72
f 43 10 58
usemtl c64
f 43 58 57
usemtl c73
f 43 57 51
usemtl c14
f 43 51 44
usemtl c64
f 55 54 40
usemtl c74
f 62 12 11
usemtl c75
f 12 62 60
usemtl c76
f 12 60 7
usemtl c77
f 7 60 8
usemtl c78
f 61 60 62
