# Made by RuneLite Model-Dumper Plugin
mtllib monkfish.mtl
o Item Monkfish 2026-09-13_16-42-15
v -35 13 5
v -44 17 18
v -40 28 22
v -31 20 3
v -39 14 -7
v -41 0 -9
v -20 10 -5
v -15 0 -3
v -28 0 8
v -37 2 24
v -48 19 34
v -45 23 39
v -43 28 44
v -41 28 33
v -40 34 22
v -28 29 8
v -20 18 -1
v -22 8 -17
v -31 8 -24
v -46 12 -15
v -49 0 -19
v -35 0 -28
v -26 0 -22
v 3 29 34
v -9 34 48
v -9 28 48
v 8 20 36
v 10 18 25
v -2 26 8
v -13 34 21
v -24 35 35
v -38 30 51
v -30 28 55
v -19 28 51
v -4 17 52
v 7 13 40
v 20 14 42
v 26 8 23
v 14 10 24
v 20 8 3
v 17 12 0
v 3 12 -12
v -41 23 48
v -24 23 57
v -19 19 59
v -11 2 46
v 3 0 34
v 11 0 19
v 32 0 26
v 22 0 44
v 29 12 46
v 36 8 31
v 0 8 -14
v 3 0 -12
v 19 5 -27
v 21 3 -25
v 34 4 -35
v 33 5 -36
v 38 5 -41
v 39 2 -40
v 39 5 -40
v 35 5 -34
v 29 5 -18
v 27 3 -20
v 17 0 0
v -26 19 36
v -19 19 42
v -23 25 41
v -31 25 35
v -32 19 31
v -32 10 35
v -23 10 43
v -33 9 45
v -29 8 58
v -24 13 58
v -39 5 52
v -24 0 35
v 21 8 -25
v 34 7 -35
v 39 9 -40
v 46 8 -49
v 46 5 -49
v 46 3 -49
v 27 8 -20
v 48 5 -51
v 39 0 34
v 33 0 50
v -47 13 39
v -46 8 44
v -43 11 48
v -34 23 53
v -34 11 55
v -44 20 42
v -27 20 56
v -47 15 42
v -27 15 58
usemtl c0
f 1 2 3
usemtl c1
f 1 3 4
usemtl c2
f 1 4 5
usemtl c3
f 1 5 6
usemtl c4
f 1 6 7
usemtl c5
f 1 7 8
usemtl c6
f 1 8 9
usemtl c7
f 1 9 10
usemtl c8
f 1 10 2
usemtl c9
f 2 10 11
usemtl c10
f 2 11 12
usemtl c11
f 2 12 13
usemtl c12
f 2 13 14
usemtl c13
f 2 14 3
usemtl c14
f 3 14 15
usemtl c15
f 3 15 16
usemtl c16
f 3 16 4
usemtl c17
f 4 16 17
usemtl c18
f 4 17 5
usemtl c17
f 5 17 18
usemtl c19
f 5 18 19
usemtl c20
f 5 19 20
usemtl c21
f 5 20 6
usemtl c22
f 6 20 21
usemtl c23
f 21 20 19
usemtl c24
f 21 19 22
usemtl c25
f 22 19 23
usemtl c26
f 23 19 18
usemtl c27
f 23 18 7
usemtl c28
f 23 7 6
usemtl c29
f 24 25 26
usemtl c30
f 24 26 27
usemtl c31
f 24 27 28
usemtl c32
f 24 28 29
usemtl c33
f 24 29 30
usemtl c34
f 24 30 25
usemtl c35
f 25 30 31
usemtl c36
f 25 31 32
usemtl c11
f 25 32 33
usemtl c37
f 25 33 34
usemtl c14
f 25 34 26
usemtl c38
f 26 34 35
usemtl c39
f 26 35 36
usemtl c40
f 26 36 27
usemtl c41
f 27 36 37
usemtl c42
f 27 37 28
usemtl c43
f 28 37 38
usemtl c44
f 28 38 39
usemtl c45
f 28 39 40
usemtl c46
f 28 40 41
usemtl c32
f 28 41 29
usemtl c47
f 29 41 42
usemtl c48
f 29 42 17
usemtl c49
f 29 17 16
usemtl c50
f 29 16 30
usemtl c51
f 30 16 15
usemtl c52
f 30 15 31
usemtl c53
f 31 15 32
usemtl c12
f 32 15 13
usemtl c54
f 32 13 43
usemtl c10
f 35 33 44
usemtl c0
f 35 44 45
usemtl c55
f 35 45 46
usemtl c56
f 35 46 36
usemtl c57
f 36 46 47
usemtl c58
f 36 47 48
usemtl c24
f 36 48 39
usemtl c59
f 36 39 49
usemtl c60
f 36 49 50
usemtl c61
f 36 50 37
usemtl c62
f 37 50 51
usemtl c63
f 37 51 52
usemtl c59
f 37 52 38
usemtl c27
f 38 52 49
usemtl c64
f 38 49 39
usemtl c65
f 13 15 14
usemtl c66
f 7 17 53
usemtl c67
f 7 53 8
usemtl c68
f 8 53 54
usemtl c69
f 54 53 55
f 54 55 56
usemtl c70
f 56 55 57
usemtl c71
f 57 55 58
usemtl c72
f 57 58 59
usemtl c73
f 57 59 60
usemtl c74
f 57 60 61
usemtl c71
f 57 61 62
usemtl c75
f 57 62 63
usemtl c76
f 57 63 64
usemtl c77
f 64 63 65
f 65 63 40
usemtl c78
f 65 40 48
f 48 40 39
usemtl c79
f 66 67 68
usemtl c80
f 66 68 69
usemtl c81
f 66 69 70
usemtl c82
f 66 70 71
usemtl c83
f 66 71 72
usemtl c79
f 66 72 67
usemtl c84
f 67 72 45
usemtl c85
f 67 45 68
usemtl c86
f 68 45 44
usemtl c87
f 68 44 33
usemtl c88
f 71 73 72
usemtl c87
f 72 73 74
usemtl c88
f 72 74 75
usemtl c89
f 72 75 45
usemtl c90
f 45 75 46
usemtl c91
f 46 75 74
f 46 74 76
usemtl c92
f 46 76 77
usemtl c93
f 46 77 47
usemtl c94
f 17 42 53
usemtl c95
f 53 42 78
usemtl c33
f 53 78 55
usemtl c96
f 55 78 79
usemtl c97
f 55 79 58
usemtl c30
f 58 79 59
usemtl c98
f 59 79 80
f 59 80 81
usemtl c42
f 59 81 82
usemtl c99
f 59 82 83
f 59 83 60
usemtl c73
f 60 83 61
f 61 83 82
usemtl c100
f 61 82 81
usemtl c30
f 61 81 80
f 61 80 79
usemtl c101
f 61 79 62
usemtl c102
f 62 79 63
usemtl c103
f 63 79 84
usemtl c31
f 63 84 41
usemtl c66
f 63 41 40
usemtl c42
f 85 81 82
usemtl c99
f 85 82 83
f 85 83 82
usemtl c42
f 85 82 81
usemtl c30
f 41 84 78
usemtl c96
f 41 78 42
usemtl c104
f 78 84 79
usemtl c25
f 49 52 86
usemtl c75
f 86 52 87
usemtl c105
f 87 52 51
usemtl c22
f 87 51 50
usemtl c106
f 11 88 71
usemtl c107
f 11 71 70
usemtl c108
f 11 70 69
usemtl c109
f 11 69 12
usemtl c88
f 12 69 13
usemtl c110
f 89 76 73
usemtl c111
f 89 73 71
usemtl c87
f 89 71 88
usemtl c112
f 89 88 10
f 89 10 76
usemtl c113
f 89 76 90
usemtl c110
f 73 76 74
usemtl c23
f 77 10 9
usemtl c114
f 10 77 76
usemtl c115
f 18 17 7
usemtl c37
f 35 34 33
usemtl c116
f 32 91 33
usemtl c113
f 74 92 76
usemtl c117
f 12 93 13
usemtl c118
f 33 94 44
usemtl c119
f 10 88 11
usemtl c120
f 89 95 88
usemtl c121
f 75 96 74
