# Made by RuneLite Model-Dumper Plugin
mtllib dragon-sword.mtl
o Item Dragon sword 2026-09-24_13-25-48
v 27 3 30
v 30 3 27
v 30 1 27
v 27 1 30
v 29 -1 37
v 29 5 37
v 22 3 20
v 20 3 23
v 20 1 23
v 36 -1 29
v 36 5 29
v 22 1 20
v 23 1 18
v 23 3 18
v 21 4 22
v 18 3 24
v 18 1 24
v 21 0 22
v 14 1 21
v 13 1 27
v 10 1 23
v 14 3 21
v 10 3 23
v 17 5 18
v 13 3 14
v 10 3 18
v 9 2 18
v 13 2 21
v 10 1 18
v 17 -1 18
v 13 1 14
v 20 1 15
v 20 3 15
v 17 3 11
v 7 3 9
v 5 3 11
v 5 2 11
v 5 1 11
v -23 2 -14
v -22 3 -15
v -34 2 -32
v -22 1 -15
v 7 1 9
v 17 1 11
v 17 2 10
v 20 2 14
v -20 1 -18
v -17 1 -21
v 10 1 6
v 10 2 6
v 10 3 6
v -20 3 -18
v -17 3 -21
v -16 2 -22
v 26 3 14
v 26 1 14
v 22 1 11
v 22 3 11
v 27 1 11
v 27 3 11
v 23 3 8
v 13 3 27
v 11 3 28
v 11 1 28
v 8 1 24
v 8 3 24
v 23 1 8
usemtl c0
f 1 2 3
usemtl c1
f 1 3 4
usemtl c2
f 1 4 5
usemtl c3
f 1 5 6
usemtl c4
f 1 6 2
usemtl c5
f 1 2 7
usemtl c6
f 1 7 8
usemtl c7
f 1 8 4
usemtl c8
f 4 8 9
usemtl c9
f 4 9 3
usemtl c10
f 4 3 10
usemtl c11
f 4 10 5
usemtl c12
f 5 10 6
usemtl c13
f 6 10 11
usemtl c14
f 6 11 2
usemtl c15
f 2 11 3
usemtl c16
f 2 3 12
usemtl c17
f 2 12 7
usemtl c15
f 7 12 13
usemtl c18
f 7 13 14
usemtl c19
f 7 14 15
usemtl c20
f 7 15 8
usemtl c21
f 8 15 16
usemtl c22
f 8 16 9
usemtl c23
f 9 16 17
usemtl c24
f 9 17 18
usemtl c25
f 9 18 12
usemtl c26
f 9 12 3
usemtl c27
f 11 10 3
usemtl c28
f 19 18 17
usemtl c29
f 19 17 20
usemtl c10
f 19 20 21
usemtl c30
f 19 21 22
usemtl c24
f 22 21 23
usemtl c31
f 22 23 16
usemtl c32
f 22 16 15
usemtl c33
f 22 15 24
usemtl c22
f 22 24 25
usemtl c34
f 22 25 26
usemtl c35
f 22 26 27
f 22 27 28
usemtl c36
f 28 27 29
usemtl c37
f 28 29 19
usemtl c38
f 28 19 30
usemtl c8
f 30 19 31
usemtl c39
f 30 31 32
f 30 32 18
usemtl c8
f 30 18 19
usemtl c40
f 33 15 14
usemtl c41
f 33 14 32
usemtl c18
f 32 14 13
usemtl c42
f 32 13 18
usemtl c43
f 18 13 12
usemtl c7
f 33 24 15
usemtl c24
f 24 33 25
usemtl c44
f 25 33 34
usemtl c45
f 25 34 35
usemtl c46
f 25 35 36
usemtl c47
f 25 36 26
usemtl c48
f 26 36 37
usemtl c49
f 26 37 27
usemtl c50
f 27 37 38
usemtl c51
f 27 38 29
usemtl c52
f 29 38 31
usemtl c53
f 29 31 19
usemtl c48
f 39 37 36
usemtl c54
f 39 36 40
usemtl c55
f 39 40 41
usemtl c56
f 39 41 42
usemtl c57
f 39 42 37
usemtl c58
f 37 42 38
usemtl c59
f 38 42 43
usemtl c60
f 38 43 31
usemtl c61
f 31 43 44
usemtl c62
f 31 44 32
usemtl c63
f 32 44 45
usemtl c64
f 32 45 46
usemtl c65
f 32 46 30
usemtl c66
f 42 47 43
usemtl c67
f 43 47 48
usemtl c68
f 43 48 49
usemtl c69
f 43 49 44
usemtl c70
f 44 49 50
usemtl c71
f 44 50 45
usemtl c72
f 45 50 51
usemtl c68
f 45 51 34
usemtl c69
f 45 34 46
usemtl c73
f 46 34 33
usemtl c74
f 41 40 52
usemtl c75
f 41 52 53
usemtl c76
f 41 53 54
usemtl c77
f 41 54 48
usemtl c78
f 41 48 47
usemtl c60
f 41 47 42
usemtl c79
f 40 36 35
usemtl c80
f 40 35 52
usemtl c81
f 52 35 53
usemtl c82
f 53 35 51
usemtl c65
f 53 51 50
usemtl c62
f 53 50 54
usemtl c83
f 54 50 49
usemtl c84
f 54 49 48
usemtl c85
f 35 34 51
usemtl c86
f 55 56 57
usemtl c6
f 55 57 58
usemtl c87
f 55 58 33
usemtl c88
f 55 33 14
usemtl c89
f 55 14 56
usemtl c18
f 55 56 59
usemtl c15
f 55 59 60
usemtl c90
f 55 60 58
usemtl c91
f 58 60 61
usemtl c92
f 58 61 57
usemtl c93
f 58 57 32
usemtl c14
f 58 32 33
usemtl c42
f 13 32 57
usemtl c94
f 13 57 56
usemtl c89
f 13 56 14
usemtl c95
f 23 62 16
usemtl c96
f 16 62 17
usemtl c97
f 17 62 20
usemtl c98
f 20 62 63
usemtl c99
f 20 63 64
usemtl c28
f 20 64 21
usemtl c1
f 21 64 65
usemtl c100
f 21 65 23
usemtl c29
f 23 65 66
f 23 66 62
usemtl c101
f 62 66 63
f 63 66 65
usemtl c102
f 63 65 64
usemtl c103
f 60 59 67
usemtl c104
f 60 67 61
usemtl c87
f 61 67 57
usemtl c94
f 57 67 56
usemtl c105
f 56 67 59
