# Made by RuneLite Model-Dumper Plugin
mtllib rock.mtl
o Object Rock 2026-09-12_21-04-07
v -3 24 -40
v 32 24 -25
v 44 1 -24
v 3 0 -44
v -30 21 -34
v -25 40 -13
v 3 47 -23
v 26 43 -16
v 47 1 3
v -37 1 -20
v -41 1 3
v -32 1 -39
v -28 53 3
v 8 44 -9
v 15 43 7
v 30 43 7
v 22 47 12
v 39 1 24
v 7 53 19
v 16 1 31
v -4 53 25
v -11 1 45
v -18 55 20
v -36 1 25
v -30 46 18
v -17 57 8
v -34 2 -78
v -30 2 -72
v 8 2 -76
v -71 2 -25
v -74 2 -28
v -78 2 12
v 92 2 -18
v 81 2 -18
v 69 2 32
v 46 2 -69
v 55 2 -74
v 14 2 -92
v -60 2 30
v -62 2 -2
v -67 2 36
v -36 2 65
v -37 2 74
v 11 2 69
v 37 2 93
v 33 2 88
v 2 2 94
v 84 2 45
v 87 2 51
v 97 2 16
v -66 1 -31
v -60 1 -29
v -35 1 -52
v -64 1 25
v -68 1 24
v -49 1 55
v 53 1 -55
v 46 1 -49
v 64 1 -8
v -5 1 -67
v -1 1 -75
v -39 1 -66
v -27 1 58
v -46 1 36
v -29 1 66
v 7 1 70
v 11 1 77
v 43 1 48
v 73 1 51
v 68 1 50
v 49 1 70
v 81 1 -6
v 86 1 -4
v 75 1 -33
usemtl c0
f 1 2 3
usemtl c1
f 1 3 4
usemtl c2
f 1 4 5
usemtl c3
f 1 5 6
usemtl c4
f 1 6 7
usemtl c5
f 1 7 8
usemtl c6
f 1 8 2
usemtl c7
f 2 8 9
usemtl c8
f 2 9 3
usemtl c9
f 10 11 6
usemtl c10
f 10 6 5
usemtl c11
f 10 5 12
usemtl c12
f 12 5 4
usemtl c13
f 11 13 6
usemtl c14
f 6 13 14
usemtl c15
f 6 14 7
usemtl c16
f 7 14 8
usemtl c17
f 8 14 15
usemtl c18
f 8 15 16
usemtl c19
f 8 16 9
usemtl c20
f 9 16 17
usemtl c21
f 9 17 18
usemtl c22
f 18 17 19
usemtl c23
f 18 19 20
usemtl c24
f 20 19 21
usemtl c25
f 20 21 22
usemtl c26
f 22 21 23
usemtl c27
f 22 23 24
usemtl c28
f 24 23 25
usemtl c29
f 24 25 11
usemtl c30
f 11 25 13
usemtl c13
f 13 25 26
usemtl c31
f 13 26 14
usemtl c32
f 14 26 15
usemtl c33
f 15 26 19
usemtl c34
f 15 19 17
usemtl c35
f 15 17 16
usemtl c36
f 26 25 23
usemtl c37
f 26 23 19
usemtl c38
f 19 23 21
usemtl c39
f 27 28 29
f 28 27 30
f 30 27 31
f 30 31 32
f 33 34 35
f 34 33 36
f 36 33 37
f 36 37 38
f 39 40 41
f 39 41 42
f 42 41 43
f 42 43 44
f 45 46 47
f 46 45 48
f 48 45 49
f 48 49 50
f 51 52 53
f 52 51 54
f 54 51 55
f 54 55 56
f 57 58 59
f 58 57 60
f 60 57 61
f 60 61 62
f 63 64 65
f 63 65 66
f 66 65 67
f 66 67 68
f 69 70 71
f 70 69 72
f 72 69 73
f 72 73 74
