# Made by RuneLite Model-Dumper Plugin
mtllib orb.mtl
o ware
v -6 9 -2
v -8 13 4
v 1 13 8
v 3 9 2
v 3 8 -4
v 0 8 -6
v -6 4 -2
v -12 4 2
v -12 9 2
v -10 13 7
v -1 13 12
v 3 9 13
v 4 9 10
v 3 4 2
v 3 6 -4
v 8 4 -8
v 8 9 -8
v -1 9 -12
v 0 6 -6
v -8 0 4
v -14 4 6
v -14 9 6
v -12 9 11
v -3 9 15
v 3 4 13
v 4 4 10
v 1 0 8
v -1 0 12
v -10 0 7
v -12 4 11
v -3 4 15
v -1 4 -12
usemtl c0
f 1 2 3
usemtl c1
f 1 3 4
usemtl c2
f 1 4 5
usemtl c3
f 1 5 6
usemtl c4
f 1 6 7
usemtl c5
f 1 7 8
usemtl c6
f 1 8 9
usemtl c7
f 1 9 2
usemtl c8
f 2 9 10
usemtl c9
f 2 10 3
usemtl c10
f 3 10 11
usemtl c11
f 3 11 12
usemtl c12
f 3 12 13
usemtl c13
f 3 13 4
usemtl c14
f 4 13 14
usemtl c15
f 4 14 15
usemtl c16
f 4 15 5
usemtl c17
f 5 15 16
usemtl c18
f 5 16 17
usemtl c19
f 5 17 6
usemtl c20
f 6 17 18
usemtl c21
f 6 18 19
usemtl c22
f 6 19 7
usemtl c7
f 7 19 14
usemtl c23
f 7 14 20
usemtl c24
f 7 20 8
usemtl c11
f 8 20 21
usemtl c25
f 8 21 9
usemtl c26
f 9 21 22
f 9 22 10
usemtl c27
f 10 22 23
usemtl c28
f 10 23 11
usemtl c27
f 11 23 24
usemtl c29
f 11 24 12
usemtl c30
f 12 24 25
usemtl c31
f 12 25 26
usemtl c32
f 12 26 13
usemtl c14
f 13 26 14
usemtl c33
f 14 26 27
usemtl c34
f 14 27 20
usemtl c35
f 20 27 28
usemtl c36
f 20 28 29
usemtl c37
f 20 29 21
usemtl c38
f 21 29 30
usemtl c39
f 21 30 22
usemtl c40
f 22 30 23
f 23 30 24
usemtl c41
f 24 30 31
usemtl c42
f 24 31 25
usemtl c10
f 25 31 28
usemtl c43
f 25 28 26
usemtl c44
f 26 28 27
usemtl c45
f 31 30 29
usemtl c20
f 31 29 28
usemtl c46
f 19 18 32
usemtl c47
f 19 32 15
usemtl c17
f 19 15 14
usemtl c48
f 15 32 16
usemtl c8
f 16 32 18
usemtl c49
f 16 18 17
