# Made by RuneLite Model-Dumper Plugin
mtllib dragon-platelegs.mtl
o Item Dragon platelegs 2026-09-24_18-23-35
v 6 4 39
v 12 4 39
v 12 13 41
v 6 13 41
v 1 3 15
v 1 23 13
v 3 4 13
v 3 20 11
v 3 21 -2
v 3 7 1
v 3 5 -3
v 1 3 -12
v 1 23 -13
v 1 2 -14
v 1 23 -15
v 1 2 -23
v 1 23 -25
v 1 2 -25
v 1 23 -27
v 1 2 -31
v 1 22 -31
v 0 3 -33
v 17 3 -33
v 18 2 -32
v 18 22 -36
v 19 23 -27
v 19 2 -25
v 19 2 -23
v 19 23 -25
v 17 23 -15
v 17 2 -14
v 17 3 -12
v 17 23 -13
v 15 22 -5
v 15 4 -5
v 15 7 1
v 15 21 -2
v 16 20 11
v 16 4 13
v 18 3 16
v 18 23 13
v 13 26 6
v 5 26 7
v 5 24 6
v 17 21 -38
v 1 22 -33
v 0 21 -38
v -1 22 -33
v -1 22 -31
v -1 2 -31
v -18 2 -32
v -17 3 -33
v -18 22 -36
v -17 21 -38
v -15 2 -38
v -13 20 -51
v -13 4 -51
v -13 20 -55
v -13 4 -55
v 13 4 -55
v 13 4 -51
v 13 20 -55
v 13 20 -51
v 15 2 -38
v -12 4 39
v -6 4 39
v -6 13 41
v -12 13 41
v -18 23 13
v -18 3 16
v -16 4 13
v -16 20 11
v -15 21 -2
v -15 7 1
v -15 4 -5
v -15 22 -5
v -17 23 -13
v -17 3 -12
v -17 2 -14
v -17 23 -15
v -19 23 -25
v -19 2 -23
v -19 2 -25
v -19 23 -27
v -3 20 11
v -3 21 -2
v -13 24 5
v -5 24 6
v -1 23 13
v -1 3 15
v -3 4 13
v -3 7 1
v -3 5 -3
v -1 23 -13
v 13 24 5
v -5 26 7
v -13 26 6
v -1 23 -25
v -1 23 -15
v -1 2 -14
v -1 2 -23
v -1 23 -27
v -1 3 -12
v -1 2 -25
usemtl c0
f 1 2 3
usemtl c1
f 1 3 4
usemtl c2
f 1 4 5
usemtl c3
f 5 4 6
usemtl c4
f 5 6 7
usemtl c5
f 7 6 8
usemtl c6
f 7 8 9
usemtl c7
f 7 9 10
usemtl c8
f 10 9 11
usemtl c9
f 11 9 12
usemtl c10
f 12 9 13
usemtl c8
f 12 13 14
usemtl c1
f 14 13 15
usemtl c11
f 14 15 16
usemtl c12
f 16 15 17
usemtl c13
f 16 17 18
usemtl c7
f 18 17 19
usemtl c14
f 18 19 20
usemtl c15
f 20 19 21
usemtl c16
f 20 21 22
usemtl c17
f 20 22 23
usemtl c18
f 20 23 24
usemtl c19
f 24 23 25
usemtl c20
f 24 25 26
usemtl c21
f 24 26 27
usemtl c22
f 27 26 28
usemtl c23
f 28 26 29
usemtl c24
f 28 29 30
usemtl c25
f 28 30 31
usemtl c19
f 31 30 32
usemtl c26
f 32 30 33
usemtl c27
f 32 33 34
usemtl c28
f 32 34 35
usemtl c29
f 35 34 36
usemtl c23
f 36 34 37
usemtl c29
f 36 37 38
usemtl c30
f 36 38 39
usemtl c22
f 39 38 40
usemtl c31
f 40 38 41
usemtl c32
f 40 41 2
usemtl c33
f 2 41 3
usemtl c34
f 3 41 4
usemtl c35
f 4 41 6
usemtl c36
f 6 41 42
usemtl c37
f 6 42 43
usemtl c38
f 6 43 8
usemtl c39
f 8 43 44
usemtl c40
f 8 44 38
usemtl c27
f 8 38 9
usemtl c41
f 9 38 37
usemtl c42
f 9 37 34
usemtl c5
f 9 34 13
usemtl c43
f 13 34 33
usemtl c44
f 13 33 15
usemtl c41
f 15 33 30
usemtl c45
f 15 30 17
usemtl c46
f 17 30 29
usemtl c47
f 17 29 19
usemtl c48
f 19 29 26
usemtl c49
f 19 26 21
usemtl c50
f 21 26 25
f 21 25 45
usemtl c51
f 21 45 46
usemtl c52
f 21 46 22
usemtl c53
f 22 46 47
usemtl c54
f 22 47 48
usemtl c55
f 22 48 49
usemtl c27
f 22 49 50
usemtl c56
f 22 50 51
usemtl c1
f 22 51 52
usemtl c57
f 52 51 53
usemtl c58
f 52 53 54
usemtl c35
f 52 54 55
usemtl c59
f 55 54 56
usemtl c60
f 55 56 57
usemtl c61
f 57 56 58
usemtl c62
f 57 58 59
usemtl c25
f 57 59 60
usemtl c63
f 57 60 61
usemtl c30
f 61 60 62
usemtl c22
f 61 62 63
usemtl c64
f 61 63 64
usemtl c65
f 64 63 45
usemtl c21
f 64 45 23
usemtl c20
f 23 45 25
usemtl c40
f 65 66 67
usemtl c17
f 65 67 68
usemtl c66
f 65 68 69
usemtl c67
f 65 69 70
usemtl c68
f 70 69 71
usemtl c69
f 71 69 72
usemtl c70
f 71 72 73
usemtl c1
f 71 73 74
usemtl c8
f 74 73 75
usemtl c71
f 75 73 76
usemtl c72
f 75 76 77
usemtl c9
f 75 77 78
usemtl c73
f 78 77 79
usemtl c36
f 79 77 80
usemtl c74
f 79 80 81
usemtl c75
f 79 81 82
usemtl c76
f 82 81 83
usemtl c77
f 83 81 84
usemtl c78
f 83 84 53
usemtl c79
f 83 53 51
usemtl c19
f 62 60 59
usemtl c20
f 62 59 58
usemtl c65
f 62 58 56
usemtl c64
f 62 56 63
usemtl c80
f 63 56 47
usemtl c81
f 63 47 45
usemtl c82
f 45 47 46
usemtl c83
f 85 86 73
usemtl c27
f 85 73 72
usemtl c81
f 85 72 87
usemtl c31
f 85 87 88
usemtl c23
f 85 88 89
f 85 89 90
usemtl c22
f 85 90 91
usemtl c30
f 85 91 92
usemtl c84
f 85 92 86
f 86 92 93
usemtl c85
f 86 93 94
usemtl c86
f 86 94 77
usemtl c59
f 86 77 76
usemtl c87
f 86 76 73
usemtl c88
f 38 44 95
usemtl c31
f 38 95 41
usemtl c89
f 41 95 42
usemtl c61
f 42 95 44
usemtl c90
f 42 44 43
usemtl c33
f 69 89 96
usemtl c91
f 69 96 97
usemtl c92
f 69 97 72
usemtl c93
f 72 97 87
usemtl c94
f 87 97 96
usemtl c95
f 87 96 88
usemtl c65
f 88 96 89
usemtl c82
f 67 89 69
usemtl c96
f 67 69 68
usemtl c97
f 67 90 89
usemtl c17
f 90 67 66
usemtl c98
f 98 99 100
usemtl c25
f 98 100 101
usemtl c84
f 98 101 102
usemtl c98
f 98 102 84
usemtl c99
f 98 84 81
usemtl c100
f 98 81 99
usemtl c35
f 99 81 80
usemtl c41
f 99 80 94
usemtl c23
f 99 94 103
usemtl c29
f 99 103 100
usemtl c56
f 80 77 94
usemtl c19
f 101 104 102
usemtl c65
f 102 104 49
usemtl c101
f 102 49 53
usemtl c91
f 102 53 84
usemtl c95
f 94 93 103
usemtl c102
f 49 104 50
usemtl c103
f 53 49 54
usemtl c101
f 54 49 48
usemtl c104
f 54 48 47
usemtl c105
f 54 47 56
