# Made by RuneLite Model-Dumper Plugin
mtllib armour-salesman.mtl
o NPC Armour salesman 2026-09-13_16-26-59
v 2 174 17
v 0 166 16
v 6 169 13
v 3 166 9
v 10 175 9
v 10 174 7
v -2 174 17
v -6 169 13
v -3 166 9
v -10 175 9
v -10 174 7
v 17 160 4
v 17 160 -4
v 7 162 -4
v 7 161 8
v 16 157 9
v 20 149 10
v 18 141 8
v 18 141 -8
v 14 154 -12
v 0 160 -9
v -7 162 -4
v -14 154 -12
v -17 160 -4
v -17 160 4
v -7 161 8
v -16 157 9
v 0 159 12
v 4 149 15
v 16 149 16
v 14 143 12
v 18 133 8
v 16 133 -4
v 10 133 -10
v 0 150 -13
v -10 133 -10
v -18 141 -8
v -18 141 8
v -20 149 10
v -16 149 16
v -4 149 16
v 0 148 12
v 0 145 12
v 14 139 12
v 12 137 14
v 14 127 10
v 16 125 8
v 16 129 -4
v 10 129 -10
v 0 133 -11
v 0 137 -11
v -10 129 -10
v -16 129 -4
v -16 133 -4
v -18 133 8
v -14 143 12
v 5 153 14
v 3 149 15
v 7 149 15
v -5 153 14
v -7 149 15
v -3 149 15
v 0 136 14
v -2 132 14
v 2 132 14
v 5 129 13
v 3 125 13
v 7 125 13
v -5 129 13
v -7 125 13
v -3 125 13
v 5 142 14
v 3 138 14
v 7 138 14
v -5 142 14
v -7 138 14
v -3 138 14
v -13 135 11
v -15 131 9
v -11 131 11
v 12 131 11
v 16 131 9
v 14 135 11
v 0 124 12
v -2 120 12
v 2 120 12
v 18 132 5
v 17 128 7
v 17 128 3
v 17 133 -2
v 16 129 0
v 12 133 -8
v 14 129 -6
v -14 129 -6
v -12 133 -8
v 2 133 -11
v -2 133 -11
v 6 135 -10
v 8 131 -10
v 4 131 -10
v -5 135 -10
v -3 131 -10
v -7 131 -10
v 2 156 -11
v -2 156 -11
v -5 150 -13
v -3 146 -12
v -7 146 -12
v 5 150 -13
v 7 146 -12
v 3 146 -12
v 0 145 -12
v 2 141 -12
v -2 141 -12
v -9 157 -10
v -7 153 -12
v -11 153 -12
v 9 157 -10
v 11 153 -12
v 7 153 -12
v -13 153 14
v -15 149 15
v -11 149 15
v 6 155 13
v 10 155 13
v 8 158 11
v 11 149 15
v 15 149 15
v 13 153 14
v -8 158 11
v -10 155 13
v -6 155 13
v -16 129 0
v -17 133 -2
v -17 128 3
v -17 128 7
v -18 132 5
v -14 139 12
v -12 137 14
v 0 141 14
v -10 121 12
v 10 121 12
v 8 135 14
v -8 135 14
v -14 127 10
v -17 114 10
v -10 113 13
v 0 117 10
v 10 113 13
v 17 114 10
v 0 139 12
v -16 125 8
v -21 115 0
v -21 115 -8
v -9 115 -15
v 9 115 -15
v 21 115 -8
v 21 115 0
v 11 121 -5
v 8 121 8
v 11 112 8
v 13 112 -8
v -11 121 -5
v -8 133 -3
v 8 133 -3
v 6 133 6
v -8 121 8
v -11 112 8
v -13 112 -8
v -6 133 6
v -7 118 -17
v -3 117 -17
v -5 116 -17
v -11 118 -17
v -14 118 -17
v -11 119 -17
v -10 121 -17
v -5 120 -17
v -4 124 -17
v -2 122 -17
v -1 120 -17
v -2 117 -17
v 3 109 -17
v 1 108 -17
v -2 109 -17
v -6 113 -17
v -10 115 -17
v -14 110 -17
v -18 110 -17
v -20 110 -17
v -13 104 -17
v -16 102 -17
v -18 102 -17
v -8 97 -17
v -11 95 -17
v -13 95 -17
v -6 95 -17
v -11 92 -17
v -13 94 -17
v -14 93 -17
v 3 106 -17
v 2 101 -17
v -4 94 -17
v -11 90 -17
v -2 129 -17
v 0 125 -17
v 1 124 -17
v 6 129 -17
v 4 126 -17
v 4 123 -17
v 11 119 -17
v 8 119 -17
v 13 122 -17
v 7 133 -17
v 14 126 -17
v 15 124 -17
v 13 117 -17
v 4 107 -17
v 3 113 -17
v 17 122 -17
v 20 122 -17
v 15 115 -17
v 8 108 -17
v 6 106 -17
v -8 123 -17
v -7 124 -17
v -4 131 -17
v 4 104 -17
v 3 97 -17
v 4 99 -17
v 11 91 -17
v 9 94 -17
v 11 96 -17
v 9 99 -17
v 13 98 -17
v 11 101 -17
v 21 101 -17
v 17 101 -17
v 12 108 -17
v 11 106 -17
v -14 122 -17
v -8 128 -17
v -7 129 -17
v -15 130 -17
v -17 134 -17
v -9 113 -17
v -12 108 -17
v -11 104 -17
v -8 100 -17
v 16 128 -17
v -16 120 -17
v -23 170 9
v -17 165 2
v -22 173 2
v -28 172 8
v -28 171 9
v -23 168 10
v -18 161 9
v -16 161 8
v -14 162 7
v -14 164 2
v -17 165 -5
v -22 172 -5
v -28 174 -1
v -30 174 3
v -29 173 6
v -30 173 6
v -28 169 9
v -23 166 10
v -18 159 10
v -15 159 9
v -13 161 6
v -13 163 2
v -15 164 -5
v -13 161 -8
v -14 159 -10
v -15 159 -11
v -17 160 -10
v -23 169 -11
v -28 172 -9
v -30 174 -5
v -29 174 -1
v -31 174 3
v 0 152 16
v -7 151 15
v 0 150 15
v 7 151 15
v 5 153 16
v 5 156 15
v 0 156 15
v -5 156 15
v -5 153 16
v -8 155 15
v -12 156 13
v -14 154 12
v -6 149 14
v 0 148 15
v 6 149 14
v 14 154 12
v 12 156 13
v 8 155 15
v 8 156 15
v 8 157 13
v 0 157 13
v -8 157 13
v -8 156 15
v -12 157 12
v 23 170 9
v 22 173 2
v 17 165 2
v 18 161 9
v 23 168 10
v 28 171 9
v 28 172 8
v 29 173 6
v 30 174 3
v 28 174 -1
v 22 172 -5
v 17 165 -5
v 14 164 2
v 14 162 7
v 16 161 8
v 18 159 10
v 23 166 10
v 28 169 9
v 30 173 6
v 31 174 3
v 29 174 -1
v 30 174 -5
v 28 172 -9
v 23 169 -11
v 17 160 -10
v 15 159 -11
v 14 159 -10
v 13 161 -8
v 15 164 -5
v 13 163 2
v 13 161 6
v 15 159 9
v 15 158 10
v 18 158 10
v 19 158 9
v 23 165 -12
v 27 168 -11
v 30 171 -1
v 31 171 6
v 32 172 3
v 31 174 -5
v 29 172 -9
v 27 170 -11
v 23 167 -12
v 17 158 -11
v 14 157 -12
v 13 158 -11
v 12 160 -8
v 14 163 -5
v 8 161 -6
v 4 161 1
v 0 161 9
v 7 158 11
v 13 160 6
v 14 159 8
v 12 157 12
v 18 157 11
v 19 144 13
v 18 143 13
v 14 143 14
v 15 155 11
v 14 143 15
v 18 143 14
v 21 108 11
v 19 108 12
v 13 109 14
v 13 143 15
v 13 109 15
v 19 108 13
v 21 86 11
v 19 84 13
v 13 79 15
v 11 109 17
v -18 157 11
v -15 155 11
v -14 143 14
v -18 143 13
v -19 144 13
v -19 158 9
v -18 143 14
v -14 143 15
v -18 158 10
v -17 156 -11
v -23 165 -12
v -17 158 -11
v -15 155 -12
v -17 93 -15
v -22 93 -14
v -17 93 -14
v -18 129 -20
v -13 151 -15
v -11 149 -15
v -12 93 -15
v -23 62 -17
v -25 61 -16
v -23 61 -16
v -12 93 -14
v -15 129 -20
v -13 129 -20
v -17 107 -20
v -15 107 -20
v -20 107 -20
v -23 67 -25
v -20 67 -25
v -23 107 -20
v -26 67 -25
v -31 33 -27
v -28 31 -27
v -13 109 14
v -19 108 12
v -21 108 11
v -19 108 13
v -13 109 15
v -13 143 15
v -11 109 17
v -13 79 15
v -19 84 13
v -21 86 11
v -11 78 17
v 11 78 17
v -24 29 -28
v -17 67 -25
v -20 129 -20
v -21 28 -28
v 18 129 -20
v 13 151 -15
v 15 129 -20
v 20 107 -20
v 23 107 -20
v 20 129 -20
v 17 156 -11
v 15 155 -12
v 11 149 -15
v 13 129 -20
v 17 107 -20
v 23 67 -25
v 20 67 -25
v 28 31 -27
v 31 33 -27
v 26 67 -25
v 15 107 -20
v 17 67 -25
v 24 29 -28
v 21 28 -28
v -20 26 -23
v -24 20 -21
v -20 19 -24
v -7 23 -27
v -7 64 -19
v -18 64 -19
v -24 27 -20
v -30 28 -19
v -30 21 -19
v -24 27 -21
v -20 26 -24
v -7 23 -28
v -7 17 -28
v 0 21 -28
v 0 64 -19
v 0 93 -14
v -5 93 -14
v 0 15 -30
v 7 17 -28
v 7 23 -27
v 7 64 -19
v 5 93 -14
v 0 146 -15
v 20 26 -23
v 20 19 -24
v 24 20 -21
v 24 27 -20
v 23 61 -16
v 18 64 -19
v 7 23 -28
v 20 26 -24
v 24 27 -21
v 30 28 -19
v 25 61 -16
v 22 93 -14
v 17 93 -14
v 12 93 -14
v 0 113 -16
v -9 151 -15
v 0 149 -15
v 9 151 -15
v 17 93 -15
v 12 93 -15
v 5 93 -15
v 0 93 -15
v -5 93 -15
v 30 21 -19
v 4 179 17
v 6 180 17
v 1 180 17
v 4 178 17
v 8 176 15
v 8 181 12
v 6 183 17
v 3 183 17
v 3 181 17
v 0 183 18
v 0 179 19
v 0 175 20
v 8 177 10
v 8 179 8
v 8 177 8
v 9 179 8
v 9 178 4
v 8 175 9
v 8 174 7
v 8 178 4
v 8 171 2
v 5 170 -2
v -5 170 -2
v -8 171 2
v -8 174 7
v -8 178 4
v -9 178 4
v -8 175 9
v -8 177 8
v -9 179 8
v -8 179 8
v -8 177 10
v -8 181 12
v -8 176 15
v -6 180 17
v -6 183 17
v -7 185 17
v -3 184 19
v 0 185 17
v 3 184 19
v 7 185 17
v -1 180 17
v -4 179 17
v -4 178 17
v -3 183 17
v -3 181 17
v 11 164 2
v 11 160 -7
v 13 160 7
v 12 167 13
v 12 174 14
v 11 179 17
v 10 183 5
v 0 181 -8
v 5 165 -12
v 6 159 -13
v 6 165 -16
v 14 163 0
v 14 159 16
v 10 157 14
v 9 159 16
v 16 167 13
v 16 174 14
v 14 179 17
v 3 184 23
v 5 187 18
v 0 192 1
v -10 183 5
v -11 164 2
v -5 165 -12
v -6 159 -13
v -6 165 -16
v -6 178 -12
v 6 178 -12
v 6 185 -8
v 12 185 5
v -13 160 7
v -12 167 13
v -9 159 16
v -10 157 14
v -14 159 16
v -14 163 0
v -11 160 -7
v -6 185 -8
v -3 183 -12
v 3 183 -12
v 3 186 -14
v 6 195 5
v 6 190 20
v -4 184 23
v -5 187 18
v -11 179 17
v -12 174 14
v -16 167 13
v -14 179 17
v -16 174 14
v -6 190 20
v -12 185 5
v -6 195 5
v 3 197 -6
v -3 197 -6
v -3 186 -14
v -4 161 1
v -7 158 11
v 0 158 12
v -7 64 -20
v -18 64 -20
v 0 21 -29
v 7 64 -20
v 18 64 -20
v 23 62 -17
v 0 64 -20
v 0 162 -6
v 0 157 -13
v -5 158 -13
v -8 161 -6
v 5 158 -13
v 0 155 -14
v -6 156 -14
v -12 157 -11
v -12 160 -8
v -14 163 -5
v -15 158 10
v -14 159 8
v -13 160 6
v -23 167 -12
v -14 157 -12
v -13 158 -11
v -27 168 -11
v -27 170 -11
v -29 172 -9
v -31 174 -5
v -30 171 -1
v -32 172 3
v -31 171 6
v -32 172 -5
v -30 170 -9
v 6 156 -14
v 12 157 -11
v 30 170 -9
v 32 172 -5
v -23 130 -11
v -32 137 -11
v -20 136 -11
v -23 127 -5
v -22 124 1
v -22 121 -11
v -33 122 -11
v -31 131 -11
v -31 129 -4
v -32 132 0
v -31 141 3
v -31 146 -8
v -19 145 -9
v -20 131 0
v -33 125 1
v -32 115 1
v -25 115 1
v -25 112 -3
v -32 112 -3
v -16 160 0
v -28 157 -1
v -16 157 8
v -17 138 4
v -17 144 -10
v -33 145 -10
v -28 153 6
v -33 139 4
v 22 122 4
v 33 123 4
v 31 128 -1
v 23 126 -1
v 23 128 -8
v 22 120 -8
v 25 111 -2
v 25 113 3
v 32 113 3
v 33 121 -9
v 31 130 -7
v 32 135 -8
v 32 133 2
v 20 132 3
v 20 134 -9
v 32 111 -2
v 17 139 6
v 33 140 6
v 28 154 6
v 16 158 6
v 16 160 -1
v 17 142 -9
v 33 143 -9
v 28 156 -2
v -19 140 2
v 19 143 -8
v 31 144 -8
v 31 142 4
v 19 141 4
v 32 101 2
v 27 101 2
v 24 108 -3
v 34 108 -3
v 32 102 6
v 27 102 6
v 24 112 5
v 34 112 5
v -34 110 -4
v -24 110 -4
v -27 103 2
v -32 103 2
v -34 114 4
v -24 114 4
v -27 105 5
v -32 105 5
v 32 101 2
v 35 95 2
v 27 95 2
v 27 101 2
v 27 102 6
v 32 102 6
v 35 96 11
v 33 93 10
v 33 92 5
v 30 92 6
v 27 96 11
v 30 92 11
v -31 105 6
v -26 105 5
v -27 103 2
v -32 103 3
v -35 97 4
v -33 99 13
v -25 99 11
v -27 97 2
v -29 94 7
v -32 95 7
v -31 97 12
v -28 96 11
v -35 75 -10
v -30 96 6
v -31 99 3
v -36 80 -15
v -43 59 -61
v -43 56 -58
v -28 75 -11
v -26 96 5
v -29 80 -16
v -27 99 2
v -40 59 -61
v -42 40 -65
v -39 56 -59
v -21 162 50
v -22 166 48
v -28 121 26
v -27 115 31
v -17 162 49
v -16 168 65
v -18 166 47
v -20 121 24
v -30 104 8
v -29 101 10
v -19 115 29
v -25 101 9
v -26 104 7
v 23 109 10
v 24 101 -1
v 24 96 1
v 23 104 13
v 40 110 14
v 40 106 16
v 41 94 -1
v 41 100 -4
v 46 93 -4
v 46 77 -32
v 46 84 -36
v 47 100 -7
v 46 98 2
v 37 77 15
v 37 71 9
v 38 61 -8
v 32 57 -10
v 46 76 -41
v 37 112 -42
v 40 111 -36
v 40 121 -19
v 47 104 0
v 47 113 30
v 39 96 48
v 33 73 17
v 40 125 -12
v 48 120 25
v 47 119 31
v 35 97 56
v 30 73 17
v 29 57 -10
v 43 76 -41
v 34 112 -42
v 34 128 -15
v 37 128 -15
v 40 145 18
v 37 152 22
v 44 119 31
v 32 97 56
v 36 96 47
v 34 77 15
v 34 71 9
v 35 61 -8
v 43 77 -32
v 43 84 -36
v 37 111 -37
v 37 120 -20
v 37 125 -13
v 34 152 22
v 43 93 -4
v 44 100 -7
v 44 104 0
v 45 120 25
v 37 145 17
v 43 98 2
v 44 113 30
v 16 48 -23
v 7 21 -25
v 7 48 -21
v 14 59 -17
v 19 45 -5
v 14 18 -17
v 13 21 -26
v 10 45 -4
v 8 17 -16
v 3 44 -3
v 0 47 -20
v 7 59 -16
v 15 93 -10
v 17 58 -1
v 10 57 0
v 5 57 0
v 2 58 -15
v -1 91 -7
v 15 95 -13
v 18 93 8
v 1 92 9
v -5 55 0
v -10 55 -2
v -14 89 -10
v -15 95 -13
v -13 108 -8
v 13 108 -8
v 13 108 8
v -13 108 8
v -18 96 4
v -21 61 10
v -14 60 12
v -10 60 14
v -4 42 0
v -11 43 -2
v -16 55 -4
v -13 112 8
v 13 112 8
v -13 16 4
v -19 43 -5
v -24 48 11
v -16 47 14
v -9 47 16
v -18 17 2
v -22 17 11
v -16 17 13
v 16 74 -13
v 3 76 -12
v 1 80 -11
v 15 85 -11
v 16 84 -9
v 16 73 -11
v 16 66 -12
v 15 67 -14
v 15 63 -14
v 15 63 -17
v 16 55 -15
v 16 62 -10
v 17 72 -8
v 17 72 -6
v 16 65 -7
v 16 65 -9
v 16 61 -9
v 16 62 -13
v 16 54 -12
v 17 60 -6
v 17 64 -3
v 17 64 -5
v 18 71 -2
v 18 70 0
v 18 80 3
v 4 75 5
v 6 71 4
v 16 90 -2
v 17 90 0
v 17 82 -3
v 17 83 -5
v 18 81 1
v 18 88 4
v 18 88 6
v 18 94 7
v 18 93 9
v 18 89 10
v 18 94 12
v 15 92 -8
v 17 53 -8
v 17 60 -5
v 18 59 -2
v 16 61 -9
v 16 93 -5
v 16 99 -3
v 16 96 -1
v 16 96 0
v 17 91 2
v 17 97 4
v 17 97 5
v 14 95 -12
v 14 101 -12
v 15 99 -9
v 15 98 -7
v 15 99 -4
v 6 -2 -33
v 16 -1 -35
v 20 -4 -11
v 10 -5 -10
v 9 3 -21
v 6 2 -34
v 16 3 -35
v 17 4 -23
v 20 0 -9
v 10 0 -7
v 7 9 -17
v 7 6 -30
v 16 7 -31
v 17 10 -19
v 5 20 -11
v 2 24 -28
v -24 -7 3
v -14 -7 6
v -21 -8 26
v -31 -7 23
v -26 3 11
v -23 -2 0
v -13 -3 3
v -17 2 14
v -22 -3 29
v -31 -2 26
v -15 9 16
v -25 10 12
v -23 2 2
v -14 2 5
v 6 -6 2
v -6 -6 2
v 0 -6 -6
v 16 25 -30
v 19 21 -13
v -7 19 1
v -13 21 18
v -26 22 13
v -21 20 -3
usemtl c0
f 1 2 3
usemtl c1
f 3 2 4
usemtl c2
f 3 4 5
usemtl c3
f 5 4 6
usemtl c4
f 2 1 7
usemtl c5
f 2 7 8
usemtl c6
f 2 8 9
usemtl c7
f 2 9 4
usemtl c8
f 10 11 9
usemtl c9
f 10 9 8
usemtl c10
f 12 13 14
usemtl c11
f 12 14 15
usemtl c12
f 12 15 16
usemtl c13
f 12 16 17
usemtl c14
f 12 17 18
usemtl c15
f 12 18 13
usemtl c16
f 13 18 19
usemtl c17
f 13 19 20
usemtl c18
f 13 20 14
usemtl c19
f 14 20 21
usemtl c20
f 14 21 22
usemtl c21
f 22 21 23
usemtl c11
f 22 23 24
usemtl c22
f 22 24 25
usemtl c23
f 22 25 26
usemtl c24
f 26 25 27
usemtl c25
f 26 27 28
usemtl c26
f 26 28 15
usemtl c27
f 15 28 16
usemtl c28
f 16 28 29
usemtl c29
f 16 29 30
usemtl c30
f 16 30 17
usemtl c31
f 17 30 31
usemtl c32
f 17 31 18
f 18 31 32
usemtl c33
f 18 32 33
usemtl c34
f 18 33 19
usemtl c35
f 19 33 34
usemtl c36
f 19 34 20
usemtl c37
f 20 34 35
usemtl c38
f 20 35 21
usemtl c39
f 21 35 23
usemtl c40
f 23 35 36
usemtl c18
f 23 36 37
usemtl c21
f 23 37 24
usemtl c41
f 24 37 25
usemtl c42
f 25 37 38
usemtl c43
f 25 38 39
usemtl c44
f 25 39 27
usemtl c45
f 27 39 40
usemtl c46
f 27 40 41
usemtl c47
f 27 41 28
usemtl c48
f 28 41 42
usemtl c49
f 28 42 29
usemtl c50
f 29 42 43
usemtl c51
f 29 43 30
usemtl c52
f 30 43 31
usemtl c53
f 31 43 44
usemtl c54
f 31 44 32
usemtl c55
f 32 44 45
usemtl c56
f 32 45 46
usemtl c57
f 32 46 47
usemtl c58
f 32 47 33
usemtl c59
f 33 47 48
usemtl c60
f 33 48 49
usemtl c61
f 33 49 34
usemtl c60
f 34 49 50
f 34 50 51
usemtl c62
f 34 51 35
usemtl c63
f 35 51 36
usemtl c64
f 36 51 52
usemtl c65
f 36 52 53
usemtl c66
f 36 53 54
usemtl c54
f 36 54 37
usemtl c13
f 37 54 38
usemtl c11
f 38 54 55
usemtl c67
f 38 55 56
f 38 56 39
usemtl c68
f 39 56 40
usemtl c69
f 40 56 43
usemtl c70
f 40 43 41
f 41 43 42
usemtl c71
f 57 58 59
f 60 61 62
usemtl c72
f 63 64 65
f 66 67 68
f 69 70 71
f 72 73 74
f 75 76 77
usemtl c73
f 78 79 80
usemtl c74
f 81 82 83
usemtl c72
f 84 85 86
usemtl c75
f 87 88 89
usemtl c76
f 90 91 48
usemtl c77
f 92 93 49
usemtl c78
f 52 94 95
usemtl c79
f 51 96 97
usemtl c80
f 98 99 100
f 101 102 103
usemtl c81
f 21 104 105
usemtl c75
f 106 107 108
f 109 110 111
usemtl c80
f 112 113 114
usemtl c82
f 115 116 117
f 118 119 120
usemtl c71
f 121 122 123
usemtl c83
f 124 125 126
usemtl c71
f 127 128 129
usemtl c83
f 130 131 132
usemtl c84
f 53 133 134
usemtl c85
f 135 136 137
usemtl c43
f 55 138 56
usemtl c86
f 56 138 43
usemtl c87
f 43 138 139
usemtl c88
f 43 139 140
usemtl c89
f 43 140 45
usemtl c90
f 43 45 44
usemtl c91
f 141 142 143
f 141 143 144
usemtl c92
f 141 144 145
usemtl c93
f 141 145 146
usemtl c94
f 141 146 147
usemtl c22
f 141 147 148
usemtl c92
f 141 148 142
usemtl c95
f 142 148 149
usemtl c96
f 142 149 150
usemtl c97
f 142 150 46
usemtl c98
f 142 46 143
usemtl c99
f 143 46 45
usemtl c90
f 143 45 140
usemtl c100
f 143 140 151
usemtl c98
f 143 151 144
usemtl c100
f 144 151 140
usemtl c101
f 144 140 139
usemtl c102
f 144 139 145
usemtl c103
f 145 139 55
f 145 55 152
usemtl c94
f 145 152 146
usemtl c26
f 146 152 153
usemtl c104
f 153 152 53
usemtl c43
f 153 53 154
usemtl c21
f 154 53 52
usemtl c105
f 154 52 155
usemtl c106
f 155 52 50
usemtl c107
f 155 50 156
usemtl c108
f 156 50 49
usemtl c63
f 156 49 157
f 157 49 48
usemtl c107
f 157 48 158
f 158 48 47
usemtl c15
f 158 47 150
usemtl c18
f 150 47 46
usemtl c93
f 147 149 148
usemtl c109
f 51 50 52
usemtl c110
f 55 54 53
usemtl c88
f 55 53 152
usemtl c87
f 55 139 138
usemtl c111
f 159 160 161
usemtl c112
f 159 161 162
usemtl c113
f 159 162 163
usemtl c114
f 159 163 164
usemtl c0
f 159 164 165
usemtl c115
f 159 165 160
usemtl c116
f 160 165 166
usemtl c117
f 160 166 167
usemtl c118
f 160 167 168
usemtl c119
f 160 168 161
usemtl c4
f 163 162 169
usemtl c120
f 163 169 167
usemtl c121
f 163 167 170
usemtl c122
f 163 170 164
usemtl c123
f 167 169 168
usemtl c124
f 167 166 170
usemtl c125
f 171 172 173
usemtl c126
f 171 173 174
usemtl c127
f 171 174 175
f 171 175 176
f 171 176 177
usemtl c125
f 171 177 178
f 171 178 172
usemtl c128
f 172 178 179
f 172 179 180
usemtl c127
f 172 180 181
f 172 181 182
f 172 182 183
usemtl c129
f 172 183 173
f 173 183 184
usemtl c127
f 173 184 185
f 173 185 186
f 173 186 187
usemtl c130
f 173 187 174
f 174 187 188
f 174 188 189
usemtl c127
f 174 189 190
f 174 190 175
usemtl c128
f 189 188 191
f 189 191 192
usemtl c127
f 189 192 193
f 189 193 190
usemtl c128
f 192 191 194
usemtl c131
f 192 194 195
usemtl c127
f 192 195 196
f 192 196 193
usemtl c131
f 195 197 198
usemtl c132
f 195 198 199
usemtl c127
f 195 199 200
f 195 200 196
usemtl c131
f 194 197 195
usemtl c133
f 197 194 184
f 197 184 201
usemtl c127
f 197 201 202
f 197 202 203
f 197 203 198
f 198 203 204
f 198 204 199
f 199 204 200
usemtl c128
f 180 179 205
f 180 205 206
usemtl c127
f 180 206 207
f 180 207 181
usemtl c128
f 206 205 208
f 206 208 209
usemtl c127
f 206 209 210
f 206 210 207
usemtl c128
f 208 211 209
usemtl c127
f 209 211 212
f 209 212 210
usemtl c128
f 213 211 208
usemtl c127
f 213 208 214
f 213 214 215
f 213 215 216
usemtl c128
f 213 216 217
f 213 217 211
usemtl c133
f 211 217 218
f 211 218 183
usemtl c127
f 211 183 219
f 211 219 212
usemtl c128
f 217 216 220
usemtl c127
f 217 220 221
f 217 221 222
f 217 222 218
f 218 222 223
f 218 223 224
usemtl c129
f 218 224 201
f 218 201 183
f 183 201 184
f 178 177 225
usemtl c127
f 178 225 226
f 178 226 179
f 179 226 205
f 205 226 227
f 205 227 208
f 208 227 214
usemtl c129
f 201 224 228
usemtl c127
f 201 228 202
f 202 228 229
f 229 228 230
f 229 230 231
f 231 230 232
f 231 232 233
f 233 232 234
f 233 234 235
f 235 234 236
f 235 236 237
f 237 236 238
f 237 238 239
f 239 238 240
f 239 240 223
f 223 240 224
usemtl c134
f 224 240 236
usemtl c125
f 224 236 228
f 228 236 234
usemtl c135
f 228 234 232
f 228 232 230
usemtl c136
f 236 240 238
usemtl c129
f 225 177 241
f 225 241 242
usemtl c127
f 225 242 243
f 225 243 226
usemtl c128
f 242 241 244
usemtl c127
f 242 244 245
f 242 245 243
f 183 182 219
f 187 186 246
f 187 246 188
f 188 246 247
f 188 247 191
f 191 247 248
f 191 248 194
f 194 248 249
f 194 249 184
f 184 249 185
f 216 215 250
f 216 250 220
f 220 250 221
f 244 241 251
f 244 251 245
f 241 177 176
f 241 176 251
usemtl c137
f 252 253 254
usemtl c138
f 252 254 255
usemtl c139
f 252 255 256
usemtl c140
f 252 256 257
usemtl c141
f 252 257 258
usemtl c142
f 252 258 253
usemtl c143
f 253 258 259
usemtl c144
f 253 259 260
usemtl c145
f 253 260 261
usemtl c146
f 253 261 262
usemtl c147
f 253 262 263
usemtl c148
f 253 263 254
usemtl c149
f 254 263 264
usemtl c150
f 254 264 265
usemtl c151
f 254 265 266
f 254 266 255
usemtl c152
f 255 266 267
usemtl c153
f 255 267 256
usemtl c154
f 256 267 268
usemtl c155
f 256 268 269
usemtl c156
f 256 269 257
usemtl c157
f 257 269 270
usemtl c158
f 257 270 258
usemtl c159
f 258 270 259
usemtl c160
f 259 270 271
f 259 271 260
usemtl c161
f 260 271 272
usemtl c162
f 260 272 261
usemtl c163
f 261 272 273
usemtl c164
f 261 273 274
usemtl c165
f 261 274 262
usemtl c166
f 262 274 275
usemtl c167
f 262 275 276
usemtl c168
f 262 276 277
usemtl c169
f 262 277 278
usemtl c170
f 262 278 263
usemtl c171
f 263 278 279
usemtl c172
f 263 279 280
usemtl c173
f 263 280 281
usemtl c174
f 263 281 264
usemtl c139
f 264 281 282
usemtl c175
f 264 282 283
usemtl c176
f 264 283 265
usemtl c177
f 265 283 267
usemtl c152
f 265 267 266
usemtl c178
f 284 285 286
usemtl c179
f 284 286 287
usemtl c180
f 284 287 288
usemtl c174
f 284 288 289
usemtl c181
f 284 289 290
f 284 290 291
usemtl c182
f 284 291 292
usemtl c183
f 284 292 285
usemtl c184
f 285 292 293
usemtl c185
f 285 293 294
usemtl c186
f 285 294 295
usemtl c79
f 285 295 296
usemtl c187
f 285 296 297
usemtl c80
f 285 297 286
usemtl c188
f 286 297 287
usemtl c129
f 287 297 298
usemtl c189
f 287 298 299
usemtl c190
f 287 299 300
usemtl c191
f 287 300 301
usemtl c192
f 287 301 288
usemtl c193
f 288 301 289
usemtl c194
f 289 301 302
usemtl c195
f 289 302 303
usemtl c196
f 289 303 290
usemtl c197
f 290 303 304
usemtl c198
f 290 304 305
usemtl c199
f 290 305 291
usemtl c200
f 291 305 306
usemtl c201
f 291 306 293
usemtl c138
f 291 293 292
usemtl c202
f 306 305 307
usemtl c199
f 306 307 294
usemtl c203
f 306 294 293
usemtl c197
f 308 309 310
usemtl c198
f 308 310 311
usemtl c204
f 308 311 312
usemtl c139
f 308 312 313
usemtl c205
f 308 313 314
usemtl c206
f 308 314 309
usemtl c207
f 309 314 315
usemtl c208
f 309 315 316
usemtl c209
f 309 316 317
usemtl c210
f 309 317 318
usemtl c211
f 309 318 310
usemtl c203
f 310 318 319
usemtl c212
f 310 319 320
usemtl c213
f 310 320 321
f 310 321 322
f 310 322 311
usemtl c204
f 311 322 323
usemtl c214
f 311 323 312
usemtl c215
f 312 323 324
usemtl c216
f 312 324 313
usemtl c217
f 313 324 325
usemtl c218
f 313 325 326
usemtl c219
f 313 326 314
usemtl c153
f 314 326 315
f 315 326 316
usemtl c159
f 316 326 327
usemtl c220
f 316 327 317
usemtl c221
f 317 327 328
usemtl c222
f 317 328 329
usemtl c201
f 317 329 318
usemtl c138
f 318 329 330
usemtl c223
f 318 330 331
usemtl c224
f 318 331 332
usemtl c225
f 318 332 319
usemtl c146
f 319 332 333
usemtl c226
f 319 333 334
usemtl c145
f 319 334 335
usemtl c227
f 319 335 336
usemtl c228
f 319 336 320
usemtl c204
f 320 336 337
f 320 337 338
usemtl c229
f 320 338 321
usemtl c230
f 321 338 339
usemtl c231
f 321 339 322
usemtl c232
f 322 339 323
usemtl c233
f 323 339 340
usemtl c234
f 323 340 341
usemtl c235
f 323 341 342
usemtl c236
f 323 342 324
usemtl c237
f 324 342 343
usemtl c238
f 324 343 325
usemtl c239
f 325 343 344
usemtl c240
f 325 344 345
usemtl c241
f 325 345 346
usemtl c242
f 325 346 326
usemtl c218
f 326 346 327
usemtl c243
f 327 346 347
usemtl c244
f 327 347 328
usemtl c125
f 328 347 345
usemtl c217
f 328 345 348
usemtl c245
f 328 348 329
usemtl c221
f 329 348 330
usemtl c246
f 330 348 349
usemtl c247
f 330 349 350
usemtl c248
f 330 350 331
usemtl c249
f 331 350 351
usemtl c250
f 331 351 352
usemtl c251
f 331 352 332
usemtl c252
f 332 352 333
usemtl c249
f 333 352 353
usemtl c253
f 333 353 334
usemtl c254
f 334 353 354
usemtl c164
f 334 354 335
usemtl c255
f 335 354 355
usemtl c256
f 335 355 336
usemtl c257
f 336 355 356
usemtl c214
f 336 356 337
usemtl c258
f 337 356 357
usemtl c259
f 337 357 358
usemtl c260
f 337 358 359
usemtl c261
f 337 359 360
usemtl c262
f 337 360 361
usemtl c263
f 337 361 338
usemtl c264
f 338 361 362
usemtl c78
f 338 362 339
usemtl c265
f 339 362 340
usemtl c266
f 340 362 360
usemtl c267
f 340 360 303
usemtl c268
f 340 303 363
usemtl c82
f 340 363 341
usemtl c269
f 341 363 300
usemtl c270
f 341 300 364
usemtl c80
f 341 364 342
usemtl c271
f 342 364 365
f 342 365 364
usemtl c272
f 364 365 366
usemtl c273
f 364 366 367
usemtl c274
f 364 367 368
usemtl c275
f 364 368 369
usemtl c276
f 364 369 370
usemtl c277
f 364 370 365
usemtl c278
f 365 370 371
usemtl c279
f 365 371 366
usemtl c280
f 366 371 372
usemtl c281
f 366 372 367
usemtl c282
f 367 372 373
usemtl c283
f 367 373 374
usemtl c284
f 367 374 368
usemtl c285
f 368 374 299
f 368 299 374
usemtl c286
f 368 374 369
usemtl c287
f 369 374 375
usemtl c288
f 369 375 376
usemtl c289
f 369 376 370
usemtl c290
f 370 376 371
usemtl c291
f 371 376 377
usemtl c272
f 371 377 372
usemtl c292
f 372 377 378
usemtl c293
f 372 378 373
usemtl c274
f 373 378 379
usemtl c284
f 373 379 380
usemtl c294
f 373 380 374
usemtl c295
f 374 380 375
usemtl c296
f 375 380 379
usemtl c297
f 375 379 378
usemtl c298
f 375 378 376
usemtl c299
f 376 378 377
usemtl c300
f 302 363 303
usemtl c301
f 363 302 300
usemtl c302
f 300 302 301
usemtl c284
f 381 382 383
usemtl c273
f 381 383 384
usemtl c284
f 381 384 385
usemtl c303
f 381 385 386
f 381 386 385
usemtl c304
f 381 385 387
usemtl c305
f 381 387 388
usemtl c306
f 381 388 382
usemtl c307
f 381 382 294
usemtl c308
f 381 294 389
usemtl c309
f 381 389 386
usemtl c310
f 386 389 270
usemtl c311
f 386 270 269
usemtl c79
f 386 269 390
usemtl c189
f 390 269 391
usemtl c312
f 390 391 392
usemtl c313
f 390 392 393
usemtl c314
f 390 393 394
usemtl c315
f 390 394 395
usemtl c316
f 390 395 396
usemtl c290
f 390 396 393
usemtl c274
f 390 393 397
f 390 397 393
f 393 397 398
usemtl c314
f 393 398 394
usemtl c317
f 394 398 399
usemtl c318
f 394 399 400
usemtl c319
f 394 400 401
usemtl c320
f 394 401 395
usemtl c321
f 395 401 402
usemtl c322
f 395 402 403
usemtl c323
f 395 403 396
usemtl c324
f 396 403 404
usemtl c325
f 396 404 399
usemtl c326
f 396 399 398
usemtl c290
f 396 398 393
usemtl c327
f 393 398 397
usemtl c328
f 397 398 405
usemtl c329
f 397 405 398
usemtl c330
f 398 405 399
f 398 399 405
usemtl c329
f 405 399 406
f 405 406 399
usemtl c331
f 406 405 407
f 406 407 408
f 406 408 407
f 406 407 405
usemtl c321
f 405 407 409
usemtl c331
f 405 409 407
f 407 409 410
f 407 410 411
f 407 411 408
f 407 408 411
usemtl c321
f 407 411 410
f 407 410 409
usemtl c331
f 409 410 412
f 409 412 413
f 409 413 410
usemtl c290
f 410 413 414
usemtl c294
f 410 414 415
usemtl c284
f 410 415 411
usemtl c328
f 410 411 415
usemtl c284
f 410 415 413
usemtl c331
f 410 413 412
usemtl c332
f 383 416 417
usemtl c333
f 383 417 384
usemtl c281
f 384 417 418
usemtl c293
f 384 418 385
usemtl c334
f 385 418 387
usemtl c335
f 387 418 419
usemtl c336
f 387 419 388
usemtl c337
f 388 419 420
usemtl c338
f 388 420 421
usemtl c339
f 388 421 382
usemtl c272
f 382 421 383
usemtl c340
f 383 421 416
usemtl c341
f 416 421 422
usemtl c342
f 416 422 423
f 416 423 424
usemtl c343
f 416 424 417
usemtl c342
f 417 424 425
f 417 425 418
usemtl c286
f 418 425 419
f 419 425 424
usemtl c344
f 419 424 420
usemtl c275
f 420 424 423
usemtl c323
f 420 423 422
usemtl c345
f 420 422 421
usemtl c346
f 421 382 295
f 421 295 382
usemtl c307
f 382 295 294
usemtl c331
f 423 422 426
f 423 426 422
f 379 427 380
f 379 380 427
usemtl c284
f 415 428 411
usemtl c328
f 415 411 428
usemtl c331
f 428 411 429
f 428 429 411
f 411 429 408
f 411 408 429
f 409 405 397
f 409 397 412
usemtl c284
f 409 412 430
f 409 430 397
usemtl c321
f 409 397 405
usemtl c284
f 412 397 430
usemtl c274
f 430 397 390
f 430 390 397
usemtl c331
f 431 429 428
f 431 428 429
usemtl c329
f 432 433 434
usemtl c331
f 432 434 435
f 432 435 436
usemtl c284
f 432 436 437
usemtl c292
f 432 437 438
f 432 438 439
usemtl c274
f 432 439 433
usemtl c347
f 432 433 439
usemtl c292
f 432 439 438
f 432 438 437
usemtl c284
f 432 437 435
usemtl c321
f 432 435 434
usemtl c328
f 432 434 433
usemtl c330
f 433 434 440
f 433 440 434
usemtl c329
f 434 440 441
usemtl c331
f 434 441 442
f 434 442 435
usemtl c321
f 434 435 442
usemtl c331
f 434 442 441
usemtl c329
f 434 441 440
usemtl c331
f 443 442 444
usemtl c284
f 443 444 445
usemtl c294
f 443 445 446
usemtl c290
f 443 446 447
usemtl c331
f 443 447 435
f 443 435 442
usemtl c321
f 443 442 435
usemtl c331
f 443 435 436
f 443 436 447
usemtl c284
f 443 447 445
usemtl c328
f 443 445 444
usemtl c321
f 443 444 442
usemtl c331
f 442 444 448
f 442 448 444
f 444 448 449
f 444 449 450
usemtl c284
f 444 450 445
usemtl c328
f 444 445 450
usemtl c331
f 444 450 449
f 444 449 448
f 447 436 435
f 448 442 441
f 448 441 442
f 451 450 449
f 451 449 450
usemtl c299
f 452 453 454
usemtl c316
f 452 454 455
usemtl c348
f 452 455 456
usemtl c323
f 452 456 457
usemtl c345
f 452 457 403
f 452 403 458
usemtl c349
f 452 458 453
usemtl c290
f 453 458 459
usemtl c329
f 453 459 460
f 453 460 459
usemtl c350
f 453 459 461
usemtl c272
f 453 461 462
usemtl c292
f 453 462 454
usemtl c351
f 454 462 463
usemtl c317
f 454 463 464
usemtl c290
f 454 464 455
usemtl c352
f 455 464 465
usemtl c324
f 455 465 456
usemtl c353
f 456 465 466
usemtl c304
f 456 466 467
usemtl c354
f 456 467 468
usemtl c355
f 456 468 404
usemtl c287
f 456 404 457
usemtl c286
f 457 404 403
usemtl c326
f 465 464 469
usemtl c290
f 465 469 470
usemtl c348
f 465 470 471
usemtl c354
f 465 471 472
usemtl c304
f 465 472 466
usemtl c354
f 466 472 467
usemtl c356
f 467 472 473
usemtl c357
f 467 473 474
f 467 474 468
usemtl c316
f 468 474 399
usemtl c357
f 468 399 404
usemtl c358
f 475 476 477
usemtl c353
f 475 477 478
usemtl c359
f 475 478 479
usemtl c360
f 475 479 480
usemtl c361
f 475 480 472
f 475 472 471
usemtl c362
f 475 471 476
usemtl c316
f 476 471 470
usemtl c363
f 476 470 481
usemtl c364
f 476 481 482
usemtl c365
f 476 482 477
usemtl c366
f 477 482 483
usemtl c367
f 477 483 484
usemtl c358
f 477 484 478
usemtl c353
f 478 484 479
usemtl c358
f 479 484 485
f 479 485 486
usemtl c353
f 479 486 487
usemtl c360
f 479 487 488
usemtl c368
f 479 488 480
usemtl c369
f 480 488 472
f 472 488 473
usemtl c370
f 473 488 440
usemtl c316
f 473 440 474
usemtl c371
f 474 440 489
f 474 489 399
usemtl c313
f 474 399 490
usemtl c237
f 474 490 491
f 474 491 492
usemtl c313
f 474 492 440
f 440 492 433
usemtl c363
f 440 433 493
usemtl c372
f 440 493 489
usemtl c373
f 489 493 494
usemtl c374
f 489 494 495
usemtl c375
f 489 495 496
f 489 496 497
f 489 497 400
usemtl c376
f 489 400 399
usemtl c330
f 484 477 498
f 484 498 477
usemtl c377
f 402 459 403
usemtl c378
f 403 459 458
usemtl c379
f 486 438 487
usemtl c380
f 487 438 439
usemtl c377
f 487 439 433
usemtl c358
f 487 433 440
usemtl c362
f 487 440 488
usemtl c127
f 499 500 501
usemtl c381
f 499 501 502
f 499 502 500
usemtl c382
f 500 502 503
usemtl c383
f 500 503 504
usemtl c384
f 500 504 505
usemtl c385
f 500 505 506
usemtl c386
f 500 506 507
usemtl c127
f 500 507 501
usemtl c386
f 501 507 506
usemtl c387
f 501 506 508
usemtl c388
f 501 508 509
usemtl c389
f 501 509 510
usemtl c390
f 501 510 1
usemtl c391
f 501 1 502
usemtl c392
f 502 1 503
usemtl c0
f 503 1 3
usemtl c393
f 503 3 511
usemtl c394
f 503 511 504
usemtl c395
f 504 511 512
usemtl c396
f 512 511 513
usemtl c397
f 512 513 514
usemtl c396
f 514 513 515
usemtl c398
f 515 513 516
usemtl c399
f 515 516 517
usemtl c400
f 515 517 518
usemtl c401
f 518 517 519
usemtl c402
f 519 517 4
usemtl c403
f 519 4 520
usemtl c404
f 520 4 14
usemtl c405
f 520 14 22
usemtl c406
f 520 22 521
usemtl c4
f 521 22 9
usemtl c407
f 521 9 522
usemtl c408
f 522 9 523
usemtl c409
f 522 523 524
usemtl c410
f 524 523 525
usemtl c411
f 525 523 526
usemtl c381
f 525 526 527
usemtl c412
f 525 527 528
usemtl c413
f 528 527 529
usemtl c414
f 529 527 530
usemtl c415
f 529 530 531
usemtl c416
f 531 530 532
usemtl c417
f 531 532 533
usemtl c418
f 531 533 534
usemtl c419
f 531 534 535
usemtl c420
f 535 534 536
usemtl c421
f 535 536 537
usemtl c422
f 537 536 508
usemtl c423
f 537 508 538
usemtl c424
f 537 538 539
usemtl c425
f 539 538 505
usemtl c426
f 539 505 504
usemtl c127
f 540 533 541
usemtl c427
f 540 541 542
f 540 542 7
usemtl c118
f 540 7 510
usemtl c428
f 540 510 509
usemtl c429
f 540 509 508
usemtl c430
f 540 508 543
usemtl c431
f 540 543 544
usemtl c127
f 540 544 533
usemtl c432
f 533 544 543
usemtl c433
f 533 543 534
usemtl c434
f 534 543 536
usemtl c4
f 536 543 508
usemtl c435
f 530 527 526
usemtl c429
f 530 526 8
usemtl c436
f 530 8 532
usemtl c429
f 532 8 7
usemtl c435
f 532 7 542
usemtl c437
f 532 542 533
usemtl c438
f 533 542 541
usemtl c439
f 516 513 511
usemtl c440
f 516 511 3
usemtl c441
f 506 538 508
usemtl c114
f 538 506 505
usemtl c442
f 15 14 4
usemtl c443
f 15 4 26
usemtl c444
f 26 4 9
usemtl c445
f 26 9 22
usemtl c249
f 545 546 547
usemtl c446
f 545 547 548
usemtl c447
f 545 548 549
usemtl c448
f 545 549 550
usemtl c449
f 545 550 551
f 545 551 552
usemtl c450
f 545 552 553
usemtl c251
f 545 553 546
usemtl c249
f 546 553 554
usemtl c451
f 546 554 555
usemtl c452
f 546 555 556
usemtl c453
f 546 556 547
usemtl c454
f 547 556 557
usemtl c455
f 547 557 558
usemtl c249
f 547 558 559
usemtl c446
f 547 559 548
usemtl c456
f 548 559 560
usemtl c457
f 548 560 561
usemtl c458
f 548 561 549
usemtl c297
f 549 561 562
f 549 562 550
usemtl c459
f 550 562 563
usemtl c460
f 550 563 564
usemtl c461
f 550 564 551
usemtl c462
f 551 564 565
usemtl c461
f 551 565 552
usemtl c463
f 552 565 566
f 552 566 567
usemtl c464
f 552 567 568
usemtl c465
f 552 568 553
usemtl c466
f 553 568 554
usemtl c467
f 554 568 569
usemtl c468
f 554 569 570
usemtl c469
f 554 570 555
usemtl c470
f 555 570 571
usemtl c471
f 555 571 572
usemtl c472
f 555 572 556
usemtl c473
f 556 572 573
usemtl c474
f 556 573 574
usemtl c475
f 556 574 562
usemtl c476
f 556 562 561
usemtl c293
f 556 561 560
usemtl c477
f 556 560 557
usemtl c478
f 557 560 559
usemtl c479
f 557 559 558
f 557 558 559
usemtl c480
f 575 567 576
usemtl c464
f 575 576 577
usemtl c481
f 575 577 578
usemtl c371
f 575 578 579
usemtl c482
f 575 579 580
usemtl c483
f 575 580 581
usemtl c484
f 575 581 567
usemtl c485
f 567 581 568
usemtl c467
f 568 581 569
usemtl c486
f 569 581 570
usemtl c487
f 570 581 580
usemtl c488
f 570 580 571
usemtl c323
f 571 580 582
usemtl c489
f 571 582 583
usemtl c470
f 571 583 572
usemtl c490
f 572 583 584
usemtl c491
f 572 584 573
usemtl c492
f 573 584 585
usemtl c293
f 573 585 586
usemtl c493
f 573 586 574
usemtl c345
f 574 586 587
usemtl c346
f 574 587 562
usemtl c494
f 562 587 563
usemtl c495
f 563 587 588
usemtl c462
f 563 588 589
usemtl c496
f 563 589 564
usemtl c497
f 564 589 565
usemtl c498
f 565 589 566
f 566 589 590
usemtl c499
f 566 590 567
usemtl c500
f 567 590 591
usemtl c464
f 567 591 576
usemtl c501
f 576 591 592
usemtl c502
f 576 592 579
usemtl c503
f 576 579 577
usemtl c504
f 577 579 578
f 577 578 579
usemtl c505
f 589 588 590
usemtl c506
f 590 588 593
usemtl c495
f 590 593 594
usemtl c327
f 590 594 591
usemtl c507
f 591 594 592
usemtl c370
f 592 594 580
usemtl c458
f 592 580 579
usemtl c508
f 588 587 595
usemtl c509
f 588 595 593
usemtl c510
f 593 595 596
usemtl c511
f 593 596 580
usemtl c370
f 593 580 594
usemtl c512
f 595 587 586
usemtl c513
f 595 586 597
usemtl c514
f 595 597 596
usemtl c515
f 596 597 582
usemtl c511
f 596 582 580
usemtl c368
f 597 586 598
usemtl c516
f 597 598 599
usemtl c517
f 597 599 582
usemtl c345
f 582 599 600
usemtl c518
f 582 600 583
usemtl c519
f 583 600 584
usemtl c520
f 584 600 585
usemtl c284
f 585 600 599
usemtl c378
f 585 599 598
usemtl c379
f 585 598 586
usemtl c521
f 358 601 359
usemtl c522
f 359 601 273
usemtl c523
f 359 273 602
usemtl c524
f 359 602 603
usemtl c525
f 359 603 360
usemtl c268
f 360 603 304
f 360 304 303
usemtl c526
f 400 497 604
usemtl c527
f 400 604 605
usemtl c376
f 400 605 401
usemtl c486
f 401 605 462
usemtl c468
f 401 462 461
usemtl c528
f 401 461 459
usemtl c328
f 401 459 402
usemtl c376
f 462 605 604
usemtl c319
f 462 604 463
usemtl c519
f 463 604 606
usemtl c318
f 463 606 464
usemtl c314
f 464 606 469
f 469 606 470
usemtl c529
f 470 606 481
usemtl c530
f 481 606 607
usemtl c531
f 481 607 482
usemtl c532
f 482 607 608
usemtl c533
f 482 608 609
usemtl c534
f 482 609 483
usemtl c535
f 483 609 484
usemtl c363
f 484 609 485
f 485 609 486
usemtl c536
f 486 609 493
usemtl c537
f 486 493 438
f 438 493 439
usemtl c538
f 438 439 353
usemtl c539
f 438 353 352
usemtl c75
f 438 352 343
usemtl c540
f 438 343 342
usemtl c526
f 604 497 496
usemtl c520
f 604 496 610
f 604 610 606
f 606 610 607
f 607 610 496
usemtl c526
f 607 496 495
usemtl c375
f 607 495 494
f 607 494 608
usemtl c373
f 608 494 609
usemtl c541
f 609 494 493
usemtl c542
f 611 612 613
usemtl c543
f 611 613 614
usemtl c159
f 611 614 601
usemtl c544
f 611 601 358
usemtl c139
f 611 358 357
usemtl c545
f 611 357 615
usemtl c542
f 611 615 612
usemtl c546
f 612 615 616
f 612 616 613
usemtl c547
f 613 616 617
usemtl c548
f 613 617 618
usemtl c549
f 613 618 619
usemtl c288
f 613 619 614
f 614 619 620
usemtl c550
f 614 620 273
usemtl c551
f 614 273 601
usemtl c267
f 305 621 307
usemtl c552
f 307 621 389
usemtl c553
f 307 389 294
usemtl c554
f 622 272 271
usemtl c555
f 622 271 621
usemtl c556
f 622 621 602
usemtl c557
f 622 602 623
usemtl c558
f 622 623 272
usemtl c559
f 272 623 273
usemtl c560
f 273 623 602
usemtl c561
f 621 271 270
usemtl c562
f 621 270 389
usemtl c563
f 304 603 602
usemtl c564
f 304 602 305
usemtl c268
f 305 602 621
usemtl c539
f 392 391 624
usemtl c485
f 392 624 279
usemtl c464
f 392 279 278
usemtl c565
f 392 278 277
usemtl c566
f 392 277 625
usemtl c312
f 392 625 393
usemtl c539
f 393 625 626
usemtl c567
f 393 626 618
usemtl c79
f 393 618 617
usemtl c568
f 393 617 490
usemtl c313
f 393 490 398
f 398 490 399
usemtl c569
f 624 627 628
usemtl c570
f 624 628 279
usemtl c251
f 279 628 280
usemtl c571
f 280 628 629
usemtl c572
f 280 629 630
usemtl c573
f 280 630 281
usemtl c160
f 281 630 282
usemtl c574
f 282 630 631
usemtl c575
f 282 631 632
usemtl c576
f 282 632 283
usemtl c577
f 283 632 633
usemtl c578
f 283 633 267
usemtl c579
f 267 633 268
usemtl c187
f 268 633 631
usemtl c569
f 268 631 627
usemtl c129
f 268 627 269
usemtl c77
f 269 627 391
usemtl c312
f 391 627 624
usemtl c580
f 629 634 630
usemtl c575
f 630 634 631
usemtl c568
f 631 634 635
usemtl c313
f 631 635 627
usemtl c581
f 627 635 628
usemtl c582
f 628 635 629
usemtl c583
f 629 635 634
usemtl c466
f 626 276 275
f 626 275 619
usemtl c129
f 626 619 618
usemtl c447
f 274 273 620
usemtl c254
f 274 620 619
usemtl c251
f 274 619 275
usemtl c249
f 625 277 276
usemtl c565
f 625 276 626
usemtl c584
f 617 491 490
usemtl c129
f 491 617 616
usemtl c569
f 491 616 636
usemtl c567
f 491 636 492
usemtl c125
f 492 636 637
usemtl c585
f 492 637 439
usemtl c313
f 492 439 433
usemtl c363
f 433 439 493
usemtl c190
f 300 299 368
usemtl c586
f 300 368 364
usemtl c539
f 352 351 343
usemtl c587
f 343 351 344
usemtl c538
f 344 351 350
usemtl c588
f 344 350 638
usemtl c589
f 344 638 345
usemtl c590
f 345 638 639
usemtl c125
f 345 639 348
usemtl c80
f 348 639 349
usemtl c591
f 349 639 638
usemtl c569
f 349 638 350
usemtl c525
f 360 362 361
usemtl c592
f 355 354 637
usemtl c554
f 355 637 636
usemtl c579
f 355 636 615
usemtl c550
f 355 615 357
usemtl c593
f 355 357 356
usemtl c568
f 637 354 353
usemtl c594
f 637 353 439
usemtl c595
f 615 636 616
usemtl c80
f 631 633 632
usemtl c596
f 345 347 346
usemtl c294
f 415 414 413
usemtl c284
f 435 437 436
usemtl c294
f 445 447 446
usemtl c597
f 640 641 642
usemtl c598
f 640 642 643
usemtl c599
f 640 643 644
usemtl c600
f 640 644 645
usemtl c601
f 640 645 646
usemtl c602
f 640 646 647
usemtl c603
f 640 647 641
usemtl c382
f 641 647 648
usemtl c119
f 641 648 649
usemtl c430
f 641 649 650
usemtl c604
f 641 650 651
usemtl c605
f 641 651 642
usemtl c606
f 642 651 652
usemtl c607
f 642 652 653
usemtl c608
f 642 653 643
usemtl c609
f 643 653 648
usemtl c610
f 643 648 644
usemtl c611
f 644 648 654
usemtl c612
f 644 654 655
usemtl c613
f 644 655 656
usemtl c602
f 644 656 657
usemtl c614
f 644 657 645
usemtl c615
f 645 657 658
usemtl c616
f 645 658 646
usemtl c617
f 646 658 655
usemtl c618
f 646 655 654
usemtl c429
f 646 654 648
usemtl c411
f 646 648 647
usemtl c619
f 659 660 661
usemtl c620
f 659 661 662
usemtl c621
f 659 662 663
usemtl c622
f 659 663 660
usemtl c623
f 660 663 664
usemtl c624
f 660 664 665
usemtl c625
f 660 665 661
usemtl c626
f 661 665 662
usemtl c627
f 662 665 666
usemtl c628
f 662 666 663
usemtl c629
f 663 666 664
usemtl c630
f 664 666 665
usemtl c631
f 667 668 669
usemtl c632
f 667 669 670
f 667 670 671
usemtl c633
f 667 671 672
usemtl c634
f 667 672 673
usemtl c429
f 667 673 674
usemtl c122
f 667 674 668
usemtl c635
f 668 674 675
usemtl c409
f 668 675 676
usemtl c636
f 668 676 669
usemtl c605
f 669 676 677
usemtl c637
f 669 677 678
usemtl c638
f 669 678 679
usemtl c8
f 669 679 680
usemtl c639
f 669 680 670
usemtl c405
f 670 680 681
usemtl c640
f 670 681 671
usemtl c601
f 671 681 678
usemtl c637
f 671 678 677
usemtl c605
f 671 677 676
usemtl c641
f 671 676 672
usemtl c642
f 672 676 682
usemtl c409
f 672 682 673
usemtl c643
f 675 682 676
usemtl c644
f 683 684 685
usemtl c146
f 683 685 686
f 683 686 687
usemtl c645
f 683 687 688
usemtl c629
f 683 688 684
usemtl c646
f 684 688 689
usemtl c629
f 684 689 685
usemtl c647
f 685 689 690
usemtl c648
f 685 690 686
f 686 690 687
usemtl c647
f 687 690 688
usemtl c649
f 688 690 689
usemtl c650
f 653 649 648
usemtl c651
f 649 653 691
usemtl c652
f 649 691 650
usemtl c653
f 691 653 652
usemtl c654
f 678 681 692
usemtl c598
f 678 692 693
usemtl c655
f 678 693 679
usemtl c656
f 679 693 694
usemtl c657
f 679 694 680
usemtl c658
f 680 694 695
usemtl c659
f 680 695 681
usemtl c660
f 681 695 692
usemtl c661
f 696 697 698
usemtl c662
f 696 698 699
usemtl c663
f 696 699 700
usemtl c664
f 696 700 697
usemtl c665
f 697 700 701
usemtl c666
f 697 701 702
usemtl c667
f 697 702 698
usemtl c668
f 698 702 674
usemtl c669
f 698 674 673
usemtl c670
f 698 673 699
usemtl c671
f 699 673 682
usemtl c672
f 699 682 703
usemtl c673
f 699 703 700
usemtl c674
f 700 703 701
usemtl c675
f 701 703 702
usemtl c676
f 702 703 675
usemtl c677
f 702 675 674
usemtl c678
f 703 682 675
usemtl c679
f 704 705 706
f 704 706 707
usemtl c680
f 704 707 708
usemtl c677
f 704 708 655
usemtl c669
f 704 655 658
usemtl c681
f 704 658 705
usemtl c682
f 705 658 657
f 705 657 709
usemtl c683
f 705 709 710
usemtl c684
f 705 710 706
f 706 710 707
usemtl c685
f 707 710 711
usemtl c686
f 707 711 708
usemtl c687
f 708 711 709
usemtl c688
f 708 709 656
usemtl c689
f 708 656 655
usemtl c690
f 711 710 709
usemtl c691
f 709 657 656
usemtl c692
f 712 713 714
usemtl c667
f 712 714 715
usemtl c693
f 712 715 716
usemtl c677
f 712 716 717
usemtl c694
f 712 717 718
usemtl c671
f 712 718 713
usemtl c695
f 713 718 719
usemtl c696
f 713 719 720
f 713 720 721
usemtl c697
f 713 721 714
usemtl c690
f 714 721 722
usemtl c669
f 714 722 716
usemtl c676
f 714 716 715
usemtl c668
f 718 717 716
usemtl c675
f 718 716 722
usemtl c698
f 718 722 719
usemtl c699
f 719 722 723
usemtl c700
f 719 723 720
f 720 723 721
usemtl c699
f 721 723 722
usemtl c668
f 724 725 726
usemtl c701
f 724 726 727
f 724 727 728
usemtl c702
f 724 728 729
usemtl c703
f 724 729 730
usemtl c693
f 724 730 725
usemtl c686
f 725 730 726
usemtl c690
f 726 730 731
usemtl c698
f 726 731 728
usemtl c704
f 726 728 727
usemtl c700
f 731 732 733
usemtl c699
f 731 733 728
usemtl c705
f 728 733 729
usemtl c706
f 729 733 734
f 729 734 735
usemtl c707
f 729 735 730
usemtl c697
f 730 735 731
usemtl c700
f 731 735 732
usemtl c708
f 732 735 734
f 732 734 733
usemtl c709
f 736 737 738
usemtl c710
f 736 738 739
usemtl c711
f 736 739 740
usemtl c712
f 736 740 741
usemtl c713
f 736 741 742
usemtl c714
f 736 742 737
usemtl c715
f 737 742 743
usemtl c716
f 743 742 744
usemtl c717
f 743 744 745
usemtl c718
f 745 744 738
usemtl c719
f 738 744 739
usemtl c720
f 739 744 746
usemtl c721
f 739 746 740
usemtl c722
f 740 746 747
usemtl c723
f 740 747 741
usemtl c724
f 741 747 748
usemtl c725
f 741 748 742
usemtl c726
f 742 748 744
usemtl c717
f 744 748 746
usemtl c727
f 746 748 747
usemtl c728
f 749 750 751
usemtl c729
f 749 751 752
usemtl c730
f 749 752 753
usemtl c731
f 749 753 754
usemtl c732
f 749 754 750
usemtl c733
f 750 754 755
f 750 755 756
usemtl c734
f 750 756 751
f 751 756 757
usemtl c735
f 751 757 752
usemtl c736
f 752 757 758
usemtl c737
f 752 758 759
usemtl c716
f 752 759 753
f 753 759 755
usemtl c738
f 753 755 754
usemtl c739
f 755 759 756
usemtl c740
f 756 759 760
usemtl c741
f 756 760 761
usemtl c732
f 756 761 757
usemtl c742
f 758 760 759
usemtl c743
f 762 763 764
usemtl c744
f 762 764 765
usemtl c745
f 762 765 766
usemtl c746
f 762 766 767
usemtl c747
f 762 767 765
usemtl c743
f 765 767 766
usemtl c748
f 768 764 763
usemtl c749
f 768 763 769
usemtl c743
f 768 769 764
usemtl c750
f 764 769 763
usemtl c751
f 770 771 772
usemtl c752
f 770 772 773
usemtl c751
f 770 773 774
usemtl c753
f 770 774 775
f 770 775 776
usemtl c754
f 770 776 777
f 770 777 771
usemtl c753
f 771 777 778
f 771 778 779
usemtl c751
f 771 779 772
usemtl c755
f 772 779 780
usemtl c756
f 772 780 781
usemtl c592
f 772 781 773
usemtl c236
f 773 781 782
usemtl c757
f 773 782 783
usemtl c752
f 773 783 774
usemtl c751
f 774 783 784
usemtl c75
f 774 784 775
usemtl c238
f 775 784 785
usemtl c753
f 775 785 786
f 775 786 776
f 776 786 778
f 776 778 777
usemtl c756
f 783 782 787
usemtl c186
f 783 787 788
usemtl c758
f 783 788 784
usemtl c759
f 784 788 789
f 784 789 790
usemtl c760
f 784 790 785
f 785 790 786
usemtl c759
f 786 790 791
usemtl c748
f 786 791 792
usemtl c761
f 786 792 778
usemtl c762
f 778 792 793
usemtl c763
f 778 793 779
usemtl c764
f 779 793 794
usemtl c765
f 779 794 780
usemtl c750
f 780 794 795
usemtl c744
f 780 795 796
usemtl c743
f 780 796 782
usemtl c766
f 780 782 781
usemtl c559
f 787 797 788
usemtl c767
f 788 797 798
usemtl c747
f 788 798 789
usemtl c768
f 789 798 799
usemtl c769
f 789 799 800
usemtl c750
f 789 800 790
f 790 800 791
usemtl c770
f 791 800 801
usemtl c771
f 791 801 802
usemtl c772
f 791 802 803
usemtl c773
f 791 803 792
usemtl c774
f 792 803 804
usemtl c775
f 792 804 805
usemtl c776
f 792 805 793
usemtl c777
f 793 805 806
usemtl c778
f 793 806 794
usemtl c779
f 794 806 807
usemtl c555
f 794 807 808
usemtl c780
f 794 808 795
f 795 808 809
usemtl c562
f 795 809 810
usemtl c781
f 795 810 796
usemtl c782
f 796 810 798
usemtl c750
f 796 798 787
usemtl c747
f 796 787 782
usemtl c748
f 798 797 787
usemtl c772
f 806 805 811
usemtl c783
f 806 811 812
usemtl c784
f 806 812 807
usemtl c785
f 807 812 808
usemtl c786
f 808 812 809
usemtl c552
f 809 812 813
usemtl c787
f 809 813 814
usemtl c779
f 809 814 815
usemtl c788
f 809 815 810
usemtl c263
f 810 815 814
usemtl c789
f 810 814 799
usemtl c790
f 810 799 798
usemtl c791
f 813 812 811
usemtl c775
f 813 811 816
usemtl c771
f 813 816 817
usemtl c792
f 813 817 814
usemtl c793
f 814 817 799
usemtl c783
f 799 817 800
usemtl c794
f 800 817 801
usemtl c795
f 801 817 802
usemtl c796
f 802 817 816
usemtl c268
f 802 816 803
usemtl c797
f 803 816 811
usemtl c798
f 803 811 804
usemtl c799
f 804 811 805
usemtl c800
f 818 819 820
usemtl c61
f 818 820 821
usemtl c801
f 818 821 822
usemtl c802
f 818 822 823
usemtl c803
f 818 823 824
usemtl c804
f 818 824 819
usemtl c805
f 823 822 825
usemtl c806
f 823 825 826
usemtl c807
f 826 825 827
usemtl c619
f 826 827 819
usemtl c808
f 819 827 828
usemtl c809
f 819 828 820
usemtl c810
f 820 828 829
usemtl c811
f 820 829 821
usemtl c812
f 821 829 830
usemtl c813
f 821 830 831
usemtl c58
f 821 831 822
usemtl c805
f 822 831 832
usemtl c814
f 822 832 825
usemtl c624
f 825 832 827
usemtl c147
f 827 832 833
usemtl c815
f 827 833 828
usemtl c816
f 828 833 834
usemtl c817
f 828 834 829
usemtl c818
f 829 834 835
usemtl c819
f 829 835 830
usemtl c820
f 830 835 836
usemtl c801
f 830 836 837
usemtl c821
f 830 837 831
usemtl c822
f 831 837 838
usemtl c823
f 831 838 832
usemtl c624
f 832 838 833
usemtl c824
f 833 838 834
usemtl c622
f 834 838 835
usemtl c825
f 835 838 839
usemtl c826
f 835 839 840
usemtl c827
f 835 840 841
usemtl c828
f 835 841 842
usemtl c801
f 835 842 836
usemtl c58
f 836 842 843
usemtl c829
f 836 843 844
f 836 844 845
usemtl c58
f 836 845 837
usemtl c830
f 837 845 838
usemtl c831
f 838 845 846
usemtl c832
f 838 846 847
usemtl c833
f 838 847 848
f 838 848 849
usemtl c165
f 838 849 850
usemtl c834
f 838 850 839
usemtl c835
f 839 850 851
usemtl c836
f 839 851 840
f 840 851 852
usemtl c829
f 840 852 853
usemtl c837
f 840 853 841
usemtl c838
f 841 853 848
usemtl c839
f 841 848 847
usemtl c840
f 841 847 842
usemtl c841
f 842 847 846
usemtl c842
f 842 846 843
usemtl c843
f 843 846 854
usemtl c844
f 843 854 169
usemtl c845
f 843 169 162
usemtl c846
f 843 162 844
usemtl c847
f 844 162 855
usemtl c848
f 844 855 845
usemtl c849
f 845 855 846
usemtl c850
f 846 855 854
usemtl c843
f 854 855 169
usemtl c851
f 169 855 162
usemtl c852
f 852 856 857
usemtl c853
f 852 857 853
usemtl c830
f 853 857 858
usemtl c814
f 853 858 848
usemtl c854
f 848 858 849
f 849 858 859
usemtl c630
f 849 859 860
usemtl c855
f 849 860 850
usemtl c856
f 850 860 851
f 851 860 856
usemtl c835
f 851 856 852
usemtl c857
f 856 861 857
usemtl c858
f 857 861 862
f 857 862 858
usemtl c859
f 858 862 859
usemtl c860
f 859 862 863
usemtl c808
f 859 863 860
usemtl c623
f 860 863 856
usemtl c861
f 864 865 866
f 864 866 867
usemtl c820
f 864 867 868
f 864 868 869
usemtl c862
f 864 869 870
f 864 870 871
usemtl c863
f 871 870 872
usemtl c567
f 871 872 873
usemtl c863
f 873 872 874
f 874 872 875
usemtl c864
f 875 872 870
usemtl c862
f 876 877 878
f 876 878 879
usemtl c863
f 879 878 880
usemtl c567
f 879 880 881
usemtl c863
f 881 880 882
f 882 880 883
usemtl c864
f 883 880 878
usemtl c862
f 884 885 886
usemtl c865
f 884 886 887
usemtl c866
f 887 886 888
usemtl c867
f 887 888 889
usemtl c860
f 887 889 890
usemtl c868
f 891 892 893
f 891 893 894
usemtl c61
f 894 893 876
usemtl c820
f 894 876 869
usemtl c61
f 894 869 868
usemtl c869
f 888 895 896
f 888 896 897
usemtl c868
f 897 896 898
f 897 898 899
usemtl c870
f 897 899 900
f 900 899 901
usemtl c868
f 830 902 868
f 830 868 867
usemtl c863
f 903 904 905
usemtl c864
f 905 904 884
usemtl c863
f 884 904 885
usemtl c567
f 885 904 906
usemtl c863
f 906 904 903
usemtl c870
f 891 907 908
f 891 908 909
usemtl c868
f 891 909 892
f 892 909 910
usemtl c870
f 892 910 911
f 911 910 912
f 896 911 913
f 896 913 898
f 830 914 915
f 830 915 916
usemtl c868
f 830 916 902
f 902 916 917
usemtl c870
f 902 917 907
f 907 917 918
usemtl c820
f 895 886 877
usemtl c61
f 895 877 893
usemtl c820
f 893 877 876
usemtl c871
f 888 886 895
usemtl c872
f 919 920 921
usemtl c873
f 919 921 922
usemtl c874
f 919 922 923
usemtl c875
f 919 923 924
usemtl c876
f 919 924 920
usemtl c877
f 920 924 925
f 920 925 926
f 920 926 921
usemtl c878
f 921 926 927
usemtl c879
f 921 927 928
usemtl c880
f 921 928 922
usemtl c881
f 922 928 923
usemtl c882
f 923 928 927
usemtl c883
f 923 927 926
usemtl c884
f 923 926 929
f 923 929 924
usemtl c885
f 924 929 930
usemtl c886
f 924 930 925
usemtl c887
f 925 930 931
usemtl c888
f 925 931 932
usemtl c873
f 925 932 926
usemtl c878
f 926 932 929
usemtl c889
f 929 932 933
usemtl c890
f 929 933 934
usemtl c891
f 929 934 930
usemtl c885
f 929 930 930
usemtl c891
f 929 930 929
usemtl c892
f 935 936 937
usemtl c893
f 935 937 938
usemtl c894
f 935 938 939
usemtl c874
f 935 939 940
usemtl c873
f 935 940 941
usemtl c892
f 935 941 936
usemtl c895
f 936 941 942
f 936 942 937
usemtl c896
f 937 942 943
f 937 943 938
usemtl c883
f 938 943 944
usemtl c897
f 938 944 939
f 939 944 942
usemtl c898
f 939 942 945
usemtl c890
f 939 945 946
usemtl c899
f 939 946 940
usemtl c891
f 940 946 947
usemtl c900
f 940 947 948
usemtl c901
f 940 948 941
usemtl c902
f 941 948 945
usemtl c873
f 941 945 942
usemtl c903
f 949 950 951
usemtl c904
f 931 952 932
usemtl c905
f 931 932 931
usemtl c887
f 931 932 932
usemtl c906
f 952 931 930
usemtl c880
f 952 930 934
usemtl c891
f 952 934 819
usemtl c907
f 952 819 824
usemtl c908
f 952 824 953
usemtl c885
f 952 953 932
usemtl c891
f 932 953 933
usemtl c890
f 933 953 823
f 933 823 826
usemtl c909
f 933 826 934
usemtl c890
f 934 826 819
usemtl c909
f 953 824 823
usemtl c883
f 942 944 943
usemtl c905
f 945 948 948
usemtl c887
f 945 948 945
usemtl c906
f 945 948 954
usemtl c889
f 945 954 955
usemtl c891
f 945 955 946
usemtl c909
f 946 955 956
usemtl c910
f 946 956 957
usemtl c891
f 946 957 947
usemtl c880
f 946 947 947
usemtl c911
f 946 947 946
usemtl c900
f 948 947 957
usemtl c912
f 948 957 954
usemtl c909
f 954 957 861
usemtl c910
f 954 861 856
usemtl c891
f 954 856 955
usemtl c913
f 955 856 863
usemtl c909
f 955 863 956
f 956 863 862
usemtl c890
f 956 862 957
usemtl c914
f 957 862 861
