# Made by RuneLite Model-Dumper Plugin
mtllib mithril-kiteshield.mtl
o Item Mithril kiteshield 2026-09-24_18-14-08
v -9 8 42
v 22 -1 57
v 22 5 57
v -9 14 42
v -40 1 45
v -40 -5 45
v -30 -6 1
v 9 7 -41
v 31 -3 14
v 31 3 14
v 20 9 48
v -4 14 39
v -12 15 37
v -35 4 38
v -27 3 2
v -30 0 1
v -25 -1 -26
v -25 -7 -26
v 9 12 -41
v 36 1 -14
v 36 -4 -14
v 29 6 5
v 26 6 13
v 3 12 7
v -4 12 6
v 3 11 -34
v 11 12 -32
v 32 7 -11
v 5 12 -1
v -3 12 -2
v -25 3 -6
v -23 2 -21
usemtl c0
f 1 2 3
usemtl c1
f 1 3 4
usemtl c2
f 1 4 5
usemtl c3
f 1 5 6
usemtl c4
f 1 6 7
usemtl c5
f 1 7 8
usemtl c6
f 1 8 9
usemtl c7
f 1 9 2
usemtl c8
f 2 9 3
usemtl c9
f 3 9 10
usemtl c10
f 3 10 11
usemtl c11
f 3 11 12
usemtl c12
f 3 12 4
usemtl c13
f 4 12 13
usemtl c2
f 4 13 5
usemtl c3
f 5 13 14
usemtl c14
f 5 14 15
usemtl c15
f 5 15 16
f 5 16 6
usemtl c1
f 6 16 7
usemtl c13
f 7 16 17
usemtl c8
f 7 17 18
usemtl c16
f 7 18 8
usemtl c17
f 8 18 19
usemtl c18
f 8 19 20
usemtl c19
f 8 20 21
usemtl c18
f 8 21 9
f 9 21 10
usemtl c19
f 10 21 20
usemtl c20
f 10 20 22
usemtl c21
f 10 22 23
usemtl c16
f 10 23 11
usemtl c22
f 11 23 12
usemtl c23
f 12 23 24
usemtl c24
f 12 24 25
usemtl c25
f 12 25 13
usemtl c26
f 13 25 15
usemtl c27
f 13 15 14
usemtl c28
f 18 17 19
usemtl c24
f 19 17 26
usemtl c29
f 19 26 27
usemtl c30
f 19 27 20
f 20 27 28
usemtl c31
f 20 28 22
usemtl c32
f 22 28 29
usemtl c33
f 22 29 23
usemtl c34
f 23 29 24
usemtl c35
f 24 29 30
usemtl c25
f 24 30 25
usemtl c36
f 25 30 31
usemtl c1
f 25 31 15
usemtl c37
f 15 31 16
usemtl c38
f 16 31 17
usemtl c39
f 17 31 32
usemtl c13
f 17 32 26
usemtl c40
f 26 32 30
usemtl c41
f 26 30 29
usemtl c24
f 26 29 27
usemtl c42
f 27 29 28
usemtl c43
f 30 32 31
