# Made by RuneLite Model-Dumper Plugin
mtllib summer-pie.mtl
o Item Summer pie 2026-09-13_16-42-19
v -2 0 0
v 11 0 -13
v 16 0 -4
v 16 0 4
v 11 0 13
v 2 0 18
v -6 0 18
v -15 0 13
v -20 0 4
v -20 0 -4
v -15 0 -13
v -6 0 -18
v 2 0 -18
v 14 12 -16
v 21 12 -5
v 21 12 5
v 14 12 16
v 3 12 23
v -7 12 23
v -18 12 16
v -25 12 5
v -25 12 -5
v -18 12 -16
v -7 12 -23
v 3 12 -23
v 23 12 -6
v 16 12 -18
v 14 15 -16
v 20 17 -5
v 23 12 6
v 20 15 5
v 16 12 18
v 14 17 16
v 4 12 25
v 3 15 22
v -7 12 25
v -7 17 22
v -19 12 18
v -18 15 16
v -27 12 6
v -24 17 5
v -27 12 -6
v -24 15 -5
v -19 12 -18
v -18 17 -16
v -7 12 -25
v -7 15 -22
v 4 12 -25
v 3 17 -22
v 1 15 -16
v 9 15 -11
v 14 15 -3
v 14 15 3
v 9 15 11
v 1 15 16
v -5 15 16
v -13 15 11
v -18 15 3
v -18 15 -3
v -13 15 -11
v -5 15 -16
v -2 12 0
v 1 15 -8
v -2 15 -9
v -5 15 9
v -2 15 10
v 2 15 0
v 1 15 9
v -5 15 -8
v -6 15 0
v 9 15 -4
v 7 15 -6
v 5 15 5
v 7 15 6
v 10 15 0
v 9 15 5
v 5 15 -4
v 4 15 0
v -9 15 -4
v -11 15 -6
v -13 15 5
v -11 15 6
v -8 15 0
v -9 15 5
v -13 15 -4
v -14 15 0
usemtl c0
f 1 2 3
usemtl c1
f 1 3 4
usemtl c2
f 1 4 5
usemtl c3
f 1 5 6
usemtl c4
f 1 6 7
usemtl c5
f 1 7 8
usemtl c6
f 1 8 9
usemtl c7
f 1 9 10
usemtl c8
f 1 10 11
usemtl c9
f 1 11 12
usemtl c10
f 1 12 13
usemtl c11
f 1 13 2
usemtl c12
f 2 13 14
usemtl c13
f 2 14 15
usemtl c14
f 2 15 3
usemtl c15
f 3 15 16
usemtl c16
f 3 16 4
usemtl c17
f 4 16 17
usemtl c18
f 4 17 5
usemtl c19
f 5 17 18
usemtl c20
f 5 18 6
usemtl c21
f 6 18 19
usemtl c22
f 6 19 7
usemtl c23
f 7 19 20
usemtl c24
f 7 20 8
usemtl c25
f 8 20 21
usemtl c26
f 8 21 9
f 9 21 22
usemtl c27
f 9 22 10
usemtl c28
f 10 22 23
usemtl c29
f 10 23 11
usemtl c30
f 11 23 24
usemtl c17
f 11 24 12
usemtl c31
f 12 24 25
usemtl c32
f 12 25 13
usemtl c33
f 13 25 14
usemtl c34
f 26 27 28
usemtl c35
f 26 28 29
usemtl c36
f 26 29 30
usemtl c37
f 30 29 31
usemtl c38
f 30 31 32
usemtl c39
f 32 31 33
usemtl c40
f 32 33 34
usemtl c41
f 34 33 35
usemtl c42
f 34 35 36
usemtl c43
f 36 35 37
usemtl c44
f 36 37 38
usemtl c45
f 38 37 39
usemtl c46
f 38 39 40
usemtl c47
f 40 39 41
f 40 41 42
usemtl c48
f 42 41 43
usemtl c49
f 42 43 44
usemtl c50
f 44 43 45
usemtl c51
f 44 45 46
usemtl c52
f 46 45 47
usemtl c53
f 46 47 48
usemtl c54
f 48 47 49
usemtl c55
f 48 49 27
usemtl c56
f 27 49 28
usemtl c57
f 28 49 50
usemtl c58
f 28 50 51
usemtl c57
f 28 51 29
usemtl c59
f 29 51 52
usemtl c60
f 29 52 31
usemtl c61
f 31 52 53
usemtl c62
f 31 53 33
usemtl c63
f 33 53 54
usemtl c40
f 33 54 35
usemtl c61
f 35 54 55
usemtl c64
f 35 55 37
usemtl c65
f 37 55 56
usemtl c66
f 37 56 39
usemtl c67
f 39 56 57
usemtl c68
f 39 57 41
usemtl c69
f 41 57 58
usemtl c61
f 41 58 43
usemtl c70
f 43 58 59
usemtl c50
f 43 59 45
usemtl c70
f 45 59 60
usemtl c71
f 45 60 47
usemtl c72
f 47 60 61
usemtl c73
f 47 61 49
usemtl c74
f 49 61 50
usemtl c75
f 50 61 62
f 50 62 51
usemtl c76
f 51 62 52
usemtl c77
f 52 62 53
usemtl c78
f 53 62 54
usemtl c79
f 54 62 55
usemtl c80
f 55 62 56
f 56 62 57
f 57 62 58
usemtl c81
f 58 62 59
usemtl c82
f 59 62 60
usemtl c83
f 60 62 61
usemtl c84
f 63 64 65
f 63 65 66
f 63 66 67
f 67 66 68
f 64 69 70
f 64 70 65
f 71 72 73
f 71 73 74
f 71 74 75
f 75 74 76
f 72 77 78
f 72 78 73
f 79 80 81
f 79 81 82
f 79 82 83
f 83 82 84
f 80 85 86
f 80 86 81
