# Made by RuneLite Model-Dumper Plugin
mtllib range.mtl
o Object Cooking range 2026-09-12_20-20-24
v 0 128 40
v 0 224 40
v 16 224 40
v 16 128 40
v 32 96 24
v -16 96 24
v -16 96 72
v 0 128 56
v 0 224 56
v 16 224 56
v 16 128 56
v 32 96 72
v 48 88 -48
v -32 88 -48
v -32 88 -40
v 48 88 -40
v 40 88 -40
v 32 88 -40
v 32 88 -16
v 40 88 -16
v 32 88 -72
v 24 88 -72
v 24 88 -48
v 32 88 -48
v 16 88 -40
v 8 88 -40
v 8 88 -16
v 16 88 -16
v 8 88 -72
v 0 88 -72
v 0 88 -48
v 8 88 -48
v -8 88 -40
v -16 88 -40
v -16 88 -16
v -8 88 -16
v -16 88 -72
v -24 88 -72
v -24 88 -48
v -16 88 -48
v -32 80 -16
v -32 88 -16
v 48 88 -16
v 48 80 -16
v -32 80 -72
v -32 88 -72
v -32 96 0
v -32 88 0
v 48 88 0
v 48 96 0
v 48 96 -88
v 48 88 -72
v 48 80 -72
v 48 88 -88
v -32 88 -88
v -32 96 -88
v -40 96 0
v -40 96 96
v 0 112 -52
v -28 112 -52
v -32 116 -44
v -4 116 -44
v 0 112 -36
v -28 112 -36
v -24 108 -44
v 36 96 -60
v 20 96 -68
v 4 96 -60
v -4 96 -44
v 4 96 -28
v 20 96 -20
v 36 96 -28
v 44 96 -44
v 44 120 -44
v 36 120 -60
v 36 120 -28
v 20 120 -20
v 4 120 -28
v -4 120 -44
v 4 120 -60
v 20 120 -68
v 56 96 96
v 56 96 0
v 56 96 -96
v -40 96 -96
v -40 32 0
v -40 32 -96
v 56 32 -96
v 56 32 96
v -40 32 96
v -48 96 88
v -48 32 88
v -56 88 72
v -56 48 72
v -56 32 72
v -56 48 60
v -56 48 52
v -56 48 44
v -56 32 24
v -56 48 36
v -56 48 24
v -48 32 8
v -48 96 8
v -32 16 -88
v -32 16 -72
v -32 32 -72
v -32 32 -88
v -16 32 -88
v -16 16 -88
v 48 16 88
v 48 16 72
v 48 32 72
v 48 32 88
v 32 16 88
v 32 32 88
v -32 16 72
v -32 16 88
v -32 32 88
v -32 32 72
v 48 16 -72
v 48 16 -88
v 48 32 -88
v 48 32 -72
v 32 16 -88
v 32 32 -88
v -16 32 88
v -16 16 88
v -48 88 20
v -48 48 20
v -48 48 76
v -48 88 76
v -56 88 24
v -56 96 24
v -56 96 72
v -56 88 52
v -56 88 44
v -56 88 36
v -56 88 60
v -64 16 -104
v 64 16 -104
v 64 0 -104
v -64 0 -104
v -64 16 104
v 64 16 104
v 64 0 104
v -64 0 104
usemtl c0
f 1 2 3
usemtl c1
f 1 3 4
usemtl c2
f 1 4 5
usemtl c1
f 1 5 6
usemtl c3
f 1 6 7
usemtl c4
f 1 7 8
usemtl c5
f 1 8 2
usemtl c6
f 1 2 9
f 1 9 8
usemtl c5
f 8 9 2
f 9 8 10
usemtl c6
f 9 10 11
f 9 11 8
usemtl c5
f 8 11 10
usemtl c0
f 10 11 3
usemtl c6
f 10 3 4
usemtl c7
f 10 4 11
usemtl c1
f 11 4 3
f 4 11 12
usemtl c7
f 4 12 5
usemtl c8
f 7 12 11
usemtl c4
f 7 11 8
usemtl c9
f 13 14 15
f 13 15 16
f 17 18 19
f 17 19 20
f 21 22 23
f 21 23 24
f 25 26 27
f 25 27 28
f 29 30 31
f 29 31 32
f 33 34 35
f 33 35 36
f 37 38 39
f 37 39 40
usemtl c10
f 41 42 43
usemtl c11
f 41 43 44
usemtl c12
f 41 44 45
usemtl c13
f 41 45 42
usemtl c14
f 42 45 46
usemtl c15
f 42 46 47
usemtl c16
f 42 47 48
usemtl c1
f 42 48 43
usemtl c17
f 43 48 49
usemtl c18
f 43 49 50
usemtl c19
f 43 50 51
usemtl c20
f 43 51 52
usemtl c21
f 43 52 44
usemtl c22
f 44 52 53
usemtl c23
f 44 53 45
usemtl c24
f 45 53 46
usemtl c25
f 46 53 52
usemtl c26
f 46 52 54
usemtl c5
f 46 54 55
usemtl c27
f 46 55 56
usemtl c1
f 46 56 47
usemtl c0
f 47 56 57
usemtl c5
f 47 57 58
f 47 58 50
usemtl c17
f 47 50 49
usemtl c28
f 47 49 48
usemtl c29
f 59 60 61
f 59 61 62
usemtl c30
f 62 61 63
usemtl c31
f 63 61 64
usemtl c32
f 64 61 65
usemtl c33
f 65 61 60
usemtl c34
f 66 67 68
f 66 68 69
usemtl c35
f 66 69 70
usemtl c36
f 66 70 71
usemtl c37
f 66 71 72
usemtl c38
f 66 72 73
usemtl c39
f 66 73 74
usemtl c40
f 66 74 75
usemtl c41
f 66 75 73
f 73 75 74
usemtl c42
f 73 74 72
f 73 72 76
usemtl c39
f 73 76 74
f 74 76 72
usemtl c42
f 72 76 71
f 72 71 77
usemtl c39
f 72 77 76
f 76 77 71
usemtl c43
f 71 77 70
usemtl c44
f 71 70 78
usemtl c41
f 71 78 77
usemtl c45
f 77 78 70
f 70 78 69
usemtl c46
f 70 69 79
usemtl c42
f 70 79 78
usemtl c47
f 78 79 69
usemtl c48
f 69 79 68
f 69 68 80
usemtl c49
f 69 80 79
f 79 80 68
usemtl c48
f 68 80 67
f 68 67 81
usemtl c49
f 68 81 80
f 80 81 67
usemtl c48
f 67 81 66
usemtl c40
f 67 66 75
usemtl c47
f 67 75 81
f 81 75 66
usemtl c6
f 4 3 2
usemtl c7
f 4 2 1
usemtl c19
f 50 58 82
usemtl c27
f 50 82 83
usemtl c17
f 50 83 84
usemtl c9
f 50 84 51
usemtl c5
f 51 84 85
usemtl c8
f 51 85 56
usemtl c4
f 51 56 54
usemtl c50
f 51 54 52
usemtl c19
f 86 57 85
usemtl c8
f 86 85 87
usemtl c51
f 87 85 88
usemtl c1
f 88 85 84
usemtl c28
f 88 84 83
usemtl c2
f 88 83 89
usemtl c0
f 89 83 82
usemtl c8
f 89 82 58
usemtl c52
f 89 58 90
usemtl c53
f 90 58 91
usemtl c54
f 90 91 92
usemtl c53
f 92 91 93
usemtl c55
f 92 93 94
usemtl c56
f 92 94 95
usemtl c57
f 95 94 96
usemtl c58
f 95 96 97
f 95 97 98
usemtl c59
f 95 98 99
usemtl c60
f 99 98 100
usemtl c61
f 99 100 101
usemtl c62
f 99 101 102
usemtl c63
f 102 101 103
usemtl c9
f 102 103 57
usemtl c19
f 102 57 86
usemtl c50
f 104 105 106
usemtl c26
f 104 106 107
usemtl c51
f 104 107 108
usemtl c7
f 104 108 109
usemtl c15
f 110 111 112
usemtl c17
f 110 112 113
usemtl c3
f 110 113 114
usemtl c64
f 114 113 115
usemtl c59
f 116 117 118
f 116 118 119
usemtl c65
f 120 121 122
f 120 122 123
f 124 125 122
f 124 122 121
usemtl c59
f 126 118 117
f 126 117 127
usemtl c66
f 56 85 57
usemtl c8
f 54 56 55
usemtl c67
f 128 129 130
usemtl c68
f 128 130 131
usemtl c69
f 131 130 94
usemtl c70
f 131 94 93
usemtl c71
f 129 128 132
usemtl c67
f 129 132 101
usemtl c72
f 129 101 94
usemtl c73
f 129 94 130
usemtl c26
f 103 101 132
usemtl c20
f 103 132 133
usemtl c74
f 103 133 134
usemtl c50
f 103 134 91
usemtl c74
f 103 91 58
usemtl c19
f 103 58 57
usemtl c57
f 135 134 133
usemtl c60
f 135 133 136
f 136 133 137
usemtl c59
f 136 137 100
f 136 100 98
f 97 96 138
f 97 138 135
usemtl c60
f 135 138 134
usemtl c57
f 134 138 93
f 134 93 91
usemtl c64
f 137 133 132
usemtl c75
f 139 140 141
usemtl c76
f 139 141 142
usemtl c77
f 139 142 143
usemtl c78
f 139 143 144
usemtl c79
f 139 144 140
usemtl c80
f 140 144 145
usemtl c81
f 140 145 141
usemtl c82
f 142 146 143
usemtl c83
f 143 146 144
usemtl c84
f 144 146 145
