# Made by RuneLite Model-Dumper Plugin
mtllib air.mtl
o Item Air rune 2026-09-20_20-15-33
v -20 8 6
v -15 8 15
v -12 16 12
v -15 16 5
v -20 8 -6
v -20 0 -6
v -20 0 6
v -15 0 15
v -6 8 20
v -5 16 15
v 5 16 15
v 13 16 11
v 16 16 5
v 16 16 -5
v 12 16 -12
v 5 16 -15
v -5 16 -15
v -12 16 -12
v -15 16 -5
v -15 8 -15
v -15 0 -15
v -6 0 -20
v 6 0 -20
v 15 0 -15
v 20 0 -6
v 20 0 6
v 16 0 14
v 6 0 20
v -6 0 20
v 6 8 20
v 16 8 14
v 20 8 6
v 20 8 -6
v 15 8 -15
v 6 8 -20
v -6 8 -20
v 2 17 -4
v 6 17 -10
v 3 17 -11
v -2 17 -5
v -2 17 5
v 2 17 4
v 3 17 11
v 6 17 10
v -6 17 -4
v 1 17 -12
v -3 17 -13
v -11 17 -7
v -11 17 7
v -6 17 4
v -3 17 13
v 1 17 12
v 7 17 -2
v 11 17 -8
v 9 17 -9
v 4 17 -4
v 4 17 3
v 7 17 2
v 9 17 9
v 11 17 8
v 13 17 -4
v 9 17 -2
v 9 17 2
v 13 17 4
usemtl c0
f 1 2 3
usemtl c1
f 1 3 4
usemtl c2
f 1 4 5
usemtl c3
f 1 5 6
usemtl c4
f 1 6 7
usemtl c5
f 1 7 2
usemtl c6
f 2 7 8
usemtl c7
f 2 8 9
usemtl c8
f 2 9 10
usemtl c9
f 2 10 3
usemtl c10
f 3 10 4
usemtl c11
f 4 10 11
usemtl c12
f 4 11 12
usemtl c13
f 4 12 13
usemtl c14
f 4 13 14
usemtl c15
f 4 14 15
usemtl c16
f 4 15 16
usemtl c17
f 4 16 17
usemtl c18
f 4 17 18
usemtl c19
f 4 18 19
usemtl c20
f 4 19 5
usemtl c21
f 5 19 20
usemtl c22
f 5 20 21
usemtl c23
f 5 21 6
usemtl c24
f 6 21 7
usemtl c25
f 7 21 22
usemtl c26
f 7 22 23
usemtl c27
f 7 23 24
usemtl c28
f 7 24 25
usemtl c29
f 7 25 26
usemtl c16
f 7 26 27
usemtl c30
f 7 27 28
usemtl c31
f 7 28 29
usemtl c32
f 7 29 8
usemtl c33
f 8 29 9
usemtl c34
f 9 29 30
usemtl c3
f 9 30 11
usemtl c35
f 9 11 10
usemtl c36
f 30 31 12
usemtl c37
f 30 12 11
usemtl c38
f 31 32 13
usemtl c39
f 31 13 12
usemtl c40
f 32 33 14
usemtl c27
f 32 14 13
usemtl c41
f 33 34 15
usemtl c42
f 33 15 14
usemtl c43
f 34 35 16
usemtl c44
f 34 16 15
usemtl c45
f 35 36 17
usemtl c46
f 35 17 16
usemtl c47
f 36 20 18
usemtl c38
f 36 18 17
usemtl c24
f 20 19 18
usemtl c48
f 29 28 30
usemtl c49
f 30 28 31
usemtl c50
f 31 28 27
usemtl c38
f 31 27 32
usemtl c51
f 32 27 26
usemtl c52
f 32 26 33
usemtl c53
f 33 26 25
usemtl c54
f 33 25 34
usemtl c55
f 34 25 24
usemtl c56
f 34 24 35
usemtl c57
f 35 24 23
usemtl c58
f 35 23 36
usemtl c59
f 36 23 22
usemtl c60
f 36 22 20
usemtl c61
f 20 22 21
usemtl c62
f 37 38 39
f 37 39 40
f 37 40 41
f 37 41 42
f 42 41 43
f 42 43 44
f 45 46 47
f 45 47 48
f 45 48 49
f 45 49 50
f 50 49 51
f 50 51 52
f 53 54 55
f 53 55 56
f 53 56 57
f 53 57 58
f 58 57 59
f 58 59 60
f 61 62 63
f 61 63 64
