# Made by RuneLite Model-Dumper Plugin
mtllib splitbark-robe-top.mtl
o Item Splitbark body 2026-09-24_18-04-49
v 13 18 8
v 12 2 9
v 16 1 -3
v 13 26 3
v 9 24 6
v 8 24 8
v 6 21 10
v 0 12 20
v 0 8 20
v 2 1 15
v -3 1 18
v -9 2 32
v -16 -4 30
v 17 5 -14
v 17 17 -14
v 6 23 -12
v 0 26 -5
v -2 24 -2
v -3 24 -1
v -5 24 1
v -15 23 13
v -2 21 17
v -8 20 32
v -4 10 33
v 17 1 -10
v 10 1 -17
v 6 5 -23
v 2 1 -23
v -4 1 -20
v 6 17 -23
v -10 26 -16
v -16 2 -14
v -15 18 -15
v -13 24 -11
v -34 20 10
v -21 21 2
v -25 12 0
v -36 10 6
v -25 8 0
v -35 2 11
v -21 1 2
v -31 -4 18
v -16 21 -7
v -14 24 -10
v -20 29 20
v -15 26 29
v -30 26 16
v -20 1 -3
v -18 15 -37
v -6 17 -33
v -12 9 -47
v -18 2 -37
v -29 14 -27
v -26 21 -23
v -19 25 -19
v -11 28 -17
v 6 19 -26
v 6 4 -27
v -7 5 -32
v -6 -2 -21
v -18 -4 -16
v -25 -3 -23
v -29 3 -27
v -28 5 -24
v -28 14 -24
v -26 19 -21
v -18 23 -17
v -11 26 -16
v 5 17 -24
v 5 5 -24
v 1 0 -25
v 1 1 -23
v -5 1 -21
v -17 2 -14
v -26 -1 -20
v 43 9 0
v 30 17 -5
v 35 15 6
v 35 2 6
v 29 5 -4
v 20 4 -15
v 20 19 -14
v 14 28 3
v 18 25 11
v 23 21 17
v 27 14 19
v 27 3 19
v 23 -3 16
v 14 -4 11
v 17 -2 -2
v 20 0 -10
v 14 26 4
v 16 23 11
v 21 19 17
v 24 14 19
v 24 5 19
v 20 -1 18
v 13 2 10
v 18 1 -9
usemtl c0
f 1 2 3
usemtl c1
f 1 3 4
usemtl c2
f 1 4 5
usemtl c3
f 1 5 6
usemtl c4
f 1 6 7
usemtl c5
f 1 7 8
usemtl c6
f 1 8 2
f 2 8 9
usemtl c7
f 2 9 10
usemtl c8
f 10 9 11
usemtl c9
f 11 9 12
usemtl c10
f 11 12 13
usemtl c11
f 3 14 15
usemtl c12
f 3 15 4
usemtl c13
f 4 15 16
usemtl c14
f 4 16 17
usemtl c15
f 4 17 5
usemtl c16
f 5 17 18
usemtl c17
f 5 18 19
f 5 19 6
usemtl c18
f 6 19 7
usemtl c8
f 7 19 20
usemtl c19
f 7 20 21
usemtl c8
f 7 21 22
usemtl c7
f 7 22 8
usemtl c10
f 8 22 23
usemtl c20
f 8 23 24
usemtl c0
f 8 24 9
usemtl c9
f 9 24 12
usemtl c1
f 25 14 3
usemtl c21
f 14 25 26
usemtl c22
f 14 26 27
usemtl c21
f 27 26 28
usemtl c23
f 27 28 29
usemtl c0
f 27 29 30
usemtl c9
f 30 29 31
usemtl c13
f 30 31 16
f 30 16 15
usemtl c20
f 29 32 33
usemtl c24
f 29 33 31
usemtl c2
f 31 33 34
usemtl c15
f 31 34 17
usemtl c14
f 31 17 16
usemtl c25
f 35 36 37
f 35 37 38
usemtl c10
f 38 37 39
usemtl c23
f 38 39 40
f 40 39 41
usemtl c26
f 40 41 42
usemtl c8
f 43 20 19
usemtl c27
f 43 19 44
usemtl c15
f 43 44 33
usemtl c28
f 43 33 37
usemtl c5
f 43 37 36
usemtl c19
f 43 36 21
usemtl c29
f 43 21 20
usemtl c0
f 21 45 46
usemtl c25
f 21 46 22
usemtl c30
f 22 46 23
usemtl c9
f 47 45 21
usemtl c25
f 47 21 36
usemtl c31
f 47 36 35
usemtl c5
f 39 32 48
usemtl c28
f 39 48 41
usemtl c19
f 33 32 39
f 33 39 37
usemtl c16
f 34 18 17
usemtl c17
f 18 34 19
f 19 34 44
usemtl c32
f 44 34 33
usemtl c33
f 49 50 51
usemtl c34
f 49 51 52
usemtl c35
f 49 52 53
usemtl c36
f 49 53 54
usemtl c30
f 49 54 55
f 49 55 56
usemtl c10
f 49 56 50
usemtl c9
f 50 56 57
usemtl c37
f 50 57 58
usemtl c38
f 50 58 59
usemtl c21
f 50 59 51
usemtl c39
f 51 59 52
usemtl c40
f 52 59 60
usemtl c9
f 52 60 61
usemtl c24
f 52 61 62
usemtl c30
f 52 62 63
usemtl c35
f 52 63 53
usemtl c41
f 53 63 64
f 53 64 65
f 53 65 54
f 54 65 66
f 54 66 55
usemtl c42
f 55 66 67
usemtl c41
f 55 67 56
f 56 67 68
usemtl c17
f 56 68 69
f 56 69 57
usemtl c43
f 57 69 58
usemtl c44
f 58 69 70
usemtl c33
f 58 70 71
usemtl c40
f 58 71 59
usemtl c0
f 59 71 60
usemtl c14
f 60 71 72
usemtl c2
f 60 72 73
usemtl c4
f 60 73 61
usemtl c34
f 61 73 74
usemtl c42
f 61 74 62
usemtl c45
f 62 74 75
usemtl c16
f 62 75 63
usemtl c41
f 63 75 64
usemtl c46
f 64 75 74
f 64 74 65
f 65 74 66
f 66 74 67
usemtl c47
f 67 74 68
usemtl c48
f 68 74 69
f 69 74 70
f 70 74 72
usemtl c13
f 70 72 71
usemtl c49
f 73 72 74
usemtl c43
f 76 77 78
usemtl c17
f 76 78 79
usemtl c50
f 76 79 80
usemtl c21
f 76 80 77
f 77 80 81
f 77 81 82
usemtl c9
f 77 82 83
usemtl c20
f 77 83 78
usemtl c26
f 78 83 84
usemtl c51
f 78 84 85
usemtl c30
f 78 85 86
usemtl c23
f 78 86 79
f 79 86 87
f 79 87 88
usemtl c24
f 79 88 89
usemtl c9
f 79 89 90
usemtl c52
f 79 90 80
usemtl c53
f 80 90 91
usemtl c54
f 80 91 81
usemtl c3
f 81 91 14
usemtl c44
f 81 14 15
usemtl c50
f 81 15 82
usemtl c32
f 82 15 83
usemtl c16
f 83 15 92
usemtl c42
f 83 92 93
usemtl c41
f 83 93 84
usemtl c42
f 84 93 94
f 84 94 85
usemtl c41
f 85 94 95
usemtl c27
f 85 95 86
usemtl c55
f 86 95 96
f 86 96 87
usemtl c27
f 87 96 97
usemtl c4
f 87 97 88
usemtl c45
f 88 97 98
usemtl c42
f 88 98 89
usemtl c15
f 89 98 3
usemtl c2
f 89 3 90
usemtl c4
f 90 3 99
usemtl c56
f 90 99 91
f 91 99 14
usemtl c57
f 14 99 98
usemtl c58
f 14 98 15
f 15 98 92
usemtl c47
f 92 98 93
usemtl c46
f 93 98 94
f 94 98 95
f 95 98 96
f 96 98 97
usemtl c57
f 98 99 3
