# Made by RuneLite Model-Dumper Plugin
mtllib mithril-dagger.mtl
o Item Mithril dagger 2026-09-24_13-30-54
v 0 7 -17
v 0 5 -22
v 0 11 -22
v 0 9 -17
v 2 7 -6
v 2 9 -6
v -1 9 -4
v -3 9 -15
v -1 7 -4
v -3 7 -15
v -5 5 -21
v -5 11 -21
v -6 11 2
v -5 9 -4
v -5 7 -4
v -6 5 2
v 11 11 -2
v 6 9 -7
v 6 7 -7
v 11 5 -2
v 9 8 22
v 11 8 22
v 4 8 0
v 3 8 -1
v 5 8 23
v 9 8 31
v 0 8 0
v -1 8 1
v 3 8 24
usemtl c0
f 1 2 3
usemtl c1
f 1 3 4
usemtl c2
f 1 4 5
f 5 4 6
usemtl c3
f 6 4 7
f 7 4 8
usemtl c4
f 7 8 9
f 9 8 10
usemtl c5
f 10 8 11
usemtl c6
f 11 8 12
usemtl c7
f 11 12 2
usemtl c8
f 2 12 3
usemtl c9
f 3 12 8
usemtl c10
f 3 8 4
usemtl c11
f 13 14 15
usemtl c12
f 13 15 16
usemtl c13
f 13 16 17
usemtl c14
f 13 17 14
usemtl c15
f 14 17 18
usemtl c16
f 14 18 19
usemtl c17
f 14 19 15
usemtl c18
f 18 17 20
usemtl c19
f 18 20 19
usemtl c20
f 17 16 20
usemtl c21
f 21 22 23
f 21 23 24
usemtl c22
f 21 24 25
f 21 25 26
usemtl c21
f 21 26 22
usemtl c22
f 25 24 27
usemtl c23
f 25 27 28
f 25 28 29
f 25 29 26
