# Made by RuneLite Model-Dumper Plugin
mtllib furnace.mtl
o Object Pottery Oven 2026-09-13_18-46-40
v 22 40 -41
v 24 41 -51
v 41 24 -51
v 39 23 -41
v 35 20 -24
v 17 38 -24
v 35 20 25
v 17 38 25
v -35 19 25
v -17 38 25
v -35 19 -24
v -17 38 -24
v -39 23 -41
v -22 40 -41
v -24 41 -51
v -41 24 -51
v -45 45 -51
v -10 45 -51
v 0 48 -48
v -48 48 -48
v -45 10 -51
v -48 1 -48
v -51 45 -51
v -96 45 -51
v -96 48 -48
v 46 1 -41
v 41 1 -24
v 41 1 25
v -41 1 25
v -41 1 -24
v -46 1 -41
v 48 1 -48
v -115 49 30
v -112 48 33
v -112 96 33
v -115 93 30
v -115 49 -45
v -115 93 -45
v -112 48 -48
v -112 96 -48
v -115 49 36
v -115 93 36
v -115 93 51
v -112 96 51
v 115 93 51
v 112 96 51
v -115 97 51
v 115 97 51
v -115 128 51
v -115 128 3
v -115 97 3
v -112 96 0
v -112 128 0
v -115 97 -3
v -115 128 -3
v -115 97 -48
v -115 128 -48
v -115 49 51
v -112 0 0
v -115 0 3
v -115 45 3
v -112 48 0
v -115 0 -3
v -115 45 -3
v -115 0 -48
v -115 45 -48
v -115 0 51
v -115 45 51
v -112 48 51
v 128 149 -64
v 128 128 -48
v 128 0 -48
v 128 0 -64
v 96 0 -64
v 96 149 -64
v 93 221 -64
v 128 149 51
v 128 128 51
v -128 149 51
v -128 128 51
v -128 149 -64
v -128 128 -48
v -128 0 -64
v -128 0 -48
v -112 128 -48
v -112 0 -48
v -96 149 -64
v -96 0 -64
v -68 195 -64
v -96 149 -48
v -96 0 -48
v 68 195 -48
v 68 195 -64
v 96 149 -48
v 96 0 -48
v 0 208 -64
v 0 240 -64
v 0 240 51
v 93 221 51
v -93 221 51
v -93 221 -64
v -68 195 -48
v 47 184 -39
v 47 184 -48
v 73 156 -48
v 73 156 -39
v 73 156 -31
v 47 184 -31
v 73 156 -19
v 47 184 -19
v 73 156 3
v 47 184 3
v 73 156 38
v 47 184 38
v -73 156 38
v -47 184 38
v -73 156 3
v -47 184 3
v -73 156 -19
v -47 184 -19
v -73 156 -31
v -47 184 -31
v -73 156 -39
v -47 184 -39
v -47 184 -48
v -73 156 -48
v -73 156 -51
v -47 184 -51
v -65 200 -51
v -3 192 -51
v -4 194 -64
v -49 185 -64
v -75 158 -64
v 3 192 -51
v 4 194 -64
v 47 184 -51
v 49 185 -64
v 73 156 -51
v 73 128 -39
v 73 128 -31
v 73 128 -19
v 73 128 3
v 73 128 38
v -73 128 38
v -73 128 3
v -73 128 -19
v -73 128 -31
v -73 128 -39
v -73 128 -48
v -48 128 -48
v -73 128 -51
v -73 144 -48
v -73 141 -51
v -96 141 -51
v -96 144 -48
v 93 93 -51
v 96 96 -48
v 96 48 -48
v 93 49 -51
v 3 93 -51
v 0 96 -48
v 3 49 -51
v -3 93 -51
v -93 93 -51
v -96 96 -48
v -93 49 -51
v -3 49 -51
v 45 128 -51
v 48 128 -48
v 48 96 -48
v 45 97 -51
v -45 128 -51
v 73 128 -48
v 51 128 -51
v 51 97 -51
v -45 97 -51
v -48 96 -48
v -51 128 -51
v -51 97 -51
v -96 97 -51
v 96 97 -51
v 73 128 -51
v 96 141 -51
v 73 141 -51
v 96 144 -48
v 73 144 -48
v 73 145 -51
v 93 145 -51
v 93 154 -51
v -51 0 -51
v -96 0 -51
v 51 0 -51
v 48 48 -48
v 51 45 -51
v 96 0 -51
v 96 45 -51
v 45 45 -51
v 45 10 -51
v 10 45 -51
v 0 212 -48
v 3 212 -51
v 0 192 -48
v -3 212 -51
v 65 201 -51
v 75 158 -64
v 75 125 -64
v -75 125 -64
v -93 145 -51
v -93 154 -51
v -73 145 -51
v 115 93 30
v 112 96 33
v 112 48 33
v 115 49 30
v 115 93 -45
v 112 96 -48
v 115 49 -45
v 112 48 -48
v 115 93 36
v 115 49 36
v 115 49 51
v 112 48 0
v 115 45 3
v 115 0 3
v 112 0 0
v 115 45 -3
v 115 45 -48
v 115 0 -3
v 115 0 -48
v 115 45 51
v 115 0 51
v 112 48 51
v 112 128 0
v 115 128 3
v 115 97 3
v 112 96 0
v 115 128 -3
v 115 97 -3
v 115 128 -48
v 115 97 -48
v 115 128 51
v 112 0 -48
v 112 128 -48
v 19 15 4
v 12 22 -18
v -1 0 -5
v 1 0 10
v 7 0 -26
v 23 0 -30
v 25 25 -17
v 40 0 -17
v 36 19 -5
v 40 0 -1
v -21 0 -43
v -21 0 -28
v -17 3 -40
v -10 3 -42
v -10 0 -45
v 2 0 -33
v -8 16 -29
v 0 0 -18
v -13 0 -20
v 15 0 -33
v 14 0 -39
v 12 2 -37
v 9 9 -35
v 10 0 -30
v 7 2 -34
v 5 0 -33
v 8 2 -39
v 7 0 -42
v -21 10 2
v -25 15 -13
v -35 0 -4
v -33 0 6
v -29 0 -19
v -18 0 -22
v -16 17 -13
v -7 0 -13
v -9 12 -4
v -7 0 -1
v -23 0 -28
v -24 0 -34
v -26 2 -32
v -29 9 -30
v -28 0 -25
v -31 0 -37
v -30 2 -34
v -31 2 -29
v -33 0 -28
v 38 0 -29
v 39 0 -35
v 37 2 -34
v 33 9 -33
v 33 2 -37
v 31 2 -33
v 32 0 -28
v 29 0 -33
v 34 0 -40
v 22 40 -41
v 22 40 -41
v 22 40 -41
v 22 40 -41
v 22 40 -41
v 22 40 -41
v 22 40 -41
v 22 40 -41
usemtl c0
f 1 2 3
usemtl c1
f 1 3 4
usemtl c2
f 1 4 5
usemtl c3
f 1 5 6
usemtl c4
f 6 5 7
usemtl c5
f 6 7 8
usemtl c6
f 8 7 9
usemtl c7
f 8 9 10
usemtl c8
f 10 9 11
f 10 11 12
usemtl c9
f 12 11 13
f 12 13 14
usemtl c10
f 14 13 15
f 15 13 16
usemtl c11
f 15 16 17
usemtl c12
f 15 17 18
usemtl c13
f 18 17 19
usemtl c14
f 19 17 20
usemtl c15
f 20 17 21
usemtl c16
f 20 21 22
usemtl c17
f 20 22 23
usemtl c18
f 20 23 24
usemtl c19
f 20 24 25
usemtl c20
f 4 26 27
usemtl c1
f 4 27 5
usemtl c21
f 5 27 28
usemtl c22
f 5 28 7
usemtl c23
f 7 28 29
usemtl c24
f 7 29 9
usemtl c25
f 9 29 30
usemtl c26
f 9 30 11
usemtl c27
f 11 30 31
usemtl c28
f 11 31 13
usemtl c29
f 13 31 21
usemtl c30
f 13 21 16
usemtl c31
f 16 21 17
usemtl c23
f 27 30 29
usemtl c32
f 27 29 28
usemtl c33
f 26 31 30
usemtl c0
f 26 30 27
usemtl c34
f 26 32 22
usemtl c35
f 26 22 31
usemtl c36
f 31 22 21
usemtl c37
f 33 34 35
usemtl c38
f 33 35 36
usemtl c39
f 33 36 37
usemtl c40
f 37 36 38
usemtl c41
f 37 38 39
usemtl c42
f 39 38 40
usemtl c43
f 40 38 35
usemtl c44
f 35 38 36
usemtl c45
f 34 41 42
usemtl c46
f 34 42 35
usemtl c47
f 35 42 43
usemtl c48
f 35 43 44
usemtl c49
f 44 43 45
usemtl c50
f 44 45 46
usemtl c51
f 44 46 47
usemtl c52
f 47 46 48
usemtl c53
f 47 48 49
usemtl c54
f 47 49 50
usemtl c55
f 47 50 51
usemtl c53
f 51 50 52
usemtl c56
f 52 50 53
usemtl c37
f 52 53 54
usemtl c57
f 54 53 55
usemtl c58
f 54 55 56
usemtl c59
f 56 55 57
usemtl c60
f 41 58 43
usemtl c38
f 41 43 42
usemtl c61
f 59 60 61
usemtl c62
f 59 61 62
usemtl c37
f 59 62 63
usemtl c38
f 63 62 64
usemtl c63
f 63 64 65
usemtl c39
f 65 64 66
usemtl c64
f 66 64 62
usemtl c65
f 66 62 39
usemtl c38
f 61 60 67
usemtl c60
f 61 67 68
usemtl c66
f 61 68 69
usemtl c67
f 61 69 62
usemtl c68
f 70 71 72
usemtl c69
f 70 72 73
f 70 73 74
usemtl c70
f 70 74 75
usemtl c71
f 70 75 76
usemtl c72
f 70 76 77
usemtl c71
f 70 77 71
usemtl c73
f 71 77 78
usemtl c74
f 78 77 79
usemtl c51
f 78 79 80
usemtl c49
f 80 79 81
f 80 81 82
usemtl c75
f 82 81 83
usemtl c76
f 82 83 84
usemtl c77
f 82 84 85
f 85 84 86
usemtl c17
f 87 88 83
usemtl c78
f 87 83 81
usemtl c79
f 87 81 89
usemtl c80
f 87 89 90
f 87 90 88
f 88 90 91
usemtl c81
f 92 93 75
usemtl c82
f 92 75 94
usemtl c83
f 94 75 95
usemtl c82
f 95 75 74
usemtl c84
f 75 93 76
usemtl c85
f 76 93 96
usemtl c86
f 76 96 97
usemtl c87
f 76 97 98
usemtl c88
f 76 98 99
usemtl c89
f 76 99 77
usemtl c75
f 77 99 79
usemtl c90
f 79 99 100
usemtl c91
f 79 100 81
usemtl c92
f 81 100 101
usemtl c93
f 81 101 89
usemtl c68
f 89 101 97
usemtl c69
f 89 97 96
usemtl c80
f 89 102 90
usemtl c94
f 103 104 105
usemtl c95
f 103 105 106
usemtl c96
f 103 106 107
usemtl c97
f 103 107 108
usemtl c98
f 108 107 109
usemtl c99
f 108 109 110
usemtl c100
f 110 109 111
usemtl c101
f 110 111 112
usemtl c102
f 112 111 113
usemtl c4
f 112 113 114
usemtl c103
f 114 113 115
usemtl c7
f 114 115 116
usemtl c104
f 116 115 117
usemtl c105
f 116 117 118
usemtl c106
f 118 117 119
usemtl c107
f 118 119 120
usemtl c24
f 120 119 121
usemtl c108
f 120 121 122
usemtl c109
f 122 121 123
usemtl c110
f 122 123 124
usemtl c111
f 124 123 125
usemtl c112
f 125 123 126
usemtl c113
f 125 126 127
usemtl c114
f 125 127 128
usemtl c93
f 128 127 129
usemtl c115
f 128 129 130
usemtl c116
f 128 130 131
usemtl c117
f 128 131 132
usemtl c116
f 128 132 127
usemtl c118
f 128 127 133
usemtl c117
f 128 133 132
usemtl c119
f 128 132 130
usemtl c117
f 130 132 131
usemtl c120
f 130 131 134
usemtl c121
f 130 134 135
usemtl c122
f 130 135 131
usemtl c123
f 131 135 134
usemtl c122
f 134 135 136
usemtl c117
f 134 136 137
usemtl c124
f 134 137 135
usemtl c125
f 135 137 136
usemtl c126
f 136 137 138
usemtl c127
f 136 138 105
usemtl c128
f 136 105 104
usemtl c129
f 106 139 140
usemtl c96
f 106 140 107
usemtl c99
f 107 140 141
usemtl c98
f 107 141 109
usemtl c101
f 109 141 142
usemtl c100
f 109 142 111
usemtl c130
f 111 142 143
usemtl c131
f 111 143 113
usemtl c132
f 113 143 144
usemtl c133
f 113 144 115
usemtl c134
f 115 144 145
usemtl c107
f 115 145 117
usemtl c132
f 117 145 146
usemtl c135
f 117 146 119
usemtl c32
f 119 146 147
usemtl c136
f 119 147 121
usemtl c137
f 121 147 148
usemtl c138
f 121 148 123
usemtl c139
f 123 148 126
usemtl c140
f 126 148 149
usemtl c141
f 149 148 150
usemtl c142
f 149 150 151
usemtl c143
f 149 151 152
usemtl c144
f 152 151 153
usemtl c145
f 152 153 154
usemtl c146
f 152 154 155
usemtl c147
f 139 148 147
usemtl c148
f 139 147 140
usemtl c149
f 140 147 146
usemtl c150
f 140 146 141
usemtl c151
f 141 146 145
usemtl c152
f 141 145 142
usemtl c153
f 142 145 144
usemtl c154
f 142 144 143
usemtl c155
f 156 157 158
usemtl c156
f 156 158 159
usemtl c85
f 156 159 160
usemtl c157
f 156 160 157
usemtl c158
f 157 160 161
usemtl c159
f 161 160 162
usemtl c84
f 161 162 19
usemtl c160
f 161 19 163
usemtl c161
f 161 163 164
usemtl c162
f 161 164 165
usemtl c163
f 165 164 166
usemtl c164
f 165 166 25
usemtl c159
f 160 159 162
usemtl c156
f 163 19 167
usemtl c85
f 163 167 164
usemtl c159
f 164 167 166
usemtl c165
f 168 169 170
usemtl c166
f 168 170 171
usemtl c167
f 168 171 172
usemtl c168
f 168 172 169
usemtl c169
f 169 172 150
usemtl c170
f 169 150 148
usemtl c171
f 169 148 139
usemtl c172
f 169 139 173
usemtl c173
f 169 173 174
usemtl c174
f 169 174 175
usemtl c175
f 169 175 170
usemtl c176
f 150 172 176
usemtl c177
f 150 176 177
usemtl c167
f 150 177 178
usemtl c178
f 150 178 151
usemtl c167
f 151 178 179
usemtl c71
f 151 179 180
usemtl c179
f 151 180 154
usemtl c180
f 151 154 153
usemtl c89
f 172 171 176
usemtl c181
f 181 175 174
usemtl c182
f 181 174 182
usemtl c183
f 181 182 183
usemtl c184
f 183 182 184
usemtl c185
f 183 184 185
usemtl c186
f 185 184 186
usemtl c187
f 186 184 173
usemtl c94
f 186 173 139
usemtl c188
f 186 139 106
usemtl c189
f 186 106 105
usemtl c190
f 186 105 138
usemtl c191
f 186 138 187
usemtl c192
f 187 138 188
usemtl c159
f 188 138 189
usemtl c166
f 188 189 185
usemtl c115
f 185 189 94
usemtl c193
f 173 184 182
usemtl c194
f 173 182 174
usemtl c166
f 178 177 179
usemtl c195
f 23 22 190
usemtl c196
f 23 190 24
usemtl c155
f 24 190 191
usemtl c197
f 192 32 193
usemtl c159
f 192 193 194
usemtl c180
f 192 194 195
usemtl c198
f 195 194 196
usemtl c18
f 196 194 158
usemtl c199
f 158 194 193
usemtl c68
f 197 193 32
usemtl c200
f 197 32 198
usemtl c201
f 197 198 3
usemtl c202
f 197 3 2
usemtl c68
f 197 2 199
usemtl c203
f 197 199 193
usemtl c14
f 193 199 19
usemtl c93
f 200 201 134
usemtl c159
f 200 134 202
usemtl c85
f 200 202 203
usemtl c160
f 203 202 130
usemtl c12
f 203 130 129
usemtl c204
f 136 134 201
usemtl c205
f 136 201 204
usemtl c206
f 136 204 189
usemtl c207
f 136 189 138
usemtl c126
f 136 138 205
usemtl c208
f 136 205 137
usemtl c209
f 137 205 138
usemtl c210
f 138 205 182
usemtl c211
f 138 182 206
usemtl c212
f 138 206 205
f 205 206 182
usemtl c213
f 182 206 151
usemtl c214
f 182 151 207
usemtl c215
f 182 207 206
usemtl c216
f 206 207 151
usemtl c217
f 151 207 127
usemtl c218
f 151 127 133
usemtl c120
f 151 133 207
usemtl c119
f 207 133 127
usemtl c182
f 208 155 90
usemtl c115
f 208 90 209
usemtl c179
f 208 209 210
usemtl c167
f 210 209 127
usemtl c219
f 210 127 126
usemtl c220
f 210 126 152
usemtl c167
f 129 127 209
usemtl c70
f 211 212 213
usemtl c84
f 211 213 214
f 211 214 215
usemtl c221
f 211 215 216
usemtl c222
f 211 216 212
usemtl c223
f 216 215 217
usemtl c224
f 216 217 218
usemtl c225
f 215 214 217
usemtl c226
f 212 219 220
usemtl c86
f 212 220 213
usemtl c227
f 219 45 221
usemtl c228
f 219 221 220
usemtl c229
f 219 212 46
usemtl c230
f 219 46 45
usemtl c156
f 222 223 224
usemtl c160
f 222 224 225
usemtl c70
f 222 225 226
usemtl c231
f 222 226 218
usemtl c161
f 218 226 227
usemtl c159
f 227 226 228
usemtl c17
f 227 228 229
usemtl c232
f 230 231 224
usemtl c200
f 230 224 223
usemtl c233
f 230 223 222
usemtl c234
f 230 222 232
usemtl c235
f 230 232 69
usemtl c76
f 230 69 68
usemtl c236
f 230 68 231
usemtl c51
f 231 68 67
usemtl c237
f 233 234 235
usemtl c85
f 233 235 236
usemtl c238
f 233 236 237
usemtl c159
f 237 236 238
f 237 238 239
usemtl c72
f 239 238 240
usemtl c239
f 241 48 235
usemtl c12
f 241 235 234
usemtl c84
f 226 225 228
usemtl c240
f 100 98 97
usemtl c204
f 100 97 101
usemtl c241
f 242 72 71
usemtl c242
f 242 71 243
usemtl c243
f 244 245 246
usemtl c244
f 244 246 247
usemtl c245
f 246 245 248
usemtl c246
f 248 245 249
usemtl c247
f 249 245 250
usemtl c248
f 249 250 251
usemtl c249
f 251 250 252
usemtl c250
f 251 252 253
usemtl c251
f 245 244 250
usemtl c252
f 250 244 252
usemtl c253
f 254 255 256
usemtl c254
f 254 256 257
usemtl c255
f 254 257 258
usemtl c256
f 258 257 259
usemtl c255
f 259 257 260
f 259 260 261
usemtl c254
f 260 257 256
usemtl c253
f 260 256 255
usemtl c257
f 260 255 262
usemtl c258
f 263 264 265
usemtl c259
f 263 265 266
usemtl c260
f 263 266 267
usemtl c261
f 267 266 268
usemtl c262
f 267 268 269
usemtl c263
f 269 268 270
usemtl c264
f 269 270 271
usemtl c265
f 271 270 265
usemtl c266
f 271 265 264
usemtl c267
f 265 270 266
usemtl c83
f 266 270 268
usemtl c268
f 272 273 274
usemtl c244
f 272 274 275
usemtl c253
f 274 273 276
usemtl c267
f 276 273 277
usemtl c269
f 277 273 278
usemtl c248
f 277 278 279
usemtl c249
f 279 278 280
usemtl c250
f 279 280 281
usemtl c270
f 273 272 278
usemtl c252
f 278 272 280
usemtl c258
f 282 283 284
usemtl c271
f 282 284 285
usemtl c272
f 282 285 286
usemtl c266
f 284 283 287
usemtl c265
f 284 287 288
f 284 288 285
usemtl c270
f 285 288 289
usemtl c243
f 289 288 290
usemtl c244
f 289 290 286
usemtl c264
f 288 287 290
usemtl c273
f 291 292 293
usemtl c255
f 291 293 294
usemtl c265
f 294 293 295
usemtl c260
f 294 295 296
usemtl c261
f 294 296 297
usemtl c274
f 297 296 298
usemtl c275
f 298 296 295
usemtl c252
f 298 295 299
usemtl c276
f 299 295 293
usemtl c249
f 299 293 292
usemtl c277
f 198 32 26
usemtl c278
f 198 26 4
usemtl c279
f 198 4 3
usemtl c169
f 132 133 127
usemtl c280
f 98 100 99
usemtl c281
f 58 69 232
usemtl c282
f 58 232 221
usemtl c90
f 58 221 43
usemtl c236
f 43 221 45
usemtl c75
f 49 48 241
