# Made by RuneLite Model-Dumper Plugin
mtllib dragon-chainbody.mtl
o Item Dragon chainbody 2026-09-24_18-23-39
v -17 7 -19
v 0 7 -19
v 7 4 -23
v -7 4 -23
v -7 -1 -27
v -17 -1 -19
v -15 11 -2
v 0 11 -2
v 17 7 -19
v 17 -1 -19
v 7 -1 -27
v 15 11 -2
v 0 7 27
v 16 7 27
v 16 -1 27
v 15 -1 -2
v -16 7 27
v -17 5 -3
v -17 -7 -4
v -17 5 -5
v -26 6 -6
v -26 6 -4
v -20 -7 -5
v -17 -7 -14
v -17 4 -13
v -26 5 -15
v -34 2 -8
v -34 2 -6
v -31 -7 -6
v -18 -7 -22
v -18 -1 -21
v -25 -1 -21
v -30 -1 -18
v -30 -7 -19
v -34 -7 -9
v -34 -7 -7
v -25 -7 -22
v -31 -4 -26
v 17 4 -13
v 17 -7 -14
v 17 -7 -4
v 17 5 -5
v 26 6 -6
v 26 5 -15
v 25 -1 -21
v 18 -1 -21
v 18 -7 -22
v 25 -7 -22
v 31 -4 -26
v 30 -1 -18
v 30 -7 -19
v 34 2 -8
v 34 -7 -9
v 34 -7 -7
v 34 2 -6
v 31 -7 -6
v 26 6 -4
v 20 -7 -5
v 17 5 -3
v 0 9 10
v 4 8 14
v 4 9 11
v 1 9 9
v 8 9 10
v 6 9 8
v 8 9 5
v 10 9 8
v 12 9 11
v 12 8 14
v 16 9 10
v 14 9 8
v 16 9 5
v 12 10 2
v -16 9 10
v -12 8 14
v -12 9 11
v -14 9 8
v -16 9 5
v -12 10 2
v -8 9 10
v -10 9 8
v -8 9 5
v -6 9 8
v -4 9 11
v -4 8 14
v -1 9 9
v 0 8 -14
v 4 8 -12
v 4 8 -13
v 2 7 -16
v -2 7 -16
v -4 8 -13
v -4 8 -12
v -8 8 -14
v -6 7 -16
v -8 7 -19
v -10 7 -16
v -12 8 -13
v -12 9 -10
v -16 8 -14
v -14 7 -16
v -16 7 -19
v -12 5 -22
v 8 8 -14
v 6 7 -16
v 8 7 -19
v 4 5 -22
v 12 9 -10
v 12 8 -13
v 10 7 -16
v 12 5 -21
v 16 8 -14
v 14 7 -16
v 16 7 -19
v -4 5 -22
v 16 11 -2
v 12 11 -1
v 14 11 -4
v 16 10 -7
v -16 11 -2
v -12 11 -1
v -14 11 -4
v -16 10 -7
v 0 7 22
v 4 7 26
v 4 7 23
v 2 8 20
v 0 8 17
v -2 8 20
v -4 7 23
v -4 7 26
v -8 7 22
v -6 8 20
v -8 8 17
v -10 8 20
v -12 7 23
v -12 7 26
v -16 7 22
v -14 8 20
v -16 8 17
v 8 7 22
v 6 8 20
v 8 8 17
v 12 7 26
v 12 7 23
v 10 8 20
v 16 7 22
v 14 8 20
v 16 8 17
v -3 9 -7
v 0 10 6
v 3 9 -7
v 1 9 -8
v -1 9 -8
v -2 8 -12
v 2 8 -12
v 3 10 5
v 5 10 6
v 4 11 -2
v 10 10 -3
v 4 10 -4
v 15 9 -7
v 5 9 8
v -5 10 6
v -3 10 5
v -4 11 -2
v -10 10 -3
v -4 10 -4
v -15 9 -7
v -5 9 8
v -15 -1 -2
v -16 -1 27
usemtl c0
f 1 2 3
usemtl c1
f 1 3 4
usemtl c2
f 1 4 5
usemtl c3
f 1 5 6
usemtl c4
f 1 6 7
usemtl c3
f 1 7 2
usemtl c5
f 2 7 8
usemtl c6
f 2 8 9
usemtl c7
f 2 9 3
usemtl c8
f 3 9 10
usemtl c9
f 3 10 11
usemtl c10
f 12 8 13
usemtl c11
f 12 13 14
usemtl c12
f 12 14 15
usemtl c13
f 12 15 16
usemtl c14
f 12 16 9
usemtl c15
f 12 9 8
usemtl c16
f 8 7 17
usemtl c17
f 8 17 13
usemtl c18
f 18 19 20
usemtl c19
f 18 20 21
f 18 21 22
usemtl c20
f 18 22 23
usemtl c21
f 18 23 19
usemtl c22
f 20 19 24
usemtl c23
f 20 24 25
usemtl c24
f 20 25 21
usemtl c25
f 21 25 26
usemtl c26
f 21 26 27
usemtl c19
f 21 27 28
f 21 28 22
usemtl c27
f 22 28 29
usemtl c28
f 22 29 23
usemtl c29
f 25 24 30
usemtl c30
f 25 30 31
usemtl c31
f 25 31 32
usemtl c32
f 25 32 26
usemtl c33
f 26 32 33
usemtl c34
f 26 33 27
usemtl c35
f 27 33 34
usemtl c36
f 27 34 35
usemtl c19
f 27 35 36
f 27 36 28
usemtl c37
f 28 36 29
usemtl c29
f 30 37 32
usemtl c30
f 30 32 31
usemtl c38
f 38 32 37
usemtl c39
f 32 38 33
usemtl c40
f 33 38 34
usemtl c41
f 39 40 41
usemtl c42
f 39 41 42
usemtl c43
f 39 42 43
usemtl c44
f 39 43 44
usemtl c45
f 39 44 45
usemtl c46
f 39 45 46
usemtl c47
f 39 46 40
usemtl c48
f 40 46 47
usemtl c49
f 47 46 45
usemtl c12
f 47 45 48
usemtl c50
f 48 45 49
usemtl c51
f 49 45 50
usemtl c52
f 49 50 51
usemtl c53
f 51 50 52
f 51 52 53
usemtl c19
f 53 52 54
f 54 52 55
usemtl c54
f 54 55 56
usemtl c16
f 56 55 57
usemtl c55
f 56 57 58
usemtl c42
f 58 57 59
usemtl c20
f 58 59 41
usemtl c55
f 41 59 42
usemtl c19
f 42 59 43
f 43 59 57
f 43 57 55
f 43 55 52
usemtl c56
f 43 52 44
usemtl c57
f 44 52 50
usemtl c58
f 44 50 45
usemtl c59
f 60 61 62
usemtl c60
f 60 62 63
usemtl c61
f 61 64 62
usemtl c62
f 62 64 65
usemtl c63
f 65 64 66
f 66 64 67
usemtl c62
f 67 64 68
usemtl c61
f 68 64 69
f 68 69 70
usemtl c64
f 68 70 71
usemtl c65
f 71 70 72
usemtl c66
f 71 72 73
usemtl c59
f 74 75 76
usemtl c61
f 74 76 77
f 74 77 78
usemtl c67
f 78 77 79
usemtl c61
f 75 80 76
usemtl c62
f 76 80 81
usemtl c63
f 81 80 82
f 82 80 83
usemtl c62
f 83 80 84
usemtl c61
f 84 80 85
usemtl c59
f 84 85 60
usemtl c60
f 84 60 86
usemtl c68
f 87 88 89
usemtl c69
f 87 89 90
usemtl c70
f 87 90 2
usemtl c71
f 87 2 91
usemtl c72
f 87 91 92
usemtl c68
f 87 92 93
usemtl c73
f 93 92 94
usemtl c74
f 94 92 95
usemtl c75
f 94 95 96
usemtl c76
f 94 96 97
usemtl c77
f 94 97 98
usemtl c74
f 94 98 99
usemtl c78
f 99 98 100
usemtl c79
f 100 98 101
usemtl c80
f 100 101 102
usemtl c81
f 102 101 103
usemtl c73
f 88 104 89
usemtl c82
f 89 104 105
usemtl c76
f 105 104 106
usemtl c83
f 105 106 107
usemtl c70
f 107 2 90
usemtl c74
f 104 108 109
usemtl c84
f 104 109 110
usemtl c75
f 104 110 106
f 106 110 111
usemtl c85
f 108 112 109
usemtl c86
f 109 112 113
usemtl c66
f 113 112 114
usemtl c87
f 113 114 111
usemtl c83
f 103 97 96
usemtl c71
f 115 91 2
usemtl c88
f 115 96 95
usemtl c89
f 73 116 117
usemtl c90
f 117 116 118
usemtl c91
f 118 116 119
usemtl c92
f 120 79 121
usemtl c61
f 120 121 122
usemtl c93
f 120 122 123
usemtl c94
f 124 125 126
usemtl c95
f 124 126 127
usemtl c96
f 124 127 128
usemtl c67
f 124 128 129
usemtl c97
f 124 129 130
usemtl c94
f 124 130 131
f 131 130 132
usemtl c95
f 132 130 133
usemtl c96
f 132 133 134
usemtl c67
f 132 134 135
usemtl c97
f 132 135 136
usemtl c94
f 132 136 137
usemtl c92
f 137 136 138
usemtl c98
f 138 136 139
usemtl c99
f 138 139 140
usemtl c100
f 140 139 75
usemtl c94
f 125 141 126
usemtl c97
f 126 141 142
usemtl c67
f 142 141 143
f 142 143 61
usemtl c96
f 61 128 127
usemtl c94
f 141 144 145
usemtl c95
f 141 145 146
usemtl c96
f 141 146 143
f 143 146 69
usemtl c101
f 144 147 145
usemtl c102
f 145 147 148
usemtl c93
f 148 147 149
usemtl c103
f 148 149 69
usemtl c67
f 75 135 134
f 85 129 128
usemtl c96
f 85 134 133
usemtl c19
f 150 151 152
f 150 152 153
f 150 153 154
f 150 154 155
f 152 156 153
f 157 158 73
f 157 73 159
f 159 73 160
f 159 160 161
f 161 160 162
f 161 162 88
f 63 163 158
f 63 158 157
f 79 164 165
f 79 165 166
f 79 166 167
f 167 166 168
f 167 168 169
f 169 168 93
f 164 170 86
f 164 86 165
usemtl c29
f 9 16 10
usemtl c41
f 17 7 171
usemtl c104
f 17 171 172
usemtl c20
f 7 6 171
