# Made by RuneLite Model-Dumper Plugin
mtllib runite-mace.mtl
o Item Rune mace 2026-09-24_13-38-46
v 0 19 30
v -6 11 32
v 3 10 33
v 7 12 21
v -5 12 20
v -14 13 26
v -10 3 31
v -2 1 42
v 8 3 32
v 13 12 29
v 9 5 23
v 3 9 11
v -1 9 10
v -9 6 21
v -15 -3 23
v -6 -4 29
v 3 -4 30
v 12 -4 26
v -5 -2 19
v -1 -10 22
v 4 -2 20
v 3 5 11
v 6 12 -20
v 6 16 -19
v 2 16 -19
v -1 6 10
v 2 12 -20
v 8 12 -26
v 8 18 -24
v 2 12 -27
v 2 18 -25
usemtl c0
f 1 2 3
usemtl c1
f 1 3 4
usemtl c2
f 1 4 5
usemtl c3
f 1 5 2
usemtl c4
f 2 5 6
usemtl c5
f 2 6 7
usemtl c6
f 2 7 8
usemtl c7
f 2 8 3
usemtl c8
f 3 8 9
usemtl c7
f 3 9 10
usemtl c8
f 3 10 4
usemtl c9
f 4 10 11
usemtl c10
f 4 11 12
usemtl c11
f 4 12 5
usemtl c12
f 5 12 13
usemtl c13
f 5 13 14
usemtl c14
f 5 14 6
usemtl c15
f 6 14 7
f 7 14 15
usemtl c16
f 7 15 16
usemtl c5
f 7 16 8
usemtl c3
f 8 16 17
usemtl c8
f 8 17 9
usemtl c17
f 9 17 18
usemtl c2
f 9 18 11
usemtl c11
f 9 11 10
usemtl c18
f 15 19 16
usemtl c15
f 16 19 20
usemtl c19
f 16 20 17
usemtl c11
f 17 20 21
usemtl c20
f 17 21 18
usemtl c9
f 18 21 11
usemtl c21
f 11 21 22
usemtl c22
f 11 22 12
usemtl c23
f 12 22 23
usemtl c24
f 12 23 24
usemtl c25
f 12 24 25
usemtl c26
f 12 25 13
usemtl c27
f 12 13 22
usemtl c28
f 22 13 26
usemtl c29
f 22 26 23
usemtl c30
f 23 26 27
usemtl c31
f 23 27 28
usemtl c32
f 23 28 29
usemtl c33
f 23 29 24
usemtl c34
f 23 24 25
usemtl c35
f 23 25 27
usemtl c36
f 27 25 30
usemtl c37
f 27 30 28
usemtl c24
f 28 30 31
usemtl c38
f 28 31 29
usemtl c39
f 29 31 25
usemtl c40
f 29 25 24
usemtl c1
f 15 14 19
usemtl c41
f 19 14 26
usemtl c42
f 19 26 21
usemtl c43
f 19 21 20
usemtl c44
f 21 26 22
usemtl c45
f 14 13 26
usemtl c46
f 26 13 25
usemtl c47
f 26 25 27
usemtl c48
f 31 30 25
