# Blender 5.2.0 LTS
# www.blender.org
mtllib fountain.mtl
o Object_Fountain_2026-09-12_20-54-55
v -67.000000 99.000000 -30.000008
v 0.000000 128.000000 70.999992
v -53.000000 128.000000 34.999989
v -69.000000 -0.000006 -83.000000
v -95.000000 -0.000004 -52.000000
v -104.000000 0.000001 16.000000
v -98.000000 1.000004 55.000000
v -50.000000 1.000007 95.000000
v 0.000000 0.000008 107.000000
v 70.000000 0.000007 92.000000
v 96.000000 0.000005 60.000000
v 105.000000 0.000001 13.000000
v 99.000000 -0.000004 -47.000000
v -95.000000 0.999996 -52.000000
v 0.000000 -0.000008 -100.000000
v -69.000000 0.999994 -83.000000
v 49.000000 98.999992 -67.000008
v 56.000000 0.999994 -83.000000
v 0.000000 0.999992 -100.000000
v 81.000000 100.000000 -40.000008
v 0.000000 127.999992 -59.000011
v 58.000000 127.000000 -30.000010
v 61.000000 127.000000 37.999989
v 0.000000 128.000000 66.999992
v 51.000000 129.000000 -18.000010
v 28.000000 129.000000 -40.000011
v 12.000000 190.000000 -17.000015
v 20.000000 190.000000 -9.000014
v 36.000000 129.000000 39.999989
v -24.000000 129.000000 48.999989
v -23.000000 129.000000 -40.000011
v -21.000000 190.000000 -9.000014
v -42.000000 129.000000 28.999990
v -42.000000 129.000000 -18.000010
v -61.000000 128.000000 -30.000010
v 0.000000 127.999992 -65.000008
v -67.000000 101.000000 -30.000008
v -4.000000 181.000000 6.999986
v 3.000000 181.000000 8.999987
v 0.000000 187.000000 18.999987
v -15.000000 187.000000 9.999986
v -5.000000 181.000000 0.999986
v -12.000000 128.000000 -2.000010
v -9.000000 128.000000 12.999990
v 6.000000 128.000000 16.999990
v 6.000000 181.000000 1.999986
v 13.000000 187.000000 9.999986
v 20.000000 189.000000 13.999986
v 0.000000 189.000000 26.999987
v -22.000000 189.000000 13.999986
v -17.000000 187.000000 -5.000014
v 0.000000 181.000000 -3.000014
v 2.000000 128.000000 -9.000010
v -56.000000 128.000000 -27.000010
v 56.000000 128.000000 34.999989
v 14.000000 128.000000 2.999990
v 0.000000 187.000000 -15.000014
v 15.000000 187.000000 -5.000014
v 20.000000 189.000000 -9.000014
v 21.000000 192.000000 -9.000014
v 20.000000 192.000000 13.999986
v 0.000000 192.000000 26.999985
v -22.000000 192.000000 13.999986
v -22.000000 189.000000 -9.000014
v 0.000000 189.000000 -22.000013
v 0.000000 192.000000 -22.000015
v 0.000000 201.000000 1.999985
v -23.000000 192.000000 -9.000014
v 56.000000 128.000000 -27.000010
v 61.000000 124.000000 -30.000010
v 0.000000 123.999992 -64.000008
v -59.000000 124.000000 -30.000010
v -57.000000 124.000000 37.999992
v 0.000000 124.000008 70.999992
v 59.000000 124.000000 37.999992
v 42.000000 117.000000 26.999990
v 43.000000 117.000000 -20.000010
v 0.000000 117.000000 -46.000008
v -42.000000 117.000000 -20.000010
v -40.000000 117.000000 26.999990
v 0.000000 117.000008 50.999992
v 0.000000 98.000000 46.999992
v 39.000000 98.000000 24.999992
v 40.000000 98.000000 -18.000008
v 0.000000 98.000000 -42.000008
v -39.000000 98.000000 -18.000008
v -37.000000 98.000000 24.999992
v -71.000000 98.000000 46.999992
v 0.000000 98.000008 88.999992
v 73.000000 98.000000 46.999992
v 75.000000 98.000000 -37.000008
v 0.000000 97.999992 -79.000008
v -74.000000 98.000000 -37.000008
v -79.000000 98.000000 8.999992
v -77.000000 94.000000 49.999992
v -46.000000 94.000008 79.999992
v -42.000000 98.000008 74.999992
v 0.000000 94.000008 93.999992
v 44.000000 98.000008 74.999992
v 86.000000 94.000000 10.999993
v 80.000000 98.000000 8.999992
v 81.000000 94.000000 -40.000008
v 50.000000 93.999992 -67.000008
v 45.000000 97.999992 -62.000008
v 0.000000 93.999992 -85.000008
v -49.000000 93.999992 -67.000008
v -44.000000 97.999992 -62.000008
v -80.000000 94.000000 -40.000008
v -84.000000 93.000000 9.999993
v -24.000000 47.000000 18.999996
v 2.000000 47.000004 34.999996
v -54.000000 68.000000 34.999996
v -24.000000 47.000000 -13.000004
v -8.000000 16.000000 -3.000001
v -8.000000 16.000000 10.999999
v 4.000000 16.000002 18.999998
v 30.000000 47.000000 18.999996
v 55.000000 68.000000 34.999996
v 30.000000 68.000000 49.999996
v 0.000000 68.000008 67.999992
v -29.000000 68.000000 49.999996
v -32.000000 72.000000 46.999996
v -37.000000 74.000000 43.999996
v -54.000000 84.000000 34.999992
v -55.000000 74.000000 9.999994
v -55.000000 72.000000 3.999995
v -55.000000 68.000000 1.999995
v -55.000000 72.000000 -3.000005
v -55.000000 68.000000 -28.000006
v -55.000000 74.000000 -9.000006
v -55.000000 84.000000 -28.000006
v -34.000000 74.000000 -40.000004
v -29.000000 72.000000 -44.000004
v -25.000000 68.000000 -47.000004
v -20.000000 72.000000 -48.000004
v 0.000000 67.999992 -60.000004
v -17.000000 73.999992 -51.000004
v 0.000000 83.999992 -60.000008
v 17.000000 73.999992 -51.000004
v 22.000000 72.000000 -48.000004
v 27.000000 68.000000 -47.000004
v 30.000000 72.000000 -44.000004
v 57.000000 68.000000 -28.000006
v 35.000000 74.000000 -40.000004
v 57.000000 84.000000 -28.000006
v 57.000000 74.000000 -9.000006
v 56.000000 72.000000 -3.000005
v 57.000000 68.000000 1.999995
v 57.000000 72.000000 3.999995
v 56.000000 74.000000 9.999994
v 55.000000 84.000000 34.999992
v 39.000000 74.000000 43.999996
v 34.000000 72.000000 46.999996
v 27.000000 72.000008 51.999996
v 21.000000 74.000008 54.999996
v 0.000000 84.000008 67.999992
v -19.000000 74.000008 54.999996
v -25.000000 72.000008 51.999996
v -32.000000 77.000000 46.999992
v -29.000000 84.000000 49.999992
v 30.000000 84.000000 49.999992
v 34.000000 77.000000 46.999992
v 27.000000 77.000008 51.999992
v -25.000000 77.000008 51.999992
v 2.000000 46.999996 -28.000004
v 30.000000 47.000000 -13.000004
v 18.000000 16.000000 -3.000001
v 4.000000 15.999999 -12.000001
v -17.000000 0.999997 -35.000000
v -34.000000 0.999999 -20.000000
v -37.000000 1.000000 5.000000
v -34.000000 1.000002 26.000000
v -16.000000 1.000003 42.000000
v 7.000000 1.000004 47.000000
v 30.000000 1.000003 42.000000
v 18.000000 16.000000 10.999999
v -55.000000 77.000000 3.999994
v -55.000000 77.000000 -3.000006
v -55.000000 84.000000 1.999994
v -29.000000 77.000000 -44.000008
v -20.000000 77.000000 -48.000008
v -25.000000 84.000000 -47.000008
v 57.000000 77.000000 3.999994
v 57.000000 84.000000 1.999994
v 56.000000 77.000000 -3.000006
v 30.000000 77.000000 -44.000008
v 27.000000 84.000000 -47.000008
v 22.000000 77.000000 -48.000008
v 51.000000 1.000000 5.000000
v 48.000000 0.999998 -21.000000
v 31.000000 0.999997 -35.000000
v 7.000000 0.999997 -42.000000
v 5.000000 0.999992 -101.000000
v -52.000000 0.999994 -84.000000
v -90.000000 0.999996 -51.000000
v -98.000000 1.000001 9.000000
v -90.000000 1.000004 57.000000
v 5.000000 1.000008 106.000000
v 60.000000 1.000007 95.000000
v 47.000000 1.000002 26.000000
v 99.000000 1.000004 57.000000
v 107.000000 1.000001 9.000000
v 101.000000 0.999996 -52.000000
v 62.000000 0.999994 -84.000000
v 69.000000 15.999993 -94.000000
v 5.000000 15.999991 -113.000000
v -59.000000 15.999993 -94.000000
v -101.000000 15.999995 -57.000000
v -110.000000 16.000000 9.999999
v -101.000000 16.000004 63.000000
v -57.000000 16.000008 105.000000
v 5.000000 16.000010 118.000000
v 67.000000 16.000008 105.000000
v 112.000000 15.999995 -59.000000
v 124.000000 15.999995 -66.000000
v 76.000000 15.999992 -105.000000
v 4.000000 15.999990 -126.000000
v -66.000000 15.999992 -105.000000
v -112.000000 15.999995 -64.000000
v -123.000000 16.000000 10.999999
v -112.000000 16.000006 70.000000
v -64.000000 16.000010 116.000000
v 5.000000 16.000010 130.000000
v 74.000000 16.000010 116.000000
v 110.000000 16.000004 63.000000
v 119.000000 16.000000 9.999999
v 121.000000 16.000006 70.000000
v 131.000000 16.000000 10.999999
v 131.000000 0.000001 11.000000
v 124.000000 -0.000005 -66.000000
v 76.000000 -0.000008 -105.000000
v 121.000000 0.000005 70.000000
v 74.000000 0.000009 116.000000
v 5.000000 0.000010 130.000000
v -64.000000 0.000009 116.000000
v -112.000000 0.000005 70.000000
v -123.000000 0.000001 11.000000
v -112.000000 -0.000005 -64.000000
v -66.000000 -0.000008 -105.000000
v 4.000000 -0.000010 -126.000000
v 17.000000 190.000000 16.999985
vn -0.1369 -0.8670 0.4791
vn -0.3030 -0.8081 0.5051
vn -0.4612 -0.8840 0.0769
vn -0.9793 0.1201 0.1632
vn -0.9742 0.1140 0.1948
vn -0.2723 0.1336 0.9529
vn -0.2555 0.1301 0.9580
vn 0.9135 0.1108 0.3915
vn 0.4877 -0.8476 0.2090
vn 0.3856 -0.7355 0.5570
vn 0.1509 -0.9642 0.2180
vn 0.1557 -0.9583 0.2396
vn -0.1440 -0.9600 0.2400
vn -0.1397 -0.9616 0.2364
vn -0.2564 -0.9660 0.0342
vn -0.4713 -0.8797 0.0628
vn -0.2760 -0.8971 -0.3450
vn -0.6234 0.0647 -0.7792
vn -0.4445 0.1090 -0.8891
vn -0.0000 1.0000 -0.0000
vn 0.8598 0.1391 0.4913
vn 0.6380 0.0819 -0.7656
vn 0.3492 -0.8381 -0.4191
vn 0.2691 -0.8745 -0.4036
vn 0.5949 -0.7999 0.0793
vn 0.4081 -0.9113 0.0544
vn 0.2747 -0.9615 -0.0000
vn 0.9487 -0.3162 -0.0000
vn 0.9991 -0.0000 0.0434
vn 0.5450 -0.0000 0.8384
vn -0.5087 -0.0000 0.8609
vn -1.0000 -0.0000 -0.0000
vn -0.3714 -0.9285 -0.0000
vn -0.1607 -0.9484 -0.2733
vn -0.2544 -0.8650 -0.4325
vn -0.1602 -0.9491 -0.2712
vn 0.1802 -0.9458 -0.2702
vn 0.1703 -0.9499 -0.2620
vn 0.5450 -0.0000 -0.8384
vn 0.5184 -0.1728 -0.8375
vn 0.2124 0.9150 -0.3431
vn 0.4016 0.9157 0.0175
vn 0.2150 0.9189 0.3308
vn -0.1963 0.9226 0.3321
vn -0.3710 0.9285 0.0161
vn -0.9479 -0.3160 0.0412
vn -0.5016 -0.1672 -0.8488
vn -0.4921 -0.0000 -0.8706
vn -0.1947 0.9184 -0.3444
vn 0.7031 0.1061 -0.7031
vn 0.3067 0.7860 -0.5368
vn 0.3288 0.7374 -0.5900
vn -0.3362 0.7354 -0.5883
vn -0.3488 0.7155 -0.6053
vn -0.8133 0.5805 0.0394
vn -0.6992 0.7146 0.0206
vn -0.3377 0.7571 0.5593
vn -0.3789 0.6544 0.6544
vn 0.3746 0.6556 0.6556
vn 0.3416 0.7143 0.6108
vn 0.8000 0.6000 -0.0000
vn 0.6314 0.7753 0.0186
vn 0.3746 -0.9271 0.0110
vn 0.3662 -0.9305 0.0078
vn 0.1808 -0.9285 -0.3244
vn 0.2141 -0.9104 -0.3540
vn -0.2045 -0.9123 -0.3548
vn -0.1960 -0.9281 -0.3165
vn -0.3864 -0.9222 0.0114
vn -0.3719 -0.9281 0.0158
vn -0.1813 -0.9323 0.3131
vn -0.1944 -0.9258 0.3240
vn 0.1817 -0.9281 0.3249
vn 0.1800 -0.9319 0.3149
vn 0.4881 -0.1798 0.8541
vn 0.4844 -0.1669 0.8588
vn 0.9872 -0.1581 0.0210
vn 0.9879 -0.1536 0.0230
vn 0.5100 -0.1693 -0.8434
vn 0.5063 -0.1777 -0.8439
vn -0.5181 -0.1762 -0.8370
vn -0.5165 -0.1699 -0.8393
vn -0.9876 -0.1515 0.0420
vn -0.9860 -0.1605 0.0459
vn -0.5071 -0.1690 0.8452
vn -0.5029 -0.1781 0.8458
vn -0.5135 0.8513 0.1081
vn -0.3716 0.8453 0.3839
vn -0.3692 0.8471 0.3823
vn -0.2039 0.7645 0.6116
vn 0.5294 0.8428 0.0975
vn 0.5335 0.8438 -0.0580
vn 0.3559 0.8404 -0.4087
vn 0.3162 0.8695 -0.3794
vn 0.2051 0.8144 -0.5429
vn -0.1997 0.8153 -0.5435
vn -0.1896 0.8504 -0.4907
vn -0.3492 0.8381 -0.4191
vn -0.5452 0.8379 -0.0269
vn -0.7127 0.6972 -0.0775
vn -0.6929 0.7136 0.1034
vn -0.3050 -0.8133 0.4956
vn -0.5735 -0.8192 -0.0000
vn -0.8886 -0.4586 -0.0000
vn -0.4706 -0.4402 0.7647
vn -0.5029 -0.4218 0.7544
vn 0.4581 -0.3842 0.8016
vn 0.3096 -0.7814 0.5418
vn 0.3139 -0.7923 0.5232
vn -0.3087 -0.8108 0.4973
vn -0.4983 0.2491 0.8305
vn -0.4886 0.0814 0.8687
vn -0.4679 -0.0000 0.8838
vn -0.9992 -0.0000 0.0400
vn -0.9973 -0.0696 0.0232
vn -0.9994 -0.0151 0.0303
vn -0.4961 -0.0000 -0.8682
vn -0.5345 0.2673 -0.8018
vn -0.5325 0.0981 -0.8407
vn -0.3912 0.2689 -0.8801
vn -0.4348 0.3344 -0.8361
vn -0.5322 -0.3548 -0.7687
vn -0.4679 -0.0000 -0.8838
vn 0.4679 -0.0000 -0.8838
vn 0.4886 -0.0814 -0.8687
vn 0.4135 0.3022 -0.8589
vn 0.4240 0.3180 -0.8480
vn 0.5212 0.2263 -0.8229
vn 0.5187 0.3026 -0.7996
vn 0.4789 -0.0000 -0.8779
vn 1.0000 -0.0000 -0.0000
vn 0.9656 -0.2479 0.0783
vn 0.9701 0.2425 -0.0000
vn 0.9875 0.0705 -0.1411
vn 0.9977 -0.0302 0.0605
vn 0.9725 0.2148 0.0905
vn 0.9992 -0.0000 0.0400
vn 0.4903 -0.0000 0.8716
vn 0.5017 0.0418 0.8640
vn 0.5103 0.1276 0.8505
vn 0.5810 0.0290 0.8134
vn 0.5140 -0.0428 0.8567
vn 0.4846 0.1652 0.8590
vn 0.5264 -0.0000 0.8503
vn -0.5647 -0.0000 0.8253
vn -0.4965 0.2370 0.8351
vn -0.5246 0.1020 0.8452
vn -0.5726 0.1718 0.8016
vn -0.5812 -0.0000 0.8137
vn -0.5145 -0.0000 0.8575
vn -0.4908 -0.0517 0.8697
vn -0.5090 -0.1454 0.8484
vn -0.1931 -0.9269 0.3218
vn -0.3953 -0.9185 0.0063
vn -0.3765 -0.9263 0.0126
vn -0.2009 -0.9167 -0.3453
vn -0.2045 -0.9089 -0.3635
vn 0.2041 -0.9089 -0.3636
vn 0.1999 -0.9114 -0.3598
vn 0.3899 -0.9208 0.0124
vn 0.5131 -0.0733 0.8552
vn 0.5026 -0.0265 0.8641
vn 0.5145 -0.0000 0.8575
vn 0.5812 -0.0000 0.8137
vn 0.4472 -0.0000 0.8944
vn 0.4865 -0.1058 0.8673
vn 0.5143 0.0245 0.8572
vn -0.2009 -0.9143 0.3517
vn -0.1938 -0.9301 0.3122
vn -0.5265 -0.0585 0.8482
vn -0.5020 -0.1528 0.8513
vn -0.4472 -0.0000 0.8944
vn -0.5784 -0.0991 0.8097
vn -0.2965 -0.8049 -0.5140
vn -0.2972 -0.8067 -0.5108
vn 0.2882 -0.7922 -0.5379
vn 0.4278 -0.4232 -0.7986
vn 0.5022 -0.3708 -0.7812
vn -0.4506 -0.4322 -0.7811
vn -0.5218 -0.4937 -0.6957
vn -0.2613 0.9002 -0.3484
vn -0.2963 0.8941 -0.3358
vn -0.4709 0.8804 -0.0565
vn -0.4594 0.8882 -0.0000
vn -0.4693 0.8805 0.0670
vn -0.3096 0.8848 0.3483
vn -0.2465 0.8958 0.3698
vn -0.1040 0.8720 0.4783
vn 0.1003 0.8815 0.4615
vn 0.2060 0.9097 0.3605
vn 0.9326 -0.3610 -0.0000
vn 0.6139 -0.7894 -0.0000
vn 0.6355 -0.7719 0.0202
vn -0.5638 -0.8259 0.0089
vn -0.3240 0.8699 -0.3720
vn -0.1625 0.8298 0.5339
vn -0.9988 0.0444 0.0222
vn -0.9995 0.0087 0.0303
vn -0.5496 -0.1736 -0.8172
vn -0.6247 -0.0000 -0.7809
vn -0.4061 -0.0000 -0.9138
vn -0.7071 -0.0000 -0.7071
vn -0.5593 0.2355 -0.7948
vn -0.4521 -0.1987 -0.8695
vn -0.4011 -0.1576 -0.9024
vn -0.5342 -0.0562 -0.8435
vn 0.3055 -0.7814 -0.5441
vn 0.1796 0.8479 -0.4988
vn 0.5666 0.8221 -0.0555
vn 0.5812 -0.0166 0.8136
vn 0.9858 -0.1387 0.0949
vn 0.9980 0.0173 0.0605
vn 0.9891 -0.0404 -0.1413
vn 0.9899 -0.1414 -0.0000
vn 0.9836 0.1597 0.0841
vn 0.9864 -0.0000 0.1644
vn 0.9899 -0.0000 -0.1414
vn 0.5372 -0.1979 -0.8199
vn 0.5304 -0.1316 -0.8375
vn 0.4392 -0.1882 -0.8784
vn 0.4269 -0.1783 -0.8866
vn 0.4908 0.0517 -0.8697
vn 0.5145 -0.0000 -0.8575
vn 0.4472 -0.0000 -0.8944
vn 0.6247 -0.0000 -0.7809
vn 0.4138 0.9104 -0.0000
vn 0.4231 0.9048 -0.0488
vn 0.2633 0.9102 -0.3197
vn 0.2186 0.9147 -0.3400
vn 0.1264 0.8922 -0.4335
vn -0.1324 0.8812 -0.4538
vn 0.3001 0.8990 0.3189
vn 0.4246 0.9018 0.0809
vn -0.2262 0.6112 0.7585
vn -0.2258 0.6086 0.7607
vn 0.2268 0.6084 0.7605
vn 0.2253 0.6110 0.7589
vn 0.5097 0.6291 0.5869
vn 0.5200 0.6174 0.5903
vn 0.7817 0.6149 0.1042
vn 0.7800 0.6170 0.1048
vn 0.7702 0.6247 -0.1284
vn 0.7736 0.6199 -0.1314
vn 0.5391 0.6223 -0.5675
vn 0.5380 0.6268 -0.5636
vn 0.1573 0.5976 -0.7863
vn 0.1616 0.6165 -0.7706
vn -0.1543 0.6172 -0.7715
vn -0.1643 0.5991 -0.7836
vn -0.5441 0.6262 -0.5584
vn -0.5460 0.6240 -0.5590
vn -0.7743 0.6195 -0.1291
vn -0.7699 0.6246 -0.1307
vn -0.7811 0.6197 0.0768
vn -0.7857 0.6134 0.0797
vn -0.4891 0.6368 0.5961
vn -0.4901 0.6302 0.6022
vn 0.9959 -0.0000 -0.0905
vn 0.6306 -0.0000 -0.7761
vn -0.6306 -0.0000 0.7761
vn -0.9959 -0.0000 0.0905
vn -0.9859 -0.0000 -0.1671
vn 0.9859 -0.0000 0.1671
vn -0.6995 -0.0000 -0.7147
vn 0.6995 -0.0000 0.7147
vn -0.1988 -0.0000 -0.9800
vn 0.1988 -0.0000 0.9800
vn 0.1988 -0.0000 -0.9800
vn -0.1988 -0.0000 0.9800
vn 0.6919 -0.0000 -0.7220
vn -0.6919 -0.0000 0.7220
vn 0.9831 -0.0000 -0.1833
vn -0.9831 -0.0000 0.1833
vn 0.9894 -0.0000 0.1451
vn -0.9894 -0.0000 -0.1451
vn 0.6654 -0.0000 0.7465
vn -0.6654 -0.0000 -0.7465
vn 0.2873 -0.0000 0.9578
vn -0.2873 -0.0000 -0.9578
vn -0.2800 -0.0000 0.9600
vn 0.2800 -0.0000 -0.9600
s 0
usemtl c1
f 38//1 39//1 40//1
f 41//14 49//14 50//14
f 151//161 161//161 162//161
f 227//265 224//265 233//265
f 224//267 223//267 234//267
usemtl c2
f 38//2 40//2 41//2
f 38//3 41//3 42//3
usemtl c3
f 38//4 42//4 43//4
usemtl c4
f 38//5 43//5 44//5
usemtl c5
f 38//6 44//6 39//6
usemtl c6
f 39//7 44//7 45//7
usemtl c7
f 39//8 45//8 46//8
f 227//265 233//265 232//265
usemtl c8
f 39//9 46//9 47//9
f 105//208 104//208 103//208
f 167//227 189//227 190//227
usemtl c9
f 39//10 47//10 40//10
f 75//74 81//74 76//74
usemtl c10
f 40//11 47//11 48//11
f 118//137 150//137 151//137
f 117//191 176//191 166//191
usemtl c11
f 40//12 48//12 49//12
f 196//242 209//242 197//242
usemtl c12
f 40//13 49//13 41//13
f 21//53 71//53 54//53
f 55//61 75//61 69//61
f 74//73 81//73 75//73
f 208//20 219//20 209//20
usemtl c13
f 41//15 50//15 51//15
usemtl c14
f 41//16 51//16 42//16
usemtl c15
f 42//17 51//17 52//17
usemtl c16
f 42//18 52//18 53//18
usemtl c17
f 42//19 53//19 43//19
f 93//98 107//98 108//98
f 118//139 152//139 153//139
f 156//168 98//168 95//168
f 115//185 171//185 172//185
usemtl c18
f 43//20 53//20 21//20
usemtl c19
f 43//20 21//20 54//20
usemtl c20
f 43//20 54//20 44//20
f 192//20 204//20 193//20
usemtl c21
f 44//20 54//20 3//20
usemtl c22
f 44//20 3//20 45//20
usemtl c23
f 45//20 3//20 24//20
usemtl c24
f 45//20 24//20 55//20
usemtl c25
f 45//20 55//20 56//20
usemtl c26
f 45//21 56//21 46//21
usemtl c27
f 46//22 56//22 52//22
f 165//178 167//178 168//178
f 167//229 191//229 168//229
usemtl c28
f 46//23 52//23 57//23
usemtl c29
f 46//24 57//24 58//24
usemtl c30
f 46//25 58//25 47//25
usemtl c31
f 47//26 58//26 59//26
usemtl c32
f 47//27 59//27 48//27
f 59//39 65//39 66//39
usemtl c33
f 48//28 59//28 60//28
usemtl c34
f 48//29 60//29 61//29
f 60//41 66//41 67//41
f 91//93 102//93 103//93
f 168//231 192//231 169//231
usemtl c35
f 48//30 61//30 49//30
usemtl c36
f 49//30 61//30 62//30
usemtl c37
f 49//31 62//31 50//31
usemtl c38
f 50//31 62//31 63//31
usemtl c39
f 50//32 63//32 64//32
usemtl c40
f 50//33 64//33 51//33
f 131//155 95//155 108//155
f 209//20 219//20 220//20
usemtl c41
f 51//34 64//34 57//34
usemtl c42
f 51//35 57//35 52//35
usemtl c43
f 57//36 64//36 65//36
f 136//123 137//123 138//123
usemtl c44
f 57//37 65//37 58//37
f 145//160 102//160 151//160
usemtl c45
f 58//38 65//38 59//38
usemtl c46
f 59//40 66//40 60//40
usemtl c47
f 60//42 67//42 61//42
f 129//119 133//119 134//119
f 182//206 180//206 131//206
usemtl c48
f 61//43 67//43 62//43
usemtl c49
f 62//44 67//44 63//44
usemtl c50
f 63//45 67//45 68//45
usemtl c51
f 63//46 68//46 64//46
usemtl c52
f 64//47 68//47 65//47
usemtl c53
f 65//48 68//48 66//48
usemtl c54
f 66//49 68//49 67//49
usemtl c55
f 55//20 69//20 56//20
usemtl c56
f 56//20 69//20 53//20
usemtl c57
f 56//50 53//50 52//50
usemtl c58
f 69//20 21//20 53//20
f 83//20 90//20 84//20
usemtl c59
f 21//51 69//51 70//51
usemtl c60
f 21//52 70//52 71//52
usemtl c61
f 54//54 71//54 72//54
f 219//277 218//277 239//277
f 218//278 239//278 217//278
f 218//279 217//279 240//279
usemtl c62
f 54//55 72//55 3//55
usemtl c63
f 3//56 72//56 73//56
usemtl c64
f 3//57 73//57 24//57
usemtl c65
f 24//58 73//58 74//58
f 81//86 87//86 82//86
usemtl c66
f 24//59 74//59 55//59
usemtl c67
f 55//60 74//60 75//60
usemtl c68
f 69//62 75//62 70//62
f 165//179 168//179 113//179
usemtl c69
f 70//63 75//63 76//63
usemtl c70
f 70//64 76//64 77//64
usemtl c71
f 70//65 77//65 71//65
usemtl c72
f 71//66 77//66 78//66
usemtl c73
f 71//67 78//67 72//67
usemtl c74
f 72//68 78//68 79//68
usemtl c75
f 72//69 79//69 73//69
f 211//20 221//20 222//20
usemtl c76
f 73//70 79//70 80//70
f 79//82 85//82 86//82
usemtl c77
f 73//71 80//71 74//71
usemtl c78
f 74//72 80//72 81//72
f 151//162 162//162 152//162
usemtl c79
f 76//75 81//75 82//75
usemtl c80
f 76//76 82//76 83//76
f 116//189 174//189 175//189
f 108//195 107//195 106//195
f 215//259 230//259 216//259
f 222//270 235//270 221//270
f 222//271 236//271 235//271
f 217//281 231//281 240//281
usemtl c81
f 76//77 83//77 77//77
f 131//156 108//156 138//156
usemtl c82
f 77//78 83//78 84//78
f 117//193 143//193 118//193
usemtl c83
f 77//79 84//79 78//79
usemtl c84
f 78//80 84//80 85//80
usemtl c85
f 78//81 85//81 79//81
usemtl c86
f 79//83 86//83 80//83
usemtl c87
f 80//84 86//84 87//84
usemtl c88
f 80//85 87//85 81//85
f 88//88 95//88 96//88
usemtl c89
f 82//20 87//20 88//20
f 88//20 97//20 89//20
usemtl c90
f 82//20 88//20 89//20
f 190//20 202//20 203//20
usemtl c91
f 82//20 89//20 83//20
f 170//20 194//20 195//20
usemtl c92
f 83//20 89//20 90//20
usemtl c93
f 84//20 90//20 91//20
usemtl c94
f 84//20 91//20 85//20
usemtl c95
f 85//20 91//20 92//20
usemtl c96
f 85//20 92//20 86//20
usemtl c97
f 86//20 92//20 93//20
f 89//20 99//20 90//20
f 169//20 194//20 170//20
f 191//20 204//20 192//20
usemtl c98
f 86//20 93//20 87//20
usemtl c99
f 87//20 93//20 88//20
usemtl c100
f 88//20 93//20 94//20
usemtl c101
f 88//87 94//87 95//87
usemtl c102
f 88//89 96//89 97//89
usemtl c103
f 89//90 97//90 98//90
f 120//144 155//144 156//144
usemtl c105
f 124//153 160//153 95//153
usemtl c108
f 90//91 100//91 101//91
usemtl c109
f 90//20 101//20 91//20
usemtl c110
f 91//92 101//92 102//92
usemtl c111
f 91//94 103//94 104//94
f 8//246 211//246 198//246
usemtl c112
f 91//20 104//20 92//20
usemtl c113
f 92//95 104//95 105//95
usemtl c114
f 92//96 105//96 106//96
usemtl c115
f 92//97 106//97 107//97
usemtl c116
f 92//20 107//20 93//20
usemtl c117
f 93//99 108//99 109//99
usemtl c118
f 93//100 109//100 94//100
usemtl c119
f 94//101 109//101 95//101
f 204//257 214//257 205//257
usemtl c120
f 110//102 111//102 112//102
usemtl c121
f 110//103 112//103 113//103
usemtl c122
f 110//104 113//104 114//104
usemtl c123
f 110//104 114//104 115//104
usemtl c124
f 110//105 115//105 111//105
usemtl c125
f 111//106 115//106 116//106
usemtl c126
f 111//107 116//107 117//107
usemtl c127
f 111//108 117//108 118//108
usemtl c128
f 111//109 118//109 119//109
f 213//20 224//20 225//20
usemtl c129
f 111//109 119//109 120//109
usemtl c130
f 111//110 120//110 121//110
usemtl c131
f 111//2 121//2 112//2
usemtl c132
f 112//111 121//111 122//111
usemtl c133
f 112//112 122//112 123//112
usemtl c134
f 112//113 123//113 124//113
usemtl c135
f 112//114 124//114 125//114
usemtl c136
f 112//115 125//115 126//115
usemtl c137
f 112//116 126//116 127//116
usemtl c138
f 127//32 126//32 128//32
f 126//32 177//32 178//32
f 126//32 178//32 128//32
f 128//32 178//32 130//32
f 179//32 178//32 177//32
usemtl c139
f 127//32 128//32 129//32
f 129//32 128//32 130//32
usemtl c140
f 129//32 130//32 131//32
usemtl c141
f 129//117 131//117 132//117
f 116//188 173//188 174//188
f 207//20 218//20 208//20
f 228//262 229//262 227//262
f 237//274 238//274 219//274
f 219//277 239//277 238//277
f 238//276 239//276 218//276
usemtl c142
f 129//118 132//118 133//118
usemtl c143
f 134//120 133//120 135//120
f 133//201 181//201 135//201
usemtl c144
f 134//121 135//121 136//121
usemtl c145
f 136//122 135//122 137//122
f 137//203 181//203 138//203
usemtl c146
f 136//124 138//124 139//124
usemtl c147
f 136//125 139//125 140//125
usemtl c148
f 136//126 140//126 141//126
usemtl c149
f 141//127 140//127 142//127
usemtl c150
f 141//128 142//128 143//128
usemtl c151
f 143//129 142//129 144//129
usemtl c152
f 143//130 144//130 145//130
usemtl c153
f 143//131 145//131 146//131
f 143//132 146//132 147//132
usemtl c154
f 143//133 147//133 148//133
usemtl c155
f 148//134 147//134 149//134
f 147//217 183//217 149//217
usemtl c156
f 148//135 149//135 118//135
usemtl c157
f 118//136 149//136 150//136
usemtl c158
f 118//138 151//138 152//138
usemtl c159
f 118//140 153//140 119//140
f 195//239 207//239 208//239
f 199//250 213//250 201//250
f 213//20 223//20 224//20
usemtl c160
f 119//141 153//141 154//141
usemtl c161
f 119//142 154//142 120//142
usemtl c162
f 120//143 154//143 155//143
usemtl c163
f 120//145 156//145 157//145
usemtl c164
f 120//146 157//146 158//146
usemtl c165
f 120//147 158//147 121//147
usemtl c166
f 121//148 158//148 122//148
usemtl c167
f 122//149 158//149 159//149
f 122//150 159//150 123//150
f 157//172 164//172 158//172
f 158//149 164//149 159//149
usemtl c168
f 123//151 159//151 124//151
usemtl c169
f 124//152 159//152 160//152
usemtl c170
f 124//154 95//154 131//154
usemtl c171
f 138//157 108//157 105//157
usemtl c172
f 138//158 105//158 145//158
usemtl c173
f 145//159 105//159 102//159
usemtl c176
f 152//163 162//163 153//163
usemtl c177
f 153//164 162//164 163//164
usemtl c178
f 153//164 163//164 154//164
usemtl c179
f 154//165 163//165 155//165
usemtl c180
f 155//166 163//166 156//166
usemtl c181
f 156//167 163//167 161//167
usemtl c183
f 156//169 95//169 160//169
f 206//20 217//20 207//20
usemtl c184
f 156//170 160//170 164//170
usemtl c185
f 156//171 164//171 157//171
usemtl c186
f 159//173 164//173 160//173
usemtl c187
f 165//174 113//174 129//174
usemtl c188
f 165//175 129//175 136//175
usemtl c189
f 165//176 136//176 166//176
usemtl c190
f 165//177 166//177 167//177
usemtl c191
f 113//180 168//180 114//180
f 215//261 230//261 228//261
f 223//268 234//268 222//268
f 222//271 221//271 236//271
f 219//276 238//276 218//276
f 217//280 240//280 216//280
usemtl c192
f 114//181 168//181 169//181
usemtl c193
f 114//182 169//182 170//182
usemtl c194
f 114//183 170//183 171//183
f 228//263 232//263 229//263
f 233//266 234//266 223//266
usemtl c195
f 114//184 171//184 115//184
usemtl c196
f 115//186 172//186 173//186
usemtl c197
f 115//187 173//187 116//187
usemtl c198
f 116//190 175//190 176//190
f 131//199 180//199 132//199
usemtl c199
f 116//107 176//107 117//107
usemtl c200
f 117//192 166//192 143//192
usemtl c201
f 113//194 112//194 129//194
usemtl c202
f 98//196 97//196 96//196
usemtl c203
f 124//197 177//197 125//197
usemtl c204
f 125//32 177//32 126//32
usemtl c205
f 130//32 178//32 131//32
f 131//32 178//32 179//32
usemtl c206
f 179//198 177//198 124//198
usemtl c207
f 132//200 180//200 133//200
usemtl c208
f 133//201 180//201 181//201
usemtl c209
f 135//202 181//202 137//202
usemtl c210
f 138//204 181//204 182//204
usemtl c211
f 182//205 181//205 180//205
usemtl c212
f 136//207 143//207 166//207
usemtl c213
f 102//209 101//209 100//209
f 197//244 210//244 8//244
usemtl c215
f 162//210 161//210 163//210
usemtl c216
f 150//211 183//211 151//211
usemtl c217
f 151//212 183//212 184//212
usemtl c218
f 184//213 183//213 185//213
f 147//217 185//217 183//217
usemtl c219
f 184//214 185//214 145//214
usemtl c220
f 145//215 185//215 146//215
usemtl c221
f 146//216 185//216 147//216
usemtl c222
f 149//216 183//216 150//216
usemtl c223
f 144//218 186//218 145//218
f 145//219 186//219 187//219
usemtl c224
f 187//220 186//220 188//220
usemtl c225
f 187//221 188//221 138//221
f 138//222 188//222 139//222
usemtl c226
f 139//223 188//223 140//223
f 140//224 186//224 142//224
usemtl c227
f 140//224 188//224 186//224
f 142//225 186//225 144//225
usemtl c228
f 166//191 176//191 167//191
usemtl c229
f 167//226 176//226 189//226
usemtl c230
f 167//228 190//228 191//228
usemtl c231
f 168//230 191//230 192//230
usemtl c232
f 169//20 192//20 193//20
usemtl c233
f 169//20 193//20 194//20
usemtl c234
f 170//20 195//20 171//20
usemtl c235
f 171//20 195//20 196//20
f 199//20 201//20 200//20
usemtl c236
f 171//20 196//20 172//20
f 172//20 197//20 173//20
usemtl c237
f 172//20 196//20 197//20
usemtl c238
f 173//20 197//20 8//20
usemtl c239
f 173//20 8//20 174//20
usemtl c240
f 174//20 8//20 198//20
usemtl c241
f 174//20 198//20 175//20
usemtl c242
f 175//20 198//20 199//20
usemtl c243
f 175//20 199//20 200//20
usemtl c244
f 175//232 200//232 176//232
usemtl c245
f 176//233 200//233 189//233
usemtl c246
f 189//20 200//20 201//20
usemtl c247
f 189//20 201//20 202//20
usemtl c248
f 189//20 202//20 190//20
f 190//20 203//20 191//20
usemtl c249
f 191//20 203//20 204//20
usemtl c250
f 193//234 204//234 205//234
usemtl c251
f 193//235 205//235 206//235
usemtl c252
f 193//236 206//236 194//236
usemtl c253
f 194//237 206//237 207//237
usemtl c254
f 194//238 207//238 195//238
f 224//20 227//20 225//20
usemtl c255
f 195//240 208//240 196//240
f 199//249 212//249 213//249
usemtl c256
f 196//241 208//241 209//241
f 198//248 212//248 199//248
usemtl c257
f 197//243 209//243 210//243
usemtl c258
f 8//245 210//245 211//245
usemtl c259
f 198//247 211//247 212//247
usemtl c260
f 205//20 214//20 215//20
usemtl c261
f 205//20 215//20 216//20
usemtl c262
f 205//20 216//20 206//20
usemtl c263
f 206//20 216//20 217//20
usemtl c264
f 207//20 217//20 218//20
usemtl c265
f 208//20 218//20 219//20
usemtl c266
f 209//20 220//20 210//20
usemtl c267
f 210//20 220//20 221//20
usemtl c268
f 210//20 221//20 211//20
usemtl c269
f 211//20 222//20 212//20
usemtl c270
f 212//20 222//20 223//20
f 224//267 234//267 233//267
usemtl c271
f 212//20 223//20 213//20
usemtl c272
f 213//251 225//251 201//251
usemtl c273
f 201//252 225//252 202//252
usemtl c274
f 202//253 225//253 226//253
usemtl c275
f 202//254 226//254 203//254
usemtl c276
f 203//255 226//255 214//255
usemtl c277
f 203//256 214//256 204//256
usemtl c278
f 225//20 227//20 226//20
usemtl c279
f 226//20 227//20 228//20
usemtl c280
f 226//20 228//20 214//20
usemtl c281
f 214//20 228//20 215//20
usemtl c282
f 215//258 228//258 229//258
f 215//260 216//260 231//260
f 223//269 222//269 235//269
f 220//275 219//275 238//275
f 218//279 240//279 239//279
f 239//278 240//278 217//278
f 240//280 231//280 216//280
usemtl c283
f 215//258 229//258 230//258
f 228//261 230//261 229//261
f 223//269 235//269 234//269
f 234//268 235//268 222//268
f 216//259 230//259 231//259
usemtl c284
f 215//260 231//260 230//260
f 221//272 236//272 220//272
f 220//274 237//274 219//274
f 217//281 216//281 231//281
usemtl c285
f 228//263 227//263 232//263
usemtl c286
f 229//262 232//262 227//262
f 235//270 236//270 221//270
usemtl c287
f 227//264 232//264 224//264
usemtl c288
f 232//264 233//264 224//264
usemtl c289
f 224//266 233//266 223//266
f 221//273 220//273 237//273
f 221//273 237//273 236//273
f 236//272 237//272 220//272
usemtl c290
f 220//275 238//275 237//275
l 2 3
l 4 5
l 6 7
l 7 8
l 8 9
l 9 10
l 10 11
l 11 12
l 12 13
l 6 14
l 15 16
l 17 18
l 18 19
l 17 20
l 21 22
l 22 23
l 23 24
l 25 26
l 27 28
l 25 29
l 29 30
l 26 31
l 30 33
l 31 34
l 33 34
l 35 36
l 35 37
l 28 241
