# Made by RuneLite Model-Dumper Plugin
mtllib lobster.mtl
o Item Lobster 2026-09-13_16-41-33
v 7 12 0
v 18 8 0
v 18 0 -3
v 7 0 -7
v 6 12 0
v 6 0 7
v 7 0 7
v 18 0 3
v 20 8 0
v 20 0 -3
v 20 0 3
v 26 0 3
v 26 8 0
v 26 0 -3
v 28 8 0
v 35 4 0
v 35 0 -10
v 28 0 -3
v 28 0 3
v 35 0 10
v -6 0 7
v -6 8 0
v -7 0 7
v -7 8 0
v -14 0 3
v -14 0 0
v -14 0 -3
v -7 0 -7
v -6 0 -7
v 6 0 -7
v -21 8 14
v -18 8 25
v -3 8 18
v -10 8 10
v -15 8 10
v -26 8 9
v -21 0 14
v -31 8 18
v -21 8 25
v -21 0 25
v -18 0 25
v -3 0 18
v -3 8 16
v -9 8 10
v -9 0 10
v -10 0 10
v -15 0 10
v -26 0 9
v 0 6 7
v -6 6 7
v -31 0 18
v -3 0 16
v 0 0 7
v -10 8 -10
v -3 8 -18
v -18 8 -25
v -21 8 -14
v -15 8 -10
v -10 0 -10
v -9 8 -10
v -3 8 -16
v -3 0 -16
v -3 0 -18
v -18 0 -25
v -21 8 -25
v -31 8 -18
v -31 0 -18
v -21 0 -14
v -26 0 -9
v -26 8 -9
v -15 0 -10
v -6 6 -7
v 0 6 -7
v -9 0 -10
v 0 0 -7
v -21 0 -25
v -34 0 -3
v -14 0 -1
v -34 0 0
v -14 0 1
usemtl c0
f 1 2 3
usemtl c1
f 1 3 4
usemtl c2
f 1 4 5
usemtl c3
f 1 5 6
usemtl c4
f 1 6 7
usemtl c5
f 1 7 8
usemtl c6
f 1 8 2
usemtl c3
f 2 8 9
usemtl c2
f 2 9 10
f 2 10 3
usemtl c7
f 11 12 13
usemtl c8
f 11 13 9
usemtl c4
f 11 9 8
usemtl c9
f 9 13 14
usemtl c1
f 9 14 10
usemtl c10
f 15 16 17
usemtl c11
f 15 17 18
usemtl c2
f 15 18 13
usemtl c3
f 15 13 12
usemtl c12
f 15 12 19
usemtl c13
f 15 19 20
usemtl c14
f 15 20 16
usemtl c15
f 21 6 5
usemtl c16
f 21 5 22
usemtl c3
f 21 22 23
f 23 22 24
usemtl c17
f 23 24 25
usemtl c18
f 25 24 26
usemtl c19
f 26 24 27
usemtl c20
f 27 24 28
usemtl c2
f 28 24 29
f 29 24 22
usemtl c21
f 29 22 30
usemtl c22
f 30 22 5
usemtl c2
f 30 5 4
f 13 18 14
usemtl c23
f 31 32 33
usemtl c24
f 31 33 34
usemtl c2
f 31 34 35
usemtl c25
f 31 35 36
usemtl c26
f 31 36 37
usemtl c27
f 31 37 38
usemtl c28
f 31 38 39
usemtl c4
f 31 39 32
usemtl c29
f 32 39 40
f 32 40 41
usemtl c19
f 32 41 33
usemtl c30
f 33 41 42
usemtl c2
f 33 42 43
f 33 43 34
f 34 43 44
f 34 44 45
f 34 45 46
f 34 46 47
f 34 47 35
usemtl c31
f 35 47 48
usemtl c32
f 35 48 36
usemtl c33
f 36 48 37
usemtl c34
f 44 43 49
usemtl c35
f 44 49 50
usemtl c36
f 44 50 21
usemtl c37
f 44 21 45
usemtl c38
f 40 39 38
usemtl c39
f 40 38 51
usemtl c40
f 51 38 37
usemtl c41
f 52 53 49
usemtl c42
f 52 49 43
usemtl c2
f 52 43 42
f 50 49 53
f 50 53 21
usemtl c10
f 54 55 56
usemtl c43
f 54 56 57
usemtl c3
f 54 57 58
usemtl c4
f 54 58 59
f 54 59 60
usemtl c3
f 54 60 55
f 55 60 61
usemtl c2
f 55 61 62
f 55 62 63
usemtl c44
f 55 63 56
usemtl c45
f 56 63 64
usemtl c2
f 56 64 65
f 56 65 57
usemtl c46
f 57 65 66
usemtl c47
f 57 66 67
usemtl c48
f 57 67 68
usemtl c49
f 57 68 69
usemtl c50
f 57 69 70
usemtl c48
f 57 70 58
usemtl c18
f 58 70 71
usemtl c51
f 58 71 59
usemtl c52
f 72 73 61
usemtl c53
f 72 61 60
usemtl c54
f 72 60 74
usemtl c55
f 72 74 29
usemtl c3
f 72 29 73
usemtl c2
f 73 29 75
usemtl c56
f 73 75 61
usemtl c57
f 61 75 62
usemtl c58
f 67 66 65
usemtl c59
f 67 65 76
usemtl c2
f 76 65 64
usemtl c60
f 70 69 71
usemtl c29
f 59 74 60
usemtl c61
f 77 78 27
usemtl c62
f 79 80 26
