# Made by RuneLite Model-Dumper Plugin
mtllib fire.mtl
o Item Fire rune 2026-09-20_20-15-29
v -20 8 6
v -15 8 15
v -12 16 12
v -15 16 5
v -20 8 -6
v -20 0 -6
v -20 0 6
v -15 0 15
v -6 8 20
v -5 16 15
v 5 16 15
v 13 16 11
v 16 16 5
v 16 16 -5
v 12 16 -12
v 5 16 -15
v -5 16 -15
v -12 16 -12
v -15 16 -5
v -15 8 -15
v -15 0 -15
v 0 0 0
v -6 0 20
v 6 8 20
v 16 8 14
v 20 8 6
v 20 8 -6
v 15 8 -15
v 6 8 -20
v -6 8 -20
v 6 0 20
v 16 0 14
v 20 0 6
v 20 0 -6
v 15 0 -15
v 6 0 -20
v -6 0 -20
v -12 17 -2
v -8 17 10
v -4 17 0
v -10 17 -8
v 4 17 0
v 10 17 -8
v -4 17 -12
v 4 17 -12
v 6 17 10
v 12 17 -2
v 0 17 12
usemtl c0
f 1 2 3
usemtl c1
f 1 3 4
usemtl c2
f 1 4 5
f 1 5 6
usemtl c3
f 1 6 7
usemtl c4
f 1 7 2
usemtl c5
f 2 7 8
usemtl c6
f 2 8 9
usemtl c7
f 2 9 10
usemtl c8
f 2 10 3
usemtl c9
f 3 10 4
usemtl c10
f 4 10 11
usemtl c11
f 4 11 12
usemtl c12
f 4 12 13
usemtl c13
f 4 13 14
usemtl c14
f 4 14 15
usemtl c15
f 4 15 16
usemtl c16
f 4 16 17
usemtl c17
f 4 17 18
usemtl c18
f 4 18 19
usemtl c19
f 4 19 5
usemtl c20
f 5 19 20
usemtl c21
f 5 20 21
usemtl c22
f 5 21 6
usemtl c23
f 6 21 22
usemtl c24
f 6 22 7
usemtl c25
f 7 22 8
usemtl c26
f 8 22 23
usemtl c27
f 8 23 9
usemtl c28
f 9 23 24
usemtl c29
f 9 24 11
usemtl c27
f 9 11 10
usemtl c30
f 24 25 12
usemtl c31
f 24 12 11
usemtl c32
f 25 26 13
usemtl c33
f 25 13 12
usemtl c34
f 26 27 14
usemtl c35
f 26 14 13
usemtl c36
f 27 28 15
usemtl c37
f 27 15 14
usemtl c38
f 28 29 16
usemtl c39
f 28 16 15
usemtl c40
f 29 30 17
usemtl c41
f 29 17 16
usemtl c42
f 30 20 18
usemtl c32
f 30 18 17
usemtl c43
f 20 19 18
usemtl c44
f 23 31 24
usemtl c45
f 24 31 25
usemtl c46
f 25 31 32
usemtl c32
f 25 32 26
usemtl c47
f 26 32 33
usemtl c48
f 26 33 27
usemtl c49
f 27 33 34
usemtl c50
f 27 34 28
usemtl c51
f 28 34 35
usemtl c52
f 28 35 29
usemtl c53
f 29 35 36
usemtl c54
f 29 36 30
usemtl c55
f 30 36 37
usemtl c56
f 30 37 20
usemtl c57
f 20 37 21
usemtl c58
f 21 37 22
usemtl c59
f 22 37 36
usemtl c41
f 22 36 35
usemtl c55
f 22 35 34
usemtl c60
f 22 34 33
usemtl c61
f 22 33 32
usemtl c62
f 22 32 31
usemtl c43
f 22 31 23
usemtl c63
f 38 39 40
f 38 40 41
f 41 40 42
f 41 42 43
f 41 43 44
f 44 43 45
f 42 46 47
f 42 47 43
f 48 42 40
