# Made by RuneLite Model-Dumper Plugin
mtllib bronze-arrows.mtl
o Item Bronze arrow 2026-09-24_17-14-39
v -20 2 -24
v -22 2 -24
v -22 2 40
v -20 2 40
v -20 0 -24
v -22 0 -24
v -22 0 40
v -25 2 43
v -25 2 53
v -22 2 50
v -20 2 50
v -17 2 43
v -17 0 43
v -20 0 40
v -22 0 50
v -20 0 50
v -17 2 53
v -17 0 53
v -25 0 53
v -25 0 43
v -21 1 -43
v -21 4 -27
v -17 2 -29
v -17 0 -29
v -25 2 -29
v -25 0 -29
v 6 1 -37
v 6 4 -21
v 10 2 -23
v 10 0 -23
v 7 2 -18
v 7 0 -18
v 7 2 46
v 7 0 46
v 10 0 49
v 10 2 49
v 10 2 59
v 10 0 59
v 7 0 56
v 7 2 56
v 5 2 56
v 5 2 46
v 2 2 59
v 2 0 59
v 5 0 56
v 2 2 -23
v 2 0 -23
v 5 0 -18
v 5 2 -18
v 2 2 49
v 2 0 49
v 5 0 46
v 13 1 -51
v 13 4 -35
v 17 2 -37
v 17 0 -37
v 14 2 -32
v 14 0 -32
v 14 2 32
v 14 0 32
v 17 0 35
v 17 2 35
v 17 2 45
v 17 0 45
v 14 0 42
v 14 2 42
v 12 2 42
v 12 2 32
v 9 2 45
v 9 0 45
v 12 0 42
v 9 2 -37
v 9 0 -37
v 12 0 -32
v 12 2 -32
v 12 0 32
v 9 2 35
v 9 0 35
v -2 1 -56
v -2 4 -40
v 2 2 -42
v 2 0 -42
v -1 2 -37
v -1 0 -37
v -1 2 27
v -1 0 27
v 2 0 30
v 2 2 30
v 2 2 40
v 2 0 40
v -1 0 37
v -1 2 37
v -3 2 37
v -3 2 27
v -6 2 40
v -6 0 40
v -3 0 37
v -6 2 -42
v -6 0 -42
v -3 0 -37
v -3 2 -37
v -3 0 27
v -6 2 30
v -6 0 30
v -11 1 -46
v -11 4 -30
v -7 2 -32
v -7 0 -32
v -10 2 -27
v -10 0 -27
v -10 2 37
v -10 0 37
v -7 0 40
v -7 2 40
v -7 2 50
v -7 0 50
v -10 0 47
v -10 2 47
v -12 2 47
v -12 2 37
v -15 2 50
v -15 0 50
v -12 0 47
v -15 2 -32
v -15 0 -32
v -12 0 -27
v -12 2 -27
v -12 0 37
v -15 2 40
v -15 0 40
usemtl c0
f 1 2 3
f 1 3 4
usemtl c1
f 1 4 5
f 1 5 6
f 1 6 2
usemtl c2
f 2 6 7
f 2 7 3
usemtl c3
f 3 7 8
usemtl c4
f 3 8 9
f 3 9 10
usemtl c0
f 3 10 4
f 4 10 11
usemtl c4
f 4 11 12
usemtl c5
f 4 12 13
f 4 13 14
usemtl c1
f 4 14 5
usemtl c2
f 10 15 16
f 10 16 11
usemtl c6
f 11 16 17
usemtl c4
f 11 17 12
usemtl c7
f 12 17 13
f 13 17 18
usemtl c6
f 18 17 16
usemtl c3
f 10 9 19
f 10 19 15
usemtl c8
f 19 9 8
f 19 8 20
usemtl c3
f 20 8 7
usemtl c9
f 21 22 23
usemtl c10
f 21 23 24
usemtl c11
f 24 23 1
f 24 1 5
usemtl c12
f 25 22 21
usemtl c13
f 25 21 26
usemtl c14
f 25 26 6
f 25 6 2
usemtl c15
f 25 2 22
usemtl c16
f 22 2 1
usemtl c17
f 22 1 23
usemtl c9
f 27 28 29
usemtl c10
f 27 29 30
usemtl c11
f 30 29 31
f 30 31 32
usemtl c1
f 32 31 33
f 32 33 34
usemtl c5
f 34 33 35
f 35 33 36
usemtl c7
f 35 36 37
f 35 37 38
usemtl c6
f 38 37 39
f 39 37 40
usemtl c4
f 40 37 36
f 40 36 33
usemtl c0
f 40 33 41
f 41 33 42
usemtl c4
f 41 42 43
usemtl c3
f 41 43 44
f 41 44 45
usemtl c12
f 46 28 27
usemtl c13
f 46 27 47
usemtl c14
f 46 47 48
f 46 48 49
usemtl c15
f 46 49 28
usemtl c16
f 28 49 31
usemtl c17
f 28 31 29
usemtl c4
f 42 50 43
usemtl c8
f 43 50 44
f 44 50 51
usemtl c3
f 51 50 52
f 52 50 42
usemtl c2
f 52 42 49
f 52 49 48
usemtl c9
f 53 54 55
usemtl c10
f 53 55 56
usemtl c11
f 56 55 57
f 56 57 58
usemtl c1
f 58 57 59
f 58 59 60
usemtl c5
f 60 59 61
f 61 59 62
usemtl c7
f 61 62 63
f 61 63 64
usemtl c6
f 64 63 65
f 65 63 66
usemtl c4
f 66 63 62
f 66 62 59
usemtl c0
f 66 59 67
f 67 59 68
usemtl c4
f 67 68 69
usemtl c3
f 67 69 70
f 67 70 71
usemtl c12
f 72 54 53
usemtl c13
f 72 53 73
usemtl c14
f 72 73 74
f 72 74 75
usemtl c15
f 72 75 54
usemtl c16
f 54 75 57
usemtl c17
f 54 57 55
usemtl c0
f 68 59 57
f 68 57 75
usemtl c2
f 68 75 76
usemtl c3
f 68 76 77
usemtl c4
f 68 77 69
usemtl c8
f 69 77 70
f 70 77 78
usemtl c3
f 78 77 76
usemtl c2
f 75 74 76
usemtl c9
f 79 80 81
usemtl c10
f 79 81 82
usemtl c11
f 82 81 83
f 82 83 84
usemtl c1
f 84 83 85
f 84 85 86
usemtl c5
f 86 85 87
f 87 85 88
usemtl c7
f 87 88 89
f 87 89 90
usemtl c6
f 90 89 91
f 91 89 92
usemtl c4
f 92 89 88
f 92 88 85
usemtl c0
f 92 85 93
f 93 85 94
usemtl c4
f 93 94 95
usemtl c3
f 93 95 96
f 93 96 97
usemtl c12
f 98 80 79
usemtl c13
f 98 79 99
usemtl c14
f 98 99 100
f 98 100 101
usemtl c15
f 98 101 80
usemtl c16
f 80 101 83
usemtl c17
f 80 83 81
usemtl c0
f 94 85 83
f 94 83 101
usemtl c2
f 94 101 102
usemtl c3
f 94 102 103
usemtl c4
f 94 103 95
usemtl c8
f 95 103 96
f 96 103 104
usemtl c3
f 104 103 102
usemtl c2
f 101 100 102
usemtl c9
f 105 106 107
usemtl c10
f 105 107 108
usemtl c11
f 108 107 109
f 108 109 110
usemtl c1
f 110 109 111
f 110 111 112
usemtl c5
f 112 111 113
f 113 111 114
usemtl c7
f 113 114 115
f 113 115 116
usemtl c6
f 116 115 117
f 117 115 118
usemtl c4
f 118 115 114
f 118 114 111
usemtl c0
f 118 111 119
f 119 111 120
usemtl c4
f 119 120 121
usemtl c3
f 119 121 122
f 119 122 123
usemtl c12
f 124 106 105
usemtl c13
f 124 105 125
usemtl c14
f 124 125 126
f 124 126 127
usemtl c15
f 124 127 106
usemtl c16
f 106 127 109
usemtl c17
f 106 109 107
usemtl c0
f 120 111 109
f 120 109 127
usemtl c2
f 120 127 128
usemtl c3
f 120 128 129
usemtl c4
f 120 129 121
usemtl c8
f 121 129 122
f 122 129 130
usemtl c3
f 130 129 128
usemtl c2
f 127 126 128
usemtl c0
f 42 33 31
f 42 31 49
