# Made by RuneLite Model-Dumper Plugin
mtllib adamant-med-helm.mtl
o Item Adamant med helm 2026-09-24_18-17-43
v 10 22 -8
v 12 20 1
v 12 18 1
v 10 20 -9
v -10 20 -9
v -10 22 -8
v -6 28 0
v 6 28 0
v 10 21 15
v 10 19 15
v 10 13 13
v 10 0 13
v 12 1 1
v 10 4 -11
v -10 4 -11
v -12 18 1
v -12 20 1
v -10 21 15
v 0 25 13
v 3 20 16
v 3 18 16
v 3 18 15
v 9 13 12
v 3 7 16
v 3 0 16
v 3 0 15
v 9 0 12
v 11 1 1
v 9 4 -10
v -9 4 -10
v -12 1 1
v -10 0 13
v -10 13 13
v -10 19 15
v -3 18 16
v -3 20 16
v -1 16 15
v 1 16 15
v 1 16 14
v -3 18 15
v -5 24 9
v 5 24 9
v 10 13 2
v 3 7 15
v -3 7 16
v -3 0 16
v -3 0 15
v -3 7 15
v -1 10 17
v 1 10 17
v -1 16 14
v -1 10 16
v 1 10 16
v -9 13 12
v -6 26 2
v 6 26 2
v 8 16 -5
v -9 0 12
v -10 13 2
v -4 22 -3
v 4 22 -3
v -8 16 -5
v -11 1 1
usemtl c0
f 1 2 3
usemtl c1
f 1 3 4
usemtl c2
f 1 4 5
usemtl c3
f 1 5 6
usemtl c4
f 1 6 7
usemtl c5
f 1 7 8
usemtl c6
f 1 8 2
usemtl c7
f 2 8 9
usemtl c8
f 2 9 3
usemtl c9
f 3 9 10
usemtl c10
f 3 10 11
usemtl c11
f 3 11 12
usemtl c12
f 3 12 13
usemtl c13
f 3 13 14
usemtl c14
f 3 14 4
usemtl c15
f 4 14 5
usemtl c16
f 5 14 15
usemtl c17
f 5 15 16
usemtl c18
f 5 16 17
usemtl c19
f 5 17 6
usemtl c20
f 6 17 7
usemtl c21
f 7 17 18
usemtl c22
f 7 18 19
usemtl c17
f 7 19 8
usemtl c23
f 8 19 9
usemtl c24
f 9 19 20
usemtl c19
f 9 20 10
usemtl c25
f 10 20 21
usemtl c26
f 10 21 11
usemtl c27
f 11 21 22
usemtl c28
f 11 22 23
usemtl c24
f 11 23 24
usemtl c29
f 11 24 12
usemtl c30
f 12 24 25
usemtl c31
f 12 25 26
usemtl c5
f 12 26 27
usemtl c7
f 12 27 13
usemtl c32
f 13 27 28
usemtl c33
f 13 28 14
usemtl c34
f 14 28 29
usemtl c35
f 14 29 15
usemtl c36
f 15 29 30
usemtl c37
f 15 30 31
usemtl c38
f 15 31 16
usemtl c39
f 16 31 32
usemtl c40
f 16 32 33
usemtl c41
f 16 33 34
usemtl c42
f 16 34 17
f 17 34 18
usemtl c43
f 18 34 35
usemtl c44
f 18 35 36
usemtl c45
f 18 36 19
usemtl c46
f 19 36 20
usemtl c47
f 20 36 21
usemtl c48
f 21 36 35
usemtl c49
f 21 35 37
usemtl c50
f 21 37 38
usemtl c10
f 21 38 39
usemtl c11
f 21 39 22
usemtl c51
f 22 39 40
f 22 40 41
f 22 41 42
f 22 42 23
f 23 42 43
f 23 43 28
f 23 28 27
f 23 27 44
usemtl c39
f 23 44 24
usemtl c24
f 24 44 25
usemtl c52
f 25 44 26
usemtl c51
f 26 44 27
usemtl c23
f 45 32 46
usemtl c53
f 45 46 47
usemtl c54
f 45 47 48
usemtl c55
f 45 48 33
usemtl c56
f 45 33 32
usemtl c57
f 49 50 38
usemtl c58
f 49 38 37
f 49 37 51
usemtl c57
f 49 51 52
usemtl c26
f 49 52 50
usemtl c7
f 50 52 53
usemtl c59
f 50 53 38
usemtl c60
f 38 53 39
usemtl c51
f 39 53 51
f 39 51 40
usemtl c61
f 40 51 37
usemtl c30
f 40 37 35
usemtl c62
f 40 35 54
usemtl c51
f 40 54 41
f 41 54 55
f 41 55 42
f 42 55 56
f 42 56 43
f 43 56 57
f 43 57 29
f 43 29 28
usemtl c63
f 34 33 35
usemtl c64
f 35 33 54
usemtl c5
f 54 33 48
usemtl c51
f 54 48 58
f 54 58 59
f 54 59 55
f 55 59 60
f 55 60 56
f 56 60 61
f 56 61 57
f 57 61 62
f 57 62 30
f 57 30 29
usemtl c65
f 46 32 58
usemtl c66
f 46 58 47
usemtl c51
f 47 58 48
usemtl c36
f 32 31 63
usemtl c67
f 32 63 58
usemtl c51
f 58 63 59
f 59 63 62
f 59 62 60
f 60 62 61
usemtl c68
f 31 30 63
usemtl c51
f 63 30 62
f 51 53 52
