# Made by RuneLite Model-Dumper Plugin
mtllib torch.mtl
o Item Lit torch 2026-09-13_16-44-47
v 20 0 4
v 20 0 -3
v 28 1 -3
v 28 1 4
v 19 8 12
v 27 9 12
v 18 15 12
v 26 17 12
v 17 23 4
v 25 25 4
v 17 23 -3
v 25 25 -3
v 18 15 -11
v 26 17 -11
v 19 8 -11
v 27 9 -11
v 33 22 -3
v 33 22 4
v 34 18 8
v 35 10 8
v 36 6 4
v 36 6 -3
v 35 10 -7
v 34 18 -7
v 26 17 -7
v 25 21 -3
v 25 21 4
v 26 17 8
v 27 9 8
v 28 5 4
v 28 5 -3
v 27 9 -7
v -20 2 2
v -20 2 -1
v 20 4 -3
v 20 4 4
v -21 4 4
v -53 0 2
v -52 -1 1
v -52 -1 0
v -21 4 -3
v 19 8 -7
v -22 10 -1
v -22 10 2
v 17 19 4
v 17 19 -3
v -21 8 -3
v -53 2 -1
v -53 3 0
v -53 3 1
v -21 8 4
v 18 15 8
v 18 15 -7
v 19 8 8
v -53 0 -1
v -53 2 2
v 34 18 6
v 35 10 6
v 49 14 2
v 34 20 4
v 34 20 -3
v 34 18 -5
v 35 10 -5
v 35 8 -3
v 35 8 4
v 44 23 -3
v 42 22 -1
v 44 26 -1
v 46 22 -1
v 44 23 0
v 43 28 0
v 41 29 0
v 44 32 0
v 44 28 0
v 43 28 2
v 42 31 1
v 41 31 2
v 42 33 2
v 43 31 2
v 42 31 3
v 45 40 -1
v 43 41 0
v 47 44 0
v 47 40 0
v 45 40 2
v 44 43 1
v 42 43 2
v 45 47 2
v 45 43 2
v 44 43 4
v 51 44 1
v 49 43 2
v 50 46 2
v 52 43 2
v 51 44 3
usemtl c0
f 1 2 3
usemtl c1
f 1 3 4
usemtl c2
f 1 4 5
usemtl c3
f 5 4 6
usemtl c4
f 5 6 7
usemtl c5
f 7 6 8
usemtl c6
f 7 8 9
usemtl c7
f 9 8 10
usemtl c8
f 9 10 11
usemtl c9
f 11 10 12
usemtl c1
f 11 12 13
usemtl c10
f 13 12 14
usemtl c11
f 13 14 15
usemtl c12
f 15 14 16
usemtl c13
f 15 16 2
usemtl c14
f 2 16 3
usemtl c15
f 3 16 12
usemtl c16
f 3 12 4
usemtl c17
f 4 12 6
usemtl c9
f 6 12 8
usemtl c18
f 8 12 10
usemtl c19
f 12 16 14
usemtl c20
f 17 18 19
f 17 19 20
usemtl c21
f 17 20 21
usemtl c22
f 17 21 22
usemtl c23
f 17 22 23
usemtl c24
f 17 23 24
usemtl c25
f 17 24 25
usemtl c26
f 17 25 26
usemtl c27
f 17 26 18
usemtl c28
f 18 26 27
usemtl c29
f 18 27 19
usemtl c30
f 19 27 28
usemtl c31
f 19 28 20
usemtl c32
f 20 28 29
usemtl c33
f 20 29 21
usemtl c34
f 21 29 30
usemtl c35
f 21 30 22
usemtl c36
f 22 30 31
usemtl c23
f 22 31 23
usemtl c24
f 23 31 32
usemtl c37
f 23 32 24
usemtl c38
f 24 32 25
usemtl c39
f 33 34 35
usemtl c40
f 33 35 36
usemtl c41
f 33 36 37
usemtl c32
f 33 37 38
usemtl c28
f 33 38 39
usemtl c20
f 33 39 34
usemtl c42
f 34 39 40
usemtl c43
f 34 40 41
usemtl c44
f 34 41 42
usemtl c45
f 34 42 35
usemtl c46
f 43 44 45
usemtl c33
f 43 45 46
usemtl c21
f 43 46 47
usemtl c47
f 43 47 48
usemtl c48
f 43 48 49
usemtl c28
f 43 49 44
usemtl c32
f 44 49 50
usemtl c49
f 44 50 51
usemtl c50
f 44 51 52
usemtl c51
f 44 52 45
usemtl c25
f 41 47 53
usemtl c24
f 41 53 42
usemtl c52
f 47 46 53
usemtl c53
f 51 37 54
usemtl c54
f 51 54 52
usemtl c55
f 37 36 54
usemtl c44
f 55 48 47
usemtl c38
f 55 47 41
usemtl c24
f 55 41 40
usemtl c56
f 50 56 51
f 51 56 37
usemtl c49
f 37 56 38
usemtl c57
f 57 58 59
usemtl c58
f 57 59 60
usemtl c59
f 60 59 61
usemtl c60
f 61 59 62
usemtl c61
f 62 59 63
usemtl c62
f 63 59 64
usemtl c63
f 64 59 65
usemtl c64
f 65 59 58
usemtl c65
f 66 67 68
usemtl c66
f 66 68 69
usemtl c65
f 69 68 70
usemtl c67
f 70 68 67
usemtl c68
f 71 72 73
usemtl c69
f 71 73 74
usemtl c70
f 74 73 75
usemtl c71
f 75 73 72
usemtl c72
f 76 77 78
usemtl c73
f 76 78 79
usemtl c72
f 79 78 80
usemtl c74
f 80 78 77
usemtl c75
f 81 82 83
usemtl c76
f 81 83 84
usemtl c77
f 84 83 85
usemtl c78
f 85 83 82
usemtl c79
f 86 87 88
usemtl c80
f 86 88 89
usemtl c81
f 89 88 90
usemtl c82
f 90 88 87
usemtl c83
f 91 92 93
usemtl c84
f 91 93 94
usemtl c85
f 94 93 95
usemtl c86
f 95 93 92
