# Made by RuneLite Model-Dumper Plugin
mtllib maple-shortbow.mtl
o Item Maple shortbow 2026-09-24_13-46-36
v 10 0 -9
v 2 2 2
v -1 2 1
v 4 0 -10
v 3 2 -31
v 6 2 -29
v 10 7 -9
v 2 5 2
v -2 7 14
v -2 0 14
v -7 0 13
v -7 7 13
v -1 5 1
v 4 7 -10
v 3 5 -31
v 14 4 -36
v 6 5 -29
v -31 5 31
v -26 5 31
v -26 2 31
v -31 2 31
v -26 4 38
v 4 4 -32
v -32 4 30
v -26 4 30
v 4 4 -25
usemtl c0
f 1 2 3
usemtl c1
f 1 3 4
usemtl c2
f 1 4 5
usemtl c3
f 1 5 6
usemtl c4
f 1 6 7
usemtl c5
f 1 7 2
usemtl c6
f 2 7 8
usemtl c7
f 2 8 9
usemtl c8
f 2 9 10
usemtl c9
f 2 10 3
usemtl c10
f 3 10 11
usemtl c11
f 3 11 12
usemtl c12
f 3 12 13
usemtl c13
f 3 13 14
usemtl c14
f 3 14 4
usemtl c15
f 4 14 15
usemtl c16
f 4 15 5
usemtl c17
f 5 15 6
usemtl c18
f 5 6 16
usemtl c19
f 5 16 15
usemtl c20
f 15 16 17
usemtl c5
f 15 17 6
usemtl c21
f 6 17 7
usemtl c22
f 7 17 14
usemtl c23
f 7 14 8
usemtl c24
f 8 14 13
usemtl c25
f 8 13 12
usemtl c26
f 8 12 9
usemtl c27
f 9 12 18
usemtl c28
f 9 18 19
usemtl c29
f 9 19 10
usemtl c2
f 10 19 20
usemtl c30
f 10 20 11
usemtl c31
f 11 20 21
usemtl c32
f 11 21 12
usemtl c33
f 12 21 18
usemtl c34
f 18 21 19
usemtl c24
f 19 21 20
usemtl c35
f 14 17 15
usemtl c36
f 6 17 16
usemtl c37
f 19 18 22
usemtl c38
f 19 22 20
usemtl c39
f 20 22 21
usemtl c40
f 21 22 18
usemtl c41
f 23 24 25
f 23 25 26
f 23 26 25
f 23 25 24
