# Made by RuneLite Model-Dumper Plugin
mtllib door.mtl
o Object Door 2026-09-12_20-30-39
v -8 9 -52
v 8 9 -52
v 8 227 -52
v -8 227 -52
v -8 227 -55
v -8 9 -55
v -11 9 -55
v -11 227 -55
v -11 227 -52
v -11 9 -52
v -28 9 -52
v -28 227 -52
v -28 227 -55
v -28 9 -55
v -30 9 -55
v -30 227 -55
v 8 9 -55
v 8 227 -55
v 11 9 -52
v 28 9 -52
v 28 227 -52
v 11 227 -52
v 11 227 -55
v 11 9 -55
v 28 9 -55
v 28 227 -55
v 30 9 -52
v 47 9 -52
v 47 227 -52
v 30 227 -52
v 30 227 -55
v 30 9 -55
v 47 9 -55
v 47 227 -55
v -35 168 -52
v -35 168 -51
v -35 160 -51
v -35 160 -52
v -30 154 -52
v -30 227 -52
v -47 227 -52
v -43 168 -52
v -43 168 -51
v -37 166 -51
v -37 162 -51
v -41 162 -51
v -43 160 -51
v -41 166 -51
v -43 160 -52
v -47 154 -52
v -43 147 -52
v -35 147 -52
v -35 139 -52
v -30 9 -52
v -30 154 -55
v -47 227 -55
v -47 154 -55
v -41 165 -45
v -37 165 -45
v -37 162 -46
v -37 154 -40
v -37 154 -43
v -41 162 -46
v -41 154 -40
v -41 142 -45
v -37 142 -45
v -37 145 -46
v -41 154 -43
v -35 147 -51
v -35 139 -51
v -43 147 -51
v -43 139 -52
v -43 139 -51
v -41 145 -51
v -37 145 -51
v -41 141 -51
v -41 145 -46
v -37 141 -51
v -47 9 -52
v -47 9 -55
v -64 -1 -64
v -64 -1 -48
v -64 239 -48
v -64 239 -64
v -51 229 -64
v -51 7 -64
v 52 7 -64
v 64 -1 -64
v 52 229 -64
v 64 239 -64
v 64 239 -48
v 64 -1 -48
v 52 229 -48
v 52 7 -48
v -51 7 -48
v -51 229 -48
v 52 229 -56
v -51 229 -56
v -51 7 -56
v 52 7 -56
v 8 9 -61
v -8 9 -61
v -8 227 -61
v 8 227 -61
v 8 227 -58
v 8 9 -58
v 11 9 -58
v 11 227 -58
v 11 227 -61
v 11 9 -61
v 28 9 -61
v 28 227 -61
v 28 227 -58
v 28 9 -58
v 30 9 -58
v 30 227 -58
v 30 227 -61
v 30 9 -61
v 47 9 -61
v 47 227 -61
v 47 227 -58
v 47 9 -58
v -8 9 -58
v -8 227 -58
v -11 9 -61
v -28 9 -61
v -28 227 -61
v -11 227 -61
v -11 227 -58
v -11 9 -58
v -28 9 -58
v -28 227 -58
v -43 168 -61
v -43 168 -62
v -43 160 -62
v -43 160 -61
v -47 154 -61
v -47 227 -61
v -30 227 -61
v -35 168 -61
v -35 168 -62
v -41 166 -62
v -41 162 -62
v -37 162 -62
v -35 160 -62
v -37 166 -62
v -35 160 -61
v -30 154 -61
v -35 147 -61
v -43 147 -61
v -43 139 -61
v -47 9 -61
v -47 154 -58
v -47 227 -58
v -30 227 -58
v -30 154 -58
v -37 165 -68
v -41 165 -68
v -41 162 -67
v -41 154 -73
v -41 154 -70
v -37 162 -67
v -37 154 -73
v -37 142 -68
v -41 142 -68
v -41 145 -67
v -37 154 -70
v -43 147 -62
v -43 139 -62
v -35 147 -62
v -35 139 -61
v -35 139 -62
v -37 145 -62
v -41 145 -62
v -37 141 -62
v -37 145 -67
v -41 141 -62
v -30 9 -61
v -47 9 -58
v -30 9 -58
usemtl c0
f 1 2 3
usemtl c1
f 1 3 4
usemtl c2
f 1 4 5
usemtl c3
f 1 5 6
usemtl c4
f 6 5 7
usemtl c5
f 7 5 8
usemtl c6
f 7 8 9
usemtl c7
f 7 9 10
usemtl c0
f 10 9 11
usemtl c1
f 11 9 12
usemtl c2
f 11 12 13
usemtl c3
f 11 13 14
usemtl c8
f 14 13 15
usemtl c9
f 15 13 16
usemtl c7
f 3 2 17
usemtl c6
f 3 17 18
usemtl c10
f 3 18 4
usemtl c11
f 4 18 5
usemtl c0
f 19 20 21
usemtl c1
f 19 21 22
usemtl c2
f 19 22 23
usemtl c3
f 19 23 24
usemtl c4
f 24 23 17
usemtl c5
f 17 23 18
usemtl c7
f 21 20 25
usemtl c6
f 21 25 26
usemtl c10
f 21 26 22
usemtl c11
f 22 26 23
usemtl c0
f 27 28 29
usemtl c1
f 27 29 30
usemtl c2
f 27 30 31
usemtl c3
f 27 31 32
usemtl c4
f 32 31 25
usemtl c5
f 25 31 26
usemtl c12
f 29 28 33
usemtl c13
f 29 33 34
usemtl c14
f 29 34 30
usemtl c15
f 30 34 31
usemtl c10
f 12 9 8
usemtl c11
f 12 8 13
usemtl c16
f 35 36 37
f 35 37 38
usemtl c0
f 35 38 39
usemtl c17
f 35 39 40
usemtl c18
f 35 40 41
usemtl c19
f 35 41 42
usemtl c20
f 35 42 36
usemtl c21
f 36 42 43
usemtl c22
f 36 43 44
usemtl c23
f 36 44 45
usemtl c16
f 36 45 37
usemtl c24
f 37 45 46
usemtl c25
f 37 46 47
usemtl c26
f 47 46 48
usemtl c27
f 47 48 43
usemtl c26
f 47 43 49
usemtl c28
f 49 43 42
usemtl c29
f 49 42 50
f 49 50 51
usemtl c30
f 49 51 52
usemtl c31
f 49 52 38
usemtl c0
f 38 52 39
usemtl c32
f 39 52 53
usemtl c33
f 39 53 54
usemtl c34
f 39 54 55
usemtl c35
f 39 55 16
usemtl c36
f 39 16 40
usemtl c0
f 40 16 41
usemtl c37
f 41 16 56
usemtl c2
f 41 56 57
usemtl c3
f 41 57 50
usemtl c38
f 41 50 42
usemtl c39
f 43 48 44
usemtl c40
f 44 48 58
usemtl c41
f 44 58 59
usemtl c42
f 44 59 45
usemtl c43
f 45 59 60
usemtl c44
f 60 59 61
usemtl c45
f 60 61 62
f 60 62 63
usemtl c46
f 60 63 58
usemtl c47
f 60 58 59
usemtl c48
f 59 58 64
usemtl c49
f 59 64 61
usemtl c50
f 61 64 65
usemtl c51
f 61 65 66
usemtl c52
f 61 66 62
usemtl c53
f 62 66 67
usemtl c54
f 62 67 68
usemtl c55
f 62 68 63
usemtl c56
f 63 68 58
usemtl c50
f 63 58 48
usemtl c57
f 63 48 46
usemtl c16
f 52 69 70
usemtl c58
f 52 70 53
usemtl c28
f 71 51 72
usemtl c26
f 71 72 73
usemtl c27
f 71 73 74
usemtl c39
f 71 74 75
usemtl c22
f 71 75 69
usemtl c21
f 71 69 51
usemtl c20
f 51 69 52
usemtl c28
f 73 76 74
usemtl c59
f 74 76 65
usemtl c50
f 74 65 77
usemtl c60
f 74 77 75
usemtl c61
f 75 77 67
usemtl c51
f 75 67 78
usemtl c23
f 75 78 69
usemtl c16
f 69 78 70
usemtl c58
f 70 78 76
usemtl c59
f 70 76 73
usemtl c51
f 66 65 77
usemtl c62
f 66 77 67
usemtl c47
f 67 77 68
usemtl c23
f 68 77 64
usemtl c50
f 68 64 58
usemtl c16
f 66 65 76
usemtl c63
f 66 76 78
usemtl c64
f 66 78 67
usemtl c50
f 64 77 65
usemtl c65
f 53 72 79
usemtl c1
f 53 79 54
usemtl c66
f 55 54 15
usemtl c67
f 80 79 50
f 80 50 57
usemtl c29
f 72 51 50
usemtl c67
f 72 50 79
usemtl c68
f 81 81 82
usemtl c69
f 81 82 83
usemtl c70
f 81 83 84
usemtl c71
f 81 84 85
usemtl c72
f 81 85 86
usemtl c73
f 81 86 87
usemtl c74
f 81 87 88
usemtl c75
f 88 87 89
usemtl c76
f 88 89 90
usemtl c77
f 88 90 91
usemtl c78
f 88 91 92
usemtl c79
f 92 91 93
usemtl c4
f 92 93 94
usemtl c80
f 92 94 82
usemtl c81
f 82 94 95
usemtl c82
f 82 95 83
usemtl c9
f 83 95 96
f 83 96 91
usemtl c83
f 83 91 90
usemtl c84
f 83 90 84
usemtl c85
f 83 84 83
usemtl c86
f 83 84 84
usemtl c73
f 84 90 89
usemtl c87
f 84 89 85
usemtl c88
f 85 89 97
f 85 97 98
usemtl c89
f 85 98 86
usemtl c90
f 86 98 99
usemtl c91
f 86 99 100
f 86 100 87
usemtl c92
f 87 100 89
usemtl c35
f 89 100 97
usemtl c93
f 97 100 99
usemtl c94
f 97 99 98
usemtl c93
f 97 98 100
usemtl c95
f 97 100 93
usemtl c68
f 97 93 98
usemtl c96
f 98 93 96
usemtl c97
f 98 96 95
usemtl c98
f 98 95 99
usemtl c99
f 98 99 100
usemtl c100
f 100 99 95
usemtl c101
f 100 95 94
usemtl c102
f 100 94 93
usemtl c103
f 96 93 91
usemtl c12
f 101 102 103
usemtl c104
f 101 103 104
usemtl c105
f 101 104 105
usemtl c106
f 101 105 106
usemtl c75
f 106 105 107
usemtl c107
f 107 105 108
usemtl c6
f 107 108 109
usemtl c7
f 107 109 110
usemtl c12
f 110 109 111
usemtl c104
f 111 109 112
usemtl c105
f 111 112 113
usemtl c106
f 111 113 114
usemtl c75
f 114 113 115
usemtl c107
f 115 113 116
usemtl c6
f 115 116 117
usemtl c7
f 115 117 118
usemtl c12
f 118 117 119
usemtl c104
f 119 117 120
usemtl c108
f 119 120 121
usemtl c109
f 119 121 122
usemtl c7
f 103 102 123
usemtl c6
f 103 123 124
usemtl c110
f 103 124 104
usemtl c111
f 104 124 105
usemtl c12
f 125 126 127
usemtl c104
f 125 127 128
usemtl c105
f 125 128 129
usemtl c106
f 125 129 130
usemtl c75
f 130 129 123
usemtl c107
f 123 129 124
usemtl c7
f 127 126 131
usemtl c6
f 127 131 132
usemtl c110
f 127 132 128
usemtl c111
f 128 132 129
usemtl c110
f 112 109 108
usemtl c111
f 112 108 113
usemtl c110
f 120 117 116
usemtl c92
f 120 116 121
usemtl c112
f 133 134 135
usemtl c113
f 133 135 136
usemtl c13
f 133 136 137
usemtl c114
f 133 137 138
usemtl c115
f 133 138 139
usemtl c116
f 133 139 140
usemtl c117
f 133 140 134
usemtl c118
f 134 140 141
usemtl c119
f 134 141 142
usemtl c112
f 134 142 143
f 134 143 135
usemtl c120
f 135 143 144
usemtl c121
f 135 144 145
usemtl c122
f 145 144 146
usemtl c123
f 145 146 141
usemtl c122
f 145 141 147
usemtl c53
f 147 141 140
usemtl c109
f 147 140 148
f 147 148 149
usemtl c124
f 147 149 150
usemtl c125
f 147 150 136
usemtl c13
f 136 150 137
usemtl c126
f 137 150 151
usemtl c92
f 137 151 152
usemtl c17
f 137 152 153
usemtl c127
f 137 153 154
usemtl c69
f 137 154 138
usemtl c7
f 138 154 139
usemtl c66
f 139 154 155
usemtl c128
f 139 155 156
usemtl c129
f 139 156 148
usemtl c130
f 139 148 140
usemtl c131
f 141 146 142
usemtl c132
f 142 146 157
usemtl c133
f 142 157 158
usemtl c134
f 142 158 143
usemtl c50
f 143 158 159
usemtl c22
f 159 158 160
usemtl c57
f 159 160 161
f 159 161 162
usemtl c23
f 159 162 157
usemtl c50
f 159 157 158
usemtl c135
f 158 157 163
usemtl c136
f 158 163 160
usemtl c54
f 160 163 164
usemtl c134
f 160 164 165
usemtl c50
f 160 165 161
usemtl c39
f 161 165 166
usemtl c137
f 161 166 167
usemtl c23
f 161 167 162
usemtl c138
f 162 167 157
usemtl c64
f 162 157 146
usemtl c54
f 162 146 144
usemtl c112
f 150 168 169
usemtl c113
f 150 169 151
usemtl c53
f 170 149 171
usemtl c122
f 170 171 172
usemtl c123
f 170 172 173
usemtl c131
f 170 173 174
usemtl c119
f 170 174 168
usemtl c118
f 170 168 149
usemtl c117
f 149 168 150
usemtl c123
f 172 175 173
usemtl c139
f 173 175 164
usemtl c140
f 173 164 176
usemtl c141
f 173 176 174
usemtl c41
f 174 176 166
usemtl c63
f 174 166 177
usemtl c112
f 174 177 168
f 168 177 169
usemtl c119
f 169 177 175
usemtl c142
f 169 175 172
usemtl c134
f 165 164 176
usemtl c50
f 165 176 166
usemtl c23
f 166 176 167
usemtl c55
f 167 176 163
usemtl c44
f 167 163 157
usemtl c55
f 165 164 175
usemtl c143
f 165 175 177
usemtl c144
f 165 177 166
usemtl c54
f 163 176 164
usemtl c109
f 151 171 178
usemtl c116
f 151 178 152
usemtl c145
f 153 152 179
usemtl c146
f 180 178 148
f 180 148 156
usemtl c109
f 171 149 148
usemtl c146
f 171 148 178
usemtl c74
f 131 180 155
usemtl c147
f 131 155 132
