# Made by RuneLite Model-Dumper Plugin
mtllib chest.mtl
o Object Closed chest 2026-09-12_20-21-15
v -64 40 8
v -64 56 8
v -64 56 -8
v -64 40 -8
v -60 40 -8
v -60 40 8
v -60 56 8
v -60 56 -8
v -52 40 56
v 12 40 56
v 12 56 56
v -52 56 56
v -60 40 56
v -60 0 56
v -52 8 56
v -52 40 48
v -52 8 48
v -60 40 48
v -60 8 48
v -60 56 56
v -60 56 48
v -60 40 -48
v -60 56 -48
v -60 40 -56
v -60 0 -56
v -60 8 -48
v -52 40 -48
v -52 8 -48
v -52 40 -56
v -52 8 -56
v -60 56 -56
v -52 56 -56
v 12 40 -56
v 12 56 -56
v 20 40 -56
v 20 0 -56
v 12 8 -56
v 12 40 -48
v 12 8 -48
v 20 40 -48
v 20 8 -48
v 20 56 -56
v 20 56 -48
v 20 40 48
v 20 56 48
v 20 40 56
v 20 0 56
v 20 8 48
v 12 40 48
v 12 8 48
v 12 8 56
v 20 56 56
v 4 72 56
v 12 56 48
v -52 56 48
v -44 72 48
v -44 72 56
v -52 72 56
v 12 72 48
v 12 72 56
v -12 86 56
v -12 80 56
v -28 86 56
v -28 80 56
v -52 72 48
v -52 72 -48
v -52 72 -56
v -44 72 -56
v -52 56 -48
v 12 56 -48
v 4 72 -48
v 4 72 -56
v 12 72 -56
v -44 72 -48
v -28 86 -48
v -28 86 -56
v -28 80 -56
v 4 72 48
v -12 86 48
v -28 86 48
v -28 80 48
v -28 80 -48
v -12 80 -48
v -12 80 48
v -12 86 -48
v -12 86 -56
v -12 80 -56
v 12 72 -48
v 16 104 -48
v 16 56 -48
v -56 104 -48
v -56 104 48
v -56 56 48
v 16 104 48
v 24 80 48
v 24 80 -48
v -80 80 48
v 8 104 48
v 8 104 -48
v -96 32 48
v -32 104 48
v -32 104 -48
v -80 8 48
v 56 40 48
v 56 40 -48
v -24 88 48
v 32 16 48
v 32 16 -48
v -24 128 48
v -64 40 8
v -64 40 8
v -64 40 8
v -64 40 8
v -64 40 8
v -64 40 8
v -64 40 8
usemtl c0
f 1 2 3
usemtl c1
f 1 3 4
usemtl c2
f 1 4 5
usemtl c3
f 1 5 6
usemtl c4
f 1 6 2
f 2 6 7
usemtl c0
f 2 7 3
usemtl c5
f 3 7 8
usemtl c6
f 3 8 4
usemtl c7
f 4 8 5
usemtl c8
f 9 10 11
usemtl c9
f 9 11 12
usemtl c10
f 9 12 13
usemtl c11
f 9 13 14
usemtl c12
f 9 14 15
usemtl c13
f 9 15 16
usemtl c14
f 16 15 17
usemtl c15
f 16 17 18
usemtl c16
f 18 17 19
usemtl c12
f 18 19 13
usemtl c17
f 18 13 20
usemtl c18
f 18 20 21
f 18 21 22
usemtl c19
f 22 21 23
usemtl c20
f 22 23 24
usemtl c21
f 22 24 25
usemtl c22
f 22 25 26
f 22 26 27
usemtl c23
f 27 26 28
usemtl c24
f 27 28 29
usemtl c25
f 29 28 30
usemtl c26
f 29 30 24
usemtl c27
f 29 24 31
usemtl c28
f 29 31 32
usemtl c29
f 29 32 33
usemtl c30
f 33 32 34
usemtl c31
f 33 34 35
usemtl c32
f 33 35 36
usemtl c33
f 33 36 37
usemtl c34
f 33 37 38
usemtl c14
f 38 37 39
usemtl c35
f 38 39 40
usemtl c36
f 40 39 41
usemtl c37
f 40 41 35
usemtl c38
f 40 35 42
usemtl c39
f 40 42 43
f 40 43 44
usemtl c40
f 44 43 45
usemtl c26
f 44 45 46
usemtl c41
f 44 46 47
usemtl c31
f 44 47 48
f 44 48 49
usemtl c42
f 49 48 50
usemtl c43
f 49 50 10
usemtl c44
f 10 50 51
usemtl c45
f 10 51 46
usemtl c46
f 10 46 52
usemtl c47
f 10 52 11
usemtl c10
f 11 52 53
usemtl c20
f 11 53 54
usemtl c46
f 11 54 12
usemtl c48
f 12 54 55
usemtl c49
f 12 55 56
usemtl c50
f 12 56 57
usemtl c12
f 12 57 58
usemtl c51
f 12 58 20
usemtl c52
f 12 20 13
usemtl c24
f 46 45 52
usemtl c53
f 52 45 59
usemtl c35
f 52 59 60
usemtl c46
f 52 60 53
usemtl c54
f 53 60 61
usemtl c55
f 53 61 62
usemtl c56
f 62 61 63
usemtl c57
f 62 63 64
usemtl c58
f 64 63 57
usemtl c19
f 57 63 58
usemtl c59
f 58 63 65
usemtl c46
f 58 65 21
usemtl c51
f 58 21 20
usemtl c13
f 23 31 24
usemtl c60
f 31 23 66
usemtl c50
f 31 66 67
usemtl c61
f 31 67 68
usemtl c28
f 31 68 32
usemtl c62
f 32 68 69
usemtl c63
f 32 69 34
usemtl c24
f 34 69 70
usemtl c64
f 34 70 71
usemtl c65
f 34 71 72
usemtl c66
f 34 72 73
usemtl c67
f 34 73 42
usemtl c38
f 34 42 35
usemtl c13
f 51 47 46
usemtl c12
f 47 51 14
usemtl c10
f 14 51 15
usemtl c68
f 15 51 50
usemtl c15
f 15 50 17
usemtl c69
f 17 50 16
f 17 16 27
f 17 27 28
usemtl c70
f 17 28 19
usemtl c68
f 19 28 26
usemtl c71
f 19 26 25
usemtl c12
f 19 25 14
usemtl c8
f 19 14 13
usemtl c72
f 41 36 35
usemtl c37
f 36 41 47
usemtl c73
f 47 41 48
usemtl c74
f 48 41 50
usemtl c75
f 50 41 39
usemtl c69
f 50 39 49
f 50 49 16
usemtl c75
f 28 39 37
usemtl c76
f 28 37 30
usemtl c62
f 30 37 36
usemtl c77
f 30 36 25
usemtl c35
f 30 25 24
usemtl c48
f 21 55 69
usemtl c46
f 21 69 23
usemtl c20
f 23 69 66
usemtl c78
f 66 69 74
usemtl c47
f 66 74 75
usemtl c59
f 66 75 67
usemtl c79
f 67 75 76
usemtl c80
f 67 76 77
usemtl c81
f 67 77 68
usemtl c82
f 54 45 43
usemtl c64
f 54 43 70
usemtl c69
f 54 70 71
f 54 71 78
usemtl c82
f 54 78 59
usemtl c33
f 54 59 45
usemtl c83
f 63 61 79
usemtl c84
f 63 79 80
usemtl c79
f 63 80 65
usemtl c36
f 65 80 81
usemtl c24
f 65 81 56
usemtl c85
f 65 56 21
usemtl c49
f 21 56 55
usemtl c69
f 55 56 69
f 69 56 74
f 69 74 82
f 69 82 70
f 70 82 71
f 71 82 83
f 71 83 78
f 78 83 84
usemtl c76
f 78 84 59
usemtl c61
f 59 84 79
f 59 79 60
usemtl c86
f 60 79 61
usemtl c87
f 54 53 78
usemtl c69
f 54 78 84
f 54 84 55
f 55 84 56
f 56 84 81
f 56 81 74
f 74 81 82
usemtl c83
f 74 82 75
usemtl c88
f 75 82 83
usemtl c89
f 75 83 85
usemtl c83
f 75 85 86
usemtl c84
f 75 86 76
usemtl c90
f 76 86 77
usemtl c91
f 77 86 87
usemtl c92
f 87 86 73
usemtl c72
f 87 73 72
usemtl c61
f 81 80 79
usemtl c34
f 81 79 84
usemtl c69
f 81 84 82
f 82 84 83
usemtl c93
f 43 42 73
usemtl c76
f 43 73 88
usemtl c14
f 43 88 71
usemtl c94
f 43 71 70
usemtl c61
f 88 73 86
usemtl c86
f 88 86 85
usemtl c16
f 88 85 71
usemtl c88
f 71 85 83
usemtl c95
f 69 68 74
usemtl c69
f 49 39 38
f 38 39 28
f 38 28 27
