# Made by RuneLite Model-Dumper Plugin
mtllib flowers.mtl
o Object Daisies 2026-09-12_20-31-27
v 18 34 34
v 16 32 37
v 9 28 33
v 16 35 32
v 9 29 31
v 3 31 29
v 5 26 36
v 15 31 40
v 14 29 43
v 10 28 44
v -10 34 34
v -8 36 32
v -1 29 31
v -8 32 37
v -1 28 33
v -6 37 31
v -5 39 27
v -1 40 26
v 4 28 46
v 1 28 45
v 3 26 36
v 7 28 45
v -2 28 44
v -6 29 43
v -7 31 40
v 4 42 24
v 7 40 25
v 5 31 29
v 1 40 25
v 9 40 26
v 13 39 27
v 14 37 31
v 14 34 -1
v 17 32 0
v 14 28 7
v 11 35 0
v 10 29 8
v 8 31 14
v 17 26 11
v 20 31 1
v 23 29 2
v 25 28 5
v 16 34 26
v 14 36 24
v 11 29 18
v 19 32 23
v 15 28 17
v 11 37 23
v 8 39 22
v 6 40 19
v 28 28 11
v 27 28 14
v 17 26 14
v 26 28 8
v 26 28 17
v 25 29 21
v 23 31 22
v 4 42 13
v 5 40 10
v 8 31 11
v 5 40 17
v 5 40 8
v 6 39 4
v 9 37 3
v 27 25 -25
v 26 24 -28
v 33 21 -30
v 30 26 -23
v 37 21 -28
v 43 23 -30
v 35 19 -35
v 25 23 -31
v 24 21 -34
v 25 21 -37
v 47 25 -44
v 47 27 -41
v 44 21 -35
v 43 24 -44
v 41 21 -37
v 48 27 -38
v 49 29 -35
v 48 30 -32
v 28 21 -43
v 31 21 -45
v 37 19 -37
v 27 21 -40
v 34 21 -46
v 37 21 -47
v 39 23 -47
v 44 31 -26
v 41 30 -25
v 40 23 -28
v 47 30 -29
v 40 30 -24
v 36 29 -22
v 34 27 -24
v -28 25 -30
v -25 24 -31
v -23 21 -23
v -28 26 -28
v -25 21 -21
v -23 23 -16
v -18 19 -22
v -22 23 -32
v -19 21 -33
v -15 21 -30
v -10 25 -9
v -13 27 -9
v -18 21 -14
v -9 24 -12
v -17 21 -15
v -15 27 -10
v -19 29 -8
v -22 30 -11
v -10 21 -27
v -9 21 -24
v -17 19 -20
v -13 21 -29
v -8 21 -21
v -6 21 -17
v -8 23 -15
v -27 31 -13
v -28 30 -16
v -24 23 -17
v -24 30 -11
v -29 30 -18
v -30 29 -22
v -28 27 -25
v -53 25 -5
v -54 24 -8
v -47 21 -10
v -50 26 -3
v -43 21 -8
v -37 23 -10
v -45 19 -15
v -55 23 -11
v -56 21 -14
v -55 21 -17
v -33 25 -24
v -33 27 -21
v -36 21 -15
v -37 24 -24
v -39 21 -17
v -32 27 -18
v -31 29 -15
v -32 30 -12
v -52 21 -23
v -49 21 -25
v -43 19 -17
v -53 21 -20
v -46 21 -26
v -43 21 -27
v -41 23 -27
v -36 31 -6
v -39 30 -5
v -40 23 -8
v -33 30 -9
v -40 30 -4
v -44 29 -2
v -46 27 -4
v -53 19 -12
v -42 19 0
v -41 12 -12
v -60 15 7
v -29 19 -12
v -41 19 -26
v -23 15 -31
v -20 19 -31
v -34 19 -19
v -21 12 -18
v -39 15 -40
v -22 19 -6
v -8 19 -17
v -3 15 3
v 13 26 41
v 13 26 23
v 4 17 32
v 32 21 32
v -5 26 23
v -5 26 41
v -24 21 32
v 20 26 3
v 3 26 4
v 12 17 13
v 9 21 -14
v 4 26 22
v 23 26 21
v 15 21 38
v 27 19 -32
v 38 19 -20
v 39 12 -32
v 20 15 -13
v 51 19 -32
v 39 19 -46
v 57 15 -51
v 3 0 31
v 3 0 33
v 4 30 32
v 5 0 31
v 5 0 33
v 11 0 14
v 14 0 13
v 13 30 13
v 11 30 13
v 11 0 12
v 11 30 12
v 14 0 11
v 13 30 12
v 41 0 -32
v 38 0 -34
v 39 22 -33
v 40 22 -32
v 39 0 -31
v 39 22 -31
v 37 0 -33
v 38 22 -32
v -21 0 -17
v -19 0 -18
v -21 22 -18
v -22 0 -18
v -21 0 -20
v -39 0 -12
v -42 0 -14
v -41 22 -13
v -40 22 -12
v -41 0 -11
v -41 22 -11
v -43 0 -13
v -42 22 -12
usemtl c0
f 1 2 3
f 1 3 4
f 1 4 3
f 1 3 2
usemtl c1
f 5 4 3
f 5 3 4
usemtl c2
f 3 5 6
f 3 6 7
usemtl c1
f 3 7 8
f 3 8 7
usemtl c3
f 7 8 9
f 7 9 10
f 7 10 9
f 7 9 8
usemtl c4
f 11 12 13
f 11 13 14
f 11 14 13
f 11 13 12
usemtl c5
f 15 14 13
f 15 13 14
usemtl c6
f 13 15 6
usemtl c7
f 13 6 16
f 13 16 6
usemtl c8
f 6 16 17
f 6 17 18
f 6 18 17
f 6 17 16
usemtl c9
f 19 20 21
f 19 21 22
f 19 22 21
f 19 21 20
usemtl c10
f 7 22 21
f 7 21 22
usemtl c11
f 21 7 6
f 21 6 15
usemtl c12
f 21 15 23
f 21 23 15
usemtl c9
f 15 23 24
f 15 24 25
f 15 25 24
f 15 24 23
usemtl c13
f 26 27 28
f 26 28 29
f 26 29 28
f 26 28 27
usemtl c14
f 6 29 28
f 6 28 29
usemtl c2
f 28 6 5
usemtl c15
f 28 5 30
f 28 30 5
usemtl c3
f 5 30 31
f 5 31 32
f 5 32 31
f 5 31 30
usemtl c16
f 33 34 35
f 33 35 36
f 33 36 35
f 33 35 34
usemtl c17
f 37 36 35
f 37 35 36
usemtl c18
f 35 37 38
usemtl c19
f 35 38 39
usemtl c20
f 35 39 40
f 35 40 39
usemtl c16
f 39 40 41
f 39 41 42
f 39 42 41
f 39 41 40
usemtl c21
f 43 44 45
f 43 45 46
f 43 46 45
f 43 45 44
usemtl c22
f 47 46 45
f 47 45 46
usemtl c23
f 45 47 38
usemtl c24
f 45 38 48
f 45 48 38
f 38 48 49
f 38 49 50
f 38 50 49
f 38 49 48
usemtl c25
f 51 52 53
f 51 53 54
f 51 54 53
f 51 53 52
usemtl c17
f 39 54 53
f 39 53 54
usemtl c18
f 53 39 38
usemtl c19
f 53 38 47
usemtl c26
f 53 47 55
f 53 55 47
usemtl c22
f 47 55 56
f 47 56 57
f 47 57 56
f 47 56 55
usemtl c27
f 58 59 60
f 58 60 61
f 58 61 60
f 58 60 59
usemtl c28
f 38 61 60
f 38 60 61
usemtl c18
f 60 38 37
usemtl c29
f 60 37 62
f 60 62 37
usemtl c25
f 37 62 63
f 37 63 64
f 37 64 63
f 37 63 62
usemtl c30
f 65 66 67
f 65 67 68
f 65 68 67
f 65 67 66
usemtl c3
f 69 68 67
f 69 67 68
usemtl c31
f 67 69 70
usemtl c32
f 67 70 71
usemtl c30
f 67 71 72
f 67 72 71
usemtl c21
f 71 72 73
f 71 73 74
f 71 74 73
f 71 73 72
usemtl c22
f 75 76 77
f 75 77 78
f 75 78 77
f 75 77 76
f 79 78 77
f 79 77 78
usemtl c33
f 77 79 70
usemtl c34
f 77 70 80
f 77 80 70
usemtl c35
f 70 80 81
f 70 81 82
f 70 82 81
f 70 81 80
usemtl c30
f 83 84 85
f 83 85 86
f 83 86 85
f 83 85 84
f 71 86 85
f 71 85 86
usemtl c32
f 85 71 70
f 85 70 79
usemtl c30
f 85 79 87
f 85 87 79
usemtl c21
f 79 87 88
f 79 88 89
f 79 89 88
f 79 88 87
f 90 91 92
f 90 92 93
f 90 93 92
f 90 92 91
usemtl c35
f 70 93 92
f 70 92 93
usemtl c32
f 92 70 69
usemtl c30
f 92 69 94
f 92 94 69
f 69 94 95
f 69 95 96
f 69 96 95
f 69 95 94
usemtl c22
f 97 98 99
f 97 99 100
f 97 100 99
f 97 99 98
usemtl c27
f 101 100 99
f 101 99 100
usemtl c36
f 99 101 102
usemtl c19
f 99 102 103
usemtl c37
f 99 103 104
f 99 104 103
usemtl c25
f 103 104 105
f 103 105 106
f 103 106 105
f 103 105 104
usemtl c38
f 107 108 109
f 107 109 110
f 107 110 109
f 107 109 108
usemtl c21
f 111 110 109
f 111 109 110
usemtl c23
f 109 111 102
usemtl c24
f 109 102 112
f 109 112 102
usemtl c17
f 102 112 113
f 102 113 114
f 102 114 113
f 102 113 112
usemtl c37
f 115 116 117
f 115 117 118
f 115 118 117
f 115 117 116
usemtl c28
f 103 118 117
f 103 117 118
usemtl c39
f 117 103 102
usemtl c19
f 117 102 111
usemtl c26
f 117 111 119
f 117 119 111
usemtl c22
f 111 119 120
f 111 120 121
f 111 121 120
f 111 120 119
usemtl c25
f 122 123 124
f 122 124 125
f 122 125 124
f 122 124 123
usemtl c40
f 102 125 124
f 102 124 125
usemtl c18
f 124 102 101
usemtl c17
f 124 101 126
f 124 126 101
usemtl c16
f 101 126 127
f 101 127 128
f 101 128 127
f 101 127 126
usemtl c30
f 129 130 131
f 129 131 132
f 129 132 131
f 129 131 130
usemtl c3
f 133 132 131
f 133 131 132
usemtl c31
f 131 133 134
usemtl c32
f 131 134 135
usemtl c30
f 131 135 136
f 131 136 135
usemtl c21
f 135 136 137
f 135 137 138
f 135 138 137
f 135 137 136
usemtl c22
f 139 140 141
f 139 141 142
f 139 142 141
f 139 141 140
f 143 142 141
f 143 141 142
usemtl c33
f 141 143 134
usemtl c34
f 141 134 144
f 141 144 134
usemtl c35
f 134 144 145
f 134 145 146
f 134 146 145
f 134 145 144
usemtl c30
f 147 148 149
f 147 149 150
f 147 150 149
f 147 149 148
f 135 150 149
f 135 149 150
usemtl c32
f 149 135 134
f 149 134 143
usemtl c30
f 149 143 151
f 149 151 143
usemtl c21
f 143 151 152
f 143 152 153
f 143 153 152
f 143 152 151
f 154 155 156
f 154 156 157
f 154 157 156
f 154 156 155
usemtl c35
f 134 157 156
f 134 156 157
usemtl c32
f 156 134 133
usemtl c30
f 156 133 158
f 156 158 133
f 133 158 159
f 133 159 160
f 133 160 159
f 133 159 158
usemtl c41
f 161 162 163
usemtl c42
f 162 161 164
usemtl c43
f 163 165 166
usemtl c44
f 166 165 167
usemtl c45
f 168 169 170
usemtl c46
f 169 168 171
usemtl c47
f 170 172 173
usemtl c48
f 173 172 174
usemtl c49
f 175 176 177
usemtl c50
f 176 175 178
usemtl c51
f 177 179 180
usemtl c42
f 180 179 181
usemtl c50
f 182 183 184
usemtl c52
f 183 182 185
usemtl c51
f 184 186 187
usemtl c42
f 187 186 188
usemtl c41
f 189 190 191
usemtl c42
f 190 189 192
usemtl c43
f 191 193 194
usemtl c44
f 194 193 195
usemtl c53
f 196 197 198
usemtl c54
f 196 198 198
usemtl c55
f 196 198 199
f 199 198 200
usemtl c53
f 200 198 197
f 197 198 198
usemtl c54
f 198 198 200
usemtl c55
f 198 198 199
usemtl c56
f 201 202 203
usemtl c57
f 201 203 204
usemtl c58
f 201 204 205
usemtl c59
f 205 204 206
usemtl c60
f 205 206 207
usemtl c61
f 207 206 208
usemtl c62
f 207 208 202
usemtl c63
f 202 208 203
usemtl c64
f 209 210 211
usemtl c65
f 209 211 212
usemtl c66
f 209 212 213
usemtl c67
f 213 212 214
usemtl c68
f 213 214 215
usemtl c69
f 215 214 216
usemtl c70
f 215 216 210
usemtl c71
f 210 216 211
usemtl c72
f 217 218 219
usemtl c73
f 217 219 219
usemtl c74
f 217 219 220
usemtl c72
f 220 219 221
usemtl c75
f 221 219 218
usemtl c76
f 218 219 219
f 219 219 221
usemtl c73
f 219 219 220
usemtl c64
f 222 223 224
usemtl c65
f 222 224 225
usemtl c66
f 222 225 226
usemtl c67
f 226 225 227
usemtl c68
f 226 227 228
usemtl c69
f 228 227 229
usemtl c70
f 228 229 223
usemtl c71
f 223 229 224
