# Made by RuneLite Model-Dumper Plugin
mtllib pie.mtl
o Item Meat pie 2026-09-13_16-41-58
v -4 25 0
v -21 12 5
v -17 12 13
v -10 12 16
v 5 12 16
v 12 12 13
v 17 12 5
v 17 12 -7
v 12 12 -15
v 5 12 -19
v -10 12 -19
v -17 12 -14
v -21 12 -7
v -26 14 -8
v -26 14 6
v -21 14 15
v -10 14 21
v 6 14 21
v 16 14 15
v 22 14 6
v 22 14 -8
v 16 14 -17
v 6 14 -24
v -10 14 -24
v -21 14 -16
v -23 10 -19
v -29 10 -9
v -29 10 7
v -23 10 18
v -10 10 25
v 7 10 25
v 18 10 18
v 25 10 7
v 25 10 -9
v 18 10 -20
v 7 10 -27
v -10 10 -27
v -20 11 -19
v -26 11 -9
v -26 11 7
v -20 11 17
v -10 11 23
v 6 11 23
v 17 11 17
v 22 11 7
v 22 11 -9
v 17 11 -18
v 6 11 -25
v -10 11 -25
v -9 0 -23
v -18 0 -17
v -24 0 -8
v -24 0 6
v -18 0 16
v -9 0 21
v 5 0 21
v 15 0 16
v 20 0 6
v 20 0 -8
v 15 0 -16
v 5 0 -23
v -2 21 -6
v -2 23 -2
v 0 23 -2
v 0 21 -6
v -8 21 -6
v -8 23 -2
v -6 23 -2
v -6 21 -6
v -2 23 2
v -2 21 6
v 0 21 6
v 0 23 2
v -8 23 2
v -8 21 6
v -6 21 6
v -6 23 2
usemtl c0
f 1 2 3
usemtl c1
f 1 3 4
f 1 4 5
f 1 5 6
f 1 6 7
usemtl c0
f 1 7 8
usemtl c2
f 1 8 9
usemtl c3
f 1 9 10
usemtl c2
f 1 10 11
usemtl c4
f 1 11 12
f 1 12 13
f 1 13 2
usemtl c2
f 2 13 14
usemtl c5
f 2 14 15
usemtl c6
f 2 15 3
usemtl c7
f 3 15 16
usemtl c6
f 3 16 4
usemtl c8
f 4 16 17
usemtl c9
f 4 17 5
usemtl c7
f 5 17 18
usemtl c2
f 5 18 6
usemtl c3
f 6 18 19
usemtl c1
f 6 19 7
usemtl c10
f 7 19 20
f 7 20 8
usemtl c11
f 8 20 21
usemtl c12
f 8 21 9
usemtl c13
f 9 21 22
usemtl c14
f 9 22 10
usemtl c15
f 10 22 23
usemtl c16
f 10 23 11
usemtl c15
f 11 23 24
usemtl c17
f 11 24 12
usemtl c11
f 12 24 25
usemtl c18
f 12 25 13
usemtl c1
f 13 25 14
usemtl c12
f 14 25 26
usemtl c1
f 14 26 27
usemtl c5
f 14 27 15
usemtl c19
f 15 27 28
usemtl c20
f 15 28 16
usemtl c9
f 16 28 29
usemtl c7
f 16 29 17
usemtl c21
f 17 29 30
usemtl c20
f 17 30 18
usemtl c22
f 18 30 31
usemtl c23
f 18 31 19
usemtl c24
f 19 31 32
usemtl c11
f 19 32 20
usemtl c25
f 20 32 33
f 20 33 21
usemtl c26
f 21 33 34
usemtl c27
f 21 34 22
usemtl c28
f 22 34 35
usemtl c29
f 22 35 23
usemtl c28
f 23 35 36
usemtl c30
f 23 36 24
usemtl c31
f 24 36 37
usemtl c32
f 24 37 25
usemtl c33
f 25 37 26
usemtl c34
f 26 37 38
usemtl c24
f 26 38 27
usemtl c15
f 27 38 39
usemtl c23
f 27 39 28
usemtl c1
f 28 39 40
usemtl c35
f 28 40 29
usemtl c36
f 29 40 41
usemtl c5
f 29 41 42
usemtl c23
f 29 42 30
usemtl c37
f 30 42 31
f 31 42 43
usemtl c38
f 31 43 44
usemtl c34
f 31 44 32
usemtl c39
f 32 44 33
usemtl c40
f 33 44 45
usemtl c41
f 33 45 34
usemtl c42
f 34 45 46
usemtl c43
f 34 46 47
usemtl c44
f 34 47 35
usemtl c45
f 35 47 36
usemtl c46
f 36 47 48
usemtl c47
f 36 48 37
usemtl c48
f 37 48 49
usemtl c29
f 37 49 38
usemtl c49
f 38 49 50
usemtl c50
f 38 50 51
usemtl c51
f 38 51 39
usemtl c52
f 39 51 52
usemtl c53
f 39 52 40
usemtl c54
f 40 52 53
usemtl c55
f 40 53 41
usemtl c56
f 41 53 54
usemtl c54
f 41 54 42
usemtl c57
f 42 54 55
usemtl c58
f 42 55 43
usemtl c59
f 43 55 56
usemtl c60
f 43 56 44
usemtl c61
f 44 56 57
usemtl c62
f 44 57 45
usemtl c63
f 45 57 58
usemtl c64
f 45 58 46
usemtl c65
f 46 58 59
usemtl c66
f 46 59 47
usemtl c67
f 47 59 60
usemtl c68
f 47 60 48
usemtl c69
f 48 60 61
usemtl c70
f 48 61 49
usemtl c64
f 49 61 50
usemtl c71
f 50 61 56
usemtl c72
f 50 56 55
usemtl c73
f 50 55 51
usemtl c74
f 51 55 54
usemtl c54
f 51 54 53
usemtl c75
f 51 53 52
usemtl c76
f 62 63 64
f 62 64 65
f 66 67 68
f 66 68 69
usemtl c77
f 70 71 72
f 70 72 73
f 74 75 76
f 74 76 77
usemtl c78
f 60 59 58
usemtl c64
f 60 58 57
usemtl c79
f 60 57 61
usemtl c80
f 61 57 56
