# Made by RuneLite Model-Dumper Plugin
mtllib dragon-med-helm.mtl
o Item Dragon med helm 2026-09-24_18-23-26
v -3 7 16
v -3 0 16
v 3 0 16
v 3 7 16
v 1 10 17
v -1 10 17
v -10 13 13
v -10 0 13
v 10 13 13
v 1 16 15
v -1 16 15
v -3 18 16
v -10 19 15
v -12 18 1
v -12 1 1
v -10 4 -11
v -10 20 -9
v 10 4 -11
v 10 20 -9
v 12 18 1
v 12 1 1
v 10 0 13
v 3 18 16
v -3 20 16
v -10 21 15
v -12 20 1
v -10 22 -8
v 10 22 -8
v 12 20 1
v 10 21 15
v 10 19 15
v 3 20 16
v 0 25 13
v -6 28 0
v 6 28 0
v 8 25 4
v 10 22 8
v 19 36 9
v 10 22 2
v -19 36 9
v -10 22 8
v -8 25 4
v -10 22 2
usemtl c0
f 1 2 3
f 1 3 4
f 1 4 5
f 1 5 6
f 1 6 7
usemtl c1
f 1 7 8
f 1 8 2
usemtl c0
f 4 9 5
f 5 9 10
usemtl c2
f 5 10 6
usemtl c3
f 6 10 11
usemtl c0
f 6 11 7
f 7 11 12
usemtl c4
f 7 12 13
f 7 13 14
usemtl c5
f 7 14 8
usemtl c6
f 8 14 15
usemtl c7
f 15 14 16
usemtl c8
f 16 14 17
usemtl c9
f 16 17 18
usemtl c10
f 18 17 19
usemtl c11
f 18 19 20
f 18 20 21
usemtl c10
f 21 20 22
usemtl c9
f 22 20 9
usemtl c12
f 22 9 4
usemtl c13
f 22 4 3
usemtl c0
f 10 9 23
usemtl c14
f 10 23 11
usemtl c2
f 11 23 12
usemtl c15
f 12 23 24
f 12 24 25
usemtl c16
f 12 25 13
f 13 25 26
f 13 26 14
usemtl c17
f 14 26 17
usemtl c18
f 17 26 27
usemtl c19
f 17 27 28
f 17 28 19
f 19 28 20
f 20 28 29
f 20 29 30
f 20 30 31
usemtl c20
f 20 31 9
usemtl c8
f 9 31 23
usemtl c17
f 23 31 32
usemtl c15
f 23 32 24
usemtl c21
f 24 32 33
usemtl c2
f 24 33 25
usemtl c22
f 25 33 34
usemtl c23
f 25 34 26
usemtl c24
f 26 34 27
usemtl c20
f 27 34 28
usemtl c25
f 28 34 35
usemtl c26
f 28 35 29
usemtl c27
f 29 35 30
usemtl c28
f 30 35 33
usemtl c29
f 30 33 32
usemtl c18
f 30 32 31
usemtl c30
f 35 34 34
usemtl c31
f 35 34 35
usemtl c32
f 35 34 33
usemtl c33
f 36 37 38
usemtl c34
f 36 38 39
usemtl c35
f 39 38 37
usemtl c36
f 40 41 42
usemtl c37
f 40 42 43
usemtl c38
f 40 43 41
