# Made by RuneLite Model-Dumper Plugin
mtllib iron-rocks.mtl
o Object Coal rocks 2026-09-12_20-57-43
v 53 24 -10
v 40 74 32
v 56 27 41
v 63 3 41
v 59 -1 -21
v 38 25 7
v 14 26 19
v 16 27 45
v 41 28 57
v 44 4 62
v 13 3 46
v 11 1 14
v 41 0 0
v -32 37 8
v -16 -3 -48
v -56 -1 -24
v -48 4 56
v -24 3 48
v -8 1 8
v 4 38 -24
v 13 37 -42
v 7 -3 -48
v -8 -1 -18
v 22 39 -15
v 22 88 -24
v 31 36 -51
v 36 -3 -62
v 40 37 -33
v 51 -2 -33
v 22 0 -4
v 0 51 48
v 0 1 16
v -24 4 64
v 16 4 64
v -45 6 41
v -45 -2 -44
v 45 -2 -44
v 45 6 41
usemtl c0
f 1 2 3
usemtl c1
f 1 3 4
usemtl c2
f 1 4 5
usemtl c3
f 1 5 6
usemtl c4
f 1 6 2
usemtl c5
f 2 6 7
usemtl c6
f 2 7 8
usemtl c7
f 2 8 9
usemtl c8
f 2 9 3
usemtl c9
f 3 9 10
usemtl c10
f 3 10 4
usemtl c11
f 11 10 9
usemtl c12
f 11 9 8
usemtl c13
f 11 8 12
usemtl c14
f 12 8 7
usemtl c15
f 12 7 13
usemtl c16
f 13 7 6
usemtl c10
f 13 6 5
usemtl c5
f 14 15 16
usemtl c6
f 14 16 17
usemtl c17
f 14 17 18
usemtl c16
f 14 18 19
usemtl c18
f 14 19 15
usemtl c19
f 20 21 22
usemtl c7
f 20 22 23
usemtl c20
f 20 23 24
usemtl c14
f 20 24 25
usemtl c19
f 20 25 21
usemtl c3
f 21 25 26
usemtl c21
f 21 26 27
usemtl c0
f 21 27 22
usemtl c22
f 26 28 29
usemtl c23
f 26 29 27
usemtl c9
f 28 24 30
usemtl c10
f 28 30 29
usemtl c24
f 24 23 30
usemtl c2
f 26 25 28
usemtl c8
f 28 25 24
f 31 32 33
usemtl c19
f 31 33 34
usemtl c4
f 31 34 32
usemtl c25
f 35 36 37
f 35 37 38
