# Made by RuneLite Model-Dumper Plugin
mtllib bronze-pickaxe.mtl
o ware
v 23 -14 28
v 4 -18 32
v 5 -19 24
v 22 -14 23
v 34 -8 21
v 22 -10 26
v 5 -11 30
v 4 -14 35
v 1 -19 37
v 1 -24 34
v 4 -22 29
v -4 -18 22
v -2 -15 19
v 4 -16 20
v 3 -8 26
v -4 -10 28
v -5 -14 33
v -5 -18 36
v -5 -23 32
v -5 -22 27
v -5 -18 30
v -22 -11 19
v -21 -11 15
v -3 -7 25
v 10 26 -24
v 10 23 -26
v 13 23 -26
v 13 26 -24
v -22 -6 19
v -30 -4 9
v 10 32 -30
v 11 27 -34
v 15 27 -33
v 14 32 -29
usemtl c0
f 1 2 3
f 1 3 4
usemtl c1
f 1 4 5
f 1 5 6
usemtl c2
f 1 6 7
f 1 7 2
usemtl c3
f 2 7 8
usemtl c4
f 2 8 9
usemtl c5
f 2 9 10
usemtl c6
f 2 10 11
usemtl c7
f 2 11 3
usemtl c3
f 3 11 12
usemtl c8
f 3 12 13
usemtl c9
f 3 13 14
usemtl c10
f 3 14 7
usemtl c7
f 3 7 6
f 3 6 4
usemtl c11
f 4 6 5
usemtl c10
f 7 14 15
usemtl c3
f 7 15 16
usemtl c12
f 7 16 17
usemtl c13
f 7 17 8
usemtl c14
f 8 17 18
usemtl c15
f 8 18 9
usemtl c16
f 9 18 10
usemtl c17
f 10 18 19
usemtl c16
f 10 19 20
usemtl c5
f 10 20 11
usemtl c18
f 11 20 12
usemtl c19
f 12 20 21
usemtl c20
f 12 21 22
usemtl c21
f 12 22 23
usemtl c22
f 12 23 16
usemtl c23
f 12 16 24
f 12 24 13
usemtl c5
f 13 24 25
f 13 25 26
usemtl c24
f 13 26 14
usemtl c25
f 14 26 27
usemtl c26
f 14 27 15
usemtl c27
f 15 27 28
usemtl c24
f 15 28 24
usemtl c28
f 15 24 16
usemtl c20
f 22 21 16
usemtl c29
f 22 16 29
usemtl c30
f 22 29 30
usemtl c31
f 22 30 23
usemtl c32
f 23 30 29
usemtl c33
f 23 29 16
usemtl c34
f 16 21 17
usemtl c35
f 17 21 18
usemtl c36
f 18 21 19
usemtl c17
f 19 21 20
usemtl c5
f 28 25 24
usemtl c37
f 25 28 27
usemtl c24
f 25 27 26
usemtl c5
f 25 26 28
usemtl c38
f 25 28 31
usemtl c5
f 25 31 26
usemtl c24
f 26 31 32
usemtl c25
f 26 32 33
f 26 33 27
usemtl c24
f 26 27 28
usemtl c27
f 28 27 34
usemtl c37
f 28 34 31
usemtl c27
f 31 34 32
usemtl c26
f 32 34 33
f 33 34 27
