# Made by RuneLite Model-Dumper Plugin
mtllib black-dhide-body.mtl
o Item Black d'hide body 2026-09-24_17-11-32
v 7 7 -28
v -7 7 -28
v 0 8 -22
v 13 8 -22
v 7 3 -29
v 17 5 -27
v 17 3 -27
v 16 1 -22
v 0 1 -22
v -7 3 -29
v -16 1 -22
v -17 3 -27
v -17 5 -27
v -13 8 -22
v -11 4 24
v 11 4 24
v -18 7 -8
v -15 6 20
v -17 4 19
v -18 1 -8
v -15 2 20
v -11 0 22
v 11 0 22
v 18 1 -8
v 15 2 20
v 17 4 19
v 18 7 -8
v 15 6 20
v -6 8 -10
v 0 8 2
v 6 8 -10
v 2 8 -17
v -2 8 -17
v 4 8 -3
v 9 8 9
v 14 7 -3
v 11 8 -10
v 7 8 -10
v 1 8 -22
v 12 8 -22
v 9 7 -26
v 6 7 -26
v 7 8 -11
v -6 7 -26
v -9 7 -26
v -12 8 -22
v -1 8 -22
v -7 8 -11
v 1 8 6
v 4 8 13
v 7 8 6
v 5 8 1
v 2 8 1
v -7 8 6
v -4 8 13
v -1 8 6
v -2 8 1
v -5 8 1
v 5 8 15
v 8 4 24
v 11 8 15
v 9 8 10
v 7 8 10
v -11 8 15
v -8 4 24
v -5 8 15
v -7 8 10
v -9 8 10
v -3 8 13
v 0 8 20
v 3 8 13
v 1 8 8
v -1 8 8
v -18 2 0
v -17 4 12
v -18 6 0
v -18 4 -7
v -14 0 6
v -15 1 13
v -17 3 6
v -17 2 1
v -17 1 1
v -17 5 6
v -15 7 13
v -14 8 6
v -17 7 1
v -17 6 1
v -17 4 14
v -15 5 19
v -16 6 14
v -17 5 10
v -17 4 10
v -16 2 14
v -15 3 19
v -17 3 10
v -14 7 -3
v -9 8 9
v -4 8 -3
v -7 8 -10
v -11 8 -10
v 18 6 0
v 17 4 12
v 18 2 0
v 18 4 -7
v 17 3 6
v 15 1 13
v 14 0 6
v 17 1 1
v 17 2 1
v 14 8 6
v 15 7 13
v 17 5 6
v 17 6 1
v 17 7 1
v 16 6 14
v 15 5 19
v 17 4 14
v 17 4 10
v 17 5 10
v 15 3 19
v 16 2 14
v 17 3 10
usemtl c0
f 1 2 3
f 1 3 4
f 1 4 5
f 5 4 6
f 5 6 7
f 5 7 8
f 5 8 9
f 5 9 10
f 10 9 11
f 10 11 12
f 10 12 13
f 10 13 14
f 10 14 2
f 2 14 3
usemtl c1
f 2 3 1
usemtl c0
f 15 16 3
f 15 3 14
usemtl c2
f 15 14 17
f 15 17 18
usemtl c3
f 18 17 19
usemtl c4
f 19 17 20
f 19 20 21
usemtl c3
f 21 20 22
usemtl c2
f 22 20 11
usemtl c0
f 22 11 9
f 22 9 23
f 23 9 8
f 23 8 24
f 23 24 25
f 25 24 26
f 26 24 27
f 26 27 28
f 28 27 16
f 16 27 4
f 16 4 3
usemtl c2
f 17 14 13
usemtl c3
f 17 13 20
usemtl c2
f 20 13 12
f 20 12 11
usemtl c0
f 24 8 7
f 24 7 27
f 27 7 6
f 27 6 4
f 9 10 5
usemtl c5
f 29 30 31
f 29 31 32
f 29 32 33
usemtl c6
f 34 35 36
f 34 36 37
usemtl c5
f 34 37 38
usemtl c7
f 39 40 41
usemtl c8
f 39 41 42
usemtl c6
f 43 40 39
usemtl c8
f 44 45 46
usemtl c7
f 44 46 47
usemtl c6
f 47 46 48
usemtl c5
f 49 50 51
f 49 51 52
f 49 52 53
f 54 55 56
f 54 56 57
f 54 57 58
usemtl c9
f 59 60 61
usemtl c10
f 59 61 62
f 59 62 63
usemtl c9
f 64 65 66
usemtl c10
f 64 66 67
f 64 67 68
usemtl c5
f 69 70 71
f 69 71 72
f 69 72 73
usemtl c11
f 74 75 76
usemtl c12
f 74 76 77
usemtl c13
f 74 77 77
usemtl c14
f 78 79 80
usemtl c15
f 78 80 81
usemtl c16
f 78 81 82
usemtl c15
f 83 84 85
usemtl c17
f 83 85 86
f 83 86 87
usemtl c18
f 88 89 90
usemtl c19
f 88 90 91
usemtl c20
f 88 91 92
usemtl c19
f 88 92 93
usemtl c21
f 88 93 94
usemtl c22
f 92 95 93
usemtl c10
f 96 97 98
usemtl c23
f 96 98 99
f 96 99 100
usemtl c2
f 101 102 103
usemtl c24
f 101 103 104
usemtl c25
f 101 104 104
usemtl c0
f 105 106 107
f 105 107 108
f 105 108 109
usemtl c26
f 110 111 112
usemtl c25
f 110 112 113
f 110 113 114
usemtl c4
f 115 116 117
usemtl c0
f 115 117 118
f 115 118 119
f 117 120 121
f 117 121 122
f 117 122 118
