# Made by RuneLite Model-Dumper Plugin
mtllib wizard-hat.mtl
o Item Blue wizard hat 2026-09-24_17-59-55
v -7 6 17
v 7 6 17
v 6 20 10
v -9 11 12
v -10 4 6
v -9 11 0
v -8 4 -3
v 6 20 -2
v 8 4 -3
v 10 4 6
v 8 28 0
v 8 28 6
v -1 25 8
v -1 25 0
v 2 36 1
v 2 36 5
v -7 34 6
v -9 28 6
v -6 24 6
v -6 24 2
v -9 28 2
v -7 34 2
v -13 21 4
v -13 21 6
v 0 0 -15
v -11 3 -11
v -19 5 -8
v -22 7 -2
v -24 7 12
v -19 4 22
v -14 6 26
v -3 8 27
v 8 7 27
v 15 4 22
v 20 7 16
v 21 7 7
v 22 4 0
v 16 2 -7
v 10 3 -12
usemtl c0
f 1 2 3
usemtl c1
f 1 3 4
usemtl c2
f 1 4 5
usemtl c3
f 5 4 6
usemtl c4
f 5 6 7
usemtl c5
f 7 6 8
usemtl c6
f 7 8 9
usemtl c7
f 9 8 10
usemtl c8
f 10 8 3
usemtl c9
f 10 3 2
usemtl c8
f 3 8 11
usemtl c10
f 3 11 12
usemtl c11
f 3 12 13
usemtl c12
f 3 13 4
usemtl c13
f 4 13 6
usemtl c14
f 6 13 14
usemtl c15
f 6 14 8
usemtl c16
f 8 14 11
usemtl c17
f 11 14 15
usemtl c18
f 11 15 12
usemtl c19
f 12 15 16
usemtl c20
f 12 16 13
usemtl c21
f 13 16 17
usemtl c22
f 13 17 18
usemtl c21
f 13 18 19
usemtl c23
f 13 19 14
usemtl c24
f 14 19 20
usemtl c25
f 14 20 21
usemtl c26
f 14 21 22
usemtl c27
f 14 22 15
usemtl c28
f 15 22 16
usemtl c29
f 16 22 17
usemtl c30
f 17 22 18
usemtl c31
f 18 22 21
usemtl c4
f 18 21 23
usemtl c0
f 18 23 24
usemtl c32
f 18 24 19
usemtl c33
f 19 24 20
usemtl c34
f 20 24 23
usemtl c9
f 20 23 21
usemtl c35
f 25 26 27
usemtl c36
f 25 27 28
usemtl c37
f 25 28 29
usemtl c38
f 25 29 30
usemtl c39
f 25 30 31
f 25 31 32
usemtl c40
f 25 32 33
usemtl c41
f 25 33 34
usemtl c42
f 25 34 35
usemtl c43
f 25 35 36
usemtl c40
f 25 36 37
usemtl c44
f 25 37 38
usemtl c45
f 25 38 39
