# Made by RuneLite Model-Dumper Plugin
mtllib rune-rocks.mtl
o Object Runite rocks 2026-09-24_20-20-55
v -10 35 -53
v 32 79 -40
v 41 33 -56
v 41 10 -63
v -21 13 -59
v 7 32 -38
v 19 27 -14
v 45 27 -16
v 57 30 -41
v 62 7 -44
v 46 3 -13
v 14 3 -11
v 0 8 -41
v 8 31 32
v -48 -3 16
v -24 -11 56
v 56 -5 48
v 48 -3 24
v 8 0 8
v -24 41 -4
v -42 43 -13
v -48 2 -7
v -18 -1 8
v -15 44 -22
v -24 95 -22
v -51 48 -31
v -62 10 -36
v -33 49 -40
v -33 13 -51
v -4 5 -22
v 48 48 0
v 16 0 0
v 64 -3 24
v 64 2 -16
v 41 -3 45
v -44 -9 45
v -44 11 -45
v 41 11 -45
usemtl c0
f 1 2 3
usemtl c1
f 1 3 4
usemtl c2
f 1 4 5
usemtl c3
f 1 5 6
usemtl c4
f 1 6 2
usemtl c5
f 2 6 7
usemtl c6
f 2 7 8
usemtl c7
f 2 8 9
usemtl c8
f 2 9 3
usemtl c9
f 3 9 10
usemtl c10
f 3 10 4
usemtl c11
f 11 10 9
usemtl c12
f 11 9 8
usemtl c13
f 11 8 12
usemtl c14
f 12 8 7
usemtl c15
f 12 7 13
usemtl c16
f 13 7 6
usemtl c17
f 13 6 5
usemtl c18
f 14 15 16
usemtl c19
f 14 16 17
usemtl c20
f 14 17 18
usemtl c11
f 14 18 19
usemtl c21
f 14 19 15
usemtl c22
f 20 21 22
usemtl c23
f 20 22 23
usemtl c24
f 20 23 24
usemtl c25
f 20 24 25
usemtl c26
f 20 25 21
usemtl c27
f 21 25 26
usemtl c28
f 21 26 27
usemtl c17
f 21 27 22
usemtl c29
f 26 28 29
usemtl c30
f 26 29 27
usemtl c31
f 28 24 30
usemtl c32
f 28 30 29
usemtl c33
f 24 23 30
usemtl c34
f 26 25 28
usemtl c35
f 28 25 24
usemtl c30
f 31 32 33
usemtl c36
f 31 33 34
usemtl c37
f 31 34 32
usemtl c38
f 35 36 37
f 35 37 38
