# Made by RuneLite Model-Dumper Plugin
mtllib potter.mtl
o ware
v 40 72 48
v -32 72 48
v -32 0 48
v 40 0 48
v 40 72 -48
v 40 80 48
v 40 80 -48
v -32 80 -48
v -32 72 -48
v -32 0 -48
v 40 0 -48
v 24 80 -32
v 8 80 -40
v 0 80 -40
v -16 80 -32
v -24 80 -16
v -24 80 -8
v -16 80 8
v 0 80 16
v 8 80 16
v 24 80 8
v 32 80 -8
v 32 80 -16
v 32 72 -16
v 24 72 -32
v 8 72 -40
v 0 72 -40
v -16 72 -32
v -24 72 -16
v -24 72 -8
v -16 72 8
v 0 72 16
v 8 72 16
v 24 72 8
v 32 72 -8
v -32 80 48
v -40 80 56
v 48 80 56
v -8 96 28
v 0 96 20
v 0 72 24
v -6 72 30
v -8 96 36
v -6 72 34
v 8 96 20
v 8 72 24
v 16 96 28
v 14 72 30
v 16 96 36
v 14 72 34
v 8 96 44
v 8 72 40
v 0 96 44
v 0 72 40
v 14 74 30
v 8 74 24
v 0 74 24
v -6 74 30
v -6 74 34
v 0 74 40
v 8 74 40
v 14 74 34
v -40 80 -56
v -40 72 -56
v -40 72 56
v 48 80 -56
v 48 72 -56
v 48 72 56
v -40 80 -64
v -40 80 64
v 48 80 -64
v -48 80 72
v 48 80 72
v -48 80 -72
v 40 72 48
v 40 72 48
usemtl c0
f 1 2 3
f 1 3 4
f 1 4 5
f 1 5 2
f 1 2 6
f 1 6 7
f 1 7 5
f 5 7 8
f 5 8 9
f 5 9 2
f 2 9 10
f 2 10 3
f 9 5 11
f 9 11 10
f 5 4 11
usemtl c1
f 12 13 14
usemtl c2
f 12 14 15
usemtl c3
f 12 15 16
usemtl c4
f 12 16 17
usemtl c5
f 12 17 18
usemtl c6
f 12 18 19
usemtl c7
f 12 19 20
usemtl c8
f 12 20 21
usemtl c9
f 12 21 22
usemtl c10
f 12 22 23
usemtl c11
f 12 23 24
usemtl c12
f 12 24 25
usemtl c13
f 12 25 13
usemtl c14
f 13 25 26
usemtl c15
f 13 26 14
usemtl c16
f 14 26 27
usemtl c17
f 14 27 15
usemtl c18
f 15 27 28
usemtl c19
f 15 28 16
usemtl c20
f 16 28 29
usemtl c21
f 16 29 17
usemtl c22
f 17 29 30
usemtl c23
f 17 30 18
usemtl c24
f 18 30 31
usemtl c25
f 18 31 19
usemtl c26
f 19 31 32
usemtl c27
f 19 32 20
usemtl c28
f 20 32 33
usemtl c29
f 20 33 21
usemtl c30
f 21 33 34
usemtl c9
f 21 34 22
usemtl c10
f 22 34 35
usemtl c31
f 22 35 23
usemtl c32
f 23 35 24
usemtl c0
f 36 2 9
f 36 9 8
f 36 8 37
f 36 37 38
f 36 38 6
f 36 6 2
usemtl c33
f 39 40 41
usemtl c34
f 39 41 42
usemtl c35
f 39 42 43
usemtl c36
f 39 43 44
usemtl c37
f 39 44 42
usemtl c33
f 39 42 40
usemtl c34
f 40 42 41
usemtl c38
f 40 41 45
usemtl c39
f 40 45 46
usemtl c18
f 40 46 41
usemtl c40
f 41 46 45
usemtl c37
f 45 46 47
usemtl c41
f 45 47 48
f 45 48 46
usemtl c37
f 46 48 47
usemtl c40
f 47 48 49
usemtl c18
f 47 49 50
usemtl c39
f 47 50 48
usemtl c38
f 48 50 49
usemtl c34
f 49 50 51
f 49 51 52
usemtl c33
f 49 52 50
f 50 52 51
usemtl c18
f 51 52 53
usemtl c40
f 51 53 54
usemtl c38
f 51 54 52
usemtl c39
f 52 54 53
usemtl c38
f 53 54 43
usemtl c37
f 53 43 44
usemtl c42
f 53 44 54
usemtl c2
f 54 44 43
usemtl c43
f 43 42 44
usemtl c44
f 55 56 57
f 55 57 58
f 55 58 59
f 55 59 60
f 55 60 61
f 55 61 62
usemtl c0
f 63 64 65
f 63 65 37
f 63 37 8
f 63 8 7
f 63 7 66
f 63 66 64
f 64 66 67
f 67 66 38
f 67 38 68
f 68 38 37
f 68 37 65
f 66 7 6
f 66 6 38
