# Made by RuneLite Model-Dumper Plugin
mtllib curry.mtl
o Item Curry 2026-09-13_16-41-50
v 23 17 -13
v 6 1 -9
v 13 17 -23
v 13 25 -23
v 23 25 -13
v 27 17 0
v 13 1 -1
v 0 17 -27
v -4 1 -10
v -13 17 -23
v -13 25 -23
v 0 25 -27
v 0 25 -25
v 12 25 -21
v 21 25 -12
v 27 25 0
v 23 17 13
v 10 1 7
v -23 17 -13
v -12 1 -2
v -27 17 0
v -27 25 0
v -23 25 -13
v -21 25 -12
v -12 25 -21
v -11 19 -20
v 0 19 -24
v 11 19 -20
v 20 19 -11
v 25 25 0
v 23 25 13
v 13 17 23
v 3 1 11
v -23 17 13
v -8 1 8
v -13 17 23
v -13 25 23
v -23 25 13
v -21 25 12
v -25 25 0
v -24 19 0
v -20 19 -11
v 0 17 27
v 13 25 23
v 0 25 27
v 0 25 25
v -12 25 21
v -11 19 20
v -20 19 11
v 21 25 12
v 12 25 21
v 11 19 20
v 0 19 24
v 24 19 0
v 20 19 11
usemtl c0
f 1 2 3
usemtl c1
f 1 3 4
usemtl c2
f 1 4 5
usemtl c3
f 1 5 6
usemtl c0
f 1 6 7
f 1 7 2
usemtl c4
f 8 3 2
usemtl c5
f 8 2 9
usemtl c6
f 8 9 10
usemtl c7
f 8 10 11
usemtl c8
f 8 11 12
usemtl c9
f 8 12 3
usemtl c10
f 3 12 4
usemtl c11
f 4 12 13
usemtl c12
f 4 13 14
usemtl c13
f 4 14 5
usemtl c14
f 5 14 15
usemtl c15
f 5 15 16
usemtl c16
f 5 16 6
usemtl c17
f 6 16 17
usemtl c18
f 6 17 18
usemtl c19
f 6 18 7
usemtl c20
f 19 10 9
usemtl c21
f 19 9 20
usemtl c22
f 19 20 21
usemtl c23
f 19 21 22
usemtl c24
f 19 22 23
usemtl c25
f 19 23 10
usemtl c26
f 10 23 11
usemtl c27
f 11 23 24
f 11 24 25
usemtl c28
f 11 25 12
usemtl c29
f 12 25 13
usemtl c30
f 13 25 26
usemtl c31
f 13 26 27
usemtl c32
f 13 27 14
usemtl c33
f 14 27 28
usemtl c34
f 14 28 15
usemtl c35
f 15 28 29
usemtl c36
f 15 29 30
usemtl c37
f 15 30 16
usemtl c38
f 16 30 31
usemtl c39
f 16 31 17
usemtl c26
f 17 31 32
f 17 32 33
usemtl c40
f 17 33 18
usemtl c36
f 34 21 20
usemtl c41
f 34 20 35
usemtl c42
f 34 35 36
usemtl c43
f 34 36 37
usemtl c33
f 34 37 38
usemtl c44
f 34 38 21
usemtl c45
f 21 38 22
usemtl c46
f 22 38 39
usemtl c47
f 22 39 40
usemtl c29
f 22 40 23
usemtl c48
f 23 40 24
usemtl c49
f 24 40 41
usemtl c50
f 24 41 42
usemtl c51
f 24 42 25
usemtl c52
f 25 42 26
usemtl c53
f 26 42 29
usemtl c54
f 26 29 27
usemtl c55
f 27 29 28
usemtl c56
f 43 36 35
usemtl c57
f 43 35 33
usemtl c58
f 43 33 32
usemtl c59
f 43 32 44
usemtl c23
f 43 44 45
usemtl c60
f 43 45 36
usemtl c61
f 36 45 37
usemtl c62
f 37 45 46
usemtl c63
f 37 46 47
usemtl c37
f 37 47 38
usemtl c64
f 38 47 39
usemtl c65
f 39 47 48
usemtl c66
f 39 48 49
usemtl c67
f 39 49 40
usemtl c68
f 40 49 41
usemtl c69
f 41 49 29
usemtl c70
f 41 29 42
usemtl c71
f 31 44 32
usemtl c72
f 44 31 50
f 44 50 51
usemtl c73
f 44 51 45
usemtl c74
f 45 51 46
usemtl c75
f 46 51 52
usemtl c76
f 46 52 53
usemtl c77
f 46 53 47
usemtl c65
f 47 53 48
usemtl c78
f 48 53 29
usemtl c79
f 48 29 49
usemtl c73
f 30 50 31
usemtl c80
f 50 30 54
usemtl c59
f 50 54 55
usemtl c52
f 50 55 51
usemtl c81
f 51 55 52
usemtl c82
f 52 55 29
usemtl c83
f 52 29 53
usemtl c84
f 29 54 30
usemtl c85
f 54 29 55
