# Made by RuneLite Model-Dumper Plugin
mtllib dragon-spear.mtl
o Item Dragon spear 2026-09-24_13-41-27
v -56 2 -55
v -59 2 -51
v -59 5 -51
v -56 5 -55
v 12 0 14
v 9 0 18
v 9 7 18
v 12 7 14
v 22 6 27
v 22 2 27
v 21 2 28
v 21 6 28
v 26 6 28
v 25 6 25
v 25 2 26
v 26 2 28
v 23 2 32
v 20 2 32
v 20 6 31
v 23 6 32
v 30 7 34
v 31 6 30
v 31 6 28
v 31 2 28
v 27 2 25
v 27 6 25
v 30 7 21
v 26 6 21
v 26 2 21
v 15 2 32
v 15 6 32
v 20 6 33
v 19 2 32
v 21 2 37
v 21 6 37
v 24 6 37
v 27 7 36
v 30 8 41
v 34 8 36
v 30 2 34
v 32 3 30
v 36 1 29
v 36 8 29
v 36 7 24
v 36 1 24
v 27 2 36
v 24 3 38
v 23 1 43
v 18 1 43
v 18 7 43
v 23 8 43
v 30 0 41
v 46 5 51
v 35 0 37
v 15 2 36
v 9 4 28
v 15 7 36
v 30 2 21
v 21 4 13
v 47 4 35
v 31 4 53
usemtl c0
f 1 2 3
usemtl c1
f 1 3 4
usemtl c2
f 1 4 5
usemtl c3
f 1 5 6
usemtl c4
f 1 6 2
usemtl c5
f 2 6 7
usemtl c6
f 2 7 3
usemtl c7
f 3 7 4
usemtl c8
f 4 7 8
usemtl c9
f 4 8 5
usemtl c10
f 5 8 9
f 5 9 10
usemtl c11
f 5 10 6
usemtl c12
f 6 10 11
usemtl c13
f 6 11 7
usemtl c14
f 7 11 12
usemtl c15
f 7 12 8
usemtl c16
f 8 12 9
usemtl c17
f 9 12 13
usemtl c18
f 9 13 14
usemtl c19
f 9 14 10
usemtl c20
f 10 14 15
usemtl c21
f 10 15 16
f 10 16 17
usemtl c22
f 10 17 11
usemtl c23
f 11 17 18
usemtl c24
f 11 18 12
usemtl c25
f 12 18 19
usemtl c26
f 12 19 20
usemtl c27
f 12 20 13
usemtl c17
f 13 20 21
usemtl c28
f 13 21 22
usemtl c29
f 13 22 23
usemtl c30
f 13 23 24
usemtl c31
f 13 24 16
f 13 16 25
usemtl c21
f 13 25 26
usemtl c20
f 13 26 14
usemtl c32
f 14 26 27
usemtl c33
f 14 27 28
usemtl c34
f 14 28 15
usemtl c35
f 15 28 29
usemtl c36
f 15 29 25
usemtl c21
f 15 25 16
usemtl c19
f 19 18 30
usemtl c37
f 19 30 31
usemtl c38
f 19 31 32
usemtl c12
f 19 32 20
usemtl c39
f 20 32 33
usemtl c26
f 20 33 17
usemtl c40
f 20 17 34
usemtl c26
f 20 34 35
usemtl c41
f 20 35 36
usemtl c42
f 20 36 37
usemtl c39
f 20 37 21
usemtl c42
f 21 37 38
usemtl c17
f 21 38 39
usemtl c43
f 21 39 40
usemtl c31
f 21 40 41
usemtl c44
f 21 41 22
usemtl c26
f 22 41 42
usemtl c45
f 22 42 43
usemtl c41
f 22 43 23
usemtl c46
f 23 43 44
usemtl c21
f 23 44 24
usemtl c37
f 24 44 45
usemtl c47
f 24 45 41
f 24 41 16
usemtl c48
f 16 41 40
usemtl c49
f 16 40 46
usemtl c44
f 16 46 17
usemtl c16
f 17 46 47
usemtl c50
f 17 47 34
usemtl c51
f 34 47 48
usemtl c17
f 34 48 49
usemtl c26
f 34 49 35
usemtl c42
f 35 49 50
usemtl c24
f 35 50 36
usemtl c46
f 36 50 51
usemtl c19
f 36 51 47
usemtl c44
f 36 47 46
usemtl c35
f 36 46 37
usemtl c52
f 37 46 52
usemtl c53
f 37 52 38
usemtl c54
f 38 52 53
usemtl c55
f 38 53 39
usemtl c56
f 39 53 54
usemtl c57
f 39 54 40
usemtl c58
f 40 54 46
usemtl c59
f 46 54 52
usemtl c25
f 52 54 53
usemtl c60
f 18 33 55
usemtl c28
f 18 55 30
f 30 55 56
usemtl c51
f 30 56 31
usemtl c61
f 31 56 57
usemtl c62
f 31 57 32
usemtl c63
f 32 57 33
f 33 57 55
usemtl c60
f 55 57 56
usemtl c64
f 29 58 25
usemtl c31
f 25 58 26
usemtl c65
f 26 58 27
usemtl c19
f 27 58 59
usemtl c66
f 27 59 28
usemtl c39
f 28 59 29
usemtl c28
f 29 59 58
usemtl c46
f 33 18 17
usemtl c67
f 41 45 42
usemtl c68
f 42 45 60
usemtl c24
f 42 60 43
usemtl c68
f 43 60 44
usemtl c31
f 44 60 45
usemtl c69
f 51 48 47
usemtl c49
f 48 51 61
usemtl c68
f 48 61 49
usemtl c70
f 49 61 50
usemtl c71
f 50 61 51
