# Made by RuneLite Model-Dumper Plugin
mtllib staff.mtl
o Item Battlestaff 2026-09-24_17-23-25
v 27 -1 37
v 45 0 49
v 46 7 47
v 30 2 34
v 20 5 24
v 22 2 20
v 28 -3 34
v 46 -2 46
v 48 6 44
v 32 1 32
v 24 8 19
v 22 10 22
v -6 1 -2
v -4 -1 -6
v -3 2 -7
v -6 3 -3
v -29 2 -24
v -28 1 -27
v -27 4 -28
v -30 5 -25
v -59 6 -51
v -61 0 -49
v -57 -2 -54
v -56 3 -56
usemtl c0
f 1 2 3
usemtl c1
f 1 3 4
usemtl c2
f 1 4 5
usemtl c3
f 1 5 6
usemtl c4
f 1 6 7
usemtl c5
f 1 7 2
usemtl c6
f 2 7 8
usemtl c7
f 2 8 3
usemtl c8
f 3 8 9
usemtl c9
f 3 9 10
usemtl c10
f 3 10 4
usemtl c11
f 4 10 11
usemtl c12
f 4 11 12
usemtl c13
f 4 12 5
usemtl c14
f 5 12 13
usemtl c3
f 5 13 6
usemtl c15
f 6 13 14
usemtl c16
f 6 14 15
usemtl c17
f 6 15 11
usemtl c18
f 6 11 7
usemtl c19
f 7 11 10
usemtl c20
f 7 10 8
usemtl c21
f 8 10 9
usemtl c22
f 12 16 13
usemtl c23
f 13 16 17
usemtl c24
f 13 17 14
usemtl c25
f 14 17 18
usemtl c26
f 14 18 19
usemtl c27
f 14 19 15
usemtl c28
f 15 19 20
usemtl c29
f 15 20 16
usemtl c30
f 15 16 11
usemtl c29
f 11 16 12
usemtl c31
f 20 21 22
usemtl c13
f 20 22 17
usemtl c32
f 20 17 16
usemtl c33
f 17 20 19
usemtl c25
f 17 19 18
usemtl c34
f 18 23 24
usemtl c19
f 18 24 19
usemtl c11
f 19 24 21
usemtl c12
f 19 21 20
usemtl c35
f 22 23 18
usemtl c36
f 22 18 17
usemtl c37
f 21 24 23
usemtl c38
f 21 23 22
